<?xml version="1.0" encoding="us-ascii" standalone="no"?><svg xmlns="http://www.w3.org/2000/svg" xmlns:xlink="http://www.w3.org/1999/xlink" contentStyleType="text/css" height="418px" preserveAspectRatio="none" style="width:1353px;height:418px;background:#FFFFFF;" version="1.1" viewBox="0 0 1353 418" width="1353px" zoomAndPan="magnify"><defs/><g><!--class Topografia--><g id="elem_Topografia"><rect codeLine="3" fill="#F1F1F1" height="145.7813" id="Topografia" rx="2.5" ry="2.5" style="stroke:#181818;stroke-width:0.5;" width="266" x="646.5" y="10"/><ellipse cx="699.25" cy="26" fill="#A9DCDF" rx="11" ry="11" style="stroke:#181818;stroke-width:1.0;"/><path d="M701.3281,27.8125 L701.7188,28.7969 L701.3281,28.7969 C700.875,28.7969 700.7656,28.8125 700.6094,28.9219 C700.3594,29.0781 700.2031,29.3594 700.2031,29.6563 C700.2031,29.9219 700.3438,30.1719 700.5625,30.3281 C700.7031,30.4531 700.9063,30.5 701.3281,30.5 L703.6875,30.5 C704.0469,30.5 704.2656,30.4688 704.4063,30.375 C704.6563,30.2344 704.8125,29.9375 704.8125,29.6563 C704.8125,29.375 704.6719,29.125 704.4531,28.9688 C704.2813,28.8281 704.125,28.7969 703.6563,28.7969 L700.2656,20.5938 L696.5938,20.5938 C696.1406,20.5938 696.0156,20.6094 695.8594,20.7031 C695.6094,20.875 695.4531,21.1563 695.4531,21.4375 C695.4531,21.7188 695.5938,21.9688 695.8125,22.1406 C695.9844,22.25 696.1563,22.2813 696.5938,22.2813 L697.6719,22.2813 L695.0313,28.7969 C694.6094,28.7969 694.4531,28.8125 694.2969,28.9219 C694.0469,29.0781 693.8906,29.3594 693.8906,29.6563 C693.8906,30.2188 694.2656,30.5 695.0156,30.5 L697.2813,30.5 C697.6406,30.5 697.8594,30.4688 697.9844,30.375 C698.25,30.2344 698.3906,29.9375 698.3906,29.6563 C698.3906,29.375 698.2656,29.125 698.0469,28.9531 C697.875,28.8281 697.7344,28.7969 697.2813,28.7969 L696.8906,28.7969 L697.2813,27.8125 L701.3281,27.8125 Z M700.625,26.1094 L697.9531,26.1094 L699.2969,22.8438 L700.625,26.1094 Z " fill="#000000"/><text fill="#000000" font-family="sans-serif" font-size="14" font-style="italic" lengthAdjust="spacing" textLength="78" x="719.75" y="30.8467">Topografia</text><rect fill="#FFFFFF" height="15.9688" style="stroke:#181818;stroke-width:1.0;stroke-dasharray:2.0,2.0;" width="72" x="843.5" y="7"/><text fill="#000000" font-family="sans-serif" font-size="12" font-style="italic" lengthAdjust="spacing" textLength="70" x="844.5" y="19.1387">Component</text><line style="stroke:#181818;stroke-width:0.5;" x1="647.5" x2="911.5" y1="42" y2="42"/><line style="stroke:#181818;stroke-width:0.5;" x1="647.5" x2="911.5" y1="50" y2="50"/><text fill="#000000" font-family="sans-serif" font-size="14" font-style="italic" lengthAdjust="spacing" textLength="157" x="652.5" y="66.9951">+proporcionDeAgua()</text><text fill="#000000" font-family="sans-serif" font-size="14" font-style="italic" lengthAdjust="spacing" textLength="254" x="652.5" y="83.292">+sonIguales(Topografia topografia)</text><text fill="#000000" font-family="sans-serif" font-size="14" font-style="italic" lengthAdjust="spacing" textLength="94" x="652.5" y="99.5889">+igualAgua()</text><text fill="#000000" font-family="sans-serif" font-size="14" font-style="italic" lengthAdjust="spacing" textLength="100" x="652.5" y="115.8857">+igualTierra()</text><text fill="#000000" font-family="sans-serif" font-size="14" font-style="italic" lengthAdjust="spacing" textLength="95" x="652.5" y="132.1826">+igualMixta()</text><text fill="#000000" font-family="sans-serif" font-size="14" font-style="italic" lengthAdjust="spacing" textLength="115" x="652.5" y="148.4795">+igualPantano()</text></g><!--class Agua--><g id="elem_Agua"><rect codeLine="13" fill="#F1F1F1" height="145.7813" id="Agua" rx="2.5" ry="2.5" style="stroke:#181818;stroke-width:0.5;" width="313" x="7" y="249"/><ellipse cx="127.25" cy="265" fill="#ADD1B2" rx="11" ry="11" style="stroke:#181818;stroke-width:1.0;"/><path d="M129.5938,260.6719 C128.6563,260.2344 128.0625,260.0938 127.1875,260.0938 C124.5625,260.0938 122.5625,262.1719 122.5625,264.8906 L122.5625,266.0156 C122.5625,268.5938 124.6719,270.4844 127.5625,270.4844 C128.7813,270.4844 129.9375,270.1875 130.6875,269.6406 C131.2656,269.2344 131.5938,268.7813 131.5938,268.3906 C131.5938,267.9375 131.2031,267.5469 130.7344,267.5469 C130.5156,267.5469 130.3125,267.625 130.125,267.8125 C129.6719,268.2969 129.6719,268.2969 129.4844,268.3906 C129.0625,268.6563 128.375,268.7813 127.6094,268.7813 C125.5625,268.7813 124.2656,267.6875 124.2656,265.9844 L124.2656,264.8906 C124.2656,263.1094 125.5156,261.7969 127.25,261.7969 C127.8281,261.7969 128.4375,261.9531 128.9063,262.2031 C129.3906,262.4844 129.5625,262.7031 129.6563,263.1094 C129.7188,263.5156 129.75,263.6406 129.8906,263.7656 C130.0313,263.9063 130.2656,264.0156 130.4844,264.0156 C130.75,264.0156 131.0156,263.875 131.1875,263.6563 C131.2969,263.5 131.3281,263.3125 131.3281,262.8906 L131.3281,261.4688 C131.3281,261.0313 131.3125,260.9063 131.2188,260.75 C131.0625,260.4844 130.7813,260.3438 130.4844,260.3438 C130.1875,260.3438 129.9844,260.4375 129.7656,260.75 L129.5938,260.6719 Z " fill="#000000"/><text fill="#000000" font-family="sans-serif" font-size="14" lengthAdjust="spacing" textLength="35" x="147.75" y="269.8467">Agua</text><rect fill="#FFFFFF" height="15.9688" style="stroke:#181818;stroke-width:1.0;stroke-dasharray:2.0,2.0;" width="27" x="296" y="246"/><text fill="#000000" font-family="sans-serif" font-size="12" font-style="italic" lengthAdjust="spacing" textLength="25" x="297" y="258.1387">Leaf</text><line style="stroke:#181818;stroke-width:0.5;" x1="8" x2="319" y1="281" y2="281"/><line style="stroke:#181818;stroke-width:0.5;" x1="8" x2="319" y1="289" y2="289"/><text fill="#000000" font-family="sans-serif" font-size="14" lengthAdjust="spacing" textLength="194" x="13" y="305.9951">+proporcionAgua(): double</text><text fill="#000000" font-family="sans-serif" font-size="14" lengthAdjust="spacing" textLength="301" x="13" y="322.292">+sonIguales(Topografia tografia): boolean</text><text fill="#000000" font-family="sans-serif" font-size="14" lengthAdjust="spacing" textLength="156" x="13" y="338.5889">+igualAgua(): boolean</text><text fill="#000000" font-family="sans-serif" font-size="14" lengthAdjust="spacing" textLength="163" x="13" y="354.8857">+igualTierra(): boolean</text><text fill="#000000" font-family="sans-serif" font-size="14" lengthAdjust="spacing" textLength="279" x="13" y="371.1826">+igualMixta(Mixta topografia): boolean</text><text fill="#000000" font-family="sans-serif" font-size="14" lengthAdjust="spacing" textLength="180" x="13" y="387.4795">+igualPantano(): boolean</text></g><!--class Tierra--><g id="elem_Tierra"><rect codeLine="22" fill="#F1F1F1" height="145.7813" id="Tierra" rx="2.5" ry="2.5" style="stroke:#181818;stroke-width:0.5;" width="291" x="355" y="249"/><ellipse cx="460.75" cy="265" fill="#ADD1B2" rx="11" ry="11" style="stroke:#181818;stroke-width:1.0;"/><path d="M463.0938,260.6719 C462.1563,260.2344 461.5625,260.0938 460.6875,260.0938 C458.0625,260.0938 456.0625,262.1719 456.0625,264.8906 L456.0625,266.0156 C456.0625,268.5938 458.1719,270.4844 461.0625,270.4844 C462.2813,270.4844 463.4375,270.1875 464.1875,269.6406 C464.7656,269.2344 465.0938,268.7813 465.0938,268.3906 C465.0938,267.9375 464.7031,267.5469 464.2344,267.5469 C464.0156,267.5469 463.8125,267.625 463.625,267.8125 C463.1719,268.2969 463.1719,268.2969 462.9844,268.3906 C462.5625,268.6563 461.875,268.7813 461.1094,268.7813 C459.0625,268.7813 457.7656,267.6875 457.7656,265.9844 L457.7656,264.8906 C457.7656,263.1094 459.0156,261.7969 460.75,261.7969 C461.3281,261.7969 461.9375,261.9531 462.4063,262.2031 C462.8906,262.4844 463.0625,262.7031 463.1563,263.1094 C463.2188,263.5156 463.25,263.6406 463.3906,263.7656 C463.5313,263.9063 463.7656,264.0156 463.9844,264.0156 C464.25,264.0156 464.5156,263.875 464.6875,263.6563 C464.7969,263.5 464.8281,263.3125 464.8281,262.8906 L464.8281,261.4688 C464.8281,261.0313 464.8125,260.9063 464.7188,260.75 C464.5625,260.4844 464.2813,260.3438 463.9844,260.3438 C463.6875,260.3438 463.4844,260.4375 463.2656,260.75 L463.0938,260.6719 Z " fill="#000000"/><text fill="#000000" font-family="sans-serif" font-size="14" lengthAdjust="spacing" textLength="42" x="481.25" y="269.8467">Tierra</text><rect fill="#FFFFFF" height="15.9688" style="stroke:#181818;stroke-width:1.0;stroke-dasharray:2.0,2.0;" width="27" x="622" y="246"/><text fill="#000000" font-family="sans-serif" font-size="12" font-style="italic" lengthAdjust="spacing" textLength="25" x="623" y="258.1387">Leaf</text><line style="stroke:#181818;stroke-width:0.5;" x1="356" x2="645" y1="281" y2="281"/><line style="stroke:#181818;stroke-width:0.5;" x1="356" x2="645" y1="289" y2="289"/><text fill="#000000" font-family="sans-serif" font-size="14" lengthAdjust="spacing" textLength="194" x="361" y="305.9951">+proporcionAgua(): double</text><text fill="#000000" font-family="sans-serif" font-size="14" lengthAdjust="spacing" textLength="162" x="361" y="322.292">+sonIguales(): boolean</text><text fill="#000000" font-family="sans-serif" font-size="14" lengthAdjust="spacing" textLength="156" x="361" y="338.5889">+igualAgua(): boolean</text><text fill="#000000" font-family="sans-serif" font-size="14" lengthAdjust="spacing" textLength="163" x="361" y="354.8857">+igualTierra(): boolean</text><text fill="#000000" font-family="sans-serif" font-size="14" lengthAdjust="spacing" textLength="279" x="361" y="371.1826">+igualMixta(Mixta topografia): boolean</text><text fill="#000000" font-family="sans-serif" font-size="14" lengthAdjust="spacing" textLength="180" x="361" y="387.4795">+igualPantano(): boolean</text></g><!--class Mixta--><g id="elem_Mixta"><rect codeLine="31" fill="#F1F1F1" height="178.375" id="Mixta" rx="2.5" ry="2.5" style="stroke:#181818;stroke-width:0.5;" width="313" x="681" y="233"/><ellipse cx="780.25" cy="249" fill="#ADD1B2" rx="11" ry="11" style="stroke:#181818;stroke-width:1.0;"/><path d="M782.5938,244.6719 C781.6563,244.2344 781.0625,244.0938 780.1875,244.0938 C777.5625,244.0938 775.5625,246.1719 775.5625,248.8906 L775.5625,250.0156 C775.5625,252.5938 777.6719,254.4844 780.5625,254.4844 C781.7813,254.4844 782.9375,254.1875 783.6875,253.6406 C784.2656,253.2344 784.5938,252.7813 784.5938,252.3906 C784.5938,251.9375 784.2031,251.5469 783.7344,251.5469 C783.5156,251.5469 783.3125,251.625 783.125,251.8125 C782.6719,252.2969 782.6719,252.2969 782.4844,252.3906 C782.0625,252.6563 781.375,252.7813 780.6094,252.7813 C778.5625,252.7813 777.2656,251.6875 777.2656,249.9844 L777.2656,248.8906 C777.2656,247.1094 778.5156,245.7969 780.25,245.7969 C780.8281,245.7969 781.4375,245.9531 781.9063,246.2031 C782.3906,246.4844 782.5625,246.7031 782.6563,247.1094 C782.7188,247.5156 782.75,247.6406 782.8906,247.7656 C783.0313,247.9063 783.2656,248.0156 783.4844,248.0156 C783.75,248.0156 784.0156,247.875 784.1875,247.6563 C784.2969,247.5 784.3281,247.3125 784.3281,246.8906 L784.3281,245.4688 C784.3281,245.0313 784.3125,244.9063 784.2188,244.75 C784.0625,244.4844 783.7813,244.3438 783.4844,244.3438 C783.1875,244.3438 782.9844,244.4375 782.7656,244.75 L782.5938,244.6719 Z " fill="#000000"/><text fill="#000000" font-family="sans-serif" font-size="14" lengthAdjust="spacing" textLength="39" x="800.75" y="253.8467">Mixta</text><rect fill="#FFFFFF" height="15.9688" style="stroke:#181818;stroke-width:1.0;stroke-dasharray:2.0,2.0;" width="65" x="932" y="230"/><text fill="#000000" font-family="sans-serif" font-size="12" font-style="italic" lengthAdjust="spacing" textLength="63" x="933" y="242.1387">Composite</text><line style="stroke:#181818;stroke-width:0.5;" x1="682" x2="993" y1="265" y2="265"/><line style="stroke:#181818;stroke-width:0.5;" x1="682" x2="993" y1="273" y2="273"/><text fill="#000000" font-family="sans-serif" font-size="14" lengthAdjust="spacing" textLength="270" x="687" y="289.9951">+&#171;create&#187;Mixta(Topografia[4] partes)</text><text fill="#000000" font-family="sans-serif" font-size="14" lengthAdjust="spacing" textLength="194" x="687" y="306.292">+proporcionAgua(): double</text><text fill="#000000" font-family="sans-serif" font-size="14" lengthAdjust="spacing" textLength="154" x="687" y="322.5889">-totalDeAgua: double</text><text fill="#000000" font-family="sans-serif" font-size="14" lengthAdjust="spacing" textLength="301" x="687" y="338.8857">+sonIguales(Topografia tografia): boolean</text><text fill="#000000" font-family="sans-serif" font-size="14" lengthAdjust="spacing" textLength="156" x="687" y="355.1826">+igualAgua(): boolean</text><text fill="#000000" font-family="sans-serif" font-size="14" lengthAdjust="spacing" textLength="163" x="687" y="371.4795">+igualTierra(): boolean</text><text fill="#000000" font-family="sans-serif" font-size="14" lengthAdjust="spacing" textLength="279" x="687" y="387.7764">+igualMixta(Mixta topografia): boolean</text><text fill="#000000" font-family="sans-serif" font-size="14" lengthAdjust="spacing" textLength="180" x="687" y="404.0732">+igualPantano(): boolean</text></g><!--class Pantano--><g id="elem_Pantano"><rect codeLine="43" fill="#F1F1F1" height="145.7813" id="Pantano" rx="2.5" ry="2.5" style="stroke:#181818;stroke-width:0.5;" width="313" x="1029" y="249"/><ellipse cx="1139.25" cy="265" fill="#ADD1B2" rx="11" ry="11" style="stroke:#181818;stroke-width:1.0;"/><path d="M1141.5938,260.6719 C1140.6563,260.2344 1140.0625,260.0938 1139.1875,260.0938 C1136.5625,260.0938 1134.5625,262.1719 1134.5625,264.8906 L1134.5625,266.0156 C1134.5625,268.5938 1136.6719,270.4844 1139.5625,270.4844 C1140.7813,270.4844 1141.9375,270.1875 1142.6875,269.6406 C1143.2656,269.2344 1143.5938,268.7813 1143.5938,268.3906 C1143.5938,267.9375 1143.2031,267.5469 1142.7344,267.5469 C1142.5156,267.5469 1142.3125,267.625 1142.125,267.8125 C1141.6719,268.2969 1141.6719,268.2969 1141.4844,268.3906 C1141.0625,268.6563 1140.375,268.7813 1139.6094,268.7813 C1137.5625,268.7813 1136.2656,267.6875 1136.2656,265.9844 L1136.2656,264.8906 C1136.2656,263.1094 1137.5156,261.7969 1139.25,261.7969 C1139.8281,261.7969 1140.4375,261.9531 1140.9063,262.2031 C1141.3906,262.4844 1141.5625,262.7031 1141.6563,263.1094 C1141.7188,263.5156 1141.75,263.6406 1141.8906,263.7656 C1142.0313,263.9063 1142.2656,264.0156 1142.4844,264.0156 C1142.75,264.0156 1143.0156,263.875 1143.1875,263.6563 C1143.2969,263.5 1143.3281,263.3125 1143.3281,262.8906 L1143.3281,261.4688 C1143.3281,261.0313 1143.3125,260.9063 1143.2188,260.75 C1143.0625,260.4844 1142.7813,260.3438 1142.4844,260.3438 C1142.1875,260.3438 1141.9844,260.4375 1141.7656,260.75 L1141.5938,260.6719 Z " fill="#000000"/><text fill="#000000" font-family="sans-serif" font-size="14" lengthAdjust="spacing" textLength="59" x="1159.75" y="269.8467">Pantano</text><rect fill="#FFFFFF" height="15.9688" style="stroke:#181818;stroke-width:1.0;stroke-dasharray:2.0,2.0;" width="23" x="1322" y="246"/><text fill="#000000" font-family="sans-serif" font-size="12" font-style="italic" lengthAdjust="spacing" textLength="21" x="1323" y="258.1387">leaf</text><line style="stroke:#181818;stroke-width:0.5;" x1="1030" x2="1341" y1="281" y2="281"/><line style="stroke:#181818;stroke-width:0.5;" x1="1030" x2="1341" y1="289" y2="289"/><text fill="#000000" font-family="sans-serif" font-size="14" lengthAdjust="spacing" textLength="194" x="1035" y="305.9951">+proporcionAgua(): double</text><text fill="#000000" font-family="sans-serif" font-size="14" lengthAdjust="spacing" textLength="301" x="1035" y="322.292">+sonIguales(Topografia tografia): boolean</text><text fill="#000000" font-family="sans-serif" font-size="14" lengthAdjust="spacing" textLength="156" x="1035" y="338.5889">+igualAgua(): boolean</text><text fill="#000000" font-family="sans-serif" font-size="14" lengthAdjust="spacing" textLength="163" x="1035" y="354.8857">+igualTierra(): boolean</text><text fill="#000000" font-family="sans-serif" font-size="14" lengthAdjust="spacing" textLength="279" x="1035" y="371.1826">+igualMixta(Mixta topografia): boolean</text><text fill="#000000" font-family="sans-serif" font-size="14" lengthAdjust="spacing" textLength="180" x="1035" y="387.4795">+igualPantano(): boolean</text></g><!--reverse link Topografia to Agua--><g id="link_Topografia_Agua"><path codeLine="52" d="M628.9632,128.8219 C540.2872,156.4029 439.079,190.449 337.5,233 C325.791,237.905 313.779,243.261 301.804,248.831 " fill="none" id="Topografia-backto-Agua" style="stroke:#181818;stroke-width:1.0;"/><polygon fill="none" points="646.151,123.476,627.1812,123.0927,630.7452,134.5512,646.151,123.476" style="stroke:#181818;stroke-width:1.0;"/></g><!--reverse link Topografia to Tierra--><g id="link_Topografia_Tierra"><path codeLine="53" d="M680.9356,167.7266 C646.3076,197.1426 620.059,219.439 585.423,248.861 " fill="none" id="Topografia-backto-Tierra" style="stroke:#181818;stroke-width:1.0;"/><polygon fill="none" points="694.654,156.073,677.0511,163.1538,684.8201,172.2994,694.654,156.073" style="stroke:#181818;stroke-width:1.0;"/></g><!--reverse link Topografia to Mixta--><g id="link_Topografia_Mixta"><path codeLine="54" d="M794.8222,173.6996 C797.7842,189.2636 797.812,187.896 801.5,203 C803.862,212.675 806.554,222.729 809.378,232.704 " fill="none" id="Topografia-backto-Mixta" style="stroke:#181818;stroke-width:1.0;"/><polygon fill="none" points="791.457,156.017,788.928,174.8214,800.7164,172.5779,791.457,156.017" style="stroke:#181818;stroke-width:1.0;"/></g><!--link Topografia to Mixta--><g id="link_Topografia_Mixta"><path codeLine="55" d="M798.5644,161.901 C804.4974,186.142 806.9032,195.978 813.1022,221.306 " fill="none" id="Topografia-Mixta" style="stroke:#181818;stroke-width:1.0;"/><polygon fill="#181818" points="797.138,156.073,795.3923,165.7659,798.3267,160.9297,803.1629,163.864,797.138,156.073" style="stroke:#181818;stroke-width:1.0;"/><polygon fill="#181818" points="815.955,232.962,818.4139,226.1831,813.1022,221.306,810.6433,228.0849,815.955,232.962" style="stroke:#181818;stroke-width:1.0;"/><text fill="#000000" font-family="sans-serif" font-size="13" lengthAdjust="spacing" textLength="63" x="809.5" y="199.0669">partes [4]</text></g><!--reverse link Topografia to Pantano--><g id="link_Topografia_Pantano"><path codeLine="56" d="M918.5122,165.1474 C968.9042,194.5634 1011.52,219.439 1061.92,248.861 " fill="none" id="Topografia-backto-Pantano" style="stroke:#181818;stroke-width:1.0;"/><polygon fill="none" points="902.967,156.073,915.4874,170.3292,921.5371,159.9657,902.967,156.073" style="stroke:#181818;stroke-width:1.0;"/></g><!--SRC=[vLHDIyGm4BttLynnLobuy5JAGj7BWeBWtiJ3j3kx1jEa95CGr_tlfatiXxKBWXVPImdptdoyrqdigr0L6YoXa6Xjncn4NZEj2wqUnJl1LHHbkMM31SD6LtflS2SGqXjTLbgHujKXYW0E64X7k8JAEA8fX5QtbErhN2o_CwnMQmT8iej1KUwEamJHi7-krK8RGSRCWVVYZUUm1rICIZlq64Mj1z2qWVIESEUqkPoI-4LlnyByA0biTPrB6hFcn0Lf2UHQIq8rpXeeFCNu4dgAu_Mstw6dfr8w6tfIvuTl-KUE_3_vlf1VU2kOmiBt5TAqC8GEMFdE_Kz_kdu6TxkOxFBtjiLkU4Rfhz1vR5h089NDgi6PtxxXS_iHn-sxD0dwYIRXjlqe6iSNFfg4bGItdPEyCCad]--></g></svg>