<?xml version="1.0" encoding="us-ascii" standalone="no"?><svg xmlns="http://www.w3.org/2000/svg" xmlns:xlink="http://www.w3.org/1999/xlink" contentStyleType="text/css" height="672px" preserveAspectRatio="none" style="width:1103px;height:672px;background:#FFFFFF;" version="1.1" viewBox="0 0 1103 672" width="1103px" zoomAndPan="magnify"><defs/><g><!--class Pending--><g id="elem_Pending"><rect codeLine="1" fill="#F1F1F1" height="162.0781" id="Pending" rx="2.5" ry="2.5" style="stroke:#181818;stroke-width:0.5;" width="245" x="7" y="503.05"/><ellipse cx="49.45" cy="519.05" fill="#ADD1B2" rx="11" ry="11" style="stroke:#181818;stroke-width:1.0;"/><path d="M52.4188,524.6906 Q51.8406,524.9875 51.2,525.1281 Q50.5594,525.2844 49.8563,525.2844 Q47.3563,525.2844 46.0281,523.6438 Q44.7156,521.9875 44.7156,518.8625 Q44.7156,515.7375 46.0281,514.0813 Q47.3563,512.425 49.8563,512.425 Q50.5594,512.425 51.2,512.5813 Q51.8563,512.7375 52.4188,513.0344 L52.4188,515.7531 Q51.7938,515.175 51.2,514.9094 Q50.6063,514.6281 49.9813,514.6281 Q48.6375,514.6281 47.95,515.7063 Q47.2625,516.7688 47.2625,518.8625 Q47.2625,520.9563 47.95,522.0344 Q48.6375,523.0969 49.9813,523.0969 Q50.6063,523.0969 51.2,522.8313 Q51.7938,522.55 52.4188,521.9719 L52.4188,524.6906 Z " fill="#000000"/><text fill="#000000" font-family="sans-serif" font-size="14" lengthAdjust="spacing" textLength="57" x="69.55" y="523.8967">Pending</text><rect fill="#FFFFFF" height="15.9688" style="stroke:#181818;stroke-width:1.0;stroke-dasharray:2.0,2.0;" width="93" x="162" y="500.05"/><text fill="#000000" font-family="sans-serif" font-size="12" font-style="italic" lengthAdjust="spacing" textLength="91" x="163" y="512.1887">ConcreteState</text><line style="stroke:#181818;stroke-width:0.5;" x1="8" x2="251" y1="535.05" y2="535.05"/><rect fill="none" height="6" style="stroke:#C82930;stroke-width:1.0;" width="6" x="15" y="545.6984"/><text fill="#000000" font-family="sans-serif" font-size="14" lengthAdjust="spacing" text-decoration="underline" textLength="176" x="27" y="552.0451">NOMBRE_ESTADO: String</text><line style="stroke:#181818;stroke-width:0.5;" x1="8" x2="251" y1="559.3469" y2="559.3469"/><ellipse cx="18" cy="572.9953" fill="#84BE84" rx="3" ry="3" style="stroke:#038048;stroke-width:1.0;"/><text fill="#000000" font-family="sans-serif" font-size="14" lengthAdjust="spacing" text-decoration="underline" textLength="185" x="27" y="576.342">getNombreEstado(): String</text><ellipse cx="18" cy="589.2922" fill="#84BE84" rx="3" ry="3" style="stroke:#038048;stroke-width:1.0;"/><text fill="#000000" font-family="sans-serif" font-size="14" lengthAdjust="spacing" textLength="41" x="27" y="592.6389">start()</text><ellipse cx="18" cy="605.5891" fill="#84BE84" rx="3" ry="3" style="stroke:#038048;stroke-width:1.0;"/><text fill="#000000" font-family="sans-serif" font-size="14" lengthAdjust="spacing" textLength="106" x="27" y="608.9357">togglePaused()</text><ellipse cx="18" cy="621.8859" fill="#84BE84" rx="3" ry="3" style="stroke:#038048;stroke-width:1.0;"/><text fill="#000000" font-family="sans-serif" font-size="14" lengthAdjust="spacing" textLength="163" x="27" y="625.2326">workedTime(): Duration</text><ellipse cx="18" cy="638.1828" fill="#84BE84" rx="3" ry="3" style="stroke:#038048;stroke-width:1.0;"/><text fill="#000000" font-family="sans-serif" font-size="14" lengthAdjust="spacing" textLength="46" x="27" y="641.5295">finish()</text><ellipse cx="18" cy="654.4797" fill="#84BE84" rx="3" ry="3" style="stroke:#038048;stroke-width:1.0;"/><text fill="#000000" font-family="sans-serif" font-size="14" lengthAdjust="spacing" textLength="219" x="27" y="657.8264">addComment(comment: String)</text></g><!--class Paused--><g id="elem_Paused"><rect codeLine="12" fill="#F1F1F1" height="162.0781" id="Paused" rx="2.5" ry="2.5" style="stroke:#181818;stroke-width:0.5;" width="245" x="287" y="503.05"/><ellipse cx="331.75" cy="519.05" fill="#ADD1B2" rx="11" ry="11" style="stroke:#181818;stroke-width:1.0;"/><path d="M334.7188,524.6906 Q334.1406,524.9875 333.5,525.1281 Q332.8594,525.2844 332.1563,525.2844 Q329.6563,525.2844 328.3281,523.6438 Q327.0156,521.9875 327.0156,518.8625 Q327.0156,515.7375 328.3281,514.0813 Q329.6563,512.425 332.1563,512.425 Q332.8594,512.425 333.5,512.5813 Q334.1563,512.7375 334.7188,513.0344 L334.7188,515.7531 Q334.0938,515.175 333.5,514.9094 Q332.9063,514.6281 332.2813,514.6281 Q330.9375,514.6281 330.25,515.7063 Q329.5625,516.7688 329.5625,518.8625 Q329.5625,520.9563 330.25,522.0344 Q330.9375,523.0969 332.2813,523.0969 Q332.9063,523.0969 333.5,522.8313 Q334.0938,522.55 334.7188,521.9719 L334.7188,524.6906 Z " fill="#000000"/><text fill="#000000" font-family="sans-serif" font-size="14" lengthAdjust="spacing" textLength="52" x="352.25" y="523.8967">Paused</text><rect fill="#FFFFFF" height="15.9688" style="stroke:#181818;stroke-width:1.0;stroke-dasharray:2.0,2.0;" width="93" x="442" y="500.05"/><text fill="#000000" font-family="sans-serif" font-size="12" font-style="italic" lengthAdjust="spacing" textLength="91" x="443" y="512.1887">ConcreteState</text><line style="stroke:#181818;stroke-width:0.5;" x1="288" x2="531" y1="535.05" y2="535.05"/><rect fill="none" height="6" style="stroke:#C82930;stroke-width:1.0;" width="6" x="295" y="545.6984"/><text fill="#000000" font-family="sans-serif" font-size="14" lengthAdjust="spacing" text-decoration="underline" textLength="176" x="307" y="552.0451">NOMBRE_ESTADO: String</text><line style="stroke:#181818;stroke-width:0.5;" x1="288" x2="531" y1="559.3469" y2="559.3469"/><ellipse cx="298" cy="572.9953" fill="#84BE84" rx="3" ry="3" style="stroke:#038048;stroke-width:1.0;"/><text fill="#000000" font-family="sans-serif" font-size="14" lengthAdjust="spacing" text-decoration="underline" textLength="185" x="307" y="576.342">getNombreEstado(): String</text><ellipse cx="298" cy="589.2922" fill="#84BE84" rx="3" ry="3" style="stroke:#038048;stroke-width:1.0;"/><text fill="#000000" font-family="sans-serif" font-size="14" lengthAdjust="spacing" textLength="41" x="307" y="592.6389">start()</text><ellipse cx="298" cy="605.5891" fill="#84BE84" rx="3" ry="3" style="stroke:#038048;stroke-width:1.0;"/><text fill="#000000" font-family="sans-serif" font-size="14" lengthAdjust="spacing" textLength="106" x="307" y="608.9357">togglePaused()</text><ellipse cx="298" cy="621.8859" fill="#84BE84" rx="3" ry="3" style="stroke:#038048;stroke-width:1.0;"/><text fill="#000000" font-family="sans-serif" font-size="14" lengthAdjust="spacing" textLength="163" x="307" y="625.2326">workedTime(): Duration</text><ellipse cx="298" cy="638.1828" fill="#84BE84" rx="3" ry="3" style="stroke:#038048;stroke-width:1.0;"/><text fill="#000000" font-family="sans-serif" font-size="14" lengthAdjust="spacing" textLength="46" x="307" y="641.5295">finish()</text><ellipse cx="298" cy="654.4797" fill="#84BE84" rx="3" ry="3" style="stroke:#038048;stroke-width:1.0;"/><text fill="#000000" font-family="sans-serif" font-size="14" lengthAdjust="spacing" textLength="219" x="307" y="657.8264">addComment(comment: String)</text></g><!--class InProgress--><g id="elem_InProgress"><rect codeLine="23" fill="#F1F1F1" height="162.0781" id="InProgress" rx="2.5" ry="2.5" style="stroke:#181818;stroke-width:0.5;" width="245" x="567" y="503.05"/><ellipse cx="601.8" cy="519.05" fill="#ADD1B2" rx="11" ry="11" style="stroke:#181818;stroke-width:1.0;"/><path d="M604.7688,524.6906 Q604.1906,524.9875 603.55,525.1281 Q602.9094,525.2844 602.2063,525.2844 Q599.7063,525.2844 598.3781,523.6438 Q597.0656,521.9875 597.0656,518.8625 Q597.0656,515.7375 598.3781,514.0813 Q599.7063,512.425 602.2063,512.425 Q602.9094,512.425 603.55,512.5813 Q604.2063,512.7375 604.7688,513.0344 L604.7688,515.7531 Q604.1438,515.175 603.55,514.9094 Q602.9563,514.6281 602.3313,514.6281 Q600.9875,514.6281 600.3,515.7063 Q599.6125,516.7688 599.6125,518.8625 Q599.6125,520.9563 600.3,522.0344 Q600.9875,523.0969 602.3313,523.0969 Q602.9563,523.0969 603.55,522.8313 Q604.1438,522.55 604.7688,521.9719 L604.7688,524.6906 Z " fill="#000000"/><text fill="#000000" font-family="sans-serif" font-size="14" lengthAdjust="spacing" textLength="74" x="620.2" y="523.8967">InProgress</text><rect fill="#FFFFFF" height="15.9688" style="stroke:#181818;stroke-width:1.0;stroke-dasharray:2.0,2.0;" width="93" x="722" y="500.05"/><text fill="#000000" font-family="sans-serif" font-size="12" font-style="italic" lengthAdjust="spacing" textLength="91" x="723" y="512.1887">ConcreteState</text><line style="stroke:#181818;stroke-width:0.5;" x1="568" x2="811" y1="535.05" y2="535.05"/><rect fill="none" height="6" style="stroke:#C82930;stroke-width:1.0;" width="6" x="575" y="545.6984"/><text fill="#000000" font-family="sans-serif" font-size="14" lengthAdjust="spacing" text-decoration="underline" textLength="176" x="587" y="552.0451">NOMBRE_ESTADO: String</text><line style="stroke:#181818;stroke-width:0.5;" x1="568" x2="811" y1="559.3469" y2="559.3469"/><ellipse cx="578" cy="572.9953" fill="#84BE84" rx="3" ry="3" style="stroke:#038048;stroke-width:1.0;"/><text fill="#000000" font-family="sans-serif" font-size="14" lengthAdjust="spacing" text-decoration="underline" textLength="136" x="587" y="576.342">getNombreEstado()</text><ellipse cx="578" cy="589.2922" fill="#84BE84" rx="3" ry="3" style="stroke:#038048;stroke-width:1.0;"/><text fill="#000000" font-family="sans-serif" font-size="14" lengthAdjust="spacing" textLength="41" x="587" y="592.6389">start()</text><ellipse cx="578" cy="605.5891" fill="#84BE84" rx="3" ry="3" style="stroke:#038048;stroke-width:1.0;"/><text fill="#000000" font-family="sans-serif" font-size="14" lengthAdjust="spacing" textLength="106" x="587" y="608.9357">togglePaused()</text><ellipse cx="578" cy="621.8859" fill="#84BE84" rx="3" ry="3" style="stroke:#038048;stroke-width:1.0;"/><text fill="#000000" font-family="sans-serif" font-size="14" lengthAdjust="spacing" textLength="163" x="587" y="625.2326">workedTime(): Duration</text><ellipse cx="578" cy="638.1828" fill="#84BE84" rx="3" ry="3" style="stroke:#038048;stroke-width:1.0;"/><text fill="#000000" font-family="sans-serif" font-size="14" lengthAdjust="spacing" textLength="46" x="587" y="641.5295">finish()</text><ellipse cx="578" cy="654.4797" fill="#84BE84" rx="3" ry="3" style="stroke:#038048;stroke-width:1.0;"/><text fill="#000000" font-family="sans-serif" font-size="14" lengthAdjust="spacing" textLength="219" x="587" y="657.8264">addComment(comment: String)</text></g><!--class Finished--><g id="elem_Finished"><rect codeLine="34" fill="#F1F1F1" height="162.0781" id="Finished" rx="2.5" ry="2.5" style="stroke:#181818;stroke-width:0.5;" width="245" x="847" y="503.05"/><ellipse cx="889" cy="519.05" fill="#ADD1B2" rx="11" ry="11" style="stroke:#181818;stroke-width:1.0;"/><path d="M891.9688,524.6906 Q891.3906,524.9875 890.75,525.1281 Q890.1094,525.2844 889.4063,525.2844 Q886.9063,525.2844 885.5781,523.6438 Q884.2656,521.9875 884.2656,518.8625 Q884.2656,515.7375 885.5781,514.0813 Q886.9063,512.425 889.4063,512.425 Q890.1094,512.425 890.75,512.5813 Q891.4063,512.7375 891.9688,513.0344 L891.9688,515.7531 Q891.3438,515.175 890.75,514.9094 Q890.1563,514.6281 889.5313,514.6281 Q888.1875,514.6281 887.5,515.7063 Q886.8125,516.7688 886.8125,518.8625 Q886.8125,520.9563 887.5,522.0344 Q888.1875,523.0969 889.5313,523.0969 Q890.1563,523.0969 890.75,522.8313 Q891.3438,522.55 891.9688,521.9719 L891.9688,524.6906 Z " fill="#000000"/><text fill="#000000" font-family="sans-serif" font-size="14" lengthAdjust="spacing" textLength="58" x="909" y="523.8967">Finished</text><rect fill="#FFFFFF" height="15.9688" style="stroke:#181818;stroke-width:1.0;stroke-dasharray:2.0,2.0;" width="93" x="1002" y="500.05"/><text fill="#000000" font-family="sans-serif" font-size="12" font-style="italic" lengthAdjust="spacing" textLength="91" x="1003" y="512.1887">ConcreteState</text><line style="stroke:#181818;stroke-width:0.5;" x1="848" x2="1091" y1="535.05" y2="535.05"/><rect fill="none" height="6" style="stroke:#C82930;stroke-width:1.0;" width="6" x="855" y="545.6984"/><text fill="#000000" font-family="sans-serif" font-size="14" lengthAdjust="spacing" text-decoration="underline" textLength="176" x="867" y="552.0451">NOMBRE_ESTADO: String</text><line style="stroke:#181818;stroke-width:0.5;" x1="848" x2="1091" y1="559.3469" y2="559.3469"/><ellipse cx="858" cy="572.9953" fill="#84BE84" rx="3" ry="3" style="stroke:#038048;stroke-width:1.0;"/><text fill="#000000" font-family="sans-serif" font-size="14" lengthAdjust="spacing" text-decoration="underline" textLength="185" x="867" y="576.342">getNombreEstado(): String</text><ellipse cx="858" cy="589.2922" fill="#84BE84" rx="3" ry="3" style="stroke:#038048;stroke-width:1.0;"/><text fill="#000000" font-family="sans-serif" font-size="14" lengthAdjust="spacing" textLength="106" x="867" y="592.6389">togglePaused()</text><ellipse cx="858" cy="605.5891" fill="#84BE84" rx="3" ry="3" style="stroke:#038048;stroke-width:1.0;"/><text fill="#000000" font-family="sans-serif" font-size="14" lengthAdjust="spacing" textLength="163" x="867" y="608.9357">workedTime(): Duration</text><ellipse cx="858" cy="621.8859" fill="#84BE84" rx="3" ry="3" style="stroke:#038048;stroke-width:1.0;"/><text fill="#000000" font-family="sans-serif" font-size="14" lengthAdjust="spacing" textLength="219" x="867" y="625.2326">addComment(comment: String)</text><ellipse cx="858" cy="638.1828" fill="#84BE84" rx="3" ry="3" style="stroke:#038048;stroke-width:1.0;"/><text fill="#000000" font-family="sans-serif" font-size="14" lengthAdjust="spacing" textLength="41" x="867" y="641.5295">start()</text><ellipse cx="858" cy="654.4797" fill="#84BE84" rx="3" ry="3" style="stroke:#038048;stroke-width:1.0;"/><text fill="#000000" font-family="sans-serif" font-size="14" lengthAdjust="spacing" textLength="46" x="867" y="657.8264">finish()</text></g><!--class ToDoItem--><g id="elem_ToDoItem"><rect codeLine="45" fill="#F1F1F1" height="243.5625" id="ToDoItem" rx="2.5" ry="2.5" style="stroke:#181818;stroke-width:0.5;" width="353" x="373" y="10"/><ellipse cx="485.25" cy="26" fill="#ADD1B2" rx="11" ry="11" style="stroke:#181818;stroke-width:1.0;"/><path d="M488.2188,31.6406 Q487.6406,31.9375 487,32.0781 Q486.3594,32.2344 485.6563,32.2344 Q483.1563,32.2344 481.8281,30.5938 Q480.5156,28.9375 480.5156,25.8125 Q480.5156,22.6875 481.8281,21.0313 Q483.1563,19.375 485.6563,19.375 Q486.3594,19.375 487,19.5313 Q487.6563,19.6875 488.2188,19.9844 L488.2188,22.7031 Q487.5938,22.125 487,21.8594 Q486.4063,21.5781 485.7813,21.5781 Q484.4375,21.5781 483.75,22.6563 Q483.0625,23.7188 483.0625,25.8125 Q483.0625,27.9063 483.75,28.9844 Q484.4375,30.0469 485.7813,30.0469 Q486.4063,30.0469 487,29.7813 Q487.5938,29.5 488.2188,28.9219 L488.2188,31.6406 Z " fill="#000000"/><text fill="#000000" font-family="sans-serif" font-size="14" lengthAdjust="spacing" textLength="68" x="505.75" y="30.8467">ToDoItem</text><rect fill="#FFFFFF" height="15.9688" style="stroke:#181818;stroke-width:1.0;stroke-dasharray:2.0,2.0;" width="50" x="679" y="7"/><text fill="#000000" font-family="sans-serif" font-size="12" font-style="italic" lengthAdjust="spacing" textLength="48" x="680" y="19.1387">Context</text><line style="stroke:#181818;stroke-width:0.5;" x1="374" x2="725" y1="42" y2="42"/><rect fill="none" height="6" style="stroke:#C82930;stroke-width:1.0;" width="6" x="381" y="52.6484"/><text fill="#000000" font-family="sans-serif" font-size="14" lengthAdjust="spacing" textLength="118" x="393" y="58.9951">taskName: String</text><rect fill="none" height="6" style="stroke:#C82930;stroke-width:1.0;" width="6" x="381" y="68.9453"/><text fill="#000000" font-family="sans-serif" font-size="14" lengthAdjust="spacing" textLength="124" x="393" y="75.292">stateName: String</text><rect fill="none" height="6" style="stroke:#C82930;stroke-width:1.0;" width="6" x="381" y="85.2422"/><text fill="#000000" font-family="sans-serif" font-size="14" lengthAdjust="spacing" textLength="115" x="393" y="91.5889">fechaInicio: Date</text><rect fill="none" height="6" style="stroke:#C82930;stroke-width:1.0;" width="6" x="381" y="101.5391"/><text fill="#000000" font-family="sans-serif" font-size="14" lengthAdjust="spacing" textLength="100" x="393" y="107.8857">fechaFin: Date</text><rect fill="none" height="6" style="stroke:#C82930;stroke-width:1.0;" width="6" x="381" y="117.8359"/><text fill="#000000" font-family="sans-serif" font-size="14" lengthAdjust="spacing" textLength="140" x="393" y="124.1826">comments: String[*]</text><line style="stroke:#181818;stroke-width:0.5;" x1="374" x2="725" y1="131.4844" y2="131.4844"/><ellipse cx="384" cy="145.1328" fill="#84BE84" rx="3" ry="3" style="stroke:#038048;stroke-width:1.0;"/><text fill="#000000" font-family="sans-serif" font-size="14" lengthAdjust="spacing" textLength="232" x="393" y="148.4795">&#171;create&#187; ToDoItem(name: String)</text><ellipse cx="384" cy="161.4297" fill="#84BE84" rx="3" ry="3" style="stroke:#038048;stroke-width:1.0;"/><text fill="#000000" font-family="sans-serif" font-size="14" lengthAdjust="spacing" textLength="327" x="393" y="164.7764">actualizarEstado(nuevoEstado: ToDoItemState)</text><ellipse cx="384" cy="177.7266" fill="#84BE84" rx="3" ry="3" style="stroke:#038048;stroke-width:1.0;"/><text fill="#000000" font-family="sans-serif" font-size="14" lengthAdjust="spacing" textLength="41" x="393" y="181.0732">start()</text><ellipse cx="384" cy="194.0234" fill="#84BE84" rx="3" ry="3" style="stroke:#038048;stroke-width:1.0;"/><text fill="#000000" font-family="sans-serif" font-size="14" lengthAdjust="spacing" textLength="97" x="393" y="197.3701">togglePause()</text><ellipse cx="384" cy="210.3203" fill="#84BE84" rx="3" ry="3" style="stroke:#038048;stroke-width:1.0;"/><text fill="#000000" font-family="sans-serif" font-size="14" lengthAdjust="spacing" textLength="46" x="393" y="213.667">finish()</text><ellipse cx="384" cy="226.6172" fill="#84BE84" rx="3" ry="3" style="stroke:#038048;stroke-width:1.0;"/><text fill="#000000" font-family="sans-serif" font-size="14" lengthAdjust="spacing" textLength="163" x="393" y="229.9639">workedTime(): Duration</text><ellipse cx="384" cy="242.9141" fill="#84BE84" rx="3" ry="3" style="stroke:#038048;stroke-width:1.0;"/><text fill="#000000" font-family="sans-serif" font-size="14" lengthAdjust="spacing" textLength="219" x="393" y="246.2607">addComment(comment: String)</text></g><!--class ToDoItemState--><g id="elem_ToDoItemState"><rect codeLine="61" fill="#F1F1F1" height="129.4844" id="ToDoItemState" rx="2.5" ry="2.5" style="stroke:#181818;stroke-width:0.5;" width="245" x="427" y="313.57"/><ellipse cx="474.25" cy="329.57" fill="#A9DCDF" rx="11" ry="11" style="stroke:#181818;stroke-width:1.0;"/><path d="M474.3594,324.9138 L473.2031,329.9919 L475.5313,329.9919 L474.3594,324.9138 Z M472.875,322.6794 L475.8594,322.6794 L479.2188,335.07 L476.7656,335.07 L476,332.0075 L472.7188,332.0075 L471.9688,335.07 L469.5313,335.07 L472.875,322.6794 Z " fill="#000000"/><text fill="#000000" font-family="sans-serif" font-size="14" font-style="italic" lengthAdjust="spacing" textLength="104" x="494.75" y="334.4167">ToDoItemState</text><rect fill="#FFFFFF" height="15.9688" style="stroke:#181818;stroke-width:1.0;stroke-dasharray:2.0,2.0;" width="36" x="639" y="310.57"/><text fill="#000000" font-family="sans-serif" font-size="12" font-style="italic" lengthAdjust="spacing" textLength="34" x="640" y="322.7087">State</text><line style="stroke:#181818;stroke-width:0.5;" x1="428" x2="671" y1="345.57" y2="345.57"/><line style="stroke:#181818;stroke-width:0.5;" x1="428" x2="671" y1="353.57" y2="353.57"/><ellipse cx="438" cy="367.2184" fill="#84BE84" rx="3" ry="3" style="stroke:#038048;stroke-width:1.0;"/><text fill="#000000" font-family="sans-serif" font-size="14" font-style="italic" lengthAdjust="spacing" textLength="41" x="447" y="370.5651">start()</text><ellipse cx="438" cy="383.5153" fill="#84BE84" rx="3" ry="3" style="stroke:#038048;stroke-width:1.0;"/><text fill="#000000" font-family="sans-serif" font-size="14" font-style="italic" lengthAdjust="spacing" textLength="106" x="447" y="386.862">togglePaused()</text><ellipse cx="438" cy="399.8122" fill="#84BE84" rx="3" ry="3" style="stroke:#038048;stroke-width:1.0;"/><text fill="#000000" font-family="sans-serif" font-size="14" font-style="italic" lengthAdjust="spacing" textLength="46" x="447" y="403.1589">finish()</text><ellipse cx="438" cy="416.1091" fill="#84BE84" rx="3" ry="3" style="stroke:#038048;stroke-width:1.0;"/><text fill="#000000" font-family="sans-serif" font-size="14" lengthAdjust="spacing" textLength="163" x="447" y="419.4557">workedTime(): Duration</text><ellipse cx="438" cy="432.4059" fill="#84BE84" rx="3" ry="3" style="stroke:#038048;stroke-width:1.0;"/><text fill="#000000" font-family="sans-serif" font-size="14" font-style="italic" lengthAdjust="spacing" textLength="219" x="447" y="435.7526">addComment(comment: String)</text></g><!--reverse link ToDoItemState to Pending--><g id="link_ToDoItemState_Pending"><path codeLine="70" d="M410.0692,437.5058 C360.7092,458.8558 320.14,477.47 269.5,503.05 C263.88,505.89 258.16,508.85 252.41,511.89 " fill="none" id="ToDoItemState-backto-Pending" style="stroke:#181818;stroke-width:1.0;"/><polygon fill="none" points="426.59,430.36,407.6873,431.9989,412.4511,443.0128,426.59,430.36" style="stroke:#181818;stroke-width:1.0;"/></g><!--reverse link ToDoItemState to Paused--><g id="link_ToDoItemState_Paused"><path codeLine="71" d="M495.2032,458.3432 C482.2932,477.1232 478.22,483.06 464.72,502.72 " fill="none" id="ToDoItemState-backto-Paused" style="stroke:#181818;stroke-width:1.0;"/><polygon fill="none" points="505.4,443.51,490.2587,454.9443,500.1476,461.7422,505.4,443.51" style="stroke:#181818;stroke-width:1.0;"/></g><!--reverse link ToDoItemState to InProgress--><g id="link_ToDoItemState_InProgress"><path codeLine="72" d="M603.7968,458.3432 C616.7068,477.1232 620.78,483.06 634.28,502.72 " fill="none" id="ToDoItemState-backto-InProgress" style="stroke:#181818;stroke-width:1.0;"/><polygon fill="none" points="593.6,443.51,598.8524,461.7422,608.7413,454.9443,593.6,443.51" style="stroke:#181818;stroke-width:1.0;"/></g><!--reverse link ToDoItemState to Finished--><g id="link_ToDoItemState_Finished"><path codeLine="73" d="M688.9308,437.5058 C738.2908,458.8558 778.86,477.47 829.5,503.05 C835.12,505.89 840.84,508.85 846.59,511.89 " fill="none" id="ToDoItemState-backto-Finished" style="stroke:#181818;stroke-width:1.0;"/><polygon fill="none" points="672.41,430.36,686.5489,443.0128,691.3127,431.9989,672.41,430.36" style="stroke:#181818;stroke-width:1.0;"/></g><!--reverse link ToDoItem to ToDoItemState--><g id="link_ToDoItem_ToDoItemState"><path codeLine="75" d="M536.7442,259.97 C536.7242,280.51 537.2,295.09 538.14,313.38 " fill="none" id="ToDoItem-backto-ToDoItemState" style="stroke:#181818;stroke-width:1.0;"/><polygon fill="#181818" points="536.75,253.97,532.7412,262.9661,536.7451,258.97,540.7412,262.9739,536.75,253.97" style="stroke:#181818;stroke-width:1.0;"/><text fill="#000000" font-family="sans-serif" font-size="13" lengthAdjust="spacing" textLength="55" x="479.423" y="273.5384">- tarea 1</text></g><!--link ToDoItem to ToDoItemState--><g id="link_ToDoItem_ToDoItemState"><path codeLine="77" d="M563,253.97 C563.02,274.51 562.8576,289.0989 561.8576,307.3889 " fill="none" id="ToDoItem-to-ToDoItemState" style="stroke:#181818;stroke-width:1.0;"/><polygon fill="#181818" points="561.53,313.38,566.0154,304.6118,561.803,308.3875,558.0273,304.175,561.53,313.38" style="stroke:#181818;stroke-width:1.0;"/><text fill="#000000" font-family="sans-serif" font-size="13" lengthAdjust="spacing" textLength="54" x="505.8927" y="302.5319">- state 1</text></g><!--SRC=[tLHHJy8m47xVhsXu6f8z-4eM4XLCU128y6QCATqn6bYRj3Sr8l_TszWAnKKqHatSozQxxwxVz_LMiURMiWceHAgKnLTQ2GC8K-G8lKt0wDbOMaYnPH4RZMykRmSFW-dieZ_kiYaQgWfyL8UbW2ETpGqCA9ReiEsG1R33A6emR5Shr6cwXWdFBIGk-AJD2fAPpA2exkU6UcjL9HTIIRjqM9uaLphBG64eTkzwltQm3GAnKrZs_yS2XsfYT6g0Fdz8v1-AkovhVktylYxg8nLDjZaJdCIPxkiXGbPAH7Z6Ibp4aDlLY6VWaOoAXWWDyGM89HygAQGcceGvZ9EHNh0YQ-iUTsVtGKKnZidemkIUunQgW-tS0GhC-Lg-S5EvgN9urBllhYijp-la2BttvvlUaxryRj4GIURxN19YSJr7kn6fiTiZabwYOJgy_EUvUsKdP1pnVesY-jPkJ9NicZBxUw8fM_ze-_rOgvX0cWHstc8nGRog0rmKzGfiEPO5riEz0G00]--></g></svg>