<?xml version="1.0" encoding="us-ascii" standalone="no"?><svg xmlns="http://www.w3.org/2000/svg" xmlns:xlink="http://www.w3.org/1999/xlink" contentStyleType="text/css" height="690px" preserveAspectRatio="none" style="width:1066px;height:690px;background:#FFFFFF;" version="1.1" viewBox="0 0 1066 690" width="1066px" zoomAndPan="magnify"><defs/><g><!--class Proyecto--><g id="elem_Proyecto"><rect codeLine="1" fill="#F1F1F1" height="308.75" id="Proyecto" rx="2.5" ry="2.5" style="stroke:#181818;stroke-width:0.5;" width="508" x="277" y="10"/><ellipse cx="470.25" cy="26" fill="#ADD1B2" rx="11" ry="11" style="stroke:#181818;stroke-width:1.0;"/><path d="M473.2188,31.6406 Q472.6406,31.9375 472,32.0781 Q471.3594,32.2344 470.6563,32.2344 Q468.1563,32.2344 466.8281,30.5938 Q465.5156,28.9375 465.5156,25.8125 Q465.5156,22.6875 466.8281,21.0313 Q468.1563,19.375 470.6563,19.375 Q471.3594,19.375 472,19.5313 Q472.6563,19.6875 473.2188,19.9844 L473.2188,22.7031 Q472.5938,22.125 472,21.8594 Q471.4063,21.5781 470.7813,21.5781 Q469.4375,21.5781 468.75,22.6563 Q468.0625,23.7188 468.0625,25.8125 Q468.0625,27.9063 468.75,28.9844 Q469.4375,30.0469 470.7813,30.0469 Q471.4063,30.0469 472,29.7813 Q472.5938,29.5 473.2188,28.9219 L473.2188,31.6406 Z " fill="#000000"/><text fill="#000000" font-family="sans-serif" font-size="14" lengthAdjust="spacing" textLength="61" x="490.75" y="30.8467">Proyecto</text><rect fill="#FFFFFF" height="15.9688" style="stroke:#181818;stroke-width:1.0;stroke-dasharray:2.0,2.0;" width="50" x="738" y="7"/><text fill="#000000" font-family="sans-serif" font-size="12" font-style="italic" lengthAdjust="spacing" textLength="48" x="739" y="19.1387">Context</text><line style="stroke:#181818;stroke-width:0.5;" x1="278" x2="784" y1="42" y2="42"/><rect fill="none" height="6" style="stroke:#C82930;stroke-width:1.0;" width="6" x="285" y="52.6484"/><text fill="#000000" font-family="sans-serif" font-size="14" lengthAdjust="spacing" textLength="115" x="297" y="58.9951">fechaInicio: Date</text><rect fill="none" height="6" style="stroke:#C82930;stroke-width:1.0;" width="6" x="285" y="68.9453"/><text fill="#000000" font-family="sans-serif" font-size="14" lengthAdjust="spacing" textLength="100" x="297" y="75.292">fechaFin: Date</text><rect fill="none" height="6" style="stroke:#C82930;stroke-width:1.0;" width="6" x="285" y="85.2422"/><text fill="#000000" font-family="sans-serif" font-size="14" lengthAdjust="spacing" textLength="103" x="297" y="91.5889">objetivo: String</text><rect fill="none" height="6" style="stroke:#C82930;stroke-width:1.0;" width="6" x="285" y="101.5391"/><text fill="#000000" font-family="sans-serif" font-size="14" lengthAdjust="spacing" textLength="211" x="297" y="107.8857">numeroDeIntegrantes: Integer</text><rect fill="none" height="6" style="stroke:#C82930;stroke-width:1.0;" width="6" x="285" y="117.8359"/><text fill="#000000" font-family="sans-serif" font-size="14" lengthAdjust="spacing" textLength="178" x="297" y="124.1826">montoPorIntegrante: Real</text><rect fill="none" height="6" style="stroke:#C82930;stroke-width:1.0;" width="6" x="285" y="134.1328"/><text fill="#000000" font-family="sans-serif" font-size="14" lengthAdjust="spacing" textLength="176" x="297" y="140.4795">margenDeGanancia: Real</text><line style="stroke:#181818;stroke-width:0.5;" x1="278" x2="784" y1="147.7813" y2="147.7813"/><ellipse cx="288" cy="161.4297" fill="#84BE84" rx="3" ry="3" style="stroke:#038048;stroke-width:1.0;"/><text fill="#000000" font-family="sans-serif" font-size="14" lengthAdjust="spacing" textLength="347" x="297" y="164.7764">&#171;create&#187; Proyecto(nombre: String, fechaFin: Date,</text><text fill="#000000" font-family="sans-serif" font-size="14" lengthAdjust="spacing" textLength="482" x="297" y="181.0732">objetivo: String, cantIntegrantes: Integer, double montoPorIntegrante)</text><ellipse cx="288" cy="194.0234" fill="#84BE84" rx="3" ry="3" style="stroke:#038048;stroke-width:1.0;"/><text fill="#000000" font-family="sans-serif" font-size="14" lengthAdjust="spacing" textLength="102" x="297" y="197.3701">aprobarEtapa()</text><ellipse cx="288" cy="210.3203" fill="#84BE84" rx="3" ry="3" style="stroke:#038048;stroke-width:1.0;"/><text fill="#000000" font-family="sans-serif" font-size="14" lengthAdjust="spacing" textLength="172" x="297" y="213.667">costoDelProyecto(): Real</text><ellipse cx="288" cy="226.6172" fill="#84BE84" rx="3" ry="3" style="stroke:#038048;stroke-width:1.0;"/><text fill="#000000" font-family="sans-serif" font-size="14" lengthAdjust="spacing" textLength="176" x="297" y="229.9639">precioDelProyecto(): Real</text><ellipse cx="288" cy="242.9141" fill="#84BE84" rx="3" ry="3" style="stroke:#038048;stroke-width:1.0;"/><text fill="#000000" font-family="sans-serif" font-size="14" lengthAdjust="spacing" textLength="308" x="297" y="246.2607">modificarMargenDeGanancias(margen: Real)</text><ellipse cx="288" cy="259.2109" fill="#84BE84" rx="3" ry="3" style="stroke:#038048;stroke-width:1.0;"/><text fill="#000000" font-family="sans-serif" font-size="14" lengthAdjust="spacing" textLength="129" x="297" y="262.5576">cancelarProyecto()</text><ellipse cx="288" cy="275.5078" fill="#84BE84" rx="3" ry="3" style="stroke:#038048;stroke-width:1.0;"/><text fill="#000000" font-family="sans-serif" font-size="14" lengthAdjust="spacing" textLength="242" x="297" y="278.8545">setEtapaDelProyecto(etapa: Etapa)</text><ellipse cx="288" cy="291.8047" fill="#84BE84" rx="3" ry="3" style="stroke:#038048;stroke-width:1.0;"/><text fill="#000000" font-family="sans-serif" font-size="14" lengthAdjust="spacing" textLength="212" x="297" y="295.1514">duraci&#243;nDelProyecto(): Integer</text><ellipse cx="288" cy="308.1016" fill="#84BE84" rx="3" ry="3" style="stroke:#038048;stroke-width:1.0;"/><text fill="#000000" font-family="sans-serif" font-size="14" lengthAdjust="spacing" textLength="166" x="297" y="311.4482">costoEnPersonal(): Real</text></g><!--class Etapa--><g id="elem_Etapa"><rect codeLine="21" fill="#F1F1F1" height="145.7813" id="Etapa" rx="2.5" ry="2.5" style="stroke:#181818;stroke-width:0.5;" width="404" x="329" y="395.75"/><ellipse cx="488.25" cy="411.75" fill="#A9DCDF" rx="11" ry="11" style="stroke:#181818;stroke-width:1.0;"/><path d="M488.3594,407.0938 L487.2031,412.1719 L489.5313,412.1719 L488.3594,407.0938 Z M486.875,404.8594 L489.8594,404.8594 L493.2188,417.25 L490.7656,417.25 L490,414.1875 L486.7188,414.1875 L485.9688,417.25 L483.5313,417.25 L486.875,404.8594 Z " fill="#000000"/><text fill="#000000" font-family="sans-serif" font-size="14" font-style="italic" lengthAdjust="spacing" textLength="39" x="508.75" y="416.5967">Etapa</text><rect fill="#FFFFFF" height="15.9688" style="stroke:#181818;stroke-width:1.0;stroke-dasharray:2.0,2.0;" width="36" x="700" y="392.75"/><text fill="#000000" font-family="sans-serif" font-size="12" font-style="italic" lengthAdjust="spacing" textLength="34" x="701" y="404.8887">State</text><line style="stroke:#181818;stroke-width:0.5;" x1="330" x2="732" y1="427.75" y2="427.75"/><line style="stroke:#181818;stroke-width:0.5;" x1="330" x2="732" y1="435.75" y2="435.75"/><ellipse cx="340" cy="449.3984" fill="#84BE84" rx="3" ry="3" style="stroke:#038048;stroke-width:1.0;"/><text fill="#000000" font-family="sans-serif" font-size="14" lengthAdjust="spacing" textLength="246" x="349" y="452.7451">&#171;create&#187; Etapa(proyecto: Proyecto)</text><ellipse cx="340" cy="465.6953" fill="#84BE84" rx="3" ry="3" style="stroke:#038048;stroke-width:1.0;"/><text fill="#000000" font-family="sans-serif" font-size="14" font-style="italic" lengthAdjust="spacing" textLength="180" x="349" y="469.042">&#171;abstract&#187; aprobarEtapa()</text><ellipse cx="340" cy="481.9922" fill="#84BE84" rx="3" ry="3" style="stroke:#038048;stroke-width:1.0;"/><text fill="#000000" font-family="sans-serif" font-size="14" lengthAdjust="spacing" textLength="172" x="349" y="485.3389">costoDelProyecto(): Real</text><ellipse cx="340" cy="498.2891" fill="#84BE84" rx="3" ry="3" style="stroke:#038048;stroke-width:1.0;"/><text fill="#000000" font-family="sans-serif" font-size="14" lengthAdjust="spacing" textLength="176" x="349" y="501.6357">precioDelProyecto(): Real</text><ellipse cx="340" cy="514.5859" fill="#84BE84" rx="3" ry="3" style="stroke:#038048;stroke-width:1.0;"/><text fill="#000000" font-family="sans-serif" font-size="14" font-style="italic" lengthAdjust="spacing" textLength="378" x="349" y="517.9326">&#171;abstract&#187; modificarMargenDeGanancia(margen: Real)</text><ellipse cx="340" cy="530.8828" fill="#84BE84" rx="3" ry="3" style="stroke:#038048;stroke-width:1.0;"/><text fill="#000000" font-family="sans-serif" font-size="14" lengthAdjust="spacing" textLength="129" x="349" y="534.2295">cancelarProyecto()</text></g><!--class EnConstrucci?n--><g id="elem_EnConstrucci&#243;n"><rect codeLine="31" fill="#F1F1F1" height="80.5938" id="EnConstrucci&#243;n" rx="2.5" ry="2.5" style="stroke:#181818;stroke-width:0.5;" width="326" x="7" y="602.54"/><ellipse cx="63.25" cy="618.54" fill="#ADD1B2" rx="11" ry="11" style="stroke:#181818;stroke-width:1.0;"/><path d="M66.2188,624.1806 Q65.6406,624.4775 65,624.6181 Q64.3594,624.7744 63.6563,624.7744 Q61.1563,624.7744 59.8281,623.1338 Q58.5156,621.4775 58.5156,618.3525 Q58.5156,615.2275 59.8281,613.5713 Q61.1563,611.915 63.6563,611.915 Q64.3594,611.915 65,612.0713 Q65.6563,612.2275 66.2188,612.5244 L66.2188,615.2431 Q65.5938,614.665 65,614.3994 Q64.4063,614.1181 63.7813,614.1181 Q62.4375,614.1181 61.75,615.1963 Q61.0625,616.2588 61.0625,618.3525 Q61.0625,620.4463 61.75,621.5244 Q62.4375,622.5869 63.7813,622.5869 Q64.4063,622.5869 65,622.3213 Q65.5938,622.04 66.2188,621.4619 L66.2188,624.1806 Z " fill="#000000"/><text fill="#000000" font-family="sans-serif" font-size="14" lengthAdjust="spacing" textLength="110" x="83.75" y="623.3867">EnConstrucci&#243;n</text><rect fill="#FFFFFF" height="15.9688" style="stroke:#181818;stroke-width:1.0;stroke-dasharray:2.0,2.0;" width="93" x="243" y="599.54"/><text fill="#000000" font-family="sans-serif" font-size="12" font-style="italic" lengthAdjust="spacing" textLength="91" x="244" y="611.6787">ConcreteState</text><line style="stroke:#181818;stroke-width:0.5;" x1="8" x2="332" y1="634.54" y2="634.54"/><line style="stroke:#181818;stroke-width:0.5;" x1="8" x2="332" y1="642.54" y2="642.54"/><ellipse cx="18" cy="656.1884" fill="#84BE84" rx="3" ry="3" style="stroke:#038048;stroke-width:1.0;"/><text fill="#000000" font-family="sans-serif" font-size="14" lengthAdjust="spacing" textLength="102" x="27" y="659.5351">aprobarEtapa()</text><ellipse cx="18" cy="672.4853" fill="#84BE84" rx="3" ry="3" style="stroke:#038048;stroke-width:1.0;"/><text fill="#000000" font-family="sans-serif" font-size="14" lengthAdjust="spacing" textLength="300" x="27" y="675.832">modificarMargenDeGanancia(margen: Real)</text></g><!--class EnEvaluaci?n--><g id="elem_EnEvaluaci&#243;n"><rect codeLine="36" fill="#F1F1F1" height="80.5938" id="EnEvaluaci&#243;n" rx="2.5" ry="2.5" style="stroke:#181818;stroke-width:0.5;" width="326" x="368" y="602.54"/><ellipse cx="433.75" cy="618.54" fill="#ADD1B2" rx="11" ry="11" style="stroke:#181818;stroke-width:1.0;"/><path d="M436.7188,624.1806 Q436.1406,624.4775 435.5,624.6181 Q434.8594,624.7744 434.1563,624.7744 Q431.6563,624.7744 430.3281,623.1338 Q429.0156,621.4775 429.0156,618.3525 Q429.0156,615.2275 430.3281,613.5713 Q431.6563,611.915 434.1563,611.915 Q434.8594,611.915 435.5,612.0713 Q436.1563,612.2275 436.7188,612.5244 L436.7188,615.2431 Q436.0938,614.665 435.5,614.3994 Q434.9063,614.1181 434.2813,614.1181 Q432.9375,614.1181 432.25,615.1963 Q431.5625,616.2588 431.5625,618.3525 Q431.5625,620.4463 432.25,621.5244 Q432.9375,622.5869 434.2813,622.5869 Q434.9063,622.5869 435.5,622.3213 Q436.0938,622.04 436.7188,621.4619 L436.7188,624.1806 Z " fill="#000000"/><text fill="#000000" font-family="sans-serif" font-size="14" lengthAdjust="spacing" textLength="91" x="454.25" y="623.3867">EnEvaluaci&#243;n</text><rect fill="#FFFFFF" height="15.9688" style="stroke:#181818;stroke-width:1.0;stroke-dasharray:2.0,2.0;" width="93" x="604" y="599.54"/><text fill="#000000" font-family="sans-serif" font-size="12" font-style="italic" lengthAdjust="spacing" textLength="91" x="605" y="611.6787">ConcreteState</text><line style="stroke:#181818;stroke-width:0.5;" x1="369" x2="693" y1="634.54" y2="634.54"/><line style="stroke:#181818;stroke-width:0.5;" x1="369" x2="693" y1="642.54" y2="642.54"/><ellipse cx="379" cy="656.1884" fill="#84BE84" rx="3" ry="3" style="stroke:#038048;stroke-width:1.0;"/><text fill="#000000" font-family="sans-serif" font-size="14" lengthAdjust="spacing" textLength="102" x="388" y="659.5351">aprobarEtapa()</text><ellipse cx="379" cy="672.4853" fill="#84BE84" rx="3" ry="3" style="stroke:#038048;stroke-width:1.0;"/><text fill="#000000" font-family="sans-serif" font-size="14" lengthAdjust="spacing" textLength="300" x="388" y="675.832">modificarMargenDeGanancia(margen: Real)</text></g><!--class Confirmado--><g id="elem_Confirmado"><rect codeLine="41" fill="#F1F1F1" height="80.5938" id="Confirmado" rx="2.5" ry="2.5" style="stroke:#181818;stroke-width:0.5;" width="326" x="729" y="602.54"/><ellipse cx="800.75" cy="618.54" fill="#ADD1B2" rx="11" ry="11" style="stroke:#181818;stroke-width:1.0;"/><path d="M803.7188,624.1806 Q803.1406,624.4775 802.5,624.6181 Q801.8594,624.7744 801.1563,624.7744 Q798.6563,624.7744 797.3281,623.1338 Q796.0156,621.4775 796.0156,618.3525 Q796.0156,615.2275 797.3281,613.5713 Q798.6563,611.915 801.1563,611.915 Q801.8594,611.915 802.5,612.0713 Q803.1563,612.2275 803.7188,612.5244 L803.7188,615.2431 Q803.0938,614.665 802.5,614.3994 Q801.9063,614.1181 801.2813,614.1181 Q799.9375,614.1181 799.25,615.1963 Q798.5625,616.2588 798.5625,618.3525 Q798.5625,620.4463 799.25,621.5244 Q799.9375,622.5869 801.2813,622.5869 Q801.9063,622.5869 802.5,622.3213 Q803.0938,622.04 803.7188,621.4619 L803.7188,624.1806 Z " fill="#000000"/><text fill="#000000" font-family="sans-serif" font-size="14" lengthAdjust="spacing" textLength="79" x="821.25" y="623.3867">Confirmado</text><rect fill="#FFFFFF" height="15.9688" style="stroke:#181818;stroke-width:1.0;stroke-dasharray:2.0,2.0;" width="93" x="965" y="599.54"/><text fill="#000000" font-family="sans-serif" font-size="12" font-style="italic" lengthAdjust="spacing" textLength="91" x="966" y="611.6787">ConcreteState</text><line style="stroke:#181818;stroke-width:0.5;" x1="730" x2="1054" y1="634.54" y2="634.54"/><line style="stroke:#181818;stroke-width:0.5;" x1="730" x2="1054" y1="642.54" y2="642.54"/><ellipse cx="740" cy="656.1884" fill="#84BE84" rx="3" ry="3" style="stroke:#038048;stroke-width:1.0;"/><text fill="#000000" font-family="sans-serif" font-size="14" lengthAdjust="spacing" textLength="102" x="749" y="659.5351">aprobarEtapa()</text><ellipse cx="740" cy="672.4853" fill="#84BE84" rx="3" ry="3" style="stroke:#038048;stroke-width:1.0;"/><text fill="#000000" font-family="sans-serif" font-size="14" lengthAdjust="spacing" textLength="300" x="749" y="675.832">modificarMargenDeGanancia(margen: Real)</text></g><!--reverse link Etapa to Proyecto--><g id="link_Etapa_Proyecto"><path codeLine="47" d="M544.5608,389.5037 C545.9008,379.5537 546.25,375.39 547,365.75 C548.18,350.62 548.5,334.84 548.21,319.08 " fill="none" id="Etapa-backto-Proyecto" style="stroke:#181818;stroke-width:1.0;"/><polygon fill="#181818" points="543.76,395.45,548.9254,387.0644,544.4273,390.4947,540.997,385.9966,543.76,395.45" style="stroke:#181818;stroke-width:1.0;"/><rect fill="none" height="6" style="stroke:#C82930;stroke-width:1.0;" width="6" x="550" y="354.8164"/><text fill="#000000" font-family="sans-serif" font-size="13" lengthAdjust="spacing" textLength="114" x="560" y="361.8169">etapaDelProyecto</text><text fill="#000000" font-family="sans-serif" font-size="13" lengthAdjust="spacing" textLength="8" x="536.6223" y="384.5804">1</text></g><!--reverse link Proyecto to Etapa--><g id="link_Proyecto_Etapa"><path codeLine="49" d="M464.4433,325.0926 C463.2433,340.8126 464.75,350.59 469,365.75 C471.79,375.72 475.86,385.69 480.6,395.26 " fill="none" id="Proyecto-backto-Etapa" style="stroke:#181818;stroke-width:1.0;"/><polygon fill="#181818" points="464.9,319.11,460.2266,327.7794,464.5194,324.0955,468.2034,328.3883,464.9,319.11" style="stroke:#181818;stroke-width:1.0;"/><polygon fill="none" points="475,352.8164,479,356.8164,475,360.8164,471,356.8164" style="stroke:#B38D22;stroke-width:1.0;"/><text fill="#000000" font-family="sans-serif" font-size="13" lengthAdjust="spacing" textLength="56" x="482" y="361.8169">proyecto</text><text fill="#000000" font-family="sans-serif" font-size="13" lengthAdjust="spacing" textLength="8" x="453.5045" y="339.0384">1</text></g><!--reverse link Etapa to EnConstrucci?n--><g id="link_Etapa_EnConstrucci&#243;n"><path codeLine="52" d="M363.2242,549.6708 C320.0042,570.2908 290.75,584.24 253.25,602.13 " fill="none" id="Etapa-backto-EnConstrucci&#243;n" style="stroke:#181818;stroke-width:1.0;"/><polygon fill="none" points="379.47,541.92,360.6406,544.2555,365.8078,555.086,379.47,541.92" style="stroke:#181818;stroke-width:1.0;"/></g><!--reverse link Etapa to EnEvaluaci?n--><g id="link_Etapa_EnEvaluaci&#243;n"><path codeLine="53" d="M531,559.67 C531,580.5 531,584.45 531,602.48 " fill="none" id="Etapa-backto-EnEvaluaci&#243;n" style="stroke:#181818;stroke-width:1.0;"/><polygon fill="none" points="531,541.67,525,559.67,537,559.67,531,541.67" style="stroke:#181818;stroke-width:1.0;"/></g><!--reverse link Etapa to Confirmado--><g id="link_Etapa_Confirmado"><path codeLine="54" d="M698.7758,549.6708 C741.9958,570.2908 771.25,584.24 808.75,602.13 " fill="none" id="Etapa-backto-Confirmado" style="stroke:#181818;stroke-width:1.0;"/><polygon fill="none" points="682.53,541.92,696.1922,555.086,701.3594,544.2555,682.53,541.92" style="stroke:#181818;stroke-width:1.0;"/></g><!--SRC=[lLH1Ri903Bpd5HQzW813hr74fT2AGoLKNk0iXcwLx29dWrfHNjKdz6Crcsm8AKYzq1oYnEFrZCTEL8P50Gks7wISXUJ16aVlRhAFGAunh4czujnefMqCKtJKZZzgSnQqwHivlPFCfMDjDdNOb3cndT9SIcyOvLx4u5-8wvHSQEt2yYabXXV2BC386p9JUaA3HcciG8WyF8GaKKmYOp9fEkaRcwTCGSce8tW4_cXNy0YKS5_IEOALBTECBYWTr2fmopP5dZdSOZy4bIsSj9urkWQjneQmPH9dh-EvNUcrLiZF7GUAVkL9bTsm2KOPygbQ3HJalAus4nq3CVXuo5kLZ4f_VvcEfFQqwgPcPa5SM8DPe_aGHPWMJaeuK7wnV758bkuudMgdVi-iScnRqyND38EeVIXwa5FXMSxTml1hN5S7yTSvY3Ur9KQ-CQbRAc-q_-J42aTjawviqrzLjCXcEynA_0SggRtMdEFAteedghQfTz-3P3nkrYIM7mHrbZkAcbzQI9zLwtu7OT6WgPXy7l7pkPn3BHVRmAdd7m00]--></g></svg>