<?xml version="1.0" encoding="us-ascii" standalone="no"?><svg xmlns="http://www.w3.org/2000/svg" xmlns:xlink="http://www.w3.org/1999/xlink" contentStyleType="text/css" height="610px" preserveAspectRatio="none" style="width:1138px;height:610px;background:#FFFFFF;" version="1.1" viewBox="0 0 1138 610" width="1138px" zoomAndPan="magnify"><defs/><g><!--class Cliente--><g id="elem_Cliente"><rect codeLine="1" fill="#F1F1F1" height="292.4531" id="Cliente" rx="2.5" ry="2.5" style="stroke:#181818;stroke-width:0.5;" width="337" x="239" y="311.27"/><ellipse cx="379.25" cy="327.27" fill="#ADD1B2" rx="11" ry="11" style="stroke:#181818;stroke-width:1.0;"/><path d="M382.2188,332.9106 Q381.6406,333.2075 381,333.3481 Q380.3594,333.5044 379.6563,333.5044 Q377.1563,333.5044 375.8281,331.8638 Q374.5156,330.2075 374.5156,327.0825 Q374.5156,323.9575 375.8281,322.3013 Q377.1563,320.645 379.6563,320.645 Q380.3594,320.645 381,320.8013 Q381.6563,320.9575 382.2188,321.2544 L382.2188,323.9731 Q381.5938,323.395 381,323.1294 Q380.4063,322.8481 379.7813,322.8481 Q378.4375,322.8481 377.75,323.9263 Q377.0625,324.9888 377.0625,327.0825 Q377.0625,329.1763 377.75,330.2544 Q378.4375,331.3169 379.7813,331.3169 Q380.4063,331.3169 381,331.0513 Q381.5938,330.77 382.2188,330.1919 L382.2188,332.9106 Z " fill="#000000"/><text fill="#000000" font-family="sans-serif" font-size="14" lengthAdjust="spacing" textLength="48" x="399.75" y="332.1167">Cliente</text><line style="stroke:#181818;stroke-width:0.5;" x1="240" x2="575" y1="343.27" y2="343.27"/><rect fill="none" height="6" style="stroke:#C82930;stroke-width:1.0;" width="6" x="247" y="353.9184"/><text fill="#000000" font-family="sans-serif" font-size="14" lengthAdjust="spacing" textLength="75" x="259" y="360.2651">tipo: String</text><rect fill="none" height="6" style="stroke:#C82930;stroke-width:1.0;" width="6" x="247" y="370.2153"/><text fill="#000000" font-family="sans-serif" font-size="14" lengthAdjust="spacing" textLength="103" x="259" y="376.562">nombre: String</text><rect fill="none" height="6" style="stroke:#C82930;stroke-width:1.0;" width="6" x="247" y="386.5122"/><text fill="#000000" font-family="sans-serif" font-size="14" lengthAdjust="spacing" textLength="164" x="259" y="392.8589">numeroTelefono: String</text><rect fill="none" height="6" style="stroke:#C82930;stroke-width:1.0;" width="6" x="247" y="402.8091"/><text fill="#000000" font-family="sans-serif" font-size="14" lengthAdjust="spacing" textLength="74" x="259" y="409.1557">cuit: String</text><rect fill="none" height="6" style="stroke:#C82930;stroke-width:1.0;" width="6" x="247" y="419.1059"/><text fill="#000000" font-family="sans-serif" font-size="14" lengthAdjust="spacing" textLength="70" x="259" y="425.4526">dni: String</text><line style="stroke:#181818;stroke-width:0.5;" x1="240" x2="575" y1="432.7544" y2="432.7544"/><ellipse cx="250" cy="446.4028" fill="#84BE84" rx="3" ry="3" style="stroke:#038048;stroke-width:1.0;"/><text fill="#000000" font-family="sans-serif" font-size="14" lengthAdjust="spacing" textLength="112" x="259" y="449.7495">getTipo(): String</text><ellipse cx="250" cy="462.6997" fill="#84BE84" rx="3" ry="3" style="stroke:#038048;stroke-width:1.0;"/><text fill="#000000" font-family="sans-serif" font-size="14" lengthAdjust="spacing" textLength="137" x="259" y="466.0464">getNombre(): String</text><ellipse cx="250" cy="478.9966" fill="#84BE84" rx="3" ry="3" style="stroke:#038048;stroke-width:1.0;"/><text fill="#000000" font-family="sans-serif" font-size="14" lengthAdjust="spacing" textLength="198" x="259" y="482.3432">getNumeroTelefono(): String</text><ellipse cx="250" cy="495.2934" fill="#84BE84" rx="3" ry="3" style="stroke:#038048;stroke-width:1.0;"/><text fill="#000000" font-family="sans-serif" font-size="14" lengthAdjust="spacing" textLength="109" x="259" y="498.6401">getCuit(): String</text><ellipse cx="250" cy="511.5903" fill="#84BE84" rx="3" ry="3" style="stroke:#038048;stroke-width:1.0;"/><text fill="#000000" font-family="sans-serif" font-size="14" lengthAdjust="spacing" textLength="105" x="259" y="514.937">getDni(): String</text><ellipse cx="250" cy="527.8872" fill="#84BE84" rx="3" ry="3" style="stroke:#038048;stroke-width:1.0;"/><text fill="#000000" font-family="sans-serif" font-size="14" lengthAdjust="spacing" textLength="137" x="259" y="531.2339">setTipo(tipo: String)</text><ellipse cx="250" cy="544.1841" fill="#84BE84" rx="3" ry="3" style="stroke:#038048;stroke-width:1.0;"/><text fill="#000000" font-family="sans-serif" font-size="14" lengthAdjust="spacing" textLength="190" x="259" y="547.5307">setNombre(nombre: String)</text><ellipse cx="250" cy="560.4809" fill="#84BE84" rx="3" ry="3" style="stroke:#038048;stroke-width:1.0;"/><text fill="#000000" font-family="sans-serif" font-size="14" lengthAdjust="spacing" textLength="311" x="259" y="563.8276">setnumeroTelefono(numeroTelefono: String)</text><ellipse cx="250" cy="576.7778" fill="#84BE84" rx="3" ry="3" style="stroke:#038048;stroke-width:1.0;"/><text fill="#000000" font-family="sans-serif" font-size="14" lengthAdjust="spacing" textLength="133" x="259" y="580.1245">setCuit(cuit: String)</text><ellipse cx="250" cy="593.0747" fill="#84BE84" rx="3" ry="3" style="stroke:#038048;stroke-width:1.0;"/><text fill="#000000" font-family="sans-serif" font-size="14" lengthAdjust="spacing" textLength="125" x="259" y="596.4214">setDni(dni: String)</text></g><!--class GestorNumerosDisponibles--><g id="elem_GestorNumerosDisponibles"><rect codeLine="20" fill="#F1F1F1" height="129.4844" id="GestorNumerosDisponibles" rx="2.5" ry="2.5" style="stroke:#181818;stroke-width:0.5;" width="275" x="679" y="392.75"/><ellipse cx="717.4" cy="408.75" fill="#ADD1B2" rx="11" ry="11" style="stroke:#181818;stroke-width:1.0;"/><path d="M720.3688,414.3906 Q719.7906,414.6875 719.15,414.8281 Q718.5094,414.9844 717.8063,414.9844 Q715.3063,414.9844 713.9781,413.3438 Q712.6656,411.6875 712.6656,408.5625 Q712.6656,405.4375 713.9781,403.7813 Q715.3063,402.125 717.8063,402.125 Q718.5094,402.125 719.15,402.2813 Q719.8063,402.4375 720.3688,402.7344 L720.3688,405.4531 Q719.7438,404.875 719.15,404.6094 Q718.5563,404.3281 717.9313,404.3281 Q716.5875,404.3281 715.9,405.4063 Q715.2125,406.4688 715.2125,408.5625 Q715.2125,410.6563 715.9,411.7344 Q716.5875,412.7969 717.9313,412.7969 Q718.5563,412.7969 719.15,412.5313 Q719.7438,412.25 720.3688,411.6719 L720.3688,414.3906 Z " fill="#000000"/><text fill="#000000" font-family="sans-serif" font-size="14" lengthAdjust="spacing" textLength="191" x="736.6" y="413.5967">GestorNumerosDisponibles</text><line style="stroke:#181818;stroke-width:0.5;" x1="680" x2="953" y1="424.75" y2="424.75"/><rect fill="none" height="6" style="stroke:#C82930;stroke-width:1.0;" width="6" x="687" y="435.3984"/><text fill="#000000" font-family="sans-serif" font-size="14" lengthAdjust="spacing" textLength="106" x="699" y="441.7451">lineas: String[*]</text><rect fill="none" height="6" style="stroke:#C82930;stroke-width:1.0;" width="6" x="687" y="451.6953"/><text fill="#000000" font-family="sans-serif" font-size="14" lengthAdjust="spacing" textLength="149" x="699" y="458.042">tipoGenerador: String</text><line style="stroke:#181818;stroke-width:0.5;" x1="680" x2="953" y1="465.3438" y2="465.3438"/><ellipse cx="690" cy="478.9922" fill="#84BE84" rx="3" ry="3" style="stroke:#038048;stroke-width:1.0;"/><text fill="#000000" font-family="sans-serif" font-size="14" lengthAdjust="spacing" textLength="202" x="699" y="482.3389">obtenerNumeroLibre(): String</text><ellipse cx="690" cy="495.2891" fill="#84BE84" rx="3" ry="3" style="stroke:#038048;stroke-width:1.0;"/><text fill="#000000" font-family="sans-serif" font-size="14" lengthAdjust="spacing" textLength="249" x="699" y="498.6357">cambiarTipoGenerador(valor: String)</text><ellipse cx="690" cy="511.5859" fill="#84BE84" rx="3" ry="3" style="stroke:#038048;stroke-width:1.0;"/><text fill="#000000" font-family="sans-serif" font-size="14" lengthAdjust="spacing" textLength="143" x="699" y="514.9326">getLineas(): String[*]</text></g><!--class Llamada--><g id="elem_Llamada"><rect codeLine="29" fill="#F1F1F1" height="145.7813" id="Llamada" rx="2.5" ry="2.5" style="stroke:#181818;stroke-width:0.5;" width="389" x="7" y="47.74"/><ellipse cx="169.25" cy="63.74" fill="#ADD1B2" rx="11" ry="11" style="stroke:#181818;stroke-width:1.0;"/><path d="M172.2188,69.3806 Q171.6406,69.6775 171,69.8181 Q170.3594,69.9744 169.6563,69.9744 Q167.1563,69.9744 165.8281,68.3338 Q164.5156,66.6775 164.5156,63.5525 Q164.5156,60.4275 165.8281,58.7713 Q167.1563,57.115 169.6563,57.115 Q170.3594,57.115 171,57.2713 Q171.6563,57.4275 172.2188,57.7244 L172.2188,60.4431 Q171.5938,59.865 171,59.5994 Q170.4063,59.3181 169.7813,59.3181 Q168.4375,59.3181 167.75,60.3963 Q167.0625,61.4588 167.0625,63.5525 Q167.0625,65.6463 167.75,66.7244 Q168.4375,67.7869 169.7813,67.7869 Q170.4063,67.7869 171,67.5213 Q171.5938,67.24 172.2188,66.6619 L172.2188,69.3806 Z " fill="#000000"/><text fill="#000000" font-family="sans-serif" font-size="14" lengthAdjust="spacing" textLength="56" x="189.75" y="68.5867">Llamada</text><line style="stroke:#181818;stroke-width:0.5;" x1="8" x2="395" y1="79.74" y2="79.74"/><rect fill="none" height="6" style="stroke:#C82930;stroke-width:1.0;" width="6" x="15" y="90.3884"/><text fill="#000000" font-family="sans-serif" font-size="14" lengthAdjust="spacing" textLength="147" x="27" y="96.7351">tipoDellamada: String</text><rect fill="none" height="6" style="stroke:#C82930;stroke-width:1.0;" width="6" x="15" y="106.6853"/><text fill="#000000" font-family="sans-serif" font-size="14" lengthAdjust="spacing" textLength="84" x="27" y="113.032">orign: String</text><rect fill="none" height="6" style="stroke:#C82930;stroke-width:1.0;" width="6" x="15" y="122.9822"/><text fill="#000000" font-family="sans-serif" font-size="14" lengthAdjust="spacing" textLength="101" x="27" y="129.3289">destino: String</text><rect fill="none" height="6" style="stroke:#C82930;stroke-width:1.0;" width="6" x="15" y="139.2791"/><text fill="#000000" font-family="sans-serif" font-size="14" lengthAdjust="spacing" textLength="118" x="27" y="145.6257">duracion: Integer</text><line style="stroke:#181818;stroke-width:0.5;" x1="8" x2="395" y1="152.9275" y2="152.9275"/><ellipse cx="18" cy="166.5759" fill="#84BE84" rx="3" ry="3" style="stroke:#038048;stroke-width:1.0;"/><text fill="#000000" font-family="sans-serif" font-size="14" lengthAdjust="spacing" textLength="363" x="27" y="169.9226">&#171;create&#187; Llamada(tipoLlamada: String, origen: String,</text><text fill="#000000" font-family="sans-serif" font-size="14" lengthAdjust="spacing" textLength="232" x="27" y="186.2195">destino: String, duracion: Integer)</text></g><!--class Empresa--><g id="elem_Empresa"><rect codeLine="39" fill="#F1F1F1" height="227.2656" id="Empresa" rx="2.5" ry="2.5" style="stroke:#181818;stroke-width:0.5;" width="629" x="502" y="7"/><ellipse cx="781.75" cy="23" fill="#ADD1B2" rx="11" ry="11" style="stroke:#181818;stroke-width:1.0;"/><path d="M784.7188,28.6406 Q784.1406,28.9375 783.5,29.0781 Q782.8594,29.2344 782.1563,29.2344 Q779.6563,29.2344 778.3281,27.5938 Q777.0156,25.9375 777.0156,22.8125 Q777.0156,19.6875 778.3281,18.0313 Q779.6563,16.375 782.1563,16.375 Q782.8594,16.375 783.5,16.5313 Q784.1563,16.6875 784.7188,16.9844 L784.7188,19.7031 Q784.0938,19.125 783.5,18.8594 Q782.9063,18.5781 782.2813,18.5781 Q780.9375,18.5781 780.25,19.6563 Q779.5625,20.7188 779.5625,22.8125 Q779.5625,24.9063 780.25,25.9844 Q780.9375,27.0469 782.2813,27.0469 Q782.9063,27.0469 783.5,26.7813 Q784.0938,26.5 784.7188,25.9219 L784.7188,28.6406 Z " fill="#000000"/><text fill="#000000" font-family="sans-serif" font-size="14" lengthAdjust="spacing" textLength="61" x="802.25" y="27.8467">Empresa</text><line style="stroke:#181818;stroke-width:0.5;" x1="503" x2="1130" y1="39" y2="39"/><text fill="#000000" font-family="sans-serif" font-size="14" lengthAdjust="spacing" text-decoration="underline" textLength="131" x="522" y="55.9951">descuentoJur: Real</text><text fill="#000000" font-family="sans-serif" font-size="14" lengthAdjust="spacing" text-decoration="underline" textLength="133" x="522" y="72.292">descuentoFis: Real</text><text fill="#000000" font-family="sans-serif" font-size="14" lengthAdjust="spacing" textLength="4" x="522" y="88.5889">&#160;</text><ellipse cx="513" cy="101.5391" fill="none" rx="3" ry="3" style="stroke:#038048;stroke-width:1.0;"/><text fill="#000000" font-family="sans-serif" font-size="14" lengthAdjust="spacing" textLength="333" x="522" y="104.8857">getGestorNumeros: GestorNumerosDisponibles</text><line style="stroke:#181818;stroke-width:0.5;" x1="503" x2="1130" y1="112.1875" y2="112.1875"/><ellipse cx="513" cy="125.8359" fill="#84BE84" rx="3" ry="3" style="stroke:#038048;stroke-width:1.0;"/><text fill="#000000" font-family="sans-serif" font-size="14" lengthAdjust="spacing" textLength="318" x="522" y="129.1826">agregarNumeroTelefonico(str String): Boolean</text><ellipse cx="513" cy="142.1328" fill="#84BE84" rx="3" ry="3" style="stroke:#038048;stroke-width:1.0;"/><text fill="#000000" font-family="sans-serif" font-size="14" lengthAdjust="spacing" textLength="202" x="522" y="145.4795">obtenerNumeroLibre(): String</text><ellipse cx="513" cy="158.4297" fill="#84BE84" rx="3" ry="3" style="stroke:#038048;stroke-width:1.0;"/><text fill="#000000" font-family="sans-serif" font-size="14" lengthAdjust="spacing" textLength="449" x="522" y="161.7764">registrarUsuario(data: String, nombre: String, tipo: String): Cliente</text><ellipse cx="513" cy="174.7266" fill="#84BE84" rx="3" ry="3" style="stroke:#038048;stroke-width:1.0;"/><text fill="#000000" font-family="sans-serif" font-size="14" lengthAdjust="spacing" textLength="603" x="522" y="178.0732">registrarLlamada(origen: Cliente, destiono: Cliente, t: String, duracion: Integer): Llamada</text><ellipse cx="513" cy="191.0234" fill="#84BE84" rx="3" ry="3" style="stroke:#038048;stroke-width:1.0;"/><text fill="#000000" font-family="sans-serif" font-size="14" lengthAdjust="spacing" textLength="346" x="522" y="194.3701">calcularMontoTotalLlamadas(cliente: Cliente): Real</text><ellipse cx="513" cy="207.3203" fill="#84BE84" rx="3" ry="3" style="stroke:#038048;stroke-width:1.0;"/><text fill="#000000" font-family="sans-serif" font-size="14" lengthAdjust="spacing" textLength="207" x="522" y="210.667">cantidadDeUsuarios(): Integer</text><ellipse cx="513" cy="223.6172" fill="#84BE84" rx="3" ry="3" style="stroke:#038048;stroke-width:1.0;"/><text fill="#000000" font-family="sans-serif" font-size="14" lengthAdjust="spacing" textLength="278" x="522" y="226.9639">existeUsuario(Cliente persona): Boolean</text></g><!--link Empresa to Cliente--><g id="link_Empresa_Cliente"><path codeLine="53" d="M678.6,234.54 C645.79,261.4 615.042,286.5685 581.022,314.4285 " fill="none" id="Empresa-to-Cliente" style="stroke:#181818;stroke-width:1.0;"/><polygon fill="#181818" points="576.38,318.23,585.8774,315.6224,580.2484,315.0621,580.8087,309.433,576.38,318.23" style="stroke:#181818;stroke-width:1.0;"/><text fill="#000000" font-family="sans-serif" font-size="13" lengthAdjust="spacing" textLength="60" x="636.5" y="277.3369">clientes *</text></g><!--reverse link Llamada to Empresa--><g id="link_Llamada_Empresa"><path codeLine="54" d="M402.09,120.63 C435.78,120.63 465.58,120.63 501.51,120.63 " fill="none" id="Llamada-backto-Empresa" style="stroke:#181818;stroke-width:1.0;"/><polygon fill="#181818" points="396.09,120.63,405.09,124.63,401.09,120.63,405.09,116.63,396.09,120.63" style="stroke:#181818;stroke-width:1.0;"/><text fill="#000000" font-family="sans-serif" font-size="13" lengthAdjust="spacing" textLength="69" x="414.5" y="113.6969">llamadas *</text></g><!--link Empresa to GestorNumerosDisponibles--><g id="link_Empresa_GestorNumerosDisponibles"><path codeLine="55" d="M816.5,234.54 C816.5,287.13 816.5,341.78 816.5,386.38 " fill="none" id="Empresa-to-GestorNumerosDisponibles" style="stroke:#181818;stroke-width:1.0;"/><polygon fill="#181818" points="816.5,392.38,820.5,383.38,816.5,387.38,812.5,383.38,816.5,392.38" style="stroke:#181818;stroke-width:1.0;"/><text fill="#000000" font-family="sans-serif" font-size="13" lengthAdjust="spacing" textLength="27" x="817.5" y="277.3369">guia</text></g><!--link Cliente to Llamada--><g id="link_Cliente_Llamada"><path codeLine="56" d="M318.04,311.07 C293.09,270.51 270.2035,233.3106 249.0935,198.9906 " fill="none" id="Cliente-to-Llamada" style="stroke:#181818;stroke-width:1.0;"/><polygon fill="#181818" points="245.95,193.88,247.2582,203.6416,248.5696,198.1388,254.0723,199.4503,245.95,193.88" style="stroke:#181818;stroke-width:1.0;"/><text fill="#000000" font-family="sans-serif" font-size="13" lengthAdjust="spacing" textLength="69" x="299.5" y="277.3369">llamadas *</text></g><!--SRC=[ZLH1ZjGm4Bpd5JucI_A1Q3K7Tc056ZZ0S48SUfmcQicnHxQ3a5RxTnp7JknCPaMEtUsgSdKvN80nx4aGIelifM3kQvYbgshPTwj9zg4arN3Hk2sE0sfrHe6_bToUu2FPJQcJj5HywHthqPuTMrbbexx-rLFkTZBUlOadHxvNFqgwAPiW8RrrjVQ2ZDo0f9-RKEvxainxQQavIM-IbvXK5Qz5mVsAdj5OfUUBcoEPgv9q4MYMdGcI22QU_FdmAzdbCqhKq2czTLzTxDIQOK-qPpU7uKAWpobC-GV42bQjzfwyY1LZah5SuIHWW0wob1rHpDLDKfIcNcxJuooWcvXremPEoWr_SX7kKSUxFJvoZM3nS8ZCViEddA_sLBXmrVxqXgg-PKbMys6uQZGmN-l5MB34NoS8FhfNfJwFpgbl2E9E_oEPq0_2eTVOWyv2JboLnkheUClUAoKGvF_lqM6IGm3zmuoWIPKTsCI5FDvrzWjmKE4FiSMAnaOFmrWz6-ZplvJiMswsSKTBwWGV1UWloZbqLXP4w9kIpu0BSfMuEnsKbZheZXZkwTCOep7Fu5-dFlRB-FExeZPAmkejOskmi-VNtd-DKof27bZJ7AB6bWNLXZsiVRTPsopfR5bu2jcCwzyZQra_4XHHVxCFzGy0]--></g></svg>