<svg xmlns="http://www.w3.org/2000/svg" xmlns:xlink="http://www.w3.org/1999/xlink" contentStyleType="text/css" height="517px" preserveAspectRatio="none" style="width:1271px;height:517px;background:#FFFFFF;" version="1.1" viewBox="0 0 1271 517" width="1271px" zoomAndPan="magnify"><defs/><g><!--class PersonajeProduct--><g id="elem_PersonajeProduct"><rect codeLine="1" fill="#F1F1F1" height="129.4844" id="PersonajeProduct" rx="2.5" ry="2.5" style="stroke:#181818;stroke-width:0.5;" width="328" x="641" y="256.3"/><ellipse cx="712.75" cy="272.3" fill="#A9DCDF" rx="11" ry="11" style="stroke:#181818;stroke-width:1.0;"/><path d="M712.8594,267.6438 L711.7031,272.7219 L714.0313,272.7219 L712.8594,267.6438 Z M711.375,265.4094 L714.3594,265.4094 L717.7188,277.8 L715.2656,277.8 L714.5,274.7375 L711.2188,274.7375 L710.4688,277.8 L708.0313,277.8 L711.375,265.4094 Z " fill="#000000"/><text fill="#000000" font-family="sans-serif" font-size="14" font-style="italic" lengthAdjust="spacing" textLength="123" x="733.25" y="277.1467">PersonajeProduct</text><rect fill="#FFFFFF" height="15.9688" style="stroke:#181818;stroke-width:1.0;stroke-dasharray:2.0,2.0;" width="51" x="921" y="253.3"/><text fill="#000000" font-family="sans-serif" font-size="12" font-style="italic" lengthAdjust="spacing" textLength="49" x="922" y="265.4387">Product</text><line style="stroke:#181818;stroke-width:0.5;" x1="642" x2="968" y1="288.3" y2="288.3"/><rect fill="none" height="6" style="stroke:#C82930;stroke-width:1.0;" width="6" x="649" y="298.9484"/><text fill="#000000" font-family="sans-serif" font-size="14" lengthAdjust="spacing" textLength="103" x="661" y="305.2951">nombre: String</text><rect fill="none" height="6" style="stroke:#C82930;stroke-width:1.0;" width="6" x="649" y="315.2453"/><text fill="#000000" font-family="sans-serif" font-size="14" lengthAdjust="spacing" textLength="95" x="661" y="321.592">salud: Integer</text><line style="stroke:#181818;stroke-width:0.5;" x1="642" x2="968" y1="328.8938" y2="328.8938"/><ellipse cx="652" cy="342.5422" fill="#84BE84" rx="3" ry="3" style="stroke:#038048;stroke-width:1.0;"/><text fill="#000000" font-family="sans-serif" font-size="14" lengthAdjust="spacing" textLength="302" x="661" y="345.8889">&#171;create&#187; PersonajeProduct(nombre: String)</text><ellipse cx="652" cy="358.8391" fill="#84BE84" rx="3" ry="3" style="stroke:#038048;stroke-width:1.0;"/><text fill="#000000" font-family="sans-serif" font-size="14" lengthAdjust="spacing" textLength="276" x="661" y="362.1857">atacar(PersonajeProduct otroPersonaje)</text><ellipse cx="652" cy="375.1359" fill="#84BE84" rx="3" ry="3" style="stroke:#038048;stroke-width:1.0;"/><text fill="#000000" font-family="sans-serif" font-size="14" lengthAdjust="spacing" textLength="137" x="661" y="378.4826">gettersAndSetters()</text></g><!--class ArqueroProduct--><g id="elem_ArqueroProduct"><rect codeLine="10" fill="#F1F1F1" height="64.2969" id="ArqueroProduct" rx="2.5" ry="2.5" style="stroke:#181818;stroke-width:0.5;" width="201" x="516.5" y="445.78"/><ellipse cx="558.5" cy="461.78" fill="#ADD1B2" rx="11" ry="11" style="stroke:#181818;stroke-width:1.0;"/><path d="M561.4688,467.4206 Q560.8906,467.7175 560.25,467.8581 Q559.6094,468.0144 558.9063,468.0144 Q556.4063,468.0144 555.0781,466.3738 Q553.7656,464.7175 553.7656,461.5925 Q553.7656,458.4675 555.0781,456.8113 Q556.4063,455.155 558.9063,455.155 Q559.6094,455.155 560.25,455.3113 Q560.9063,455.4675 561.4688,455.7644 L561.4688,458.4831 Q560.8438,457.905 560.25,457.6394 Q559.6563,457.3581 559.0313,457.3581 Q557.6875,457.3581 557,458.4363 Q556.3125,459.4988 556.3125,461.5925 Q556.3125,463.6863 557,464.7644 Q557.6875,465.8269 559.0313,465.8269 Q559.6563,465.8269 560.25,465.5613 Q560.8438,465.28 561.4688,464.7019 L561.4688,467.4206 Z " fill="#000000"/><text fill="#000000" font-family="sans-serif" font-size="14" lengthAdjust="spacing" textLength="109" x="578.5" y="466.6267">ArqueroProduct</text><line style="stroke:#181818;stroke-width:0.5;" x1="517.5" x2="716.5" y1="477.78" y2="477.78"/><line style="stroke:#181818;stroke-width:0.5;" x1="517.5" x2="716.5" y1="485.78" y2="485.78"/><ellipse cx="527.5" cy="499.4284" fill="#84BE84" rx="3" ry="3" style="stroke:#038048;stroke-width:1.0;"/><text fill="#000000" font-family="sans-serif" font-size="14" lengthAdjust="spacing" textLength="175" x="536.5" y="502.7751">&#171;create&#187;(nombre: String)</text></g><!--class GuerreroProduct--><g id="elem_GuerreroProduct"><rect codeLine="14" fill="#F1F1F1" height="64.2969" id="GuerreroProduct" rx="2.5" ry="2.5" style="stroke:#181818;stroke-width:0.5;" width="201" x="752.5" y="445.78"/><ellipse cx="791.35" cy="461.78" fill="#ADD1B2" rx="11" ry="11" style="stroke:#181818;stroke-width:1.0;"/><path d="M794.3188,467.4206 Q793.7406,467.7175 793.1,467.8581 Q792.4594,468.0144 791.7563,468.0144 Q789.2563,468.0144 787.9281,466.3738 Q786.6156,464.7175 786.6156,461.5925 Q786.6156,458.4675 787.9281,456.8113 Q789.2563,455.155 791.7563,455.155 Q792.4594,455.155 793.1,455.3113 Q793.7563,455.4675 794.3188,455.7644 L794.3188,458.4831 Q793.6938,457.905 793.1,457.6394 Q792.5063,457.3581 791.8813,457.3581 Q790.5375,457.3581 789.85,458.4363 Q789.1625,459.4988 789.1625,461.5925 Q789.1625,463.6863 789.85,464.7644 Q790.5375,465.8269 791.8813,465.8269 Q792.5063,465.8269 793.1,465.5613 Q793.6938,465.28 794.3188,464.7019 L794.3188,467.4206 Z " fill="#000000"/><text fill="#000000" font-family="sans-serif" font-size="14" lengthAdjust="spacing" textLength="116" x="810.65" y="466.6267">GuerreroProduct</text><line style="stroke:#181818;stroke-width:0.5;" x1="753.5" x2="952.5" y1="477.78" y2="477.78"/><line style="stroke:#181818;stroke-width:0.5;" x1="753.5" x2="952.5" y1="485.78" y2="485.78"/><ellipse cx="763.5" cy="499.4284" fill="#84BE84" rx="3" ry="3" style="stroke:#038048;stroke-width:1.0;"/><text fill="#000000" font-family="sans-serif" font-size="14" lengthAdjust="spacing" textLength="175" x="772.5" y="502.7751">&#171;create&#187;(nombre: String)</text></g><!--class MagoProduct--><g id="elem_MagoProduct"><rect codeLine="18" fill="#F1F1F1" height="64.2969" id="MagoProduct" rx="2.5" ry="2.5" style="stroke:#181818;stroke-width:0.5;" width="201" x="988.5" y="445.78"/><ellipse cx="1038.75" cy="461.78" fill="#ADD1B2" rx="11" ry="11" style="stroke:#181818;stroke-width:1.0;"/><path d="M1041.7188,467.4206 Q1041.1406,467.7175 1040.5,467.8581 Q1039.8594,468.0144 1039.1563,468.0144 Q1036.6563,468.0144 1035.3281,466.3738 Q1034.0156,464.7175 1034.0156,461.5925 Q1034.0156,458.4675 1035.3281,456.8113 Q1036.6563,455.155 1039.1563,455.155 Q1039.8594,455.155 1040.5,455.3113 Q1041.1563,455.4675 1041.7188,455.7644 L1041.7188,458.4831 Q1041.0938,457.905 1040.5,457.6394 Q1039.9063,457.3581 1039.2813,457.3581 Q1037.9375,457.3581 1037.25,458.4363 Q1036.5625,459.4988 1036.5625,461.5925 Q1036.5625,463.6863 1037.25,464.7644 Q1037.9375,465.8269 1039.2813,465.8269 Q1039.9063,465.8269 1040.5,465.5613 Q1041.0938,465.28 1041.7188,464.7019 L1041.7188,467.4206 Z " fill="#000000"/><text fill="#000000" font-family="sans-serif" font-size="14" lengthAdjust="spacing" textLength="92" x="1059.25" y="466.6267">MagoProduct</text><line style="stroke:#181818;stroke-width:0.5;" x1="989.5" x2="1188.5" y1="477.78" y2="477.78"/><line style="stroke:#181818;stroke-width:0.5;" x1="989.5" x2="1188.5" y1="485.78" y2="485.78"/><ellipse cx="999.5" cy="499.4284" fill="#84BE84" rx="3" ry="3" style="stroke:#038048;stroke-width:1.0;"/><text fill="#000000" font-family="sans-serif" font-size="14" lengthAdjust="spacing" textLength="175" x="1008.5" y="502.7751">&#171;create&#187;(nombre: String)</text></g><!--class PersonajeCreator--><g id="elem_PersonajeCreator"><rect codeLine="22" fill="#F1F1F1" height="64.2969" id="PersonajeCreator" rx="2.5" ry="2.5" style="stroke:#181818;stroke-width:0.5;" width="439" x="117.5" y="288.89"/><ellipse cx="247.25" cy="304.89" fill="#A9DCDF" rx="11" ry="11" style="stroke:#181818;stroke-width:1.0;"/><path d="M247.3594,300.2338 L246.2031,305.3119 L248.5313,305.3119 L247.3594,300.2338 Z M245.875,297.9994 L248.8594,297.9994 L252.2188,310.39 L249.7656,310.39 L249,307.3275 L245.7188,307.3275 L244.9688,310.39 L242.5313,310.39 L245.875,297.9994 Z " fill="#000000"/><text fill="#000000" font-family="sans-serif" font-size="14" font-style="italic" lengthAdjust="spacing" textLength="120" x="267.75" y="309.7367">PersonajeCreator</text><rect fill="#FFFFFF" height="15.9688" style="stroke:#181818;stroke-width:1.0;stroke-dasharray:2.0,2.0;" width="49" x="510.5" y="285.89"/><text fill="#000000" font-family="sans-serif" font-size="12" font-style="italic" lengthAdjust="spacing" textLength="47" x="511.5" y="298.0287">Creator</text><line style="stroke:#181818;stroke-width:0.5;" x1="118.5" x2="555.5" y1="320.89" y2="320.89"/><line style="stroke:#181818;stroke-width:0.5;" x1="118.5" x2="555.5" y1="328.89" y2="328.89"/><ellipse cx="128.5" cy="342.5384" fill="#84BE84" rx="3" ry="3" style="stroke:#038048;stroke-width:1.0;"/><text fill="#000000" font-family="sans-serif" font-size="14" font-style="italic" lengthAdjust="spacing" textLength="413" x="137.5" y="345.8851">factoryMethod(nombrePersonaje: String): PersonajeProduct</text></g><!--class ArqueroCreator--><g id="elem_ArqueroCreator"><rect codeLine="26" fill="#F1F1F1" height="48" id="ArqueroCreator" rx="2.5" ry="2.5" style="stroke:#181818;stroke-width:0.5;" width="138" x="7" y="453.93"/><ellipse cx="22" cy="469.93" fill="#ADD1B2" rx="11" ry="11" style="stroke:#181818;stroke-width:1.0;"/><path d="M24.9688,475.5706 Q24.3906,475.8675 23.75,476.0081 Q23.1094,476.1644 22.4063,476.1644 Q19.9063,476.1644 18.5781,474.5238 Q17.2656,472.8675 17.2656,469.7425 Q17.2656,466.6175 18.5781,464.9613 Q19.9063,463.305 22.4063,463.305 Q23.1094,463.305 23.75,463.4613 Q24.4063,463.6175 24.9688,463.9144 L24.9688,466.6331 Q24.3438,466.055 23.75,465.7894 Q23.1563,465.5081 22.5313,465.5081 Q21.1875,465.5081 20.5,466.5863 Q19.8125,467.6488 19.8125,469.7425 Q19.8125,471.8363 20.5,472.9144 Q21.1875,473.9769 22.5313,473.9769 Q23.1563,473.9769 23.75,473.7113 Q24.3438,473.43 24.9688,472.8519 L24.9688,475.5706 Z " fill="#000000"/><text fill="#000000" font-family="sans-serif" font-size="14" lengthAdjust="spacing" textLength="106" x="36" y="474.7767">ArqueroCreator</text><line style="stroke:#181818;stroke-width:0.5;" x1="8" x2="144" y1="485.93" y2="485.93"/><line style="stroke:#181818;stroke-width:0.5;" x1="8" x2="144" y1="493.93" y2="493.93"/></g><!--class GuerreroCreator--><g id="elem_GuerreroCreator"><rect codeLine="30" fill="#F1F1F1" height="48" id="GuerreroCreator" rx="2.5" ry="2.5" style="stroke:#181818;stroke-width:0.5;" width="145" x="180.5" y="453.93"/><ellipse cx="195.5" cy="469.93" fill="#ADD1B2" rx="11" ry="11" style="stroke:#181818;stroke-width:1.0;"/><path d="M198.4688,475.5706 Q197.8906,475.8675 197.25,476.0081 Q196.6094,476.1644 195.9063,476.1644 Q193.4063,476.1644 192.0781,474.5238 Q190.7656,472.8675 190.7656,469.7425 Q190.7656,466.6175 192.0781,464.9613 Q193.4063,463.305 195.9063,463.305 Q196.6094,463.305 197.25,463.4613 Q197.9063,463.6175 198.4688,463.9144 L198.4688,466.6331 Q197.8438,466.055 197.25,465.7894 Q196.6563,465.5081 196.0313,465.5081 Q194.6875,465.5081 194,466.5863 Q193.3125,467.6488 193.3125,469.7425 Q193.3125,471.8363 194,472.9144 Q194.6875,473.9769 196.0313,473.9769 Q196.6563,473.9769 197.25,473.7113 Q197.8438,473.43 198.4688,472.8519 L198.4688,475.5706 Z " fill="#000000"/><text fill="#000000" font-family="sans-serif" font-size="14" lengthAdjust="spacing" textLength="113" x="209.5" y="474.7767">GuerreroCreator</text><line style="stroke:#181818;stroke-width:0.5;" x1="181.5" x2="324.5" y1="485.93" y2="485.93"/><line style="stroke:#181818;stroke-width:0.5;" x1="181.5" x2="324.5" y1="493.93" y2="493.93"/></g><!--class MagoCreator--><g id="elem_MagoCreator"><rect codeLine="34" fill="#F1F1F1" height="48" id="MagoCreator" rx="2.5" ry="2.5" style="stroke:#181818;stroke-width:0.5;" width="121" x="360.5" y="453.93"/><ellipse cx="375.5" cy="469.93" fill="#ADD1B2" rx="11" ry="11" style="stroke:#181818;stroke-width:1.0;"/><path d="M378.4688,475.5706 Q377.8906,475.8675 377.25,476.0081 Q376.6094,476.1644 375.9063,476.1644 Q373.4063,476.1644 372.0781,474.5238 Q370.7656,472.8675 370.7656,469.7425 Q370.7656,466.6175 372.0781,464.9613 Q373.4063,463.305 375.9063,463.305 Q376.6094,463.305 377.25,463.4613 Q377.9063,463.6175 378.4688,463.9144 L378.4688,466.6331 Q377.8438,466.055 377.25,465.7894 Q376.6563,465.5081 376.0313,465.5081 Q374.6875,465.5081 374,466.5863 Q373.3125,467.6488 373.3125,469.7425 Q373.3125,471.8363 374,472.9144 Q374.6875,473.9769 376.0313,473.9769 Q376.6563,473.9769 377.25,473.7113 Q377.8438,473.43 378.4688,472.8519 L378.4688,475.5706 Z " fill="#000000"/><text fill="#000000" font-family="sans-serif" font-size="14" lengthAdjust="spacing" textLength="89" x="389.5" y="474.7767">MagoCreator</text><line style="stroke:#181818;stroke-width:0.5;" x1="361.5" x2="480.5" y1="485.93" y2="485.93"/><line style="stroke:#181818;stroke-width:0.5;" x1="361.5" x2="480.5" y1="493.93" y2="493.93"/></g><!--class Habilidad--><g id="elem_Habilidad"><rect codeLine="38" fill="#F1F1F1" height="48" id="Habilidad" rx="2.5" ry="2.5" style="stroke:#181818;stroke-width:0.5;" width="94" x="758" y="123.15"/><ellipse cx="773" cy="139.15" fill="#B4A7E5" rx="11" ry="11" style="stroke:#181818;stroke-width:1.0;"/><path d="M768.9219,134.9156 L768.9219,132.7594 L776.3125,132.7594 L776.3125,134.9156 L773.8438,134.9156 L773.8438,142.9937 L776.3125,142.9937 L776.3125,145.15 L768.9219,145.15 L768.9219,142.9937 L771.3906,142.9937 L771.3906,134.9156 L768.9219,134.9156 Z " fill="#000000"/><text fill="#000000" font-family="sans-serif" font-size="14" font-style="italic" lengthAdjust="spacing" textLength="62" x="787" y="143.9967">Habilidad</text><line style="stroke:#181818;stroke-width:0.5;" x1="759" x2="851" y1="155.15" y2="155.15"/><line style="stroke:#181818;stroke-width:0.5;" x1="759" x2="851" y1="163.15" y2="163.15"/></g><!--class Armadura--><g id="elem_Armadura"><rect codeLine="40" fill="#F1F1F1" height="48" id="Armadura" rx="2.5" ry="2.5" style="stroke:#181818;stroke-width:0.5;" width="98" x="964" y="123.15"/><ellipse cx="979" cy="139.15" fill="#B4A7E5" rx="11" ry="11" style="stroke:#181818;stroke-width:1.0;"/><path d="M974.9219,134.9156 L974.9219,132.7594 L982.3125,132.7594 L982.3125,134.9156 L979.8438,134.9156 L979.8438,142.9937 L982.3125,142.9937 L982.3125,145.15 L974.9219,145.15 L974.9219,142.9937 L977.3906,142.9937 L977.3906,134.9156 L974.9219,134.9156 Z " fill="#000000"/><text fill="#000000" font-family="sans-serif" font-size="14" font-style="italic" lengthAdjust="spacing" textLength="66" x="993" y="143.9967">Armadura</text><line style="stroke:#181818;stroke-width:0.5;" x1="965" x2="1061" y1="155.15" y2="155.15"/><line style="stroke:#181818;stroke-width:0.5;" x1="965" x2="1061" y1="163.15" y2="163.15"/></g><!--class Arma--><g id="elem_Arma"><rect codeLine="43" fill="#F1F1F1" height="64.2969" id="Arma" rx="2.5" ry="2.5" style="stroke:#181818;stroke-width:0.5;" width="289" x="417.5" y="115"/><ellipse cx="540.25" cy="131" fill="#B4A7E5" rx="11" ry="11" style="stroke:#181818;stroke-width:1.0;"/><path d="M536.1719,126.7656 L536.1719,124.6094 L543.5625,124.6094 L543.5625,126.7656 L541.0938,126.7656 L541.0938,134.8438 L543.5625,134.8438 L543.5625,137 L536.1719,137 L536.1719,134.8438 L538.6406,134.8438 L538.6406,126.7656 L536.1719,126.7656 Z " fill="#000000"/><text fill="#000000" font-family="sans-serif" font-size="14" font-style="italic" lengthAdjust="spacing" textLength="35" x="560.75" y="135.8467">Arma</text><line style="stroke:#181818;stroke-width:0.5;" x1="418.5" x2="705.5" y1="147" y2="147"/><line style="stroke:#181818;stroke-width:0.5;" x1="418.5" x2="705.5" y1="155" y2="155"/><ellipse cx="428.5" cy="168.6484" fill="#84BE84" rx="3" ry="3" style="stroke:#038048;stroke-width:1.0;"/><text fill="#000000" font-family="sans-serif" font-size="14" font-style="italic" lengthAdjust="spacing" textLength="263" x="437.5" y="171.9951">golpearArmadura(Armadura armadura)</text></g><!--class ArmaArco--><g id="elem_ArmaArco"><rect fill="#F1F1F1" height="48" id="ArmaArco" rx="2.5" ry="2.5" style="stroke:#181818;stroke-width:0.5;" width="98" x="339" y="7"/><ellipse cx="354" cy="23" fill="#ADD1B2" rx="11" ry="11" style="stroke:#181818;stroke-width:1.0;"/><path d="M356.9688,28.6406 Q356.3906,28.9375 355.75,29.0781 Q355.1094,29.2344 354.4063,29.2344 Q351.9063,29.2344 350.5781,27.5938 Q349.2656,25.9375 349.2656,22.8125 Q349.2656,19.6875 350.5781,18.0313 Q351.9063,16.375 354.4063,16.375 Q355.1094,16.375 355.75,16.5313 Q356.4063,16.6875 356.9688,16.9844 L356.9688,19.7031 Q356.3438,19.125 355.75,18.8594 Q355.1563,18.5781 354.5313,18.5781 Q353.1875,18.5781 352.5,19.6563 Q351.8125,20.7188 351.8125,22.8125 Q351.8125,24.9063 352.5,25.9844 Q353.1875,27.0469 354.5313,27.0469 Q355.1563,27.0469 355.75,26.7813 Q356.3438,26.5 356.9688,25.9219 L356.9688,28.6406 Z " fill="#000000"/><text fill="#000000" font-family="sans-serif" font-size="14" lengthAdjust="spacing" textLength="66" x="368" y="27.8467">ArmaArco</text><line style="stroke:#181818;stroke-width:0.5;" x1="340" x2="436" y1="39" y2="39"/><line style="stroke:#181818;stroke-width:0.5;" x1="340" x2="436" y1="47" y2="47"/></g><!--class ArmaBaston--><g id="elem_ArmaBaston"><rect fill="#F1F1F1" height="48" id="ArmaBaston" rx="2.5" ry="2.5" style="stroke:#181818;stroke-width:0.5;" width="116" x="625" y="7"/><ellipse cx="640" cy="23" fill="#ADD1B2" rx="11" ry="11" style="stroke:#181818;stroke-width:1.0;"/><path d="M642.9688,28.6406 Q642.3906,28.9375 641.75,29.0781 Q641.1094,29.2344 640.4063,29.2344 Q637.9063,29.2344 636.5781,27.5938 Q635.2656,25.9375 635.2656,22.8125 Q635.2656,19.6875 636.5781,18.0313 Q637.9063,16.375 640.4063,16.375 Q641.1094,16.375 641.75,16.5313 Q642.4063,16.6875 642.9688,16.9844 L642.9688,19.7031 Q642.3438,19.125 641.75,18.8594 Q641.1563,18.5781 640.5313,18.5781 Q639.1875,18.5781 638.5,19.6563 Q637.8125,20.7188 637.8125,22.8125 Q637.8125,24.9063 638.5,25.9844 Q639.1875,27.0469 640.5313,27.0469 Q641.1563,27.0469 641.75,26.7813 Q642.3438,26.5 642.9688,25.9219 L642.9688,28.6406 Z " fill="#000000"/><text fill="#000000" font-family="sans-serif" font-size="14" lengthAdjust="spacing" textLength="84" x="654" y="27.8467">ArmaBaston</text><line style="stroke:#181818;stroke-width:0.5;" x1="626" x2="740" y1="39" y2="39"/><line style="stroke:#181818;stroke-width:0.5;" x1="626" x2="740" y1="47" y2="47"/></g><!--class ArmaEspada--><g id="elem_ArmaEspada"><rect fill="#F1F1F1" height="48" id="ArmaEspada" rx="2.5" ry="2.5" style="stroke:#181818;stroke-width:0.5;" width="118" x="472" y="7"/><ellipse cx="487" cy="23" fill="#ADD1B2" rx="11" ry="11" style="stroke:#181818;stroke-width:1.0;"/><path d="M489.9688,28.6406 Q489.3906,28.9375 488.75,29.0781 Q488.1094,29.2344 487.4063,29.2344 Q484.9063,29.2344 483.5781,27.5938 Q482.2656,25.9375 482.2656,22.8125 Q482.2656,19.6875 483.5781,18.0313 Q484.9063,16.375 487.4063,16.375 Q488.1094,16.375 488.75,16.5313 Q489.4063,16.6875 489.9688,16.9844 L489.9688,19.7031 Q489.3438,19.125 488.75,18.8594 Q488.1563,18.5781 487.5313,18.5781 Q486.1875,18.5781 485.5,19.6563 Q484.8125,20.7188 484.8125,22.8125 Q484.8125,24.9063 485.5,25.9844 Q486.1875,27.0469 487.5313,27.0469 Q488.1563,27.0469 488.75,26.7813 Q489.3438,26.5 489.9688,25.9219 L489.9688,28.6406 Z " fill="#000000"/><text fill="#000000" font-family="sans-serif" font-size="14" lengthAdjust="spacing" textLength="86" x="501" y="27.8467">ArmaEspada</text><line style="stroke:#181818;stroke-width:0.5;" x1="473" x2="589" y1="39" y2="39"/><line style="stroke:#181818;stroke-width:0.5;" x1="473" x2="589" y1="47" y2="47"/></g><!--class ArmaduraAcero--><g id="elem_ArmaduraAcero"><rect fill="#F1F1F1" height="48" id="ArmaduraAcero" rx="2.5" ry="2.5" style="stroke:#181818;stroke-width:0.5;" width="138" x="1126" y="7"/><ellipse cx="1141" cy="23" fill="#ADD1B2" rx="11" ry="11" style="stroke:#181818;stroke-width:1.0;"/><path d="M1143.9688,28.6406 Q1143.3906,28.9375 1142.75,29.0781 Q1142.1094,29.2344 1141.4063,29.2344 Q1138.9063,29.2344 1137.5781,27.5938 Q1136.2656,25.9375 1136.2656,22.8125 Q1136.2656,19.6875 1137.5781,18.0313 Q1138.9063,16.375 1141.4063,16.375 Q1142.1094,16.375 1142.75,16.5313 Q1143.4063,16.6875 1143.9688,16.9844 L1143.9688,19.7031 Q1143.3438,19.125 1142.75,18.8594 Q1142.1563,18.5781 1141.5313,18.5781 Q1140.1875,18.5781 1139.5,19.6563 Q1138.8125,20.7188 1138.8125,22.8125 Q1138.8125,24.9063 1139.5,25.9844 Q1140.1875,27.0469 1141.5313,27.0469 Q1142.1563,27.0469 1142.75,26.7813 Q1143.3438,26.5 1143.9688,25.9219 L1143.9688,28.6406 Z " fill="#000000"/><text fill="#000000" font-family="sans-serif" font-size="14" lengthAdjust="spacing" textLength="106" x="1155" y="27.8467">ArmaduraAcero</text><line style="stroke:#181818;stroke-width:0.5;" x1="1127" x2="1263" y1="39" y2="39"/><line style="stroke:#181818;stroke-width:0.5;" x1="1127" x2="1263" y1="47" y2="47"/></g><!--class ArmaduraCuero--><g id="elem_ArmaduraCuero"><rect fill="#F1F1F1" height="48" id="ArmaduraCuero" rx="2.5" ry="2.5" style="stroke:#181818;stroke-width:0.5;" width="140" x="951" y="7"/><ellipse cx="966" cy="23" fill="#ADD1B2" rx="11" ry="11" style="stroke:#181818;stroke-width:1.0;"/><path d="M968.9688,28.6406 Q968.3906,28.9375 967.75,29.0781 Q967.1094,29.2344 966.4063,29.2344 Q963.9063,29.2344 962.5781,27.5938 Q961.2656,25.9375 961.2656,22.8125 Q961.2656,19.6875 962.5781,18.0313 Q963.9063,16.375 966.4063,16.375 Q967.1094,16.375 967.75,16.5313 Q968.4063,16.6875 968.9688,16.9844 L968.9688,19.7031 Q968.3438,19.125 967.75,18.8594 Q967.1563,18.5781 966.5313,18.5781 Q965.1875,18.5781 964.5,19.6563 Q963.8125,20.7188 963.8125,22.8125 Q963.8125,24.9063 964.5,25.9844 Q965.1875,27.0469 966.5313,27.0469 Q967.1563,27.0469 967.75,26.7813 Q968.3438,26.5 968.9688,25.9219 L968.9688,28.6406 Z " fill="#000000"/><text fill="#000000" font-family="sans-serif" font-size="14" lengthAdjust="spacing" textLength="108" x="980" y="27.8467">ArmaduraCuero</text><line style="stroke:#181818;stroke-width:0.5;" x1="952" x2="1090" y1="39" y2="39"/><line style="stroke:#181818;stroke-width:0.5;" x1="952" x2="1090" y1="47" y2="47"/></g><!--class ArmaduraHierro--><g id="elem_ArmaduraHierro"><rect fill="#F1F1F1" height="48" id="ArmaduraHierro" rx="2.5" ry="2.5" style="stroke:#181818;stroke-width:0.5;" width="139" x="776.5" y="7"/><ellipse cx="791.5" cy="23" fill="#ADD1B2" rx="11" ry="11" style="stroke:#181818;stroke-width:1.0;"/><path d="M794.4688,28.6406 Q793.8906,28.9375 793.25,29.0781 Q792.6094,29.2344 791.9063,29.2344 Q789.4063,29.2344 788.0781,27.5938 Q786.7656,25.9375 786.7656,22.8125 Q786.7656,19.6875 788.0781,18.0313 Q789.4063,16.375 791.9063,16.375 Q792.6094,16.375 793.25,16.5313 Q793.9063,16.6875 794.4688,16.9844 L794.4688,19.7031 Q793.8438,19.125 793.25,18.8594 Q792.6563,18.5781 792.0313,18.5781 Q790.6875,18.5781 790,19.6563 Q789.3125,20.7188 789.3125,22.8125 Q789.3125,24.9063 790,25.9844 Q790.6875,27.0469 792.0313,27.0469 Q792.6563,27.0469 793.25,26.7813 Q793.8438,26.5 794.4688,25.9219 L794.4688,28.6406 Z " fill="#000000"/><text fill="#000000" font-family="sans-serif" font-size="14" lengthAdjust="spacing" textLength="107" x="805.5" y="27.8467">ArmaduraHierro</text><line style="stroke:#181818;stroke-width:0.5;" x1="777.5" x2="914.5" y1="39" y2="39"/><line style="stroke:#181818;stroke-width:0.5;" x1="777.5" x2="914.5" y1="47" y2="47"/></g><!--reverse link PersonajeCreator to PersonajeProduct--><g id="link_PersonajeCreator_PersonajeProduct"><path codeLine="48" d="M562.95,321.04 C591.19,321.04 613.7,321.04 640.83,321.04 " fill="none" id="PersonajeCreator-backto-PersonajeProduct" style="stroke:#181818;stroke-width:1.0;stroke-dasharray:7.0,7.0;"/><polygon fill="#181818" points="556.95,321.04,565.95,325.04,561.95,321.04,565.95,317.04,556.95,321.04" style="stroke:#181818;stroke-width:1.0;"/></g><!--reverse link PersonajeProduct to ArqueroProduct--><g id="link_PersonajeProduct_ArqueroProduct"><path codeLine="50" d="M713.2867,397.6045 C688.4367,418.0745 675.92,428.39 655.19,445.47 " fill="none" id="PersonajeProduct-backto-ArqueroProduct" style="stroke:#181818;stroke-width:1.0;"/><polygon fill="none" points="727.18,386.16,709.4719,392.9734,717.1015,402.2356,727.18,386.16" style="stroke:#181818;stroke-width:1.0;"/></g><!--reverse link PersonajeProduct to GuerreroProduct--><g id="link_PersonajeProduct_GuerreroProduct"><path codeLine="51" d="M830.126,403.134 C836.476,423.634 837.91,428.24 843.22,445.37 " fill="none" id="PersonajeProduct-backto-GuerreroProduct" style="stroke:#181818;stroke-width:1.0;"/><polygon fill="none" points="824.8,385.94,824.3946,404.9093,835.8573,401.3587,824.8,385.94" style="stroke:#181818;stroke-width:1.0;"/></g><!--reverse link PersonajeProduct to MagoProduct--><g id="link_PersonajeProduct_MagoProduct"><path codeLine="52" d="M938.3632,394.7773 C975.9032,415.2473 999.99,428.39 1031.31,445.47 " fill="none" id="PersonajeProduct-backto-MagoProduct" style="stroke:#181818;stroke-width:1.0;"/><polygon fill="none" points="922.56,386.16,935.4908,400.045,941.2357,389.5095,922.56,386.16" style="stroke:#181818;stroke-width:1.0;"/></g><!--reverse link PersonajeCreator to ArqueroCreator--><g id="link_PersonajeCreator_ArqueroCreator"><path codeLine="54" d="M268.3904,362.756 C218.4604,392.386 160.36,426.87 115.45,453.52 " fill="none" id="PersonajeCreator-backto-ArqueroCreator" style="stroke:#181818;stroke-width:1.0;"/><polygon fill="none" points="283.87,353.57,265.3284,357.5962,271.4525,367.9159,283.87,353.57" style="stroke:#181818;stroke-width:1.0;"/></g><!--reverse link PersonajeCreator to GuerreroCreator--><g id="link_PersonajeCreator_GuerreroCreator"><path codeLine="55" d="M311.4176,369.2122 C295.3076,398.9122 280.07,427.01 265.6,453.7 " fill="none" id="PersonajeCreator-backto-GuerreroCreator" style="stroke:#181818;stroke-width:1.0;"/><polygon fill="none" points="320,353.39,306.1436,366.3514,316.6917,372.073,320,353.39" style="stroke:#181818;stroke-width:1.0;"/></g><!--reverse link PersonajeCreator to MagoCreator--><g id="link_PersonajeCreator_MagoCreator"><path codeLine="56" d="M362.5824,369.2122 C378.6924,398.9122 393.93,427.01 408.4,453.7 " fill="none" id="PersonajeCreator-backto-MagoCreator" style="stroke:#181818;stroke-width:1.0;"/><polygon fill="none" points="354,353.39,357.3083,372.073,367.8564,366.3514,354,353.39" style="stroke:#181818;stroke-width:1.0;"/></g><!--reverse link Arma to PersonajeProduct--><g id="link_Arma_PersonajeProduct"><path codeLine="58" d="M611.4684,183.1449 C641.6084,204.4649 677.59,229.91 714.41,255.96 " fill="none" id="Arma-backto-PersonajeProduct" style="stroke:#181818;stroke-width:1.0;"/><polygon fill="#181818" points="606.57,179.68,611.6076,188.143,610.652,182.5675,616.2275,181.6118,606.57,179.68" style="stroke:#181818;stroke-width:1.0;"/><rect fill="none" height="6" style="stroke:#C82930;stroke-width:1.0;" width="6" x="672" y="215.3664"/><text fill="#000000" font-family="sans-serif" font-size="13" lengthAdjust="spacing" textLength="34" x="682" y="222.3669">arma</text></g><!--reverse link Armadura to PersonajeProduct--><g id="link_Armadura_PersonajeProduct"><path codeLine="59" d="M980.3252,175.1525 C954.1552,196.7825 918.5,226.24 882.68,255.84 " fill="none" id="Armadura-backto-PersonajeProduct" style="stroke:#181818;stroke-width:1.0;"/><polygon fill="#181818" points="984.95,171.33,975.4645,173.9805,981.096,174.5154,980.5611,180.1469,984.95,171.33" style="stroke:#181818;stroke-width:1.0;"/><rect fill="none" height="6" style="stroke:#C82930;stroke-width:1.0;" width="6" x="937" y="215.3664"/><text fill="#000000" font-family="sans-serif" font-size="13" lengthAdjust="spacing" textLength="63" x="947" y="222.3669">armadura</text></g><!--reverse link Habilidad to PersonajeProduct--><g id="link_Habilidad_PersonajeProduct"><path codeLine="60" d="M805,177.33 C805,198.96 805,226.24 805,255.84 " fill="none" id="Habilidad-backto-PersonajeProduct" style="stroke:#181818;stroke-width:1.0;"/><polygon fill="#181818" points="805,171.33,801,180.33,805,176.33,809,180.33,805,171.33" style="stroke:#181818;stroke-width:1.0;"/><rect fill="none" height="6" style="stroke:#C82930;stroke-width:1.0;" width="6" x="808" y="215.3664"/><text fill="#000000" font-family="sans-serif" font-size="13" lengthAdjust="spacing" textLength="83" x="818" y="222.3669">habilidades *</text></g><!--reverse link ArmaArco to Arma--><g id="link_ArmaArco_Arma"><path codeLine="62" d="M428.6468,58.6712 C454.6968,75.7612 485.3,95.84 513.88,114.58 " fill="none" id="ArmaArco-backto-Arma" style="stroke:#181818;stroke-width:1.0;"/><polygon fill="#181818" points="423.63,55.38,428.961,63.6613,427.8106,58.1227,433.3493,56.9723,423.63,55.38" style="stroke:#181818;stroke-width:1.0;"/></g><!--reverse link ArmaBaston to Arma--><g id="link_ArmaBaston_Arma"><path codeLine="63" d="M653.8563,59.498 C635.7463,76.588 615.34,95.84 595.46,114.58 " fill="none" id="ArmaBaston-backto-Arma" style="stroke:#181818;stroke-width:1.0;"/><polygon fill="#181818" points="658.22,55.38,648.9291,58.6478,654.5835,58.8116,654.4197,64.4661,658.22,55.38" style="stroke:#181818;stroke-width:1.0;"/></g><!--reverse link ArmaEspada to Arma--><g id="link_ArmaEspada_Arma"><path codeLine="64" d="M538.9221,61.1704 C543.5621,78.2604 548.34,95.84 553.43,114.58 " fill="none" id="ArmaEspada-backto-Arma" style="stroke:#181818;stroke-width:1.0;"/><polygon fill="#181818" points="537.35,55.38,535.8479,65.1136,538.6601,60.2053,543.5684,63.0175,537.35,55.38" style="stroke:#181818;stroke-width:1.0;"/></g><!--reverse link ArmaduraAcero to Armadura--><g id="link_ArmaduraAcero_Armadura"><path codeLine="66" d="M1152.647,58.568 C1121.237,78.268 1081.61,103.12 1050.22,122.81 " fill="none" id="ArmaduraAcero-backto-Armadura" style="stroke:#181818;stroke-width:1.0;"/><polygon fill="#181818" points="1157.73,55.38,1147.9802,56.7733,1153.4942,58.0367,1152.2309,63.5506,1157.73,55.38" style="stroke:#181818;stroke-width:1.0;"/></g><!--reverse link ArmaduraCuero to Armadura--><g id="link_ArmaduraCuero_Armadura"><path codeLine="67" d="M1018.9407,61.3653 C1017.5607,81.0653 1016.02,103.12 1014.64,122.81 " fill="none" id="ArmaduraCuero-backto-Armadura" style="stroke:#181818;stroke-width:1.0;"/><polygon fill="#181818" points="1019.36,55.38,1014.7409,64.0785,1019.0106,60.3678,1022.7213,64.6375,1019.36,55.38" style="stroke:#181818;stroke-width:1.0;"/></g><!--reverse link ArmaduraHierro to Armadura--><g id="link_ArmaduraHierro_Armadura"><path codeLine="68" d="M885.1534,58.7659 C913.9734,78.4659 950.04,103.12 978.85,122.81 " fill="none" id="ArmaduraHierro-backto-Armadura" style="stroke:#181818;stroke-width:1.0;"/><polygon fill="#181818" points="880.2,55.38,885.3728,63.7611,884.3278,58.2016,889.8873,57.1566,880.2,55.38" style="stroke:#181818;stroke-width:1.0;"/></g><!--SRC=[dLFBReCm4BpxAtmahSW788H4eohf8LAaVC46kuIAu7Hj3bNAlzS6GucD8xMNQ3CxiuzP0oUf40f5Yngaf0UEKZJmmGyeMAlXr0RPZL0QqqPSJiWJUbHODMKFIQXRbj2tHl6I8z7OCqtJ0ZaedcLUnUY-nAhdWu82CFAw2uLY0WTgoPNIIDwmun15Az8HCeoVusVBjSJARyumNkz9kDKo_9To3-MVL10mV6Cq0cbgWsmeTXlvtRl-4VYrv-eicAqygQSMYMUuvuvjOEhx1YmcpOvEejBdHZqIfpiuLNN5WEdrkncUumLOYw1X3wVkShGKzPK3Zg9eKeCDUlE8RzSQg_AirlxQn7_Btt7iF940oNaE0TRiz4kJpRfPB41ol0-mPaTOs2rkht7MUvleRzAOzeXZ31rv9WvnfziQyddymoLz8gI_us_970lXOYyWbMXSz5LUWS5Ge3_n_LnveQq89JVjW-IkqZwA7m00]--></g></svg>