<?xml version="1.0" encoding="us-ascii" standalone="no"?><svg xmlns="http://www.w3.org/2000/svg" xmlns:xlink="http://www.w3.org/1999/xlink" contentStyleType="text/css" height="605px" preserveAspectRatio="none" style="width:660px;height:605px;background:#FFFFFF;" version="1.1" viewBox="0 0 660 605" width="660px" zoomAndPan="magnify"><defs/><g><!--class Persona--><g id="elem_Persona"><rect codeLine="1" fill="#F1F1F1" height="96.8906" id="Persona" rx="2.5" ry="2.5" style="stroke:#181818;stroke-width:0.5;" width="129" x="64.5" y="116"/><ellipse cx="97.5" cy="132" fill="#ADD1B2" rx="11" ry="11" style="stroke:#181818;stroke-width:1.0;"/><path d="M100.4688,137.6406 Q99.8906,137.9375 99.25,138.0781 Q98.6094,138.2344 97.9063,138.2344 Q95.4063,138.2344 94.0781,136.5938 Q92.7656,134.9375 92.7656,131.8125 Q92.7656,128.6875 94.0781,127.0313 Q95.4063,125.375 97.9063,125.375 Q98.6094,125.375 99.25,125.5313 Q99.9063,125.6875 100.4688,125.9844 L100.4688,128.7031 Q99.8438,128.125 99.25,127.8594 Q98.6563,127.5781 98.0313,127.5781 Q96.6875,127.5781 96,128.6563 Q95.3125,129.7188 95.3125,131.8125 Q95.3125,133.9063 96,134.9844 Q96.6875,136.0469 98.0313,136.0469 Q98.6563,136.0469 99.25,135.7813 Q99.8438,135.5 100.4688,134.9219 L100.4688,137.6406 Z " fill="#000000"/><text fill="#000000" font-family="sans-serif" font-size="14" lengthAdjust="spacing" textLength="57" x="115.5" y="136.8467">Persona</text><line style="stroke:#181818;stroke-width:0.5;" x1="65.5" x2="192.5" y1="148" y2="148"/><rect fill="none" height="6" style="stroke:#C82930;stroke-width:1.0;" width="6" x="72.5" y="158.6484"/><text fill="#000000" font-family="sans-serif" font-size="14" lengthAdjust="spacing" textLength="103" x="84.5" y="164.9951">nombre: String</text><rect fill="none" height="6" style="stroke:#C82930;stroke-width:1.0;" width="6" x="72.5" y="174.9453"/><text fill="#000000" font-family="sans-serif" font-size="14" lengthAdjust="spacing" textLength="102" x="84.5" y="181.292">apellido: String</text><rect fill="none" height="6" style="stroke:#C82930;stroke-width:1.0;" width="6" x="72.5" y="191.2422"/><text fill="#000000" font-family="sans-serif" font-size="14" lengthAdjust="spacing" textLength="85" x="84.5" y="197.5889">email: String</text><line style="stroke:#181818;stroke-width:0.5;" x1="65.5" x2="192.5" y1="204.8906" y2="204.8906"/></g><!--class Excursion--><g id="elem_Excursion"><rect codeLine="7" fill="#F1F1F1" height="308.75" id="Excursion" rx="2.5" ry="2.5" style="stroke:#181818;stroke-width:0.5;" width="532" x="7" y="289.89"/><ellipse cx="235.25" cy="305.89" fill="#ADD1B2" rx="11" ry="11" style="stroke:#181818;stroke-width:1.0;"/><path d="M238.2188,311.5306 Q237.6406,311.8275 237,311.9681 Q236.3594,312.1244 235.6563,312.1244 Q233.1563,312.1244 231.8281,310.4838 Q230.5156,308.8275 230.5156,305.7025 Q230.5156,302.5775 231.8281,300.9213 Q233.1563,299.265 235.6563,299.265 Q236.3594,299.265 237,299.4213 Q237.6563,299.5775 238.2188,299.8744 L238.2188,302.5931 Q237.5938,302.015 237,301.7494 Q236.4063,301.4681 235.7813,301.4681 Q234.4375,301.4681 233.75,302.5463 Q233.0625,303.6088 233.0625,305.7025 Q233.0625,307.7963 233.75,308.8744 Q234.4375,309.9369 235.7813,309.9369 Q236.4063,309.9369 237,309.6713 Q237.5938,309.39 238.2188,308.8119 L238.2188,311.5306 Z " fill="#000000"/><text fill="#000000" font-family="sans-serif" font-size="14" lengthAdjust="spacing" textLength="67" x="255.75" y="310.7367">Excursion</text><line style="stroke:#181818;stroke-width:0.5;" x1="8" x2="538" y1="321.89" y2="321.89"/><rect fill="none" height="6" style="stroke:#C82930;stroke-width:1.0;" width="6" x="15" y="332.5384"/><text fill="#000000" font-family="sans-serif" font-size="14" lengthAdjust="spacing" textLength="103" x="27" y="338.8851">nombre: String</text><rect fill="none" height="6" style="stroke:#C82930;stroke-width:1.0;" width="6" x="15" y="348.8353"/><text fill="#000000" font-family="sans-serif" font-size="14" lengthAdjust="spacing" textLength="115" x="27" y="355.182">fechaInicio: Date</text><rect fill="none" height="6" style="stroke:#C82930;stroke-width:1.0;" width="6" x="15" y="365.1322"/><text fill="#000000" font-family="sans-serif" font-size="14" lengthAdjust="spacing" textLength="100" x="27" y="371.4789">fechaFin: Date</text><rect fill="none" height="6" style="stroke:#C82930;stroke-width:1.0;" width="6" x="15" y="381.4291"/><text fill="#000000" font-family="sans-serif" font-size="14" lengthAdjust="spacing" textLength="162" x="27" y="387.7757">puntoEncuentro: String</text><rect fill="none" height="6" style="stroke:#C82930;stroke-width:1.0;" width="6" x="15" y="397.7259"/><text fill="#000000" font-family="sans-serif" font-size="14" lengthAdjust="spacing" textLength="78" x="27" y="404.0726">costo: Real</text><rect fill="none" height="6" style="stroke:#C82930;stroke-width:1.0;" width="6" x="15" y="414.0228"/><text fill="#000000" font-family="sans-serif" font-size="14" lengthAdjust="spacing" textLength="117" x="27" y="420.3695">cupoMin: Integer</text><rect fill="none" height="6" style="stroke:#C82930;stroke-width:1.0;" width="6" x="15" y="430.3197"/><text fill="#000000" font-family="sans-serif" font-size="14" lengthAdjust="spacing" textLength="120" x="27" y="436.6664">cupoMax: Integer</text><line style="stroke:#181818;stroke-width:0.5;" x1="8" x2="538" y1="443.9681" y2="443.9681"/><ellipse cx="18" cy="457.6166" fill="#84BE84" rx="3" ry="3" style="stroke:#038048;stroke-width:1.0;"/><text fill="#000000" font-family="sans-serif" font-size="14" lengthAdjust="spacing" textLength="472" x="27" y="460.9632">&#171;create&#187;Excursion(nombre: String, fechaInicio: Date, fechaFin: Date,</text><text fill="#000000" font-family="sans-serif" font-size="14" lengthAdjust="spacing" textLength="506" x="27" y="477.2601">puntoEncuentro: String, costo: Real, cupoMin: Integer, cupoMax: Integer)</text><ellipse cx="18" cy="490.2103" fill="#84BE84" rx="3" ry="3" style="stroke:#038048;stroke-width:1.0;"/><text fill="#000000" font-family="sans-serif" font-size="14" lengthAdjust="spacing" textLength="239" x="27" y="493.557">actualizarEstado(estado: ListState)</text><ellipse cx="18" cy="506.5072" fill="#84BE84" rx="3" ry="3" style="stroke:#038048;stroke-width:1.0;"/><text fill="#000000" font-family="sans-serif" font-size="14" lengthAdjust="spacing" textLength="233" x="27" y="509.8539">inscribirUsuario(persona Persona)</text><ellipse cx="18" cy="522.8041" fill="#84BE84" rx="3" ry="3" style="stroke:#038048;stroke-width:1.0;"/><text fill="#000000" font-family="sans-serif" font-size="14" lengthAdjust="spacing" textLength="194" x="27" y="526.1507">obtenerInformacion(): String</text><ellipse cx="18" cy="539.1009" fill="#84BE84" rx="3" ry="3" style="stroke:#038048;stroke-width:1.0;"/><text fill="#000000" font-family="sans-serif" font-size="14" lengthAdjust="spacing" textLength="216" x="27" y="542.4476">infoBasicaDeExcursion(): String</text><ellipse cx="18" cy="555.3978" fill="#84BE84" rx="3" ry="3" style="stroke:#038048;stroke-width:1.0;"/><text fill="#000000" font-family="sans-serif" font-size="14" lengthAdjust="spacing" textLength="207" x="27" y="558.7445">emailsDeInscriptos(): String[*]</text><ellipse cx="18" cy="571.6947" fill="#84BE84" rx="3" ry="3" style="stroke:#038048;stroke-width:1.0;"/><text fill="#000000" font-family="sans-serif" font-size="14" lengthAdjust="spacing" textLength="206" x="27" y="575.0414">cupoMinAlcanzado(): Boolean</text><ellipse cx="18" cy="587.9916" fill="#84BE84" rx="3" ry="3" style="stroke:#038048;stroke-width:1.0;"/><text fill="#000000" font-family="sans-serif" font-size="14" lengthAdjust="spacing" textLength="209" x="27" y="591.3382">cupoMaxAlcanzado(): Boolean</text></g><!--class ListState--><g id="elem_ListState"><rect codeLine="28" fill="#F1F1F1" height="96.8906" id="ListState" rx="2.5" ry="2.5" style="stroke:#181818;stroke-width:0.5;" width="343" x="255.5" y="116"/><ellipse cx="393.25" cy="132" fill="#A9DCDF" rx="11" ry="11" style="stroke:#181818;stroke-width:1.0;"/><path d="M393.3594,127.3438 L392.2031,132.4219 L394.5313,132.4219 L393.3594,127.3438 Z M391.875,125.1094 L394.8594,125.1094 L398.2188,137.5 L395.7656,137.5 L395,134.4375 L391.7188,134.4375 L390.9688,137.5 L388.5313,137.5 L391.875,125.1094 Z " fill="#000000"/><text fill="#000000" font-family="sans-serif" font-size="14" font-style="italic" lengthAdjust="spacing" textLength="59" x="413.75" y="136.8467">ListState</text><line style="stroke:#181818;stroke-width:0.5;" x1="256.5" x2="597.5" y1="148" y2="148"/><line style="stroke:#181818;stroke-width:0.5;" x1="256.5" x2="597.5" y1="156" y2="156"/><ellipse cx="266.5" cy="169.6484" fill="#84BE84" rx="3" ry="3" style="stroke:#038048;stroke-width:1.0;"/><text fill="#000000" font-family="sans-serif" font-size="14" lengthAdjust="spacing" textLength="274" x="275.5" y="172.9951">&#171;create&#187; ListState(Escursion excursion)</text><ellipse cx="266.5" cy="185.9453" fill="#84BE84" rx="3" ry="3" style="stroke:#038048;stroke-width:1.0;"/><text fill="#000000" font-family="sans-serif" font-size="14" font-style="italic" lengthAdjust="spacing" textLength="311" x="275.5" y="189.292">&#171;abstract&#187; inscribirUsuario(Persona persona)</text><ellipse cx="266.5" cy="202.2422" fill="#84BE84" rx="3" ry="3" style="stroke:#038048;stroke-width:1.0;"/><text fill="#000000" font-family="sans-serif" font-size="14" font-style="italic" lengthAdjust="spacing" textLength="317" x="275.5" y="205.5889">&#171;abstract&#187; infoDeEstadoDeExcursion(): String</text></g><!--class ListaProvisoria--><g id="elem_ListaProvisoria"><rect codeLine="35" fill="#F1F1F1" height="48" id="ListaProvisoria" rx="2.5" ry="2.5" style="stroke:#181818;stroke-width:0.5;" width="129" x="200.5" y="7"/><ellipse cx="215.5" cy="23" fill="#ADD1B2" rx="11" ry="11" style="stroke:#181818;stroke-width:1.0;"/><path d="M218.4688,28.6406 Q217.8906,28.9375 217.25,29.0781 Q216.6094,29.2344 215.9063,29.2344 Q213.4063,29.2344 212.0781,27.5938 Q210.7656,25.9375 210.7656,22.8125 Q210.7656,19.6875 212.0781,18.0313 Q213.4063,16.375 215.9063,16.375 Q216.6094,16.375 217.25,16.5313 Q217.9063,16.6875 218.4688,16.9844 L218.4688,19.7031 Q217.8438,19.125 217.25,18.8594 Q216.6563,18.5781 216.0313,18.5781 Q214.6875,18.5781 214,19.6563 Q213.3125,20.7188 213.3125,22.8125 Q213.3125,24.9063 214,25.9844 Q214.6875,27.0469 216.0313,27.0469 Q216.6563,27.0469 217.25,26.7813 Q217.8438,26.5 218.4688,25.9219 L218.4688,28.6406 Z " fill="#000000"/><text fill="#000000" font-family="sans-serif" font-size="14" lengthAdjust="spacing" textLength="97" x="229.5" y="27.8467">ListaProvisoria</text><line style="stroke:#181818;stroke-width:0.5;" x1="201.5" x2="328.5" y1="39" y2="39"/><line style="stroke:#181818;stroke-width:0.5;" x1="201.5" x2="328.5" y1="47" y2="47"/></g><!--class ListaDefinitiva--><g id="elem_ListaDefinitiva"><rect codeLine="39" fill="#F1F1F1" height="48" id="ListaDefinitiva" rx="2.5" ry="2.5" style="stroke:#181818;stroke-width:0.5;" width="125" x="364.5" y="7"/><ellipse cx="379.5" cy="23" fill="#ADD1B2" rx="11" ry="11" style="stroke:#181818;stroke-width:1.0;"/><path d="M382.4688,28.6406 Q381.8906,28.9375 381.25,29.0781 Q380.6094,29.2344 379.9063,29.2344 Q377.4063,29.2344 376.0781,27.5938 Q374.7656,25.9375 374.7656,22.8125 Q374.7656,19.6875 376.0781,18.0313 Q377.4063,16.375 379.9063,16.375 Q380.6094,16.375 381.25,16.5313 Q381.9063,16.6875 382.4688,16.9844 L382.4688,19.7031 Q381.8438,19.125 381.25,18.8594 Q380.6563,18.5781 380.0313,18.5781 Q378.6875,18.5781 378,19.6563 Q377.3125,20.7188 377.3125,22.8125 Q377.3125,24.9063 378,25.9844 Q378.6875,27.0469 380.0313,27.0469 Q380.6563,27.0469 381.25,26.7813 Q381.8438,26.5 382.4688,25.9219 L382.4688,28.6406 Z " fill="#000000"/><text fill="#000000" font-family="sans-serif" font-size="14" lengthAdjust="spacing" textLength="93" x="393.5" y="27.8467">ListaDefinitiva</text><line style="stroke:#181818;stroke-width:0.5;" x1="365.5" x2="488.5" y1="39" y2="39"/><line style="stroke:#181818;stroke-width:0.5;" x1="365.5" x2="488.5" y1="47" y2="47"/></g><!--class ListaCompleta--><g id="elem_ListaCompleta"><rect codeLine="43" fill="#F1F1F1" height="48" id="ListaCompleta" rx="2.5" ry="2.5" style="stroke:#181818;stroke-width:0.5;" width="129" x="524.5" y="7"/><ellipse cx="539.5" cy="23" fill="#ADD1B2" rx="11" ry="11" style="stroke:#181818;stroke-width:1.0;"/><path d="M542.4688,28.6406 Q541.8906,28.9375 541.25,29.0781 Q540.6094,29.2344 539.9063,29.2344 Q537.4063,29.2344 536.0781,27.5938 Q534.7656,25.9375 534.7656,22.8125 Q534.7656,19.6875 536.0781,18.0313 Q537.4063,16.375 539.9063,16.375 Q540.6094,16.375 541.25,16.5313 Q541.9063,16.6875 542.4688,16.9844 L542.4688,19.7031 Q541.8438,19.125 541.25,18.8594 Q540.6563,18.5781 540.0313,18.5781 Q538.6875,18.5781 538,19.6563 Q537.3125,20.7188 537.3125,22.8125 Q537.3125,24.9063 538,25.9844 Q538.6875,27.0469 540.0313,27.0469 Q540.6563,27.0469 541.25,26.7813 Q541.8438,26.5 542.4688,25.9219 L542.4688,28.6406 Z " fill="#000000"/><text fill="#000000" font-family="sans-serif" font-size="14" lengthAdjust="spacing" textLength="97" x="553.5" y="27.8467">ListaCompleta</text><line style="stroke:#181818;stroke-width:0.5;" x1="525.5" x2="652.5" y1="39" y2="39"/><line style="stroke:#181818;stroke-width:0.5;" x1="525.5" x2="652.5" y1="47" y2="47"/></g><!--link ListState to Excursion--><g id="link_ListState_Excursion"><path codeLine="48" d="M361.67,212.99 C352.1,222.1 343.1,232.17 336,242.89 C326.48,257.25 320.6788,267.6189 313.7188,283.9789 " fill="none" id="ListState-to-Excursion" style="stroke:#181818;stroke-width:1.0;"/><polygon fill="#181818" points="311.37,289.5,318.574,282.7842,313.3274,284.8991,311.2125,279.6524,311.37,289.5" style="stroke:#181818;stroke-width:1.0;"/><polygon fill="none" points="342,246.9564,346,250.9564,342,254.9564,338,250.9564" style="stroke:#B38D22;stroke-width:1.0;"/><text fill="#000000" font-family="sans-serif" font-size="13" lengthAdjust="spacing" textLength="61" x="349" y="255.9569">excursion</text><text fill="#000000" font-family="sans-serif" font-size="13" lengthAdjust="spacing" textLength="8" x="343.9205" y="232.9475">1</text></g><!--link ListState to Excursion--><g id="link_ListState_Excursion"><path codeLine="50" d="M425.2179,219.2755 C423.5679,234.6055 421.01,245.38 415,259.89 C410.88,269.84 411.8322,269.194 406.5222,278.894 " fill="none" id="ListState-Excursion" style="stroke:#181818;stroke-width:1.0;"/><polygon fill="#181818" points="425.86,213.31,420.9198,221.8303,425.3249,218.2813,428.8739,222.6864,425.86,213.31" style="stroke:#181818;stroke-width:1.0;"/><polygon fill="none" points="400.76,289.42,407.1498,286.0777,406.5222,278.894,400.1324,282.2363,400.76,289.42" style="stroke:#181818;stroke-width:1.0;"/><rect fill="none" height="6" style="stroke:#C82930;stroke-width:1.0;" width="6" x="422" y="248.9564"/><text fill="#000000" font-family="sans-serif" font-size="13" lengthAdjust="spacing" textLength="44" x="432" y="255.9569">estado</text><text fill="#000000" font-family="sans-serif" font-size="13" lengthAdjust="spacing" textLength="8" x="398.7546" y="278.6265">1</text></g><!--reverse link Persona to Excursion--><g id="link_Persona_Excursion"><path codeLine="52" d="M76.9732,218.3411 C67.7532,232.9211 66.09,244.19 73,259.89 C77.5,270.13 82.89,280.05 88.97,289.62 " fill="none" id="Persona-backto-Excursion" style="stroke:#181818;stroke-width:1.0;"/><polygon fill="#181818" points="80.18,213.27,71.989,218.7388,77.5076,217.4959,78.7505,223.0146,80.18,213.27" style="stroke:#181818;stroke-width:1.0;"/><rect fill="none" height="6" style="stroke:#C82930;stroke-width:1.0;" width="6" x="76" y="248.9564"/><text fill="#000000" font-family="sans-serif" font-size="13" lengthAdjust="spacing" textLength="78" x="86" y="255.9569">inscriptos[*]</text></g><!--reverse link Persona to Excursion--><g id="link_Persona_Excursion"><path codeLine="53" d="M156.5108,218.5271 C167.7308,240.1771 178.93,261.77 193.3,289.5 " fill="none" id="Persona-backto-Excursion-1" style="stroke:#181818;stroke-width:1.0;"/><polygon fill="#181818" points="153.75,213.2,154.3397,223.0312,156.0506,217.6393,161.4425,219.3502,153.75,213.2" style="stroke:#181818;stroke-width:1.0;"/><rect fill="none" height="6" style="stroke:#C82930;stroke-width:1.0;" width="6" x="179" y="248.9564"/><text fill="#000000" font-family="sans-serif" font-size="13" lengthAdjust="spacing" textLength="77" x="189" y="255.9569">enEspera[*]</text></g><!--link ListaProvisoria to ListState--><g id="link_ListaProvisoria_ListState"><path codeLine="55" d="M293.96,55.5 C314.53,72.19 328.8798,83.8418 354.1198,104.3118 " fill="none" id="ListaProvisoria-to-ListState" style="stroke:#181818;stroke-width:1.0;"/><polygon fill="none" points="368.1,115.65,357.8992,99.6518,350.3404,108.9719,368.1,115.65" style="stroke:#181818;stroke-width:1.0;"/></g><!--link ListaDefinitiva to ListState--><g id="link_ListaDefinitiva_ListState"><path codeLine="56" d="M427,55.5 C427,72.19 427,77.18 427,97.65 " fill="none" id="ListaDefinitiva-to-ListState" style="stroke:#181818;stroke-width:1.0;"/><polygon fill="none" points="427,115.65,433,97.65,421,97.65,427,115.65" style="stroke:#181818;stroke-width:1.0;"/></g><!--link ListaCompleta to ListState--><g id="link_ListaCompleta_ListState"><path codeLine="57" d="M560.04,55.5 C539.47,72.19 525.1202,83.8418 499.8802,104.3118 " fill="none" id="ListaCompleta-to-ListState" style="stroke:#181818;stroke-width:1.0;"/><polygon fill="none" points="485.9,115.65,503.6596,108.9719,496.1008,99.6518,485.9,115.65" style="stroke:#181818;stroke-width:1.0;"/></g><!--SRC=[VLDDJ-Cm4BtdLrXmAP0SzbfLbM0Rf4eWeKLxMd6OcWcCv7eYsq4LBFzzRHFdc-qbrPldyNjlF5A1jU81ZMKDuYCJ_bS8pSU3mRLuT8RqImj2ZKhHCqzWF0Af3llCCXbRbYVP64ki_z-qGlaAUqsIVDyTE1pYjwH7ODrenwMM3MfdfZeaM-UnNmWg8KtDzw75NZjyGJE4uTJ34RyIcuqqw2_RRZljgx7cV2utdoZDOxDbeVbGOpwJby-KNRJAGBe65Bs3AQs3PrvX_Ap57LdtwForYKdQIaC7Chzj0uPuLRUJRIUSU7nmgD7iTSNc239OlHZb6LfLV0EM9Eom3sJAYjEtEzp7Ysl7jgVykNngMQtLQoL1lmS3ddF3h13qa06dHKPuL72mplWSnDVhwepxrpKRNrzTbJQzGamMKWGVgUMdFvh- -yEp2DDorEC8lpzViKyiJcWvkMv7WavuCFn6bWs5zPlKTbYH9aTl2xMVVAmLkbJ9-aZEVfo9ejZsAxWMvxt_8NDJ51pf0whVwAXTP5boxcbZ1dNJ3ZF-beQwj3ur2AHiQhOe_WucbKtzBfKxo-FYFm00]--></g></svg>