<svg xmlns="http://www.w3.org/2000/svg" xmlns:xlink="http://www.w3.org/1999/xlink" contentStyleType="text/css" height="605px" preserveAspectRatio="none" style="width:2311px;height:605px;background:#FFFFFF;" version="1.1" viewBox="0 0 2311 605" width="2311px" zoomAndPan="magnify"><defs/><g><!--cluster ejercicio16--><g id="cluster_ejercicio16"><path d="M8.5,6 L96.5,6 A3.75,3.75 0 0 1 99,8.5 L106,28.2969 L2301.5,28.2969 A2.5,2.5 0 0 1 2304,30.7969 L2304,596.25 A2.5,2.5 0 0 1 2301.5,598.75 L8.5,598.75 A2.5,2.5 0 0 1 6,596.25 L6,8.5 A2.5,2.5 0 0 1 8.5,6 " fill="none" style="stroke:#000000;stroke-width:1.5;"/><line style="stroke:#000000;stroke-width:1.5;" x1="6" x2="106" y1="28.2969" y2="28.2969"/><text fill="#000000" font-family="sans-serif" font-size="14" font-weight="bold" lengthAdjust="spacing" textLength="87" x="10" y="20.9951">ejercicio16</text></g><!--class WeatherData--><g id="elem_WeatherData"><rect codeLine="2" fill="#F1F1F1" height="129.4844" id="WeatherData" rx="2.5" ry="2.5" style="stroke:#181818;stroke-width:0.5;" width="243" x="815.5" y="41"/><ellipse cx="830.5" cy="57" fill="#B4A7E5" rx="11" ry="11" style="stroke:#181818;stroke-width:1.0;"/><path d="M826.4219,52.7656 L826.4219,50.6094 L833.8125,50.6094 L833.8125,52.7656 L831.3438,52.7656 L831.3438,60.8438 L833.8125,60.8438 L833.8125,63 L826.4219,63 L826.4219,60.8438 L828.8906,60.8438 L828.8906,52.7656 L826.4219,52.7656 Z " fill="#000000"/><text fill="#000000" font-family="sans-serif" font-size="14" font-style="italic" lengthAdjust="spacing" textLength="90" x="844.5" y="61.8467">WeatherData</text><rect fill="#FFFFFF" height="15.9688" style="stroke:#181818;stroke-width:1.0;stroke-dasharray:2.0,2.0;" width="119" x="942.5" y="38"/><text fill="#000000" font-family="sans-serif" font-size="12" font-style="italic" lengthAdjust="spacing" textLength="117" x="943.5" y="50.1387">Target-Component</text><line style="stroke:#181818;stroke-width:0.5;" x1="816.5" x2="1057.5" y1="73" y2="73"/><line style="stroke:#181818;stroke-width:0.5;" x1="816.5" x2="1057.5" y1="81" y2="81"/><ellipse cx="826.5" cy="94.6484" fill="#84BE84" rx="3" ry="3" style="stroke:#038048;stroke-width:1.0;"/><text fill="#000000" font-family="sans-serif" font-size="14" font-style="italic" lengthAdjust="spacing" textLength="161" x="835.5" y="97.9951">getTemperatura(): Real</text><ellipse cx="826.5" cy="110.9453" fill="#84BE84" rx="3" ry="3" style="stroke:#038048;stroke-width:1.0;"/><text fill="#000000" font-family="sans-serif" font-size="14" font-style="italic" lengthAdjust="spacing" textLength="124" x="835.5" y="114.292">getPresion(): Real</text><ellipse cx="826.5" cy="127.2422" fill="#84BE84" rx="3" ry="3" style="stroke:#038048;stroke-width:1.0;"/><text fill="#000000" font-family="sans-serif" font-size="14" font-style="italic" lengthAdjust="spacing" textLength="173" x="835.5" y="130.5889">getRadiacionSolar(): Real</text><ellipse cx="826.5" cy="143.5391" fill="#84BE84" rx="3" ry="3" style="stroke:#038048;stroke-width:1.0;"/><text fill="#000000" font-family="sans-serif" font-size="14" font-style="italic" lengthAdjust="spacing" textLength="186" x="835.5" y="146.8857">getTemperaturas(): Real[*]</text><ellipse cx="826.5" cy="159.8359" fill="#84BE84" rx="3" ry="3" style="stroke:#038048;stroke-width:1.0;"/><text fill="#000000" font-family="sans-serif" font-size="14" font-style="italic" lengthAdjust="spacing" textLength="138" x="835.5" y="163.1826">displayData(): String</text></g><!--class HomeWeatherStation--><g id="elem_HomeWeatherStation"><rect codeLine="10" fill="#F1F1F1" height="194.6719" id="HomeWeatherStation" rx="2.5" ry="2.5" style="stroke:#181818;stroke-width:0.5;" width="262" x="705" y="247.48"/><ellipse cx="731.7" cy="263.48" fill="#ADD1B2" rx="11" ry="11" style="stroke:#181818;stroke-width:1.0;"/><path d="M734.6688,269.1206 Q734.0906,269.4175 733.45,269.5581 Q732.8094,269.7144 732.1063,269.7144 Q729.6063,269.7144 728.2781,268.0738 Q726.9656,266.4175 726.9656,263.2925 Q726.9656,260.1675 728.2781,258.5113 Q729.6063,256.855 732.1063,256.855 Q732.8094,256.855 733.45,257.0113 Q734.1063,257.1675 734.6688,257.4644 L734.6688,260.1831 Q734.0438,259.605 733.45,259.3394 Q732.8563,259.0581 732.2313,259.0581 Q730.8875,259.0581 730.2,260.1363 Q729.5125,261.1988 729.5125,263.2925 Q729.5125,265.3863 730.2,266.4644 Q730.8875,267.5269 732.2313,267.5269 Q732.8563,267.5269 733.45,267.2613 Q734.0438,266.98 734.6688,266.4019 L734.6688,269.1206 Z " fill="#000000"/><text fill="#000000" font-family="sans-serif" font-size="14" lengthAdjust="spacing" textLength="147" x="748.3" y="268.3267">HomeWeatherStation</text><rect fill="#FFFFFF" height="15.9688" style="stroke:#181818;stroke-width:1.0;stroke-dasharray:2.0,2.0;" width="55" x="915" y="244.48"/><text fill="#000000" font-family="sans-serif" font-size="12" font-style="italic" lengthAdjust="spacing" textLength="53" x="916" y="256.6187">Adaptee</text><line style="stroke:#181818;stroke-width:0.5;" x1="706" x2="966" y1="279.48" y2="279.48"/><rect fill="none" height="6" style="stroke:#C82930;stroke-width:1.0;" width="6" x="713" y="290.1284"/><text fill="#000000" font-family="sans-serif" font-size="14" lengthAdjust="spacing" textLength="142" x="725" y="296.4751">temperatura: double</text><rect fill="none" height="6" style="stroke:#C82930;stroke-width:1.0;" width="6" x="713" y="306.4253"/><text fill="#000000" font-family="sans-serif" font-size="14" lengthAdjust="spacing" textLength="109" x="725" y="312.772">presion: double</text><rect fill="none" height="6" style="stroke:#C82930;stroke-width:1.0;" width="6" x="713" y="322.7222"/><text fill="#000000" font-family="sans-serif" font-size="14" lengthAdjust="spacing" textLength="153" x="725" y="329.0689">radiacionSolar: double</text><rect fill="none" height="6" style="stroke:#C82930;stroke-width:1.0;" width="6" x="713" y="339.0191"/><text fill="#000000" font-family="sans-serif" font-size="14" lengthAdjust="spacing" textLength="199" x="725" y="345.3657">temperaturas: List&lt;Double&gt;</text><line style="stroke:#181818;stroke-width:0.5;" x1="706" x2="966" y1="352.6675" y2="352.6675"/><ellipse cx="716" cy="366.3159" fill="#84BE84" rx="3" ry="3" style="stroke:#038048;stroke-width:1.0;"/><text fill="#000000" font-family="sans-serif" font-size="14" lengthAdjust="spacing" textLength="179" x="725" y="369.6626">getTemperatura(): double</text><ellipse cx="716" cy="382.6128" fill="#84BE84" rx="3" ry="3" style="stroke:#038048;stroke-width:1.0;"/><text fill="#000000" font-family="sans-serif" font-size="14" lengthAdjust="spacing" textLength="142" x="725" y="385.9595">getPresion(): double</text><ellipse cx="716" cy="398.9097" fill="#84BE84" rx="3" ry="3" style="stroke:#038048;stroke-width:1.0;"/><text fill="#000000" font-family="sans-serif" font-size="14" lengthAdjust="spacing" textLength="191" x="725" y="402.2564">getRadiacionSolar(): double</text><ellipse cx="716" cy="415.2066" fill="#84BE84" rx="3" ry="3" style="stroke:#038048;stroke-width:1.0;"/><text fill="#000000" font-family="sans-serif" font-size="14" lengthAdjust="spacing" textLength="236" x="725" y="418.5532">getTemperaturas(): List&lt;Double&gt;</text><ellipse cx="716" cy="431.5034" fill="#84BE84" rx="3" ry="3" style="stroke:#038048;stroke-width:1.0;"/><text fill="#000000" font-family="sans-serif" font-size="14" lengthAdjust="spacing" textLength="138" x="725" y="434.8501">displayData(): String</text></g><!--class HomeWeatherStationAdapter--><g id="elem_HomeWeatherStationAdapter"><rect codeLine="22" fill="#F1F1F1" height="145.7813" id="HomeWeatherStationAdapter" rx="2.5" ry="2.5" style="stroke:#181818;stroke-width:0.5;" width="328" x="192" y="271.93"/><ellipse cx="225.45" cy="287.93" fill="#ADD1B2" rx="11" ry="11" style="stroke:#181818;stroke-width:1.0;"/><path d="M228.4188,293.5706 Q227.8406,293.8675 227.2,294.0081 Q226.5594,294.1644 225.8563,294.1644 Q223.3563,294.1644 222.0281,292.5238 Q220.7156,290.8675 220.7156,287.7425 Q220.7156,284.6175 222.0281,282.9613 Q223.3563,281.305 225.8563,281.305 Q226.5594,281.305 227.2,281.4613 Q227.8563,281.6175 228.4188,281.9144 L228.4188,284.6331 Q227.7938,284.055 227.2,283.7894 Q226.6063,283.5081 225.9813,283.5081 Q224.6375,283.5081 223.95,284.5863 Q223.2625,285.6488 223.2625,287.7425 Q223.2625,289.8363 223.95,290.9144 Q224.6375,291.9769 225.9813,291.9769 Q226.6063,291.9769 227.2,291.7113 Q227.7938,291.43 228.4188,290.8519 L228.4188,293.5706 Z " fill="#000000"/><text fill="#000000" font-family="sans-serif" font-size="14" lengthAdjust="spacing" textLength="201" x="243.55" y="292.7767">HomeWeatherStationAdapter</text><rect fill="#FFFFFF" height="15.9688" style="stroke:#181818;stroke-width:1.0;stroke-dasharray:2.0,2.0;" width="52" x="471" y="268.93"/><text fill="#000000" font-family="sans-serif" font-size="12" font-style="italic" lengthAdjust="spacing" textLength="50" x="472" y="281.0687">Adapter</text><line style="stroke:#181818;stroke-width:0.5;" x1="193" x2="519" y1="303.93" y2="303.93"/><rect fill="none" height="6" style="stroke:#C82930;stroke-width:1.0;" width="6" x="200" y="314.5784"/><text fill="#000000" font-family="sans-serif" font-size="14" lengthAdjust="spacing" textLength="302" x="212" y="320.9251">homeWeatherStation: HomeWeatherStation</text><line style="stroke:#181818;stroke-width:0.5;" x1="193" x2="519" y1="328.2269" y2="328.2269"/><ellipse cx="203" cy="341.8753" fill="#84BE84" rx="3" ry="3" style="stroke:#038048;stroke-width:1.0;"/><text fill="#000000" font-family="sans-serif" font-size="14" lengthAdjust="spacing" textLength="179" x="212" y="345.222">getTemperatura(): double</text><ellipse cx="203" cy="358.1722" fill="#84BE84" rx="3" ry="3" style="stroke:#038048;stroke-width:1.0;"/><text fill="#000000" font-family="sans-serif" font-size="14" lengthAdjust="spacing" textLength="142" x="212" y="361.5189">getPresion(): double</text><ellipse cx="203" cy="374.4691" fill="#84BE84" rx="3" ry="3" style="stroke:#038048;stroke-width:1.0;"/><text fill="#000000" font-family="sans-serif" font-size="14" lengthAdjust="spacing" textLength="191" x="212" y="377.8157">getRadiacionSolar(): double</text><ellipse cx="203" cy="390.7659" fill="#84BE84" rx="3" ry="3" style="stroke:#038048;stroke-width:1.0;"/><text fill="#000000" font-family="sans-serif" font-size="14" lengthAdjust="spacing" textLength="236" x="212" y="394.1126">getTemperaturas(): List&lt;Double&gt;</text><ellipse cx="203" cy="407.0628" fill="#84BE84" rx="3" ry="3" style="stroke:#038048;stroke-width:1.0;"/><text fill="#000000" font-family="sans-serif" font-size="14" lengthAdjust="spacing" textLength="138" x="212" y="410.4095">displayData(): String</text></g><!--class Decorador--><g id="elem_Decorador"><rect codeLine="31" fill="#F1F1F1" height="194.6719" id="Decorador" rx="2.5" ry="2.5" style="stroke:#181818;stroke-width:0.5;" width="262" x="1002" y="247.48"/><ellipse cx="1058.75" cy="263.48" fill="#A9DCDF" rx="11" ry="11" style="stroke:#181818;stroke-width:1.0;"/><path d="M1058.8594,258.8238 L1057.7031,263.9019 L1060.0313,263.9019 L1058.8594,258.8238 Z M1057.375,256.5894 L1060.3594,256.5894 L1063.7188,268.98 L1061.2656,268.98 L1060.5,265.9175 L1057.2188,265.9175 L1056.4688,268.98 L1054.0313,268.98 L1057.375,256.5894 Z " fill="#000000"/><text fill="#000000" font-family="sans-serif" font-size="14" font-style="italic" lengthAdjust="spacing" textLength="73" x="1079.25" y="268.3267">Decorador</text><rect fill="#FFFFFF" height="15.9688" style="stroke:#181818;stroke-width:1.0;stroke-dasharray:2.0,2.0;" width="65" x="1202" y="244.48"/><text fill="#000000" font-family="sans-serif" font-size="12" font-style="italic" lengthAdjust="spacing" textLength="63" x="1203" y="256.6187">Decorator</text><line style="stroke:#181818;stroke-width:0.5;" x1="1003" x2="1263" y1="279.48" y2="279.48"/><rect fill="none" height="6" style="stroke:#C82930;stroke-width:1.0;" width="6" x="1010" y="290.1284"/><text fill="#000000" font-family="sans-serif" font-size="14" lengthAdjust="spacing" textLength="188" x="1022" y="296.4751">componente: WeatherData</text><line style="stroke:#181818;stroke-width:0.5;" x1="1003" x2="1263" y1="303.7769" y2="303.7769"/><ellipse cx="1013" cy="317.4253" fill="#84BE84" rx="3" ry="3" style="stroke:#038048;stroke-width:1.0;"/><text fill="#000000" font-family="sans-serif" font-size="14" lengthAdjust="spacing" textLength="179" x="1022" y="320.772">getTemperatura(): double</text><ellipse cx="1013" cy="333.7222" fill="#84BE84" rx="3" ry="3" style="stroke:#038048;stroke-width:1.0;"/><text fill="#000000" font-family="sans-serif" font-size="14" lengthAdjust="spacing" textLength="142" x="1022" y="337.0689">getPresion(): double</text><ellipse cx="1013" cy="350.0191" fill="#84BE84" rx="3" ry="3" style="stroke:#038048;stroke-width:1.0;"/><text fill="#000000" font-family="sans-serif" font-size="14" lengthAdjust="spacing" textLength="191" x="1022" y="353.3657">getRadiacionSolar(): double</text><ellipse cx="1013" cy="366.3159" fill="#84BE84" rx="3" ry="3" style="stroke:#038048;stroke-width:1.0;"/><text fill="#000000" font-family="sans-serif" font-size="14" lengthAdjust="spacing" textLength="236" x="1022" y="369.6626">getTemperaturas(): List&lt;Double&gt;</text><ellipse cx="1013" cy="382.6128" fill="#84BE84" rx="3" ry="3" style="stroke:#038048;stroke-width:1.0;"/><text fill="#000000" font-family="sans-serif" font-size="14" lengthAdjust="spacing" textLength="138" x="1022" y="385.9595">displayData(): String</text><polygon fill="#FFFF44" points="1013,393.9097,1017,397.9097,1013,401.9097,1009,397.9097" style="stroke:#B38D22;stroke-width:1.0;"/><text fill="#000000" font-family="sans-serif" font-size="14" lengthAdjust="spacing" textLength="115" x="1022" y="402.2564">promedio(): Real</text><polygon fill="#FFFF44" points="1013,410.2066,1017,414.2066,1013,418.2066,1009,414.2066" style="stroke:#B38D22;stroke-width:1.0;"/><text fill="#000000" font-family="sans-serif" font-size="14" lengthAdjust="spacing" textLength="112" x="1022" y="418.5532">tempMax(): Real</text><polygon fill="#FFFF44" points="1013,426.5034,1017,430.5034,1013,434.5034,1009,430.5034" style="stroke:#B38D22;stroke-width:1.0;"/><text fill="#000000" font-family="sans-serif" font-size="14" lengthAdjust="spacing" textLength="109" x="1022" y="434.8501">tempMin(): Real</text></g><!--class DisplayPromedioF--><g id="elem_DisplayPromedioF"><rect codeLine="43" fill="#F1F1F1" height="80.5938" id="DisplayPromedioF" rx="2.5" ry="2.5" style="stroke:#181818;stroke-width:0.5;" width="315" x="22.5" y="502.16"/><ellipse cx="57.3" cy="518.16" fill="#ADD1B2" rx="11" ry="11" style="stroke:#181818;stroke-width:1.0;"/><path d="M60.2688,523.8006 Q59.6906,524.0975 59.05,524.2381 Q58.4094,524.3944 57.7063,524.3944 Q55.2063,524.3944 53.8781,522.7538 Q52.5656,521.0975 52.5656,517.9725 Q52.5656,514.8475 53.8781,513.1913 Q55.2063,511.535 57.7063,511.535 Q58.4094,511.535 59.05,511.6912 Q59.7063,511.8475 60.2688,512.1444 L60.2688,514.8631 Q59.6438,514.285 59.05,514.0194 Q58.4563,513.7381 57.8313,513.7381 Q56.4875,513.7381 55.8,514.8163 Q55.1125,515.8788 55.1125,517.9725 Q55.1125,520.0663 55.8,521.1444 Q56.4875,522.2069 57.8313,522.2069 Q58.4563,522.2069 59.05,521.9413 Q59.6438,521.66 60.2688,521.0819 L60.2688,523.8006 Z " fill="#000000"/><text fill="#000000" font-family="sans-serif" font-size="14" lengthAdjust="spacing" textLength="123" x="75.7" y="523.0067">DisplayPromedioF</text><rect fill="#FFFFFF" height="15.9688" style="stroke:#181818;stroke-width:1.0;stroke-dasharray:2.0,2.0;" width="114" x="226.5" y="499.16"/><text fill="#000000" font-family="sans-serif" font-size="12" font-style="italic" lengthAdjust="spacing" textLength="112" x="227.5" y="511.2987">ConcretDecorator</text><line style="stroke:#181818;stroke-width:0.5;" x1="23.5" x2="336.5" y1="534.16" y2="534.16"/><line style="stroke:#181818;stroke-width:0.5;" x1="23.5" x2="336.5" y1="542.16" y2="542.16"/><ellipse cx="33.5" cy="555.8084" fill="#84BE84" rx="3" ry="3" style="stroke:#038048;stroke-width:1.0;"/><text fill="#000000" font-family="sans-serif" font-size="14" lengthAdjust="spacing" textLength="289" x="42.5" y="559.1551">&#171;create&#187; DisplayPromedioF(WeatherData)</text><ellipse cx="33.5" cy="572.1053" fill="#84BE84" rx="3" ry="3" style="stroke:#038048;stroke-width:1.0;"/><text fill="#000000" font-family="sans-serif" font-size="14" lengthAdjust="spacing" textLength="138" x="42.5" y="575.452">displayData(): String</text></g><!--class DisplayPromedioC--><g id="elem_DisplayPromedioC"><rect codeLine="47" fill="#F1F1F1" height="80.5938" id="DisplayPromedioC" rx="2.5" ry="2.5" style="stroke:#181818;stroke-width:0.5;" width="317" x="372.5" y="502.16"/><ellipse cx="407.3" cy="518.16" fill="#ADD1B2" rx="11" ry="11" style="stroke:#181818;stroke-width:1.0;"/><path d="M410.2688,523.8006 Q409.6906,524.0975 409.05,524.2381 Q408.4094,524.3944 407.7063,524.3944 Q405.2063,524.3944 403.8781,522.7538 Q402.5656,521.0975 402.5656,517.9725 Q402.5656,514.8475 403.8781,513.1913 Q405.2063,511.535 407.7063,511.535 Q408.4094,511.535 409.05,511.6912 Q409.7063,511.8475 410.2688,512.1444 L410.2688,514.8631 Q409.6438,514.285 409.05,514.0194 Q408.4563,513.7381 407.8313,513.7381 Q406.4875,513.7381 405.8,514.8163 Q405.1125,515.8788 405.1125,517.9725 Q405.1125,520.0663 405.8,521.1444 Q406.4875,522.2069 407.8313,522.2069 Q408.4563,522.2069 409.05,521.9413 Q409.6438,521.66 410.2688,521.0819 L410.2688,523.8006 Z " fill="#000000"/><text fill="#000000" font-family="sans-serif" font-size="14" lengthAdjust="spacing" textLength="125" x="425.7" y="523.0067">DisplayPromedioC</text><rect fill="#FFFFFF" height="15.9688" style="stroke:#181818;stroke-width:1.0;stroke-dasharray:2.0,2.0;" width="114" x="578.5" y="499.16"/><text fill="#000000" font-family="sans-serif" font-size="12" font-style="italic" lengthAdjust="spacing" textLength="112" x="579.5" y="511.2987">ConcretDecorator</text><line style="stroke:#181818;stroke-width:0.5;" x1="373.5" x2="688.5" y1="534.16" y2="534.16"/><line style="stroke:#181818;stroke-width:0.5;" x1="373.5" x2="688.5" y1="542.16" y2="542.16"/><ellipse cx="383.5" cy="555.8084" fill="#84BE84" rx="3" ry="3" style="stroke:#038048;stroke-width:1.0;"/><text fill="#000000" font-family="sans-serif" font-size="14" lengthAdjust="spacing" textLength="291" x="392.5" y="559.1551">&#171;create&#187; DisplayPromedioC(WeatherData)</text><ellipse cx="383.5" cy="572.1053" fill="#84BE84" rx="3" ry="3" style="stroke:#038048;stroke-width:1.0;"/><text fill="#000000" font-family="sans-serif" font-size="14" lengthAdjust="spacing" textLength="138" x="392.5" y="575.452">displayData(): String</text></g><!--class DisplayTemperaturaMinF--><g id="elem_DisplayTemperaturaMinF"><rect codeLine="52" fill="#F1F1F1" height="80.5938" id="DisplayTemperaturaMinF" rx="2.5" ry="2.5" style="stroke:#181818;stroke-width:0.5;" width="362" x="725" y="502.16"/><ellipse cx="759.8" cy="518.16" fill="#ADD1B2" rx="11" ry="11" style="stroke:#181818;stroke-width:1.0;"/><path d="M762.7688,523.8006 Q762.1906,524.0975 761.55,524.2381 Q760.9094,524.3944 760.2063,524.3944 Q757.7063,524.3944 756.3781,522.7538 Q755.0656,521.0975 755.0656,517.9725 Q755.0656,514.8475 756.3781,513.1913 Q757.7063,511.535 760.2063,511.535 Q760.9094,511.535 761.55,511.6912 Q762.2063,511.8475 762.7688,512.1444 L762.7688,514.8631 Q762.1438,514.285 761.55,514.0194 Q760.9563,513.7381 760.3313,513.7381 Q758.9875,513.7381 758.3,514.8163 Q757.6125,515.8788 757.6125,517.9725 Q757.6125,520.0663 758.3,521.1444 Q758.9875,522.2069 760.3313,522.2069 Q760.9563,522.2069 761.55,521.9413 Q762.1438,521.66 762.7688,521.0819 L762.7688,523.8006 Z " fill="#000000"/><text fill="#000000" font-family="sans-serif" font-size="14" lengthAdjust="spacing" textLength="170" x="778.2" y="523.0067">DisplayTemperaturaMinF</text><rect fill="#FFFFFF" height="15.9688" style="stroke:#181818;stroke-width:1.0;stroke-dasharray:2.0,2.0;" width="114" x="976" y="499.16"/><text fill="#000000" font-family="sans-serif" font-size="12" font-style="italic" lengthAdjust="spacing" textLength="112" x="977" y="511.2987">ConcretDecorator</text><line style="stroke:#181818;stroke-width:0.5;" x1="726" x2="1086" y1="534.16" y2="534.16"/><line style="stroke:#181818;stroke-width:0.5;" x1="726" x2="1086" y1="542.16" y2="542.16"/><ellipse cx="736" cy="555.8084" fill="#84BE84" rx="3" ry="3" style="stroke:#038048;stroke-width:1.0;"/><text fill="#000000" font-family="sans-serif" font-size="14" lengthAdjust="spacing" textLength="336" x="745" y="559.1551">&#171;create&#187; DisplayTemperaturaMinF(WeatherData)</text><ellipse cx="736" cy="572.1053" fill="#84BE84" rx="3" ry="3" style="stroke:#038048;stroke-width:1.0;"/><text fill="#000000" font-family="sans-serif" font-size="14" lengthAdjust="spacing" textLength="138" x="745" y="575.452">displayData(): String</text></g><!--class DisplayTemperaturaMinC--><g id="elem_DisplayTemperaturaMinC"><rect codeLine="56" fill="#F1F1F1" height="80.5938" id="DisplayTemperaturaMinC" rx="2.5" ry="2.5" style="stroke:#181818;stroke-width:0.5;" width="364" x="1122" y="502.16"/><ellipse cx="1156.8" cy="518.16" fill="#ADD1B2" rx="11" ry="11" style="stroke:#181818;stroke-width:1.0;"/><path d="M1159.7688,523.8006 Q1159.1906,524.0975 1158.55,524.2381 Q1157.9094,524.3944 1157.2063,524.3944 Q1154.7063,524.3944 1153.3781,522.7538 Q1152.0656,521.0975 1152.0656,517.9725 Q1152.0656,514.8475 1153.3781,513.1913 Q1154.7063,511.535 1157.2063,511.535 Q1157.9094,511.535 1158.55,511.6912 Q1159.2063,511.8475 1159.7688,512.1444 L1159.7688,514.8631 Q1159.1438,514.285 1158.55,514.0194 Q1157.9563,513.7381 1157.3313,513.7381 Q1155.9875,513.7381 1155.3,514.8163 Q1154.6125,515.8788 1154.6125,517.9725 Q1154.6125,520.0663 1155.3,521.1444 Q1155.9875,522.2069 1157.3313,522.2069 Q1157.9563,522.2069 1158.55,521.9413 Q1159.1438,521.66 1159.7688,521.0819 L1159.7688,523.8006 Z " fill="#000000"/><text fill="#000000" font-family="sans-serif" font-size="14" lengthAdjust="spacing" textLength="172" x="1175.2" y="523.0067">DisplayTemperaturaMinC</text><rect fill="#FFFFFF" height="15.9688" style="stroke:#181818;stroke-width:1.0;stroke-dasharray:2.0,2.0;" width="114" x="1375" y="499.16"/><text fill="#000000" font-family="sans-serif" font-size="12" font-style="italic" lengthAdjust="spacing" textLength="112" x="1376" y="511.2987">ConcretDecorator</text><line style="stroke:#181818;stroke-width:0.5;" x1="1123" x2="1485" y1="534.16" y2="534.16"/><line style="stroke:#181818;stroke-width:0.5;" x1="1123" x2="1485" y1="542.16" y2="542.16"/><ellipse cx="1133" cy="555.8084" fill="#84BE84" rx="3" ry="3" style="stroke:#038048;stroke-width:1.0;"/><text fill="#000000" font-family="sans-serif" font-size="14" lengthAdjust="spacing" textLength="338" x="1142" y="559.1551">&#171;create&#187; DisplayTemperaturaMinC(WeatherData)</text><ellipse cx="1133" cy="572.1053" fill="#84BE84" rx="3" ry="3" style="stroke:#038048;stroke-width:1.0;"/><text fill="#000000" font-family="sans-serif" font-size="14" lengthAdjust="spacing" textLength="138" x="1142" y="575.452">displayData(): String</text></g><!--class DisplayTemperaturaMaxF--><g id="elem_DisplayTemperaturaMaxF"><rect codeLine="60" fill="#F1F1F1" height="80.5938" id="DisplayTemperaturaMaxF" rx="2.5" ry="2.5" style="stroke:#181818;stroke-width:0.5;" width="365" x="1521.5" y="502.16"/><ellipse cx="1556.3" cy="518.16" fill="#ADD1B2" rx="11" ry="11" style="stroke:#181818;stroke-width:1.0;"/><path d="M1559.2688,523.8006 Q1558.6906,524.0975 1558.05,524.2381 Q1557.4094,524.3944 1556.7063,524.3944 Q1554.2063,524.3944 1552.8781,522.7538 Q1551.5656,521.0975 1551.5656,517.9725 Q1551.5656,514.8475 1552.8781,513.1913 Q1554.2063,511.535 1556.7063,511.535 Q1557.4094,511.535 1558.05,511.6912 Q1558.7063,511.8475 1559.2688,512.1444 L1559.2688,514.8631 Q1558.6438,514.285 1558.05,514.0194 Q1557.4563,513.7381 1556.8313,513.7381 Q1555.4875,513.7381 1554.8,514.8163 Q1554.1125,515.8788 1554.1125,517.9725 Q1554.1125,520.0663 1554.8,521.1444 Q1555.4875,522.2069 1556.8313,522.2069 Q1557.4563,522.2069 1558.05,521.9413 Q1558.6438,521.66 1559.2688,521.0819 L1559.2688,523.8006 Z " fill="#000000"/><text fill="#000000" font-family="sans-serif" font-size="14" lengthAdjust="spacing" textLength="173" x="1574.7" y="523.0067">DisplayTemperaturaMaxF</text><rect fill="#FFFFFF" height="15.9688" style="stroke:#181818;stroke-width:1.0;stroke-dasharray:2.0,2.0;" width="114" x="1775.5" y="499.16"/><text fill="#000000" font-family="sans-serif" font-size="12" font-style="italic" lengthAdjust="spacing" textLength="112" x="1776.5" y="511.2987">ConcretDecorator</text><line style="stroke:#181818;stroke-width:0.5;" x1="1522.5" x2="1885.5" y1="534.16" y2="534.16"/><line style="stroke:#181818;stroke-width:0.5;" x1="1522.5" x2="1885.5" y1="542.16" y2="542.16"/><ellipse cx="1532.5" cy="555.8084" fill="#84BE84" rx="3" ry="3" style="stroke:#038048;stroke-width:1.0;"/><text fill="#000000" font-family="sans-serif" font-size="14" lengthAdjust="spacing" textLength="339" x="1541.5" y="559.1551">&#171;create&#187; DisplayTemperaturaMaxF(WeatherData)</text><ellipse cx="1532.5" cy="572.1053" fill="#84BE84" rx="3" ry="3" style="stroke:#038048;stroke-width:1.0;"/><text fill="#000000" font-family="sans-serif" font-size="14" lengthAdjust="spacing" textLength="138" x="1541.5" y="575.452">displayData(): String</text></g><!--class DisplayTemperaturaMaxC--><g id="elem_DisplayTemperaturaMaxC"><rect codeLine="64" fill="#F1F1F1" height="80.5938" id="DisplayTemperaturaMaxC" rx="2.5" ry="2.5" style="stroke:#181818;stroke-width:0.5;" width="367" x="1921.5" y="502.16"/><ellipse cx="1956.3" cy="518.16" fill="#ADD1B2" rx="11" ry="11" style="stroke:#181818;stroke-width:1.0;"/><path d="M1959.2688,523.8006 Q1958.6906,524.0975 1958.05,524.2381 Q1957.4094,524.3944 1956.7063,524.3944 Q1954.2063,524.3944 1952.8781,522.7538 Q1951.5656,521.0975 1951.5656,517.9725 Q1951.5656,514.8475 1952.8781,513.1913 Q1954.2063,511.535 1956.7063,511.535 Q1957.4094,511.535 1958.05,511.6912 Q1958.7063,511.8475 1959.2688,512.1444 L1959.2688,514.8631 Q1958.6438,514.285 1958.05,514.0194 Q1957.4563,513.7381 1956.8313,513.7381 Q1955.4875,513.7381 1954.8,514.8163 Q1954.1125,515.8788 1954.1125,517.9725 Q1954.1125,520.0663 1954.8,521.1444 Q1955.4875,522.2069 1956.8313,522.2069 Q1957.4563,522.2069 1958.05,521.9413 Q1958.6438,521.66 1959.2688,521.0819 L1959.2688,523.8006 Z " fill="#000000"/><text fill="#000000" font-family="sans-serif" font-size="14" lengthAdjust="spacing" textLength="175" x="1974.7" y="523.0067">DisplayTemperaturaMaxC</text><rect fill="#FFFFFF" height="15.9688" style="stroke:#181818;stroke-width:1.0;stroke-dasharray:2.0,2.0;" width="114" x="2177.5" y="499.16"/><text fill="#000000" font-family="sans-serif" font-size="12" font-style="italic" lengthAdjust="spacing" textLength="112" x="2178.5" y="511.2987">ConcretDecorator</text><line style="stroke:#181818;stroke-width:0.5;" x1="1922.5" x2="2287.5" y1="534.16" y2="534.16"/><line style="stroke:#181818;stroke-width:0.5;" x1="1922.5" x2="2287.5" y1="542.16" y2="542.16"/><ellipse cx="1932.5" cy="555.8084" fill="#84BE84" rx="3" ry="3" style="stroke:#038048;stroke-width:1.0;"/><text fill="#000000" font-family="sans-serif" font-size="14" lengthAdjust="spacing" textLength="341" x="1941.5" y="559.1551">&#171;create&#187; DisplayTemperaturaMaxC(WeatherData)</text><ellipse cx="1932.5" cy="572.1053" fill="#84BE84" rx="3" ry="3" style="stroke:#038048;stroke-width:1.0;"/><text fill="#000000" font-family="sans-serif" font-size="14" lengthAdjust="spacing" textLength="138" x="1941.5" y="575.452">displayData(): String</text></g><!--reverse link WeatherData to HomeWeatherStation--><g id="link_WeatherData_HomeWeatherStation"><path codeLine="69" d="M902.6153,187.4599 C892.6253,210.9099 888.14,221.42 877.21,247.09 " fill="none" id="WeatherData-backto-HomeWeatherStation" style="stroke:#181818;stroke-width:1.0;stroke-dasharray:7.0,7.0;"/><polygon fill="none" points="909.67,170.9,897.0953,185.1083,908.1352,189.8115,909.67,170.9" style="stroke:#181818;stroke-width:1.0;"/></g><!--reverse link WeatherData to HomeWeatherStationAdapter--><g id="link_WeatherData_HomeWeatherStationAdapter"><path codeLine="70" d="M798.5341,163.2407 C712.9341,198.1707 614.1,238.5 520.35,276.76 " fill="none" id="WeatherData-backto-HomeWeatherStationAdapter" style="stroke:#181818;stroke-width:1.0;stroke-dasharray:7.0,7.0;"/><polygon fill="none" points="815.2,156.44,796.2673,157.6854,800.801,168.796,815.2,156.44" style="stroke:#181818;stroke-width:1.0;"/></g><!--reverse link WeatherData to Decorador--><g id="link_WeatherData_Decorador"><path codeLine="71" d="M1001.5103,184.772 C1020.9003,208.222 1031.81,221.42 1053.03,247.09 " fill="none" id="WeatherData-backto-Decorador" style="stroke:#181818;stroke-width:1.0;stroke-dasharray:7.0,7.0;"/><polygon fill="none" points="990.04,170.9,996.8863,188.5954,1006.1343,180.9486,990.04,170.9" style="stroke:#181818;stroke-width:1.0;"/></g><!--link Decorador to WeatherData--><g id="link_Decorador_WeatherData"><path codeLine="73" d="M1060.5774,237.6251 C1048.8174,221.6451 1043.43,215.17 1031,200.48 C1022.66,190.63 1017.6244,184.9391 1008.3544,175.2791 " fill="none" id="Decorador-WeatherData" style="stroke:#181818;stroke-width:1.0;"/><polygon fill="#181818" points="1067.69,247.29,1067.3553,240.0867,1060.5774,237.6251,1060.9121,244.8284,1067.69,247.29" style="stroke:#181818;stroke-width:1.0;"/><polygon fill="#181818" points="1004.2,170.95,1007.5454,180.2133,1007.662,174.5576,1013.3176,174.6741,1004.2,170.95" style="stroke:#181818;stroke-width:1.0;"/><rect fill="none" height="6" style="stroke:#C82930;stroke-width:1.0;" width="6" x="1046" y="206.5464"/><text fill="#000000" font-family="sans-serif" font-size="13" lengthAdjust="spacing" textLength="81" x="1056" y="213.5469">componente</text></g><!--link HomeWeatherStationAdapter to HomeWeatherStation--><g id="link_HomeWeatherStationAdapter_HomeWeatherStation"><path codeLine="72" d="M520.18,344.82 C580.45,344.82 641.83,344.82 698.82,344.82 " fill="none" id="HomeWeatherStationAdapter-to-HomeWeatherStation" style="stroke:#181818;stroke-width:1.0;"/><polygon fill="#181818" points="704.82,344.82,695.82,340.82,699.82,344.82,695.82,348.82,704.82,344.82" style="stroke:#181818;stroke-width:1.0;"/><rect fill="none" height="6" style="stroke:#C82930;stroke-width:1.0;" width="6" x="540.5" y="330.8864"/><text fill="#000000" font-family="sans-serif" font-size="13" lengthAdjust="spacing" textLength="136" x="550.5" y="337.8869">homeWeatherStation</text></g><!--reverse link Decorador to DisplayPromedioF--><g id="link_Decorador_DisplayPromedioF"><path codeLine="74" d="M985.3937,442.6992 C979.7837,445.1392 990.64,440.19 985,442.16 C719.46,534.89 632.77,457.92 355,502.16 C349.31,503.06 343.53,504.04 337.7,505.08 " fill="none" id="Decorador-backto-DisplayPromedioF" style="stroke:#181818;stroke-width:1.0;"/><polygon fill="none" points="1001.9,435.52,983.0006,437.1971,987.7867,448.2013,1001.9,435.52" style="stroke:#181818;stroke-width:1.0;"/></g><!--reverse link Decorador to DisplayPromedioC--><g id="link_Decorador_DisplayPromedioC"><path codeLine="75" d="M985.366,442.5178 C979.846,445.1878 990.52,439.86 985,442.16 C868.32,490.77 830.46,475.05 707,502.16 C701.34,503.4 695.58,504.67 689.77,505.95 " fill="none" id="Decorador-backto-DisplayPromedioC" style="stroke:#181818;stroke-width:1.0;"/><polygon fill="none" points="1001.57,434.68,982.7534,437.1165,987.9786,447.9191,1001.57,434.68" style="stroke:#181818;stroke-width:1.0;"/></g><!--reverse link Decorador to DisplayTemperaturaMinF--><g id="link_Decorador_DisplayTemperaturaMinF"><path codeLine="76" d="M1007.1962,454.2425 C982.8462,475.2325 972.05,484.53 952.02,501.79 " fill="none" id="Decorador-backto-DisplayTemperaturaMinF" style="stroke:#181818;stroke-width:1.0;"/><polygon fill="none" points="1020.83,442.49,1003.2787,449.6979,1011.1137,458.7871,1020.83,442.49" style="stroke:#181818;stroke-width:1.0;"/></g><!--reverse link Decorador to DisplayTemperaturaMaxF--><g id="link_Decorador_DisplayTemperaturaMaxF"><path codeLine="77" d="M1281.3887,396.6629 C1379.1887,430.1629 1494.43,469.65 1588.27,501.8 " fill="none" id="Decorador-backto-DisplayTemperaturaMaxF" style="stroke:#181818;stroke-width:1.0;"/><polygon fill="none" points="1264.36,390.83,1279.4444,402.3392,1283.333,390.9867,1264.36,390.83" style="stroke:#181818;stroke-width:1.0;"/></g><!--reverse link Decorador to DisplayTemperaturaMinC--><g id="link_Decorador_DisplayTemperaturaMinC"><path codeLine="78" d="M1229.3435,456.0448 C1247.6835,477.0348 1254.25,484.53 1269.33,501.79 " fill="none" id="Decorador-backto-DisplayTemperaturaMinC" style="stroke:#181818;stroke-width:1.0;"/><polygon fill="none" points="1217.5,442.49,1224.8252,459.9926,1233.8617,452.097,1217.5,442.49" style="stroke:#181818;stroke-width:1.0;"/></g><!--reverse link Decorador to DisplayTemperaturaMaxC--><g id="link_Decorador_DisplayTemperaturaMaxC"><path codeLine="79" d="M1281.9862,375.8113 C1451.3762,409.9013 1729.3,465.84 1921.01,504.42 " fill="none" id="Decorador-backto-DisplayTemperaturaMaxC" style="stroke:#181818;stroke-width:1.0;"/><polygon fill="none" points="1264.34,372.26,1280.8024,381.6934,1283.17,369.9293,1264.34,372.26" style="stroke:#181818;stroke-width:1.0;"/></g><!--SRC=[pLNFI-j04BxthnZgHIqHl7W88V3O8XuKn0eUv1t6pRnsDSs6pGYAzdztOvA-pQysRJruAMNdc_dc-tPcaw9ymJd1c9x9I2MLFhyOmyS8G2LCvXzA6tiWv0MPAJAE8RX7CoVsX5wcEg64mnmDC84FVChOeEGLMC0zBLCooAy6Zqzyk2ECEt6tXZAbausOEumKsjwIcOxHR8Gwj5a5V3pzsyP6AajZVCz5vRWP6vNCBMmriZyonYo3yPLUKYb-niYs0Ql_JuGf4vMoFVvFw4EaNvzYAW9f8Qn-Q6fAwZ6dKkR3jSeuc7w7mwBxjgbEzgHkPIFIDh01QDhMPj_Fhy8iixRDLBOjMb0Vskc_NdWrJvK3KvBQth7E5HV_MQyrWwnsXdnmbgeSpiqoeLydR1KAWvJsxWJ04QJ6tawaT6txZY0VsXjywpfLxb8xOp8jM6xBWfSG29r8GzmqR091OC-HAGnRMSUEWITR-b_rSOkzkCLkt4rovoAiHxl9R-GUP4AzbZYW3_5ZVU3R_dxOt1_iGnpGn-u3uk0X-3mxwtuB1w3APxOBl7wRRB0tqNwYr7p1NjW1yUqJjkZgQrqPJZsRwJ3xjLUl1Wq-FQ-rrLiHeXVHM8r1E3io0-k9WVN4QFK5]--></g></svg>