<svg xmlns="http://www.w3.org/2000/svg" xmlns:xlink="http://www.w3.org/1999/xlink" contentStyleType="text/css" height="460px" preserveAspectRatio="none" style="width:1606px;height:460px;background:#FFFFFF;" version="1.1" viewBox="0 0 1606 460" width="1606px" zoomAndPan="magnify"><defs/><g><!--class Filter--><g id="elem_Filter"><rect codeLine="1" fill="#F1F1F1" height="64.2969" id="Filter" rx="2.5" ry="2.5" style="stroke:#181818;stroke-width:0.5;" width="327" x="434.5" y="199.49"/><ellipse cx="543.75" cy="215.49" fill="#A9DCDF" rx="11" ry="11" style="stroke:#181818;stroke-width:1.0;"/><path d="M543.8594,210.8337 L542.7031,215.9119 L545.0313,215.9119 L543.8594,210.8337 Z M542.375,208.5994 L545.3594,208.5994 L548.7188,220.99 L546.2656,220.99 L545.5,217.9275 L542.2188,217.9275 L541.4688,220.99 L539.0313,220.99 L542.375,208.5994 Z " fill="#000000"/><text fill="#000000" font-family="sans-serif" font-size="14" font-style="italic" lengthAdjust="spacing" textLength="33" x="564.25" y="220.3367">Filter</text><rect fill="#FFFFFF" height="15.9688" style="stroke:#181818;stroke-width:1.0;stroke-dasharray:2.0,2.0;" width="65" x="699.5" y="196.49"/><text fill="#000000" font-family="sans-serif" font-size="12" font-style="italic" lengthAdjust="spacing" textLength="63" x="700.5" y="208.6287">Decorator</text><line style="stroke:#181818;stroke-width:0.5;" x1="435.5" x2="760.5" y1="231.49" y2="231.49"/><line style="stroke:#181818;stroke-width:0.5;" x1="435.5" x2="760.5" y1="239.49" y2="239.49"/><ellipse cx="445.5" cy="253.1384" fill="#84BE84" rx="3" ry="3" style="stroke:#038048;stroke-width:1.0;"/><text fill="#000000" font-family="sans-serif" font-size="14" font-style="italic" lengthAdjust="spacing" textLength="301" x="454.5" y="256.4851">filter(image: BufferedImage): BufferedImage</text></g><!--class Artifact--><g id="elem_Artifact"><rect codeLine="6" fill="#F1F1F1" height="96.8906" id="Artifact" rx="2.5" ry="2.5" style="stroke:#181818;stroke-width:0.5;" width="327" x="796.5" y="183.19"/><ellipse cx="870.25" cy="199.19" fill="#ADD1B2" rx="11" ry="11" style="stroke:#181818;stroke-width:1.0;"/><path d="M873.2188,204.8306 Q872.6406,205.1275 872,205.2681 Q871.3594,205.4244 870.6563,205.4244 Q868.1563,205.4244 866.8281,203.7838 Q865.5156,202.1275 865.5156,199.0025 Q865.5156,195.8775 866.8281,194.2213 Q868.1563,192.565 870.6563,192.565 Q871.3594,192.565 872,192.7213 Q872.6563,192.8775 873.2188,193.1744 L873.2188,195.8931 Q872.5938,195.315 872,195.0494 Q871.4063,194.7681 870.7813,194.7681 Q869.4375,194.7681 868.75,195.8463 Q868.0625,196.9088 868.0625,199.0025 Q868.0625,201.0963 868.75,202.1744 Q869.4375,203.2369 870.7813,203.2369 Q871.4063,203.2369 872,202.9713 Q872.5938,202.69 873.2188,202.1119 L873.2188,204.8306 Z " fill="#000000"/><text fill="#000000" font-family="sans-serif" font-size="14" lengthAdjust="spacing" textLength="47" x="890.75" y="204.0367">Artifact</text><rect fill="#FFFFFF" height="15.9688" style="stroke:#181818;stroke-width:1.0;stroke-dasharray:2.0,2.0;" width="122" x="1004.5" y="180.19"/><text fill="#000000" font-family="sans-serif" font-size="12" font-style="italic" lengthAdjust="spacing" textLength="120" x="1005.5" y="192.3287">ConcreteDecorator</text><line style="stroke:#181818;stroke-width:0.5;" x1="797.5" x2="1122.5" y1="215.19" y2="215.19"/><ellipse cx="807.5" cy="228.8384" fill="none" rx="3" ry="3" style="stroke:#038048;stroke-width:1.0;"/><text fill="#000000" font-family="sans-serif" font-size="14" lengthAdjust="spacing" text-decoration="underline" textLength="91" x="816.5" y="232.1851">tempFile: File</text><ellipse cx="807.5" cy="245.1353" fill="none" rx="3" ry="3" style="stroke:#038048;stroke-width:1.0;"/><text fill="#000000" font-family="sans-serif" font-size="14" lengthAdjust="spacing" text-decoration="underline" textLength="175" x="816.5" y="248.482">compressionQuality: Real</text><line style="stroke:#181818;stroke-width:0.5;" x1="797.5" x2="1122.5" y1="255.7838" y2="255.7838"/><ellipse cx="807.5" cy="269.4322" fill="#84BE84" rx="3" ry="3" style="stroke:#038048;stroke-width:1.0;"/><text fill="#000000" font-family="sans-serif" font-size="14" lengthAdjust="spacing" textLength="301" x="816.5" y="272.7789">filter(image: BufferedImage): BufferedImage</text></g><!--class Dull--><g id="elem_Dull"><rect codeLine="13" fill="#F1F1F1" height="64.2969" id="Dull" rx="2.5" ry="2.5" style="stroke:#181818;stroke-width:0.5;" width="327" x="609.5" y="26.3"/><ellipse cx="693.75" cy="42.3" fill="#ADD1B2" rx="11" ry="11" style="stroke:#181818;stroke-width:1.0;"/><path d="M696.7188,47.9406 Q696.1406,48.2375 695.5,48.3781 Q694.8594,48.5344 694.1563,48.5344 Q691.6563,48.5344 690.3281,46.8937 Q689.0156,45.2375 689.0156,42.1125 Q689.0156,38.9875 690.3281,37.3312 Q691.6563,35.675 694.1563,35.675 Q694.8594,35.675 695.5,35.8312 Q696.1563,35.9875 696.7188,36.2844 L696.7188,39.0031 Q696.0938,38.425 695.5,38.1594 Q694.9063,37.8781 694.2813,37.8781 Q692.9375,37.8781 692.25,38.9562 Q691.5625,40.0187 691.5625,42.1125 Q691.5625,44.2062 692.25,45.2844 Q692.9375,46.3469 694.2813,46.3469 Q694.9063,46.3469 695.5,46.0812 Q696.0938,45.8 696.7188,45.2219 L696.7188,47.9406 Z " fill="#000000"/><text fill="#000000" font-family="sans-serif" font-size="14" lengthAdjust="spacing" textLength="26" x="714.25" y="47.1467">Dull</text><rect fill="#FFFFFF" height="15.9688" style="stroke:#181818;stroke-width:1.0;stroke-dasharray:2.0,2.0;" width="122" x="817.5" y="23.3"/><text fill="#000000" font-family="sans-serif" font-size="12" font-style="italic" lengthAdjust="spacing" textLength="120" x="818.5" y="35.4387">ConcreteDecorator</text><line style="stroke:#181818;stroke-width:0.5;" x1="610.5" x2="935.5" y1="58.3" y2="58.3"/><line style="stroke:#181818;stroke-width:0.5;" x1="610.5" x2="935.5" y1="66.3" y2="66.3"/><ellipse cx="620.5" cy="79.9484" fill="#84BE84" rx="3" ry="3" style="stroke:#038048;stroke-width:1.0;"/><text fill="#000000" font-family="sans-serif" font-size="14" lengthAdjust="spacing" textLength="301" x="629.5" y="83.2951">filter(image: BufferedImage): BufferedImage</text></g><!--class RGBShiftRepeater--><g id="elem_RGBShiftRepeater"><rect codeLine="18" fill="#F1F1F1" height="96.8906" id="RGBShiftRepeater" rx="2.5" ry="2.5" style="stroke:#181818;stroke-width:0.5;" width="327" x="247.5" y="10"/><ellipse cx="283.2" cy="26" fill="#ADD1B2" rx="11" ry="11" style="stroke:#181818;stroke-width:1.0;"/><path d="M286.1688,31.6406 Q285.5906,31.9375 284.95,32.0781 Q284.3094,32.2344 283.6063,32.2344 Q281.1063,32.2344 279.7781,30.5938 Q278.4656,28.9375 278.4656,25.8125 Q278.4656,22.6875 279.7781,21.0313 Q281.1063,19.375 283.6063,19.375 Q284.3094,19.375 284.95,19.5313 Q285.6063,19.6875 286.1688,19.9844 L286.1688,22.7031 Q285.5438,22.125 284.95,21.8594 Q284.3563,21.5781 283.7313,21.5781 Q282.3875,21.5781 281.7,22.6563 Q281.0125,23.7188 281.0125,25.8125 Q281.0125,27.9063 281.7,28.9844 Q282.3875,30.0469 283.7313,30.0469 Q284.3563,30.0469 284.95,29.7813 Q285.5438,29.5 286.1688,28.9219 L286.1688,31.6406 Z " fill="#000000"/><text fill="#000000" font-family="sans-serif" font-size="14" lengthAdjust="spacing" textLength="125" x="301.8" y="30.8467">RGBShiftRepeater</text><rect fill="#FFFFFF" height="15.9688" style="stroke:#181818;stroke-width:1.0;stroke-dasharray:2.0,2.0;" width="122" x="455.5" y="7"/><text fill="#000000" font-family="sans-serif" font-size="12" font-style="italic" lengthAdjust="spacing" textLength="120" x="456.5" y="19.1387">ConcreteDecorator</text><line style="stroke:#181818;stroke-width:0.5;" x1="248.5" x2="573.5" y1="42" y2="42"/><ellipse cx="258.5" cy="55.6484" fill="none" rx="3" ry="3" style="stroke:#038048;stroke-width:1.0;"/><text fill="#000000" font-family="sans-serif" font-size="14" lengthAdjust="spacing" text-decoration="underline" textLength="129" x="267.5" y="58.9951">X_REPEAT: Integer</text><ellipse cx="258.5" cy="71.9453" fill="none" rx="3" ry="3" style="stroke:#038048;stroke-width:1.0;"/><text fill="#000000" font-family="sans-serif" font-size="14" lengthAdjust="spacing" text-decoration="underline" textLength="129" x="267.5" y="75.292">Y_REPEAT: Integer</text><line style="stroke:#181818;stroke-width:0.5;" x1="248.5" x2="573.5" y1="82.5938" y2="82.5938"/><ellipse cx="258.5" cy="96.2422" fill="#84BE84" rx="3" ry="3" style="stroke:#038048;stroke-width:1.0;"/><text fill="#000000" font-family="sans-serif" font-size="14" lengthAdjust="spacing" textLength="301" x="267.5" y="99.5889">filter(image: BufferedImage): BufferedImage</text></g><!--class Rainbow--><g id="elem_Rainbow"><rect codeLine="25" fill="#F1F1F1" height="64.2969" id="Rainbow" rx="2.5" ry="2.5" style="stroke:#181818;stroke-width:0.5;" width="327" x="253.5" y="372.68"/><ellipse cx="321.25" cy="388.68" fill="#ADD1B2" rx="11" ry="11" style="stroke:#181818;stroke-width:1.0;"/><path d="M324.2188,394.3206 Q323.6406,394.6175 323,394.7581 Q322.3594,394.9144 321.6563,394.9144 Q319.1563,394.9144 317.8281,393.2737 Q316.5156,391.6175 316.5156,388.4925 Q316.5156,385.3675 317.8281,383.7112 Q319.1563,382.055 321.6563,382.055 Q322.3594,382.055 323,382.2112 Q323.6563,382.3675 324.2188,382.6644 L324.2188,385.3831 Q323.5938,384.805 323,384.5394 Q322.4063,384.2581 321.7813,384.2581 Q320.4375,384.2581 319.75,385.3362 Q319.0625,386.3987 319.0625,388.4925 Q319.0625,390.5862 319.75,391.6644 Q320.4375,392.7269 321.7813,392.7269 Q322.4063,392.7269 323,392.4612 Q323.5938,392.18 324.2188,391.6019 L324.2188,394.3206 Z " fill="#000000"/><text fill="#000000" font-family="sans-serif" font-size="14" lengthAdjust="spacing" textLength="59" x="341.75" y="393.5267">Rainbow</text><rect fill="#FFFFFF" height="15.9688" style="stroke:#181818;stroke-width:1.0;stroke-dasharray:2.0,2.0;" width="122" x="461.5" y="369.68"/><text fill="#000000" font-family="sans-serif" font-size="12" font-style="italic" lengthAdjust="spacing" textLength="120" x="462.5" y="381.8187">ConcreteDecorator</text><line style="stroke:#181818;stroke-width:0.5;" x1="254.5" x2="579.5" y1="404.68" y2="404.68"/><line style="stroke:#181818;stroke-width:0.5;" x1="254.5" x2="579.5" y1="412.68" y2="412.68"/><ellipse cx="264.5" cy="426.3284" fill="#84BE84" rx="3" ry="3" style="stroke:#038048;stroke-width:1.0;"/><text fill="#000000" font-family="sans-serif" font-size="14" lengthAdjust="spacing" textLength="301" x="273.5" y="429.6751">filter(image: BufferedImage): BufferedImage</text></g><!--class Repeater--><g id="elem_Repeater"><rect codeLine="29" fill="#F1F1F1" height="96.8906" id="Repeater" rx="2.5" ry="2.5" style="stroke:#181818;stroke-width:0.5;" width="327" x="615.5" y="356.38"/><ellipse cx="680.75" cy="372.38" fill="#ADD1B2" rx="11" ry="11" style="stroke:#181818;stroke-width:1.0;"/><path d="M683.7188,378.0206 Q683.1406,378.3175 682.5,378.4581 Q681.8594,378.6144 681.1563,378.6144 Q678.6563,378.6144 677.3281,376.9738 Q676.0156,375.3175 676.0156,372.1925 Q676.0156,369.0675 677.3281,367.4113 Q678.6563,365.755 681.1563,365.755 Q681.8594,365.755 682.5,365.9113 Q683.1563,366.0675 683.7188,366.3644 L683.7188,369.0831 Q683.0938,368.505 682.5,368.2394 Q681.9063,367.9581 681.2813,367.9581 Q679.9375,367.9581 679.25,369.0363 Q678.5625,370.0988 678.5625,372.1925 Q678.5625,374.2863 679.25,375.3644 Q679.9375,376.4269 681.2813,376.4269 Q681.9063,376.4269 682.5,376.1613 Q683.0938,375.88 683.7188,375.3019 L683.7188,378.0206 Z " fill="#000000"/><text fill="#000000" font-family="sans-serif" font-size="14" lengthAdjust="spacing" textLength="64" x="701.25" y="377.2267">Repeater</text><rect fill="#FFFFFF" height="15.9688" style="stroke:#181818;stroke-width:1.0;stroke-dasharray:2.0,2.0;" width="122" x="823.5" y="353.38"/><text fill="#000000" font-family="sans-serif" font-size="12" font-style="italic" lengthAdjust="spacing" textLength="120" x="824.5" y="365.5187">ConcreteDecorator</text><line style="stroke:#181818;stroke-width:0.5;" x1="616.5" x2="941.5" y1="388.38" y2="388.38"/><ellipse cx="626.5" cy="402.0284" fill="none" rx="3" ry="3" style="stroke:#038048;stroke-width:1.0;"/><text fill="#000000" font-family="sans-serif" font-size="14" lengthAdjust="spacing" text-decoration="underline" textLength="129" x="635.5" y="405.3751">X_REPEAT: Integer</text><ellipse cx="626.5" cy="418.3253" fill="none" rx="3" ry="3" style="stroke:#038048;stroke-width:1.0;"/><text fill="#000000" font-family="sans-serif" font-size="14" lengthAdjust="spacing" text-decoration="underline" textLength="129" x="635.5" y="421.672">Y_REPEAT: Integer</text><line style="stroke:#181818;stroke-width:0.5;" x1="616.5" x2="941.5" y1="428.9738" y2="428.9738"/><ellipse cx="626.5" cy="442.6222" fill="#84BE84" rx="3" ry="3" style="stroke:#038048;stroke-width:1.0;"/><text fill="#000000" font-family="sans-serif" font-size="14" lengthAdjust="spacing" textLength="301" x="635.5" y="445.9689">filter(image: BufferedImage): BufferedImage</text></g><!--class PNGFilterLauncher--><g id="elem_PNGFilterLauncher"><rect codeLine="36" fill="#F1F1F1" height="129.4844" id="PNGFilterLauncher" rx="2.5" ry="2.5" style="stroke:#181818;stroke-width:0.5;" width="292" x="7" y="166.9"/><ellipse cx="22" cy="182.9" fill="#ADD1B2" rx="11" ry="11" style="stroke:#181818;stroke-width:1.0;"/><path d="M24.9688,188.5406 Q24.3906,188.8375 23.75,188.9781 Q23.1094,189.1344 22.4063,189.1344 Q19.9063,189.1344 18.5781,187.4937 Q17.2656,185.8375 17.2656,182.7125 Q17.2656,179.5875 18.5781,177.9312 Q19.9063,176.275 22.4063,176.275 Q23.1094,176.275 23.75,176.4312 Q24.4063,176.5875 24.9688,176.8844 L24.9688,179.6031 Q24.3438,179.025 23.75,178.7594 Q23.1563,178.4781 22.5313,178.4781 Q21.1875,178.4781 20.5,179.5562 Q19.8125,180.6187 19.8125,182.7125 Q19.8125,184.8062 20.5,185.8844 Q21.1875,186.9469 22.5313,186.9469 Q23.1563,186.9469 23.75,186.6812 Q24.3438,186.4 24.9688,185.8219 L24.9688,188.5406 Z " fill="#000000"/><text fill="#000000" font-family="sans-serif" font-size="14" lengthAdjust="spacing" textLength="127" x="36" y="187.7467">PNGFilterLauncher</text><rect fill="#FFFFFF" height="15.9688" style="stroke:#181818;stroke-width:1.0;stroke-dasharray:2.0,2.0;" width="131" x="171" y="163.9"/><text fill="#000000" font-family="sans-serif" font-size="12" font-style="italic" lengthAdjust="spacing" textLength="129" x="172" y="176.0387">ConcreteComponent</text><line style="stroke:#181818;stroke-width:0.5;" x1="8" x2="298" y1="198.9" y2="198.9"/><rect fill="none" height="6" style="stroke:#C82930;stroke-width:1.0;" width="6" x="15" y="209.5484"/><text fill="#000000" font-family="sans-serif" font-size="14" lengthAdjust="spacing" textLength="90" x="27" y="215.8951">inputFile: File</text><rect fill="none" height="6" style="stroke:#C82930;stroke-width:1.0;" width="6" x="15" y="225.8453"/><text fill="#000000" font-family="sans-serif" font-size="14" lengthAdjust="spacing" textLength="101" x="27" y="232.192">outputFile: File</text><line style="stroke:#181818;stroke-width:0.5;" x1="8" x2="298" y1="239.4937" y2="239.4937"/><ellipse cx="18" cy="253.1422" fill="#84BE84" rx="3" ry="3" style="stroke:#038048;stroke-width:1.0;"/><text fill="#000000" font-family="sans-serif" font-size="14" lengthAdjust="spacing" text-decoration="underline" textLength="43" x="27" y="256.4889">main()</text><ellipse cx="18" cy="269.4391" fill="#84BE84" rx="3" ry="3" style="stroke:#038048;stroke-width:1.0;"/><text fill="#000000" font-family="sans-serif" font-size="14" lengthAdjust="spacing" text-decoration="underline" textLength="89" x="27" y="272.7857">processArg()</text><ellipse cx="18" cy="285.7359" fill="#84BE84" rx="3" ry="3" style="stroke:#038048;stroke-width:1.0;"/><text fill="#000000" font-family="sans-serif" font-size="14" lengthAdjust="spacing" text-decoration="underline" textLength="105" x="27" y="289.0826">initializeFilters()</text></g><g id="elem_n1"><path d="M1146.5,23.18 L1146.5,93.7113 L1599.5,93.7113 L1599.5,33.18 L1589.5,23.18 L1146.5,23.18 " fill="#FEFFDD" style="stroke:#181818;stroke-width:0.5;"/><path d="M1589.5,23.18 L1589.5,33.18 L1599.5,33.18 L1589.5,23.18 " fill="#FEFFDD" style="stroke:#181818;stroke-width:1.0;"/><text fill="#000000" font-family="sans-serif" font-size="13" font-weight="bold" lengthAdjust="spacing" textLength="14" x="1152.5" y="40.2469">a.</text><text fill="#000000" font-family="sans-serif" font-size="13" lengthAdjust="spacing" textLength="382" x="1170.5" y="40.2469">El objetivo del patr&#243;n es el de actualizar filtros en tiempo de</text><text fill="#000000" font-family="sans-serif" font-size="13" lengthAdjust="spacing" textLength="291" x="1152.5" y="55.3797">ejecuci&#243;n. Esto se puede observar en la clase</text><text fill="#000000" font-family="sans-serif" font-size="13" font-weight="bold" lengthAdjust="spacing" textLength="137" x="1447.5" y="55.3797">PNGFilterLauncher</text><text fill="#000000" font-family="sans-serif" font-size="13" lengthAdjust="spacing" textLength="386" x="1152.5" y="70.5125">donde se activan los filtros que son requeridos en el m&#233;todo</text><text fill="#000000" font-family="sans-serif" font-size="13" font-weight="bold" lengthAdjust="spacing" textLength="104" x="1152.5" y="85.6453">processArgs()</text></g><g id="elem_n2"><path d="M1158.5,196.37 L1158.5,266.9013 L1587.5,266.9013 L1587.5,206.37 L1577.5,196.37 L1158.5,196.37 " fill="#FEFFDD" style="stroke:#181818;stroke-width:0.5;"/><path d="M1577.5,196.37 L1577.5,206.37 L1587.5,206.37 L1577.5,196.37 " fill="#FEFFDD" style="stroke:#181818;stroke-width:1.0;"/><text fill="#000000" font-family="sans-serif" font-size="13" font-weight="bold" lengthAdjust="spacing" textLength="15" x="1164.5" y="213.4369">b.</text><text fill="#000000" font-family="sans-serif" font-size="13" lengthAdjust="spacing" textLength="389" x="1183.5" y="213.4369">La estructura del proyecto no coincide con la estructura y los</text><text fill="#000000" font-family="sans-serif" font-size="13" lengthAdjust="spacing" textLength="398" x="1164.5" y="228.5697">participantes del libro de Gof, no se encontrar&#237;a el participante</text><text fill="#000000" font-family="sans-serif" font-size="13" font-weight="bold" lengthAdjust="spacing" textLength="85" x="1164.5" y="243.7025">Component</text><text fill="#000000" font-family="sans-serif" font-size="13" lengthAdjust="spacing" textLength="273" x="1253.5" y="243.7025">como interfaz com&#250;n de los decoradores y</text><text fill="#000000" font-family="sans-serif" font-size="13" lengthAdjust="spacing" textLength="156" x="1164.5" y="258.8353">el componente concreto</text></g><g id="elem_n3"><path d="M1163.5,369.56 L1163.5,440.0913 L1582.5,440.0913 L1582.5,379.56 L1572.5,369.56 L1163.5,369.56 " fill="#FEFFDD" style="stroke:#181818;stroke-width:0.5;"/><path d="M1572.5,369.56 L1572.5,379.56 L1582.5,379.56 L1572.5,369.56 " fill="#FEFFDD" style="stroke:#181818;stroke-width:1.0;"/><text fill="#000000" font-family="sans-serif" font-size="13" font-weight="bold" lengthAdjust="spacing" textLength="13" x="1169.5" y="386.6269">c.</text><text fill="#000000" font-family="sans-serif" font-size="13" lengthAdjust="spacing" textLength="208" x="1186.5" y="386.6269">Al no encontrarse el participante</text><text fill="#000000" font-family="sans-serif" font-size="13" font-weight="bold" lengthAdjust="spacing" textLength="85" x="1398.5" y="386.6269">Component</text><text fill="#000000" font-family="sans-serif" font-size="13" lengthAdjust="spacing" textLength="80" x="1487.5" y="386.6269">y no tener la</text><text fill="#000000" font-family="sans-serif" font-size="13" lengthAdjust="spacing" textLength="393" x="1169.5" y="401.7597">referencia al mismo, no se van a poderr a&#241;adir las cualidades</text><text fill="#000000" font-family="sans-serif" font-size="13" lengthAdjust="spacing" textLength="361" x="1169.5" y="416.8925">recursivamente, todo este trabajo lo har&#225; el participante</text><text fill="#000000" font-family="sans-serif" font-size="13" font-weight="bold" lengthAdjust="spacing" textLength="151" x="1169.5" y="432.0253">ConcreteComponent</text><text fill="#000000" font-family="sans-serif" font-size="13" lengthAdjust="spacing" textLength="98" x="1324.5" y="432.0253">iterativamente.</text></g><!--reverse link Filter to Artifact--><g id="link_Filter_Artifact"><path codeLine="45" d="M779.79,231.64 C791.21,231.64 784.72,231.64 796.14,231.64 " fill="none" id="Filter-backto-Artifact" style="stroke:#181818;stroke-width:1.0;"/><polygon fill="none" points="761.79,231.64,779.79,237.64,779.79,225.64,761.79,231.64" style="stroke:#181818;stroke-width:1.0;"/></g><!--link Dull to Filter--><g id="link_Dull_Filter"><path codeLine="46" d="M740.9,90.85 C709.43,121.64 674.568,155.7437 643.058,186.5637 " fill="none" id="Dull-to-Filter" style="stroke:#181818;stroke-width:1.0;"/><polygon fill="none" points="630.19,199.15,647.2535,190.8531,638.8626,182.2744,630.19,199.15" style="stroke:#181818;stroke-width:1.0;"/></g><!--link RGBShiftRepeater to Filter--><g id="link_RGBShiftRepeater_Filter"><path codeLine="47" d="M463.09,107.13 C495.19,136.52 522.1632,161.2157 550.3132,186.9857 " fill="none" id="RGBShiftRepeater-to-Filter" style="stroke:#181818;stroke-width:1.0;"/><polygon fill="none" points="563.59,199.14,554.3646,182.5601,546.2618,191.4113,563.59,199.14" style="stroke:#181818;stroke-width:1.0;"/></g><!--reverse link Filter to Rainbow--><g id="link_Filter_Rainbow"><path codeLine="48" d="M551.7235,276.4095 C519.1735,307.1995 482.88,341.51 450.29,372.34 " fill="none" id="Filter-backto-Rainbow" style="stroke:#181818;stroke-width:1.0;"/><polygon fill="none" points="564.8,264.04,547.6003,272.0506,555.8466,280.7683,564.8,264.04" style="stroke:#181818;stroke-width:1.0;"/></g><!--reverse link Filter to Repeater--><g id="link_Filter_Repeater"><path codeLine="49" d="M644.2781,276.4078 C671.5281,302.1778 697.47,326.72 728.58,356.14 " fill="none" id="Filter-backto-Repeater" style="stroke:#181818;stroke-width:1.0;"/><polygon fill="none" points="631.2,264.04,640.1555,280.7672,648.4007,272.0484,631.2,264.04" style="stroke:#181818;stroke-width:1.0;"/></g><!--link PNGFilterLauncher to Filter--><g id="link_PNGFilterLauncher_Filter"><path codeLine="51" d="M299.32,249.01 C311.96,250.07 324.57,250.98 336.75,251.64 C368.32,253.35 396.0106,253.0158 428.3306,251.0958 " fill="none" id="PNGFilterLauncher-to-Filter" style="stroke:#181818;stroke-width:1.0;"/><polygon fill="#181818" points="434.32,250.74,425.0986,247.2808,429.3288,251.0365,425.573,255.2667,434.32,250.74" style="stroke:#181818;stroke-width:1.0;"/><rect fill="none" height="6" style="stroke:#C82930;stroke-width:1.0;" width="6" x="339.75" y="240.7064"/><text fill="#000000" font-family="sans-serif" font-size="13" lengthAdjust="spacing" textLength="46" x="349.75" y="247.7069">filters *</text></g><!--link PNGFilterLauncher to Filter--><g id="link_PNGFilterLauncher_Filter"><path codeLine="52" d="M299.33,231.64 C342.52,231.64 384.06,231.64 428.27,231.64 " fill="none" id="PNGFilterLauncher-to-Filter-1" style="stroke:#181818;stroke-width:1.0;"/><polygon fill="#181818" points="434.27,231.64,425.27,227.64,429.27,231.64,425.27,235.64,434.27,231.64" style="stroke:#181818;stroke-width:1.0;"/><rect fill="none" height="6" style="stroke:#C82930;stroke-width:1.0;" width="6" x="319.25" y="217.7064"/><text fill="#000000" font-family="sans-serif" font-size="13" lengthAdjust="spacing" textLength="87" x="329.25" y="224.7069">activeFilters *</text></g><!--link n1 to n2--><g id="link_n1_n2"><path codeLine="77" d="M1373,94.09 C1373,123.79 1373,166.36 1373,196.05 " fill="none" id="n1-n2" style="stroke:#181818;stroke-width:1.0;stroke-dasharray:7.0,7.0;"/></g><!--link n2 to n3--><g id="link_n2_n3"><path codeLine="78" d="M1373,267.28 C1373,296.98 1373,339.55 1373,369.23 " fill="none" id="n2-n3" style="stroke:#181818;stroke-width:1.0;stroke-dasharray:7.0,7.0;"/></g><!--SRC=[pPHDJnin48Rl-olc25iI2RX522b0Yf1GHTCUsbCryKuIeuszjRrKWV9ZUkoXXwgtNlF7-jfXGpQXwjUbEKHhpzVpZiVcaG-ELI1LilVqN9T171sTYRAEWtN7TndHCxhZ1xzx6YUN7JtZYVJef1wFnKbn4PUx6-iiky-oPUA-2teSwnoTMgES1DaguGC7hUufoAm21vB7_xPDsLdbn7jjpSkQIntcFHeAbrbo-nEq5TbPNPPFK_rzpk7voQkf7eUXLCAfeRzK_URTS70rwB_kqOK9CX7NDh_TCly37MipiXz-3lLtMVzBhLSlpfSpVScrKTDrl5FCaZLYGiBha3PL7Lg3ro5RX_PcctI6JkxijlSgPnKcjEyccnPjTD0OsbjP8dau0BIvSnyxJa-ceREwAskMkkgaGTtOsfopDNEdEURsNkEORJVceVpnmoFGW_nboptbl-SEPdtJY4CGViO68VPazhCyvswUqw0aExeMU5egfAIAWrjyCoIUi2eaPebN-vPTgkyi38Q2nhCG8oYJQr6rqWZgqi07IrwegWKcE_BYRX28W9BJcoQKvrlmUPuLrY30onAQuOywJRttDKpMa1DyELqi4O0tMtmEjh3GydZCE4Ra4rDG5Bic-G1keoZvag4kk1h272z5EpiN1NHZyQPfepHWb4tKQwxpI9LLZ85GkcBS1f_2IprogHVdThmNSq276CJZZNQBBqofhuzH05bDEtZmYbfC8neovjkuMdmtCLjiGP4kRM7nog9yXaIgYKo4yUhOfzGUeeYAQljb95hXHBGs3RLfvj4zYC5CbPmvYTSO3M5Yz5lxcMqKnbDYgcmXpX4lldAXOuWd5UUbu0B8Y5UrypZHMIJUetXSiQL2W1dnjOLAcg9BdxQmKfSstWRmQVI9GvEnkwvzdxhTUCxc87qS_W00]--></g></svg>