<?xml version="1.0" encoding="us-ascii" standalone="no"?><svg xmlns="http://www.w3.org/2000/svg" xmlns:xlink="http://www.w3.org/1999/xlink" contentStyleType="text/css" height="467px" preserveAspectRatio="none" style="width:603px;height:467px;background:#FFFFFF;" version="1.1" viewBox="0 0 603 467" width="603px" zoomAndPan="magnify"><defs/><g><!--class DatabaseAcces--><g id="elem_DatabaseAcces"><rect codeLine="1" fill="#F1F1F1" height="88.8594" id="DatabaseAcces" rx="2.5" ry="2.5" style="stroke:#181818;stroke-width:0.5;" width="345" x="50" y="7"/><ellipse cx="164.25" cy="27.1328" fill="#B4A7E5" rx="11" ry="11" style="stroke:#181818;stroke-width:1.0;"/><path d="M160.1719,22.8984 L160.1719,20.7422 L167.5625,20.7422 L167.5625,22.8984 L165.0938,22.8984 L165.0938,30.9766 L167.5625,30.9766 L167.5625,33.1328 L160.1719,33.1328 L160.1719,30.9766 L162.6406,30.9766 L162.6406,22.8984 L160.1719,22.8984 Z " fill="#000000"/><text fill="#000000" font-family="sans-serif" font-size="12" font-style="italic" lengthAdjust="spacing" textLength="70" x="203.75" y="23.1387">&#171;interface&#187;</text><text fill="#000000" font-family="sans-serif" font-size="14" font-style="italic" lengthAdjust="spacing" textLength="108" x="184.75" y="38.9639">DatabaseAcces</text><line style="stroke:#181818;stroke-width:0.5;" x1="51" x2="394" y1="47.2656" y2="47.2656"/><line style="stroke:#181818;stroke-width:0.5;" x1="51" x2="394" y1="55.2656" y2="55.2656"/><ellipse cx="61" cy="68.9141" fill="#84BE84" rx="3" ry="3" style="stroke:#038048;stroke-width:1.0;"/><text fill="#000000" font-family="sans-serif" font-size="14" font-style="italic" lengthAdjust="spacing" textLength="290" x="70" y="72.2607">insertNewRow(rowData: String[*]): Integer</text><ellipse cx="61" cy="85.2109" fill="#84BE84" rx="3" ry="3" style="stroke:#038048;stroke-width:1.0;"/><text fill="#000000" font-family="sans-serif" font-size="14" font-style="italic" lengthAdjust="spacing" textLength="319" x="70" y="88.5576">getSearchResult(queryString: String): String[*]</text></g><!--class DatabaseRealAcces--><g id="elem_DatabaseRealAcces"><rect codeLine="7" fill="#F1F1F1" height="96.8906" id="DatabaseRealAcces" rx="2.5" ry="2.5" style="stroke:#181818;stroke-width:0.5;" width="345" x="7" y="363.34"/><ellipse cx="106.25" cy="379.34" fill="#ADD1B2" rx="11" ry="11" style="stroke:#181818;stroke-width:1.0;"/><path d="M109.2188,384.9806 Q108.6406,385.2775 108,385.4181 Q107.3594,385.5744 106.6563,385.5744 Q104.1563,385.5744 102.8281,383.9338 Q101.5156,382.2775 101.5156,379.1525 Q101.5156,376.0275 102.8281,374.3713 Q104.1563,372.715 106.6563,372.715 Q107.3594,372.715 108,372.8713 Q108.6563,373.0275 109.2188,373.3244 L109.2188,376.0431 Q108.5938,375.465 108,375.1994 Q107.4063,374.9181 106.7813,374.9181 Q105.4375,374.9181 104.75,375.9963 Q104.0625,377.0588 104.0625,379.1525 Q104.0625,381.2463 104.75,382.3244 Q105.4375,383.3869 106.7813,383.3869 Q107.4063,383.3869 108,383.1213 Q108.5938,382.84 109.2188,382.2619 L109.2188,384.9806 Z " fill="#000000"/><text fill="#000000" font-family="sans-serif" font-size="14" lengthAdjust="spacing" textLength="138" x="126.75" y="384.1867">DatabaseRealAcces</text><line style="stroke:#181818;stroke-width:0.5;" x1="8" x2="351" y1="395.34" y2="395.34"/><rect fill="none" height="6" style="stroke:#C82930;stroke-width:1.0;" width="6" x="15" y="405.9884"/><text fill="#000000" font-family="sans-serif" font-size="14" lengthAdjust="spacing" textLength="64" x="27" y="412.3351">database</text><line style="stroke:#181818;stroke-width:0.5;" x1="8" x2="351" y1="419.6369" y2="419.6369"/><ellipse cx="18" cy="433.2853" fill="#84BE84" rx="3" ry="3" style="stroke:#038048;stroke-width:1.0;"/><text fill="#000000" font-family="sans-serif" font-size="14" lengthAdjust="spacing" textLength="290" x="27" y="436.632">insertNewRow(rowData: String[*]): Integer</text><ellipse cx="18" cy="449.5822" fill="#84BE84" rx="3" ry="3" style="stroke:#038048;stroke-width:1.0;"/><text fill="#000000" font-family="sans-serif" font-size="14" lengthAdjust="spacing" textLength="319" x="27" y="452.9289">getSearchResult(queryString: String): String[*]</text></g><!--class DatabaseRealAccesProxy--><g id="elem_DatabaseRealAccesProxy"><rect codeLine="14" fill="#F1F1F1" height="129.4844" id="DatabaseRealAccesProxy" rx="2.5" ry="2.5" style="stroke:#181818;stroke-width:0.5;" width="393" x="203" y="156.86"/><ellipse cx="307.75" cy="172.86" fill="#ADD1B2" rx="11" ry="11" style="stroke:#181818;stroke-width:1.0;"/><path d="M310.7188,178.5006 Q310.1406,178.7975 309.5,178.9381 Q308.8594,179.0944 308.1563,179.0944 Q305.6563,179.0944 304.3281,177.4538 Q303.0156,175.7975 303.0156,172.6725 Q303.0156,169.5475 304.3281,167.8913 Q305.6563,166.235 308.1563,166.235 Q308.8594,166.235 309.5,166.3913 Q310.1563,166.5475 310.7188,166.8444 L310.7188,169.5631 Q310.0938,168.985 309.5,168.7194 Q308.9063,168.4381 308.2813,168.4381 Q306.9375,168.4381 306.25,169.5163 Q305.5625,170.5788 305.5625,172.6725 Q305.5625,174.7663 306.25,175.8444 Q306.9375,176.9069 308.2813,176.9069 Q308.9063,176.9069 309.5,176.6413 Q310.0938,176.36 310.7188,175.7819 L310.7188,178.5006 Z " fill="#000000"/><text fill="#000000" font-family="sans-serif" font-size="14" lengthAdjust="spacing" textLength="175" x="328.25" y="177.7067">DatabaseRealAccesProxy</text><line style="stroke:#181818;stroke-width:0.5;" x1="204" x2="595" y1="188.86" y2="188.86"/><rect fill="none" height="6" style="stroke:#C82930;stroke-width:1.0;" width="6" x="211" y="199.5084"/><text fill="#000000" font-family="sans-serif" font-size="14" lengthAdjust="spacing" textLength="129" x="223" y="205.8551">isLogged: Boolean</text><line style="stroke:#181818;stroke-width:0.5;" x1="204" x2="595" y1="213.1569" y2="213.1569"/><ellipse cx="214" cy="226.8053" fill="#84BE84" rx="3" ry="3" style="stroke:#038048;stroke-width:1.0;"/><text fill="#000000" font-family="sans-serif" font-size="14" lengthAdjust="spacing" textLength="367" x="223" y="230.152">&#171;create&#187; DatabaseRealAccesProxy(password: String)</text><ellipse cx="214" cy="243.1022" fill="#84BE84" rx="3" ry="3" style="stroke:#038048;stroke-width:1.0;"/><text fill="#000000" font-family="sans-serif" font-size="14" lengthAdjust="spacing" textLength="290" x="223" y="246.4489">insertNewRow(rowData: String[*]): Integer</text><ellipse cx="214" cy="259.3991" fill="#84BE84" rx="3" ry="3" style="stroke:#038048;stroke-width:1.0;"/><text fill="#000000" font-family="sans-serif" font-size="14" lengthAdjust="spacing" textLength="319" x="223" y="262.7457">getSearchResult(queryString: String): String[*]</text><rect fill="#F24D5C" height="6" style="stroke:#C82930;stroke-width:1.0;" width="6" x="211" y="272.6959"/><text fill="#000000" font-family="sans-serif" font-size="14" lengthAdjust="spacing" textLength="247" x="223" y="279.0426">passwordValidate(password: String)</text></g><!--reverse link DatabaseAcces to DatabaseRealAcces--><g id="link_DatabaseAcces_DatabaseRealAcces"><path codeLine="23" d="M197.0256,113.0968 C189.9856,131.4568 189.26,136.43 185.5,156.86 C172.45,227.76 173.62,311.68 176.17,363.06 " fill="none" id="DatabaseAcces-backto-DatabaseRealAcces" style="stroke:#181818;stroke-width:1.0;stroke-dasharray:7.0,7.0;"/><polygon fill="none" points="203.47,96.29,191.4233,110.9487,202.6278,115.245,203.47,96.29" style="stroke:#181818;stroke-width:1.0;"/></g><!--reverse link DatabaseAcces to DatabaseRealAccesProxy--><g id="link_DatabaseAcces_DatabaseRealAccesProxy"><path codeLine="24" d="M281.5873,108.5703 C300.9473,126.9703 310.81,136.33 332.02,156.48 " fill="none" id="DatabaseAcces-backto-DatabaseRealAccesProxy" style="stroke:#181818;stroke-width:1.0;stroke-dasharray:7.0,7.0;"/><polygon fill="none" points="268.54,96.17,277.4539,112.9194,285.7207,104.2212,268.54,96.17" style="stroke:#181818;stroke-width:1.0;"/></g><!--link DatabaseRealAccesProxy to DatabaseRealAcces--><g id="link_DatabaseRealAccesProxy_DatabaseRealAcces"><path codeLine="26" d="M324.4,286.83 C295.28,311.75 267.0691,335.8794 240.0691,358.9794 " fill="none" id="DatabaseRealAccesProxy-to-DatabaseRealAcces" style="stroke:#181818;stroke-width:1.0;"/><polygon fill="#181818" points="235.51,362.88,244.9491,360.0685,239.3093,359.6295,239.7483,353.9897,235.51,362.88" style="stroke:#181818;stroke-width:1.0;"/><text fill="#000000" font-family="sans-serif" font-size="13" lengthAdjust="spacing" textLength="86" x="290.5" y="329.4069">realDatabase</text></g><!--SRC=[lPB1QiCm38RlVWeTqutq0K8eREmoAAMaiCleGNKqps3YJLP9IzftdzlCsMWxs63KHqd_hqy_jeqGlw0cU4315GQwqve2bALDdScaKmhYkuKELq4OjUp1De5OPjHMlitOjmTv0GjXsvZdc-MeWCTeO8ZFfOPaGSZwjQAmTfAzhuctlJ8vZBvPgRrIsc480s95w7hCxkYUG_tPIQ1_fVi_f3dxpNRWic7gZQ6wW7ll7M5pA2V8ijHCA37W7soojxYYzLmF35SwhuTFsv_GsHWmNS29EPpyczruV7xDhuQE9t_vdIIQvnTIAY06w5Bv0m00]--></g></svg>