<?xml version="1.0" encoding="us-ascii" standalone="no"?><svg xmlns="http://www.w3.org/2000/svg" xmlns:xlink="http://www.w3.org/1999/xlink" contentStyleType="text/css" height="978px" preserveAspectRatio="none" style="width:1391px;height:978px;background:#FFFFFF;" version="1.1" viewBox="0 0 1391 978" width="1391px" zoomAndPan="magnify"><defs/><g><!--class Shape--><g id="elem_Shape"><rect codeLine="1" fill="#F1F1F1" height="210.9688" id="Shape" rx="2.5" ry="2.5" style="stroke:#181818;stroke-width:0.5;" width="281" x="491.5" y="7"/><ellipse cx="605.75" cy="23" fill="#B4A7E5" rx="11" ry="11" style="stroke:#181818;stroke-width:1.0;"/><path d="M601.6719,18.7656 L601.6719,16.6094 L609.0625,16.6094 L609.0625,18.7656 L606.5938,18.7656 L606.5938,26.8438 L609.0625,26.8438 L609.0625,29 L601.6719,29 L601.6719,26.8438 L604.1406,26.8438 L604.1406,18.7656 L601.6719,18.7656 Z " fill="#000000"/><text fill="#000000" font-family="sans-serif" font-size="14" font-style="italic" lengthAdjust="spacing" textLength="44" x="626.25" y="27.8467">Shape</text><line style="stroke:#181818;stroke-width:0.5;" x1="492.5" x2="771.5" y1="39" y2="39"/><line style="stroke:#181818;stroke-width:0.5;" x1="492.5" x2="771.5" y1="47" y2="47"/><ellipse cx="502.5" cy="60.6484" fill="#84BE84" rx="3" ry="3" style="stroke:#038048;stroke-width:1.0;"/><text fill="#000000" font-family="sans-serif" font-size="14" lengthAdjust="spacing" textLength="68" x="511.5" y="63.9951">getX(): int</text><ellipse cx="502.5" cy="76.9453" fill="#84BE84" rx="3" ry="3" style="stroke:#038048;stroke-width:1.0;"/><text fill="#000000" font-family="sans-serif" font-size="14" lengthAdjust="spacing" textLength="68" x="511.5" y="80.292">getY(): int</text><ellipse cx="502.5" cy="93.2422" fill="#84BE84" rx="3" ry="3" style="stroke:#038048;stroke-width:1.0;"/><text fill="#000000" font-family="sans-serif" font-size="14" lengthAdjust="spacing" textLength="98" x="511.5" y="96.5889">getWidth(): int</text><ellipse cx="502.5" cy="109.5391" fill="#84BE84" rx="3" ry="3" style="stroke:#038048;stroke-width:1.0;"/><text fill="#000000" font-family="sans-serif" font-size="14" lengthAdjust="spacing" textLength="104" x="511.5" y="112.8857">getHeight(): int</text><ellipse cx="502.5" cy="125.8359" fill="#84BE84" rx="3" ry="3" style="stroke:#038048;stroke-width:1.0;"/><text fill="#000000" font-family="sans-serif" font-size="14" lengthAdjust="spacing" textLength="159" x="511.5" y="129.1826">move(x: int, y: int): void</text><ellipse cx="502.5" cy="142.1328" fill="#84BE84" rx="3" ry="3" style="stroke:#038048;stroke-width:1.0;"/><text fill="#000000" font-family="sans-serif" font-size="14" lengthAdjust="spacing" textLength="255" x="511.5" y="145.4795">isInsideBounds(x: int, y: int): boolean</text><ellipse cx="502.5" cy="158.4297" fill="#84BE84" rx="3" ry="3" style="stroke:#038048;stroke-width:1.0;"/><text fill="#000000" font-family="sans-serif" font-size="14" lengthAdjust="spacing" textLength="89" x="511.5" y="161.7764">select(): void</text><ellipse cx="502.5" cy="174.7266" fill="#84BE84" rx="3" ry="3" style="stroke:#038048;stroke-width:1.0;"/><text fill="#000000" font-family="sans-serif" font-size="14" lengthAdjust="spacing" textLength="108" x="511.5" y="178.0732">unSelect(): void</text><ellipse cx="502.5" cy="191.0234" fill="#84BE84" rx="3" ry="3" style="stroke:#038048;stroke-width:1.0;"/><text fill="#000000" font-family="sans-serif" font-size="14" lengthAdjust="spacing" textLength="147" x="511.5" y="194.3701">isSelected(): boolean</text><ellipse cx="502.5" cy="207.3203" fill="#84BE84" rx="3" ry="3" style="stroke:#038048;stroke-width:1.0;"/><text fill="#000000" font-family="sans-serif" font-size="14" lengthAdjust="spacing" textLength="210" x="511.5" y="210.667">paint(graphics: Graphics): void</text></g><!--class BaseShape--><g id="elem_BaseShape"><rect codeLine="14" fill="#F1F1F1" height="325.0469" id="BaseShape" rx="2.5" ry="2.5" style="stroke:#181818;stroke-width:0.5;" width="348" x="458" y="277.97"/><ellipse cx="588.25" cy="293.97" fill="#A9DCDF" rx="11" ry="11" style="stroke:#181818;stroke-width:1.0;"/><path d="M588.3594,289.3138 L587.2031,294.3919 L589.5313,294.3919 L588.3594,289.3138 Z M586.875,287.0794 L589.8594,287.0794 L593.2188,299.47 L590.7656,299.47 L590,296.4075 L586.7188,296.4075 L585.9688,299.47 L583.5313,299.47 L586.875,287.0794 Z " fill="#000000"/><text fill="#000000" font-family="sans-serif" font-size="14" font-style="italic" lengthAdjust="spacing" textLength="79" x="608.75" y="298.8167">BaseShape</text><line style="stroke:#181818;stroke-width:0.5;" x1="459" x2="805" y1="309.97" y2="309.97"/><rect fill="none" height="6" style="stroke:#C82930;stroke-width:1.0;" width="6" x="466" y="320.6184"/><text fill="#000000" font-family="sans-serif" font-size="14" lengthAdjust="spacing" textLength="33" x="478" y="326.9651">x: int</text><rect fill="none" height="6" style="stroke:#C82930;stroke-width:1.0;" width="6" x="466" y="336.9153"/><text fill="#000000" font-family="sans-serif" font-size="14" lengthAdjust="spacing" textLength="33" x="478" y="343.262">y: int</text><rect fill="none" height="6" style="stroke:#C82930;stroke-width:1.0;" width="6" x="466" y="353.2122"/><text fill="#000000" font-family="sans-serif" font-size="14" lengthAdjust="spacing" textLength="79" x="478" y="359.5589">color: Color</text><rect fill="none" height="6" style="stroke:#C82930;stroke-width:1.0;" width="6" x="466" y="369.5091"/><text fill="#000000" font-family="sans-serif" font-size="14" lengthAdjust="spacing" textLength="125" x="478" y="375.8557">selected: boolean</text><line style="stroke:#181818;stroke-width:0.5;" x1="459" x2="805" y1="383.1575" y2="383.1575"/><ellipse cx="469" cy="396.8059" fill="#84BE84" rx="3" ry="3" style="stroke:#038048;stroke-width:1.0;"/><text fill="#000000" font-family="sans-serif" font-size="14" lengthAdjust="spacing" textLength="250" x="478" y="400.1526">BaseShape(x: int, y: int, color: Color)</text><ellipse cx="469" cy="413.1028" fill="#84BE84" rx="3" ry="3" style="stroke:#038048;stroke-width:1.0;"/><text fill="#000000" font-family="sans-serif" font-size="14" lengthAdjust="spacing" textLength="68" x="478" y="416.4495">getX(): int</text><ellipse cx="469" cy="429.3997" fill="#84BE84" rx="3" ry="3" style="stroke:#038048;stroke-width:1.0;"/><text fill="#000000" font-family="sans-serif" font-size="14" lengthAdjust="spacing" textLength="68" x="478" y="432.7464">getY(): int</text><ellipse cx="469" cy="445.6966" fill="#84BE84" rx="3" ry="3" style="stroke:#038048;stroke-width:1.0;"/><text fill="#000000" font-family="sans-serif" font-size="14" lengthAdjust="spacing" textLength="98" x="478" y="449.0432">getWidth(): int</text><ellipse cx="469" cy="461.9934" fill="#84BE84" rx="3" ry="3" style="stroke:#038048;stroke-width:1.0;"/><text fill="#000000" font-family="sans-serif" font-size="14" lengthAdjust="spacing" textLength="104" x="478" y="465.3401">getHeight(): int</text><ellipse cx="469" cy="478.2903" fill="#84BE84" rx="3" ry="3" style="stroke:#038048;stroke-width:1.0;"/><text fill="#000000" font-family="sans-serif" font-size="14" lengthAdjust="spacing" textLength="159" x="478" y="481.637">move(x: int, y: int): void</text><ellipse cx="469" cy="494.5872" fill="#84BE84" rx="3" ry="3" style="stroke:#038048;stroke-width:1.0;"/><text fill="#000000" font-family="sans-serif" font-size="14" lengthAdjust="spacing" textLength="255" x="478" y="497.9339">isInsideBounds(x: int, y: int): boolean</text><ellipse cx="469" cy="510.8841" fill="#84BE84" rx="3" ry="3" style="stroke:#038048;stroke-width:1.0;"/><text fill="#000000" font-family="sans-serif" font-size="14" lengthAdjust="spacing" textLength="89" x="478" y="514.2307">select(): void</text><ellipse cx="469" cy="527.1809" fill="#84BE84" rx="3" ry="3" style="stroke:#038048;stroke-width:1.0;"/><text fill="#000000" font-family="sans-serif" font-size="14" lengthAdjust="spacing" textLength="108" x="478" y="530.5276">unSelect(): void</text><ellipse cx="469" cy="543.4778" fill="#84BE84" rx="3" ry="3" style="stroke:#038048;stroke-width:1.0;"/><text fill="#000000" font-family="sans-serif" font-size="14" lengthAdjust="spacing" textLength="147" x="478" y="546.8245">isSelected(): boolean</text><ellipse cx="469" cy="559.7747" fill="#84BE84" rx="3" ry="3" style="stroke:#038048;stroke-width:1.0;"/><text fill="#000000" font-family="sans-serif" font-size="14" lengthAdjust="spacing" textLength="320" x="478" y="563.1214">enableSelectionStyle(graphics: Graphics): void</text><ellipse cx="469" cy="576.0716" fill="#84BE84" rx="3" ry="3" style="stroke:#038048;stroke-width:1.0;"/><text fill="#000000" font-family="sans-serif" font-size="14" lengthAdjust="spacing" textLength="322" x="478" y="579.4182">disableSelectionStyle(graphics: Graphics): void</text><ellipse cx="469" cy="592.3684" fill="#84BE84" rx="3" ry="3" style="stroke:#038048;stroke-width:1.0;"/><text fill="#000000" font-family="sans-serif" font-size="14" lengthAdjust="spacing" textLength="210" x="478" y="595.7151">paint(graphics: Graphics): void</text></g><!--class Dot--><g id="elem_Dot"><rect codeLine="34" fill="#F1F1F1" height="129.4844" id="Dot" rx="2.5" ry="2.5" style="stroke:#181818;stroke-width:0.5;" width="236" x="7" y="752.65"/><ellipse cx="108.25" cy="768.65" fill="#ADD1B2" rx="11" ry="11" style="stroke:#181818;stroke-width:1.0;"/><path d="M111.2188,774.2906 Q110.6406,774.5875 110,774.7281 Q109.3594,774.8844 108.6563,774.8844 Q106.1563,774.8844 104.8281,773.2438 Q103.5156,771.5875 103.5156,768.4625 Q103.5156,765.3375 104.8281,763.6813 Q106.1563,762.025 108.6563,762.025 Q109.3594,762.025 110,762.1813 Q110.6563,762.3375 111.2188,762.6344 L111.2188,765.3531 Q110.5938,764.775 110,764.5094 Q109.4063,764.2281 108.7813,764.2281 Q107.4375,764.2281 106.75,765.3063 Q106.0625,766.3688 106.0625,768.4625 Q106.0625,770.5563 106.75,771.6344 Q107.4375,772.6969 108.7813,772.6969 Q109.4063,772.6969 110,772.4313 Q110.5938,772.15 111.2188,771.5719 L111.2188,774.2906 Z " fill="#000000"/><text fill="#000000" font-family="sans-serif" font-size="14" lengthAdjust="spacing" textLength="25" x="128.75" y="773.4967">Dot</text><line style="stroke:#181818;stroke-width:0.5;" x1="8" x2="242" y1="784.65" y2="784.65"/><rect fill="none" height="6" style="stroke:#C82930;stroke-width:1.0;" width="6" x="15" y="795.2984"/><text fill="#000000" font-family="sans-serif" font-size="14" lengthAdjust="spacing" textLength="95" x="27" y="801.6451">DOT_SIZE: int</text><line style="stroke:#181818;stroke-width:0.5;" x1="8" x2="242" y1="808.9469" y2="808.9469"/><ellipse cx="18" cy="822.5953" fill="#84BE84" rx="3" ry="3" style="stroke:#038048;stroke-width:1.0;"/><text fill="#000000" font-family="sans-serif" font-size="14" lengthAdjust="spacing" textLength="196" x="27" y="825.942">Dot(x: int, y: int, color: Color)</text><ellipse cx="18" cy="838.8922" fill="#84BE84" rx="3" ry="3" style="stroke:#038048;stroke-width:1.0;"/><text fill="#000000" font-family="sans-serif" font-size="14" lengthAdjust="spacing" textLength="98" x="27" y="842.2389">getWidth(): int</text><ellipse cx="18" cy="855.1891" fill="#84BE84" rx="3" ry="3" style="stroke:#038048;stroke-width:1.0;"/><text fill="#000000" font-family="sans-serif" font-size="14" lengthAdjust="spacing" textLength="104" x="27" y="858.5357">getHeight(): int</text><ellipse cx="18" cy="871.4859" fill="#84BE84" rx="3" ry="3" style="stroke:#038048;stroke-width:1.0;"/><text fill="#000000" font-family="sans-serif" font-size="14" lengthAdjust="spacing" textLength="210" x="27" y="874.8326">paint(graphics: Graphics): void</text></g><!--class Circle--><g id="elem_Circle"><rect codeLine="42" fill="#F1F1F1" height="129.4844" id="Circle" rx="2.5" ry="2.5" style="stroke:#181818;stroke-width:0.5;" width="311" x="277.5" y="752.65"/><ellipse cx="409.75" cy="768.65" fill="#ADD1B2" rx="11" ry="11" style="stroke:#181818;stroke-width:1.0;"/><path d="M412.7188,774.2906 Q412.1406,774.5875 411.5,774.7281 Q410.8594,774.8844 410.1563,774.8844 Q407.6563,774.8844 406.3281,773.2438 Q405.0156,771.5875 405.0156,768.4625 Q405.0156,765.3375 406.3281,763.6813 Q407.6563,762.025 410.1563,762.025 Q410.8594,762.025 411.5,762.1813 Q412.1563,762.3375 412.7188,762.6344 L412.7188,765.3531 Q412.0938,764.775 411.5,764.5094 Q410.9063,764.2281 410.2813,764.2281 Q408.9375,764.2281 408.25,765.3063 Q407.5625,766.3688 407.5625,768.4625 Q407.5625,770.5563 408.25,771.6344 Q408.9375,772.6969 410.2813,772.6969 Q410.9063,772.6969 411.5,772.4313 Q412.0938,772.15 412.7188,771.5719 L412.7188,774.2906 Z " fill="#000000"/><text fill="#000000" font-family="sans-serif" font-size="14" lengthAdjust="spacing" textLength="38" x="430.25" y="773.4967">Circle</text><line style="stroke:#181818;stroke-width:0.5;" x1="278.5" x2="587.5" y1="784.65" y2="784.65"/><rect fill="none" height="6" style="stroke:#C82930;stroke-width:1.0;" width="6" x="285.5" y="795.2984"/><text fill="#000000" font-family="sans-serif" font-size="14" lengthAdjust="spacing" textLength="68" x="297.5" y="801.6451">radius: int</text><line style="stroke:#181818;stroke-width:0.5;" x1="278.5" x2="587.5" y1="808.9469" y2="808.9469"/><ellipse cx="288.5" cy="822.5953" fill="#84BE84" rx="3" ry="3" style="stroke:#038048;stroke-width:1.0;"/><text fill="#000000" font-family="sans-serif" font-size="14" lengthAdjust="spacing" textLength="285" x="297.5" y="825.942">Circle(x: int, y: int, radius: int, color: Color)</text><ellipse cx="288.5" cy="838.8922" fill="#84BE84" rx="3" ry="3" style="stroke:#038048;stroke-width:1.0;"/><text fill="#000000" font-family="sans-serif" font-size="14" lengthAdjust="spacing" textLength="98" x="297.5" y="842.2389">getWidth(): int</text><ellipse cx="288.5" cy="855.1891" fill="#84BE84" rx="3" ry="3" style="stroke:#038048;stroke-width:1.0;"/><text fill="#000000" font-family="sans-serif" font-size="14" lengthAdjust="spacing" textLength="104" x="297.5" y="858.5357">getHeight(): int</text><ellipse cx="288.5" cy="871.4859" fill="#84BE84" rx="3" ry="3" style="stroke:#038048;stroke-width:1.0;"/><text fill="#000000" font-family="sans-serif" font-size="14" lengthAdjust="spacing" textLength="210" x="297.5" y="874.8326">paint(graphics: Graphics): void</text></g><!--class Rectangle--><g id="elem_Rectangle"><rect codeLine="50" fill="#F1F1F1" height="145.7813" id="Rectangle" rx="2.5" ry="2.5" style="stroke:#181818;stroke-width:0.5;" width="416" x="623" y="744.5"/><ellipse cx="791.75" cy="760.5" fill="#ADD1B2" rx="11" ry="11" style="stroke:#181818;stroke-width:1.0;"/><path d="M794.7188,766.1406 Q794.1406,766.4375 793.5,766.5781 Q792.8594,766.7344 792.1563,766.7344 Q789.6563,766.7344 788.3281,765.0938 Q787.0156,763.4375 787.0156,760.3125 Q787.0156,757.1875 788.3281,755.5313 Q789.6563,753.875 792.1563,753.875 Q792.8594,753.875 793.5,754.0313 Q794.1563,754.1875 794.7188,754.4844 L794.7188,757.2031 Q794.0938,756.625 793.5,756.3594 Q792.9063,756.0781 792.2813,756.0781 Q790.9375,756.0781 790.25,757.1563 Q789.5625,758.2188 789.5625,760.3125 Q789.5625,762.4063 790.25,763.4844 Q790.9375,764.5469 792.2813,764.5469 Q792.9063,764.5469 793.5,764.2813 Q794.0938,764 794.7188,763.4219 L794.7188,766.1406 Z " fill="#000000"/><text fill="#000000" font-family="sans-serif" font-size="14" lengthAdjust="spacing" textLength="70" x="812.25" y="765.3467">Rectangle</text><line style="stroke:#181818;stroke-width:0.5;" x1="624" x2="1038" y1="776.5" y2="776.5"/><rect fill="none" height="6" style="stroke:#C82930;stroke-width:1.0;" width="6" x="631" y="787.1484"/><text fill="#000000" font-family="sans-serif" font-size="14" lengthAdjust="spacing" textLength="63" x="643" y="793.4951">width: int</text><rect fill="none" height="6" style="stroke:#C82930;stroke-width:1.0;" width="6" x="631" y="803.4453"/><text fill="#000000" font-family="sans-serif" font-size="14" lengthAdjust="spacing" textLength="70" x="643" y="809.792">height: int</text><line style="stroke:#181818;stroke-width:0.5;" x1="624" x2="1038" y1="817.0938" y2="817.0938"/><ellipse cx="634" cy="830.7422" fill="#84BE84" rx="3" ry="3" style="stroke:#038048;stroke-width:1.0;"/><text fill="#000000" font-family="sans-serif" font-size="14" lengthAdjust="spacing" textLength="390" x="643" y="834.0889">Rectangle(x: int, y: int, width: int, height: int, color: Color)</text><ellipse cx="634" cy="847.0391" fill="#84BE84" rx="3" ry="3" style="stroke:#038048;stroke-width:1.0;"/><text fill="#000000" font-family="sans-serif" font-size="14" lengthAdjust="spacing" textLength="98" x="643" y="850.3857">getWidth(): int</text><ellipse cx="634" cy="863.3359" fill="#84BE84" rx="3" ry="3" style="stroke:#038048;stroke-width:1.0;"/><text fill="#000000" font-family="sans-serif" font-size="14" lengthAdjust="spacing" textLength="104" x="643" y="866.6826">getHeight(): int</text><ellipse cx="634" cy="879.6328" fill="#84BE84" rx="3" ry="3" style="stroke:#038048;stroke-width:1.0;"/><text fill="#000000" font-family="sans-serif" font-size="14" lengthAdjust="spacing" textLength="210" x="643" y="882.9795">paint(graphics: Graphics): void</text></g><!--class CompoundShape--><g id="elem_CompoundShape"><rect codeLine="59" fill="#F1F1F1" height="308.75" id="CompoundShape" rx="2.5" ry="2.5" style="stroke:#181818;stroke-width:0.5;" width="310" x="1074" y="663.02"/><ellipse cx="1164.25" cy="679.02" fill="#ADD1B2" rx="11" ry="11" style="stroke:#181818;stroke-width:1.0;"/><path d="M1167.2188,684.6606 Q1166.6406,684.9575 1166,685.0981 Q1165.3594,685.2544 1164.6563,685.2544 Q1162.1563,685.2544 1160.8281,683.6138 Q1159.5156,681.9575 1159.5156,678.8325 Q1159.5156,675.7075 1160.8281,674.0513 Q1162.1563,672.395 1164.6563,672.395 Q1165.3594,672.395 1166,672.5513 Q1166.6563,672.7075 1167.2188,673.0044 L1167.2188,675.7231 Q1166.5938,675.145 1166,674.8794 Q1165.4063,674.5981 1164.7813,674.5981 Q1163.4375,674.5981 1162.75,675.6763 Q1162.0625,676.7388 1162.0625,678.8325 Q1162.0625,680.9263 1162.75,682.0044 Q1163.4375,683.0669 1164.7813,683.0669 Q1165.4063,683.0669 1166,682.8013 Q1166.5938,682.52 1167.2188,681.9419 L1167.2188,684.6606 Z " fill="#000000"/><text fill="#000000" font-family="sans-serif" font-size="14" lengthAdjust="spacing" textLength="121" x="1184.75" y="683.8667">CompoundShape</text><line style="stroke:#181818;stroke-width:0.5;" x1="1075" x2="1383" y1="695.02" y2="695.02"/><rect fill="none" height="6" style="stroke:#C82930;stroke-width:1.0;" width="6" x="1082" y="705.6684"/><text fill="#000000" font-family="sans-serif" font-size="14" lengthAdjust="spacing" textLength="155" x="1094" y="712.0151">children: List&lt;Shape&gt;</text><line style="stroke:#181818;stroke-width:0.5;" x1="1075" x2="1383" y1="719.3169" y2="719.3169"/><ellipse cx="1085" cy="732.9653" fill="#84BE84" rx="3" ry="3" style="stroke:#038048;stroke-width:1.0;"/><text fill="#000000" font-family="sans-serif" font-size="14" lengthAdjust="spacing" textLength="284" x="1094" y="736.312">CompoundShape(components: Shape...)</text><ellipse cx="1085" cy="749.2622" fill="#84BE84" rx="3" ry="3" style="stroke:#038048;stroke-width:1.0;"/><text fill="#000000" font-family="sans-serif" font-size="14" lengthAdjust="spacing" textLength="206" x="1094" y="752.6089">add(component: Shape): void</text><ellipse cx="1085" cy="765.5591" fill="#84BE84" rx="3" ry="3" style="stroke:#038048;stroke-width:1.0;"/><text fill="#000000" font-family="sans-serif" font-size="14" lengthAdjust="spacing" textLength="226" x="1094" y="768.9057">add(components: Shape...): void</text><ellipse cx="1085" cy="781.8559" fill="#84BE84" rx="3" ry="3" style="stroke:#038048;stroke-width:1.0;"/><text fill="#000000" font-family="sans-serif" font-size="14" lengthAdjust="spacing" textLength="184" x="1094" y="785.2026">remove(child: Shape): void</text><ellipse cx="1085" cy="798.1528" fill="#84BE84" rx="3" ry="3" style="stroke:#038048;stroke-width:1.0;"/><text fill="#000000" font-family="sans-serif" font-size="14" lengthAdjust="spacing" textLength="252" x="1094" y="801.4995">remove(components: Shape...): void</text><ellipse cx="1085" cy="814.4497" fill="#84BE84" rx="3" ry="3" style="stroke:#038048;stroke-width:1.0;"/><text fill="#000000" font-family="sans-serif" font-size="14" lengthAdjust="spacing" textLength="80" x="1094" y="817.7964">clear(): void</text><ellipse cx="1085" cy="830.7466" fill="#84BE84" rx="3" ry="3" style="stroke:#038048;stroke-width:1.0;"/><text fill="#000000" font-family="sans-serif" font-size="14" lengthAdjust="spacing" textLength="68" x="1094" y="834.0932">getX(): int</text><ellipse cx="1085" cy="847.0434" fill="#84BE84" rx="3" ry="3" style="stroke:#038048;stroke-width:1.0;"/><text fill="#000000" font-family="sans-serif" font-size="14" lengthAdjust="spacing" textLength="68" x="1094" y="850.3901">getY(): int</text><ellipse cx="1085" cy="863.3403" fill="#84BE84" rx="3" ry="3" style="stroke:#038048;stroke-width:1.0;"/><text fill="#000000" font-family="sans-serif" font-size="14" lengthAdjust="spacing" textLength="98" x="1094" y="866.687">getWidth(): int</text><ellipse cx="1085" cy="879.6372" fill="#84BE84" rx="3" ry="3" style="stroke:#038048;stroke-width:1.0;"/><text fill="#000000" font-family="sans-serif" font-size="14" lengthAdjust="spacing" textLength="104" x="1094" y="882.9839">getHeight(): int</text><ellipse cx="1085" cy="895.9341" fill="#84BE84" rx="3" ry="3" style="stroke:#038048;stroke-width:1.0;"/><text fill="#000000" font-family="sans-serif" font-size="14" lengthAdjust="spacing" textLength="159" x="1094" y="899.2807">move(x: int, y: int): void</text><ellipse cx="1085" cy="912.2309" fill="#84BE84" rx="3" ry="3" style="stroke:#038048;stroke-width:1.0;"/><text fill="#000000" font-family="sans-serif" font-size="14" lengthAdjust="spacing" textLength="255" x="1094" y="915.5776">isInsideBounds(x: int, y: int): boolean</text><ellipse cx="1085" cy="928.5278" fill="#84BE84" rx="3" ry="3" style="stroke:#038048;stroke-width:1.0;"/><text fill="#000000" font-family="sans-serif" font-size="14" lengthAdjust="spacing" textLength="108" x="1094" y="931.8745">unSelect(): void</text><ellipse cx="1085" cy="944.8247" fill="#84BE84" rx="3" ry="3" style="stroke:#038048;stroke-width:1.0;"/><text fill="#000000" font-family="sans-serif" font-size="14" lengthAdjust="spacing" textLength="239" x="1094" y="948.1714">selectChildAt(x: int, y: int): boolean</text><ellipse cx="1085" cy="961.1216" fill="#84BE84" rx="3" ry="3" style="stroke:#038048;stroke-width:1.0;"/><text fill="#000000" font-family="sans-serif" font-size="14" lengthAdjust="spacing" textLength="210" x="1094" y="964.4682">paint(graphics: Graphics): void</text></g><!--reverse link Shape to BaseShape--><g id="link_Shape_BaseShape"><path codeLine="78" d="M632,236.43 C632,255.33 632,257.42 632,277.49 " fill="none" id="Shape-backto-BaseShape" style="stroke:#181818;stroke-width:1.0;"/><polygon fill="none" points="632,218.43,626,236.43,638,236.43,632,218.43" style="stroke:#181818;stroke-width:1.0;"/></g><!--reverse link BaseShape to Dot--><g id="link_BaseShape_Dot"><path codeLine="79" d="M442.2443,539.1025 C377.1543,576.0325 320.14,613.07 260,663.02 C228.48,689.2 197.92,722.97 173.87,752.16 " fill="none" id="BaseShape-backto-Dot" style="stroke:#181818;stroke-width:1.0;"/><polygon fill="none" points="457.9,530.22,439.2835,533.884,445.2052,544.3211,457.9,530.22" style="stroke:#181818;stroke-width:1.0;"/></g><!--reverse link BaseShape to Circle--><g id="link_BaseShape_Circle"><path codeLine="80" d="M537.5799,619.3786 C509.7199,671.8586 488.86,711.15 467.08,752.19 " fill="none" id="BaseShape-backto-Circle" style="stroke:#181818;stroke-width:1.0;"/><polygon fill="none" points="546.02,603.48,532.2804,616.5652,542.8795,622.1919,546.02,603.48" style="stroke:#181818;stroke-width:1.0;"/></g><!--reverse link BaseShape to Rectangle--><g id="link_BaseShape_Rectangle"><path codeLine="81" d="M726.4198,619.3787 C752.4898,668.4887 771.38,704.08 792.64,744.12 " fill="none" id="BaseShape-backto-Rectangle" style="stroke:#181818;stroke-width:1.0;"/><polygon fill="none" points="717.98,603.48,721.1202,622.192,731.7194,616.5654,717.98,603.48" style="stroke:#181818;stroke-width:1.0;"/></g><!--reverse link BaseShape to CompoundShape--><g id="link_BaseShape_CompoundShape"><path codeLine="82" d="M822.5661,528.1455 C901.6861,566.8855 978.69,608.94 1057,663.02 C1062.6,666.88 1068.21,670.91 1073.81,675.06 " fill="none" id="BaseShape-backto-CompoundShape" style="stroke:#181818;stroke-width:1.0;"/><polygon fill="none" points="806.4,520.23,819.9276,533.5342,825.2047,522.7568,806.4,520.23" style="stroke:#181818;stroke-width:1.0;"/></g><!--SRC=[vLLTIyCm57tlhyXZX-j-G1c2cw83GR227o-I9TSsa2KboUQ6-jzjawvDs-7gon3SIxjpxZszpRdtbWa3wWqJG4c6Sq0V0If-PocOft0K8oPC3JntWKT6JTO5Ru2bcMcXAxc1S6k1CThPQq5l9AEEPteXDACmasj1TJzoAIK7B5om1Wx4wZS2Qv4SG9bsAD2mAvBZGZbC5SupHdIChgkxVVvN4E2bDWeJWmZ7MgCPrk2VKBHjNZ3QUVT4SgbYD2yl3j5L5PqQQiNE2u-HBp7w5tw0m4iEZcPI96R7uGTxR0vb-lT90untVbzAitVwykxXDLcyN7adMB03NHlgoU32vamHNdUXmfIjjQVZw5vnNjp9AhqlVC4YROfzBv_WZKfcnJtfEgDNVvCwHbxQwKvThl9o6behW6ICKmKYHhTCcwdbpYiR_FYGbFy425CymYAJoQGg5bFQq1NRwjXMW9_l1ocmCsqBEYIovu_f5As3LNjg_-xcERnbt3wQboTnOOue3B3V6JxzZABc4n0q7mDB5DkW2xanxA9rV_V2_NRv1W00]--></g></svg>