<?xml version="1.0" encoding="us-ascii" standalone="no"?><svg xmlns="http://www.w3.org/2000/svg" xmlns:xlink="http://www.w3.org/1999/xlink" contentStyleType="text/css" height="470px" preserveAspectRatio="none" style="width:676px;height:470px;background:#FFFFFF;" version="1.1" viewBox="0 0 676 470" width="676px" zoomAndPan="magnify"><defs/><g><!--class Component--><g id="elem_Component"><rect codeLine="1" fill="#F1F1F1" height="64.2969" id="Component" rx="2.5" ry="2.5" style="stroke:#181818;stroke-width:0.5;" width="114" x="405.5" y="116"/><ellipse cx="420.5" cy="132" fill="#B4A7E5" rx="11" ry="11" style="stroke:#181818;stroke-width:1.0;"/><path d="M416.4219,127.7656 L416.4219,125.6094 L423.8125,125.6094 L423.8125,127.7656 L421.3438,127.7656 L421.3438,135.8438 L423.8125,135.8438 L423.8125,138 L416.4219,138 L416.4219,135.8438 L418.8906,135.8438 L418.8906,127.7656 L416.4219,127.7656 Z " fill="#000000"/><text fill="#000000" font-family="sans-serif" font-size="14" font-style="italic" lengthAdjust="spacing" textLength="82" x="434.5" y="136.8467">Component</text><line style="stroke:#181818;stroke-width:0.5;" x1="406.5" x2="518.5" y1="148" y2="148"/><line style="stroke:#181818;stroke-width:0.5;" x1="406.5" x2="518.5" y1="156" y2="156"/><ellipse cx="416.5" cy="169.6484" fill="#84BE84" rx="3" ry="3" style="stroke:#038048;stroke-width:1.0;"/><text fill="#000000" font-family="sans-serif" font-size="14" lengthAdjust="spacing" textLength="78" x="425.5" y="172.9951">Operation()</text></g><!--class ConcreteComponent--><g id="elem_ConcreteComponent"><rect codeLine="5" fill="#F1F1F1" height="64.2969" id="ConcreteComponent" rx="2.5" ry="2.5" style="stroke:#181818;stroke-width:0.5;" width="178" x="491.5" y="257.3"/><ellipse cx="506.5" cy="273.3" fill="#ADD1B2" rx="11" ry="11" style="stroke:#181818;stroke-width:1.0;"/><path d="M509.4688,278.9406 Q508.8906,279.2375 508.25,279.3781 Q507.6094,279.5344 506.9063,279.5344 Q504.4063,279.5344 503.0781,277.8938 Q501.7656,276.2375 501.7656,273.1125 Q501.7656,269.9875 503.0781,268.3313 Q504.4063,266.675 506.9063,266.675 Q507.6094,266.675 508.25,266.8313 Q508.9063,266.9875 509.4688,267.2844 L509.4688,270.0031 Q508.8438,269.425 508.25,269.1594 Q507.6563,268.8781 507.0313,268.8781 Q505.6875,268.8781 505,269.9563 Q504.3125,271.0188 504.3125,273.1125 Q504.3125,275.2063 505,276.2844 Q505.6875,277.3469 507.0313,277.3469 Q507.6563,277.3469 508.25,277.0813 Q508.8438,276.8 509.4688,276.2219 L509.4688,278.9406 Z " fill="#000000"/><text fill="#000000" font-family="sans-serif" font-size="14" lengthAdjust="spacing" textLength="146" x="520.5" y="278.1467">ConcreteComponent</text><line style="stroke:#181818;stroke-width:0.5;" x1="492.5" x2="668.5" y1="289.3" y2="289.3"/><line style="stroke:#181818;stroke-width:0.5;" x1="492.5" x2="668.5" y1="297.3" y2="297.3"/><ellipse cx="502.5" cy="310.9484" fill="#84BE84" rx="3" ry="3" style="stroke:#038048;stroke-width:1.0;"/><text fill="#000000" font-family="sans-serif" font-size="14" lengthAdjust="spacing" textLength="78" x="511.5" y="314.2951">Operation()</text></g><!--class Decorator--><g id="elem_Decorator"><rect codeLine="9" fill="#F1F1F1" height="64.2969" id="Decorator" rx="2.5" ry="2.5" style="stroke:#181818;stroke-width:0.5;" width="104" x="352.5" y="257.3"/><ellipse cx="368.85" cy="273.3" fill="#ADD1B2" rx="11" ry="11" style="stroke:#181818;stroke-width:1.0;"/><path d="M371.8188,278.9406 Q371.2406,279.2375 370.6,279.3781 Q369.9594,279.5344 369.2563,279.5344 Q366.7563,279.5344 365.4281,277.8938 Q364.1156,276.2375 364.1156,273.1125 Q364.1156,269.9875 365.4281,268.3313 Q366.7563,266.675 369.2563,266.675 Q369.9594,266.675 370.6,266.8313 Q371.2563,266.9875 371.8188,267.2844 L371.8188,270.0031 Q371.1938,269.425 370.6,269.1594 Q370.0063,268.8781 369.3813,268.8781 Q368.0375,268.8781 367.35,269.9563 Q366.6625,271.0188 366.6625,273.1125 Q366.6625,275.2063 367.35,276.2844 Q368.0375,277.3469 369.3813,277.3469 Q370.0063,277.3469 370.6,277.0813 Q371.1938,276.8 371.8188,276.2219 L371.8188,278.9406 Z " fill="#000000"/><text fill="#000000" font-family="sans-serif" font-size="14" lengthAdjust="spacing" textLength="69" x="383.15" y="278.1467">Decorator</text><line style="stroke:#181818;stroke-width:0.5;" x1="353.5" x2="455.5" y1="289.3" y2="289.3"/><line style="stroke:#181818;stroke-width:0.5;" x1="353.5" x2="455.5" y1="297.3" y2="297.3"/><ellipse cx="363.5" cy="310.9484" fill="#84BE84" rx="3" ry="3" style="stroke:#038048;stroke-width:1.0;"/><text fill="#000000" font-family="sans-serif" font-size="14" lengthAdjust="spacing" textLength="78" x="372.5" y="314.2951">Operation()</text></g><!--class ConcreteDecoratorA--><g id="elem_ConcreteDecoratorA"><rect codeLine="13" fill="#F1F1F1" height="80.5938" id="ConcreteDecoratorA" rx="2.5" ry="2.5" style="stroke:#181818;stroke-width:0.5;" width="174" x="380.5" y="382.6"/><ellipse cx="395.5" cy="398.6" fill="#ADD1B2" rx="11" ry="11" style="stroke:#181818;stroke-width:1.0;"/><path d="M398.4688,404.2406 Q397.8906,404.5375 397.25,404.6781 Q396.6094,404.8344 395.9063,404.8344 Q393.4063,404.8344 392.0781,403.1937 Q390.7656,401.5375 390.7656,398.4125 Q390.7656,395.2875 392.0781,393.6312 Q393.4063,391.975 395.9063,391.975 Q396.6094,391.975 397.25,392.1312 Q397.9063,392.2875 398.4688,392.5844 L398.4688,395.3031 Q397.8438,394.725 397.25,394.4594 Q396.6563,394.1781 396.0313,394.1781 Q394.6875,394.1781 394,395.2562 Q393.3125,396.3187 393.3125,398.4125 Q393.3125,400.5062 394,401.5844 Q394.6875,402.6469 396.0313,402.6469 Q396.6563,402.6469 397.25,402.3812 Q397.8438,402.1 398.4688,401.5219 L398.4688,404.2406 Z " fill="#000000"/><text fill="#000000" font-family="sans-serif" font-size="14" lengthAdjust="spacing" textLength="142" x="409.5" y="403.4467">ConcreteDecoratorA</text><line style="stroke:#181818;stroke-width:0.5;" x1="381.5" x2="553.5" y1="414.6" y2="414.6"/><rect fill="none" height="6" style="stroke:#C82930;stroke-width:1.0;" width="6" x="388.5" y="425.2484"/><text fill="#000000" font-family="sans-serif" font-size="14" lengthAdjust="spacing" textLength="80" x="400.5" y="431.5951">addedState</text><line style="stroke:#181818;stroke-width:0.5;" x1="381.5" x2="553.5" y1="438.8969" y2="438.8969"/><ellipse cx="391.5" cy="452.5453" fill="#84BE84" rx="3" ry="3" style="stroke:#038048;stroke-width:1.0;"/><text fill="#000000" font-family="sans-serif" font-size="14" lengthAdjust="spacing" textLength="78" x="400.5" y="455.892">Operation()</text></g><!--class ConcreteDecoratorB--><g id="elem_ConcreteDecoratorB"><rect codeLine="19" fill="#F1F1F1" height="80.5938" id="ConcreteDecoratorB" rx="2.5" ry="2.5" style="stroke:#181818;stroke-width:0.5;" width="175" x="170" y="382.6"/><ellipse cx="185" cy="398.6" fill="#ADD1B2" rx="11" ry="11" style="stroke:#181818;stroke-width:1.0;"/><path d="M187.9688,404.2406 Q187.3906,404.5375 186.75,404.6781 Q186.1094,404.8344 185.4063,404.8344 Q182.9063,404.8344 181.5781,403.1937 Q180.2656,401.5375 180.2656,398.4125 Q180.2656,395.2875 181.5781,393.6312 Q182.9063,391.975 185.4063,391.975 Q186.1094,391.975 186.75,392.1312 Q187.4063,392.2875 187.9688,392.5844 L187.9688,395.3031 Q187.3438,394.725 186.75,394.4594 Q186.1563,394.1781 185.5313,394.1781 Q184.1875,394.1781 183.5,395.2562 Q182.8125,396.3187 182.8125,398.4125 Q182.8125,400.5062 183.5,401.5844 Q184.1875,402.6469 185.5313,402.6469 Q186.1563,402.6469 186.75,402.3812 Q187.3438,402.1 187.9688,401.5219 L187.9688,404.2406 Z " fill="#000000"/><text fill="#000000" font-family="sans-serif" font-size="14" lengthAdjust="spacing" textLength="143" x="199" y="403.4467">ConcreteDecoratorB</text><line style="stroke:#181818;stroke-width:0.5;" x1="171" x2="344" y1="414.6" y2="414.6"/><line style="stroke:#181818;stroke-width:0.5;" x1="171" x2="344" y1="422.6" y2="422.6"/><ellipse cx="181" cy="436.2484" fill="#84BE84" rx="3" ry="3" style="stroke:#038048;stroke-width:1.0;"/><text fill="#000000" font-family="sans-serif" font-size="14" lengthAdjust="spacing" textLength="78" x="190" y="439.5951">Operation()</text><ellipse cx="181" cy="452.5453" fill="#84BE84" rx="3" ry="3" style="stroke:#038048;stroke-width:1.0;"/><text fill="#000000" font-family="sans-serif" font-size="14" lengthAdjust="spacing" textLength="115" x="190" y="455.892">AddedBehavior()</text></g><!--class Client--><g id="elem_Client"><rect fill="#F1F1F1" height="48" id="Client" rx="2.5" ry="2.5" style="stroke:#181818;stroke-width:0.5;" width="71" x="427" y="7"/><ellipse cx="442" cy="23" fill="#ADD1B2" rx="11" ry="11" style="stroke:#181818;stroke-width:1.0;"/><path d="M444.9688,28.6406 Q444.3906,28.9375 443.75,29.0781 Q443.1094,29.2344 442.4063,29.2344 Q439.9063,29.2344 438.5781,27.5938 Q437.2656,25.9375 437.2656,22.8125 Q437.2656,19.6875 438.5781,18.0313 Q439.9063,16.375 442.4063,16.375 Q443.1094,16.375 443.75,16.5313 Q444.4063,16.6875 444.9688,16.9844 L444.9688,19.7031 Q444.3438,19.125 443.75,18.8594 Q443.1563,18.5781 442.5313,18.5781 Q441.1875,18.5781 440.5,19.6563 Q439.8125,20.7188 439.8125,22.8125 Q439.8125,24.9063 440.5,25.9844 Q441.1875,27.0469 442.5313,27.0469 Q443.1563,27.0469 443.75,26.7813 Q444.3438,26.5 444.9688,25.9219 L444.9688,28.6406 Z " fill="#000000"/><text fill="#000000" font-family="sans-serif" font-size="14" lengthAdjust="spacing" textLength="39" x="456" y="27.8467">Client</text><line style="stroke:#181818;stroke-width:0.5;" x1="428" x2="497" y1="39" y2="39"/><line style="stroke:#181818;stroke-width:0.5;" x1="428" x2="497" y1="47" y2="47"/></g><path d="M147,271.88 L147,297.0128 A0,0 0 0 0 147,297.0128 L318,297.0128 A0,0 0 0 0 318,297.0128 L318,289.88 L356.5,309.4484 L318,281.88 L318,281.88 L308,271.88 L147,271.88 A0,0 0 0 0 147,271.88 " fill="#FEFFDD" style="stroke:#181818;stroke-width:0.5;"/><path d="M308,271.88 L308,281.88 L318,281.88 L308,271.88 " fill="#FEFFDD" style="stroke:#181818;stroke-width:0.5;"/><text fill="#000000" font-family="sans-serif" font-size="13" lengthAdjust="spacing" textLength="150" x="153" y="288.9469">component.Operation()</text><path d="M6,397.76 L6,438.0256 A0,0 0 0 0 6,438.0256 L135,438.0256 A0,0 0 0 0 135,438.0256 L135,421.8928 L174,434.7484 L135,413.8928 L135,407.76 L125,397.76 L6,397.76 A0,0 0 0 0 6,397.76 " fill="#FEFFDD" style="stroke:#181818;stroke-width:0.5;"/><path d="M125,397.76 L125,407.76 L135,407.76 L125,397.76 " fill="#FEFFDD" style="stroke:#181818;stroke-width:0.5;"/><text fill="#000000" font-family="sans-serif" font-size="13" lengthAdjust="spacing" textLength="108" x="12" y="414.8269">base.Operation()</text><text fill="#000000" font-family="sans-serif" font-size="13" lengthAdjust="spacing" textLength="107" x="12" y="429.9597">AddedBehavior()</text><!--link Client to Component--><g id="link_Client_Component"><path codeLine="24" d="M462.5,55.3 C462.5,72.65 462.5,90.53 462.5,109.59 " fill="none" id="Client-to-Component" style="stroke:#181818;stroke-width:1.0;"/><polygon fill="#181818" points="462.5,115.59,466.5,106.59,462.5,110.59,458.5,106.59,462.5,115.59" style="stroke:#181818;stroke-width:1.0;"/></g><!--reverse link Component to ConcreteComponent--><g id="link_Component_ConcreteComponent"><path codeLine="26" d="M505.9537,193.6641 C514.8637,203.0341 512.04,200.4 520.5,210.3 C533.28,225.26 546.68,242.55 557.57,257.05 " fill="none" id="Component-backto-ConcreteComponent" style="stroke:#181818;stroke-width:1.0;"/><polygon fill="none" points="493.55,180.62,501.6057,197.7986,510.3017,189.5295,493.55,180.62" style="stroke:#181818;stroke-width:1.0;"/></g><!--reverse link Component to Decorator--><g id="link_Component_Decorator"><path codeLine="27" d="M432.665,196.202 C427.175,205.482 430.75,200.33 426.5,210.3 C420.14,225.21 415.05,242.49 411.38,257.01 " fill="none" id="Component-backto-Decorator" style="stroke:#181818;stroke-width:1.0;"/><polygon fill="none" points="441.83,180.71,427.501,193.147,437.829,199.257,441.83,180.71" style="stroke:#181818;stroke-width:1.0;"/></g><!--link Component to Decorator--><g id="link_Component_Decorator"><path codeLine="28" d="M449.34,180.76 C439.85,203.56 431.704,223.1225 422.224,245.8825 " fill="none" id="Component-to-Decorator" style="stroke:#181818;stroke-width:1.0;"/><polygon fill="none" points="417.61,256.96,423.6095,252.9593,422.224,245.8825,416.2245,249.8832,417.61,256.96" style="stroke:#181818;stroke-width:1.0;"/><text fill="#000000" font-family="sans-serif" font-size="13" lengthAdjust="spacing" textLength="73" x="438.5" y="223.3669">component</text></g><!--reverse link Decorator to ConcreteDecoratorA--><g id="link_Decorator_ConcreteDecoratorA"><path codeLine="30" d="M427.3657,338.1639 C436.0257,356.2439 439.22,362.88 448.47,382.18 " fill="none" id="Decorator-backto-ConcreteDecoratorA" style="stroke:#181818;stroke-width:1.0;"/><polygon fill="none" points="419.59,321.93,421.9544,340.7558,432.777,335.5719,419.59,321.93" style="stroke:#181818;stroke-width:1.0;"/></g><!--reverse link Decorator to ConcreteDecoratorB--><g id="link_Decorator_ConcreteDecoratorB"><path codeLine="31" d="M355.8718,333.928 C335.6518,352.008 323.5,362.88 301.91,382.18 " fill="none" id="Decorator-backto-ConcreteDecoratorB" style="stroke:#181818;stroke-width:1.0;"/><polygon fill="none" points="369.29,321.93,351.8725,329.4553,359.8712,338.4008,369.29,321.93" style="stroke:#181818;stroke-width:1.0;"/></g><!--SRC=[ZP113i8W54JtdE8lDOOUe34cRTsxy0G8lv6ayXjAtAXtbrg5IXijos5umums3cqj9495bvOC6WSt1lviuD2Y5KwJMQtPWp7PYAxpDYCjEbnetwCahv9THWtsuktd89H2TNJ2uGpW1w6SJHoKecUMU1PNJNRuHzNelWpdkxY4LqFBxPtpQVdK4D975vnJr7EGaHx7-QB74VuwIiOCEOG6QmTKZtBoqFhLEQHcupNGAEZV9vHfJ8exYGwpTDTqrG_z2G00]--></g></svg>