<svg xmlns="http://www.w3.org/2000/svg" xmlns:xlink="http://www.w3.org/1999/xlink" contentStyleType="text/css" height="218px" preserveAspectRatio="none" style="width:628px;height:218px;background:#FFFFFF;" version="1.1" viewBox="0 0 628 218" width="628px" zoomAndPan="magnify"><defs/><g><!--class Context--><g id="elem_Context"><rect codeLine="1" fill="#F1F1F1" height="80.5938" id="Context" rx="2.5" ry="2.5" style="stroke:#181818;stroke-width:0.5;" width="271" x="7" y="7"/><ellipse cx="111.25" cy="23" fill="#ADD1B2" rx="11" ry="11" style="stroke:#181818;stroke-width:1.0;"/><path d="M114.2188,28.6406 Q113.6406,28.9375 113,29.0781 Q112.3594,29.2344 111.6563,29.2344 Q109.1563,29.2344 107.8281,27.5938 Q106.5156,25.9375 106.5156,22.8125 Q106.5156,19.6875 107.8281,18.0313 Q109.1563,16.375 111.6563,16.375 Q112.3594,16.375 113,16.5313 Q113.6563,16.6875 114.2188,16.9844 L114.2188,19.7031 Q113.5938,19.125 113,18.8594 Q112.4063,18.5781 111.7813,18.5781 Q110.4375,18.5781 109.75,19.6563 Q109.0625,20.7188 109.0625,22.8125 Q109.0625,24.9063 109.75,25.9844 Q110.4375,27.0469 111.7813,27.0469 Q112.4063,27.0469 113,26.7813 Q113.5938,26.5 114.2188,25.9219 L114.2188,28.6406 Z " fill="#000000"/><text fill="#000000" font-family="sans-serif" font-size="14" lengthAdjust="spacing" textLength="54" x="131.75" y="27.8467">Context</text><line style="stroke:#181818;stroke-width:0.5;" x1="8" x2="277" y1="39" y2="39"/><line style="stroke:#181818;stroke-width:0.5;" x1="8" x2="277" y1="47" y2="47"/><ellipse cx="18" cy="60.6484" fill="#84BE84" rx="3" ry="3" style="stroke:#038048;stroke-width:1.0;"/><text fill="#000000" font-family="sans-serif" font-size="14" lengthAdjust="spacing" textLength="245" x="27" y="63.9951">&#171;create&#187; Context(initialState: State)</text><ellipse cx="18" cy="76.9453" fill="#84BE84" rx="3" ry="3" style="stroke:#038048;stroke-width:1.0;"/><text fill="#000000" font-family="sans-serif" font-size="14" lengthAdjust="spacing" textLength="64" x="27" y="80.292">request()</text></g><!--class State--><g id="elem_State"><rect codeLine="6" fill="#F1F1F1" height="64.2969" id="State" rx="2.5" ry="2.5" style="stroke:#181818;stroke-width:0.5;" width="138" x="347.5" y="15.15"/><ellipse cx="394.25" cy="31.15" fill="#A9DCDF" rx="11" ry="11" style="stroke:#181818;stroke-width:1.0;"/><path d="M394.3594,26.4937 L393.2031,31.5719 L395.5313,31.5719 L394.3594,26.4937 Z M392.875,24.2594 L395.8594,24.2594 L399.2188,36.65 L396.7656,36.65 L396,33.5875 L392.7188,33.5875 L391.9688,36.65 L389.5313,36.65 L392.875,24.2594 Z " fill="#000000"/><text fill="#000000" font-family="sans-serif" font-size="14" font-style="italic" lengthAdjust="spacing" textLength="36" x="414.75" y="35.9967">State</text><line style="stroke:#181818;stroke-width:0.5;" x1="348.5" x2="484.5" y1="47.15" y2="47.15"/><line style="stroke:#181818;stroke-width:0.5;" x1="348.5" x2="484.5" y1="55.15" y2="55.15"/><ellipse cx="358.5" cy="68.7984" fill="#84BE84" rx="3" ry="3" style="stroke:#038048;stroke-width:1.0;"/><text fill="#000000" font-family="sans-serif" font-size="14" lengthAdjust="spacing" textLength="112" x="367.5" y="72.1451">requestHandle()</text></g><!--class ConcreteStateA--><g id="elem_ConcreteStateA"><rect codeLine="10" fill="#F1F1F1" height="64.2969" id="ConcreteStateA" rx="2.5" ry="2.5" style="stroke:#181818;stroke-width:0.5;" width="141" x="304" y="147.59"/><ellipse cx="319" cy="163.59" fill="#ADD1B2" rx="11" ry="11" style="stroke:#181818;stroke-width:1.0;"/><path d="M321.9688,169.2306 Q321.3906,169.5275 320.75,169.6681 Q320.1094,169.8244 319.4063,169.8244 Q316.9063,169.8244 315.5781,168.1837 Q314.2656,166.5275 314.2656,163.4025 Q314.2656,160.2775 315.5781,158.6212 Q316.9063,156.965 319.4063,156.965 Q320.1094,156.965 320.75,157.1212 Q321.4063,157.2775 321.9688,157.5744 L321.9688,160.2931 Q321.3438,159.715 320.75,159.4494 Q320.1563,159.1681 319.5313,159.1681 Q318.1875,159.1681 317.5,160.2462 Q316.8125,161.3087 316.8125,163.4025 Q316.8125,165.4962 317.5,166.5744 Q318.1875,167.6369 319.5313,167.6369 Q320.1563,167.6369 320.75,167.3712 Q321.3438,167.09 321.9688,166.5119 L321.9688,169.2306 Z " fill="#000000"/><text fill="#000000" font-family="sans-serif" font-size="14" lengthAdjust="spacing" textLength="109" x="333" y="168.4367">ConcreteStateA</text><line style="stroke:#181818;stroke-width:0.5;" x1="305" x2="444" y1="179.59" y2="179.59"/><line style="stroke:#181818;stroke-width:0.5;" x1="305" x2="444" y1="187.59" y2="187.59"/><ellipse cx="315" cy="201.2384" fill="#84BE84" rx="3" ry="3" style="stroke:#038048;stroke-width:1.0;"/><text fill="#000000" font-family="sans-serif" font-size="14" lengthAdjust="spacing" textLength="112" x="324" y="204.5851">requestHandle()</text></g><!--class ConcreteStateB--><g id="elem_ConcreteStateB"><rect codeLine="14" fill="#F1F1F1" height="64.2969" id="ConcreteStateB" rx="2.5" ry="2.5" style="stroke:#181818;stroke-width:0.5;" width="142" x="479.5" y="147.59"/><ellipse cx="494.5" cy="163.59" fill="#ADD1B2" rx="11" ry="11" style="stroke:#181818;stroke-width:1.0;"/><path d="M497.4688,169.2306 Q496.8906,169.5275 496.25,169.6681 Q495.6094,169.8244 494.9063,169.8244 Q492.4063,169.8244 491.0781,168.1837 Q489.7656,166.5275 489.7656,163.4025 Q489.7656,160.2775 491.0781,158.6212 Q492.4063,156.965 494.9063,156.965 Q495.6094,156.965 496.25,157.1212 Q496.9063,157.2775 497.4688,157.5744 L497.4688,160.2931 Q496.8438,159.715 496.25,159.4494 Q495.6563,159.1681 495.0313,159.1681 Q493.6875,159.1681 493,160.2462 Q492.3125,161.3087 492.3125,163.4025 Q492.3125,165.4962 493,166.5744 Q493.6875,167.6369 495.0313,167.6369 Q495.6563,167.6369 496.25,167.3712 Q496.8438,167.09 497.4688,166.5119 L497.4688,169.2306 Z " fill="#000000"/><text fill="#000000" font-family="sans-serif" font-size="14" lengthAdjust="spacing" textLength="110" x="508.5" y="168.4367">ConcreteStateB</text><line style="stroke:#181818;stroke-width:0.5;" x1="480.5" x2="620.5" y1="179.59" y2="179.59"/><line style="stroke:#181818;stroke-width:0.5;" x1="480.5" x2="620.5" y1="187.59" y2="187.59"/><ellipse cx="490.5" cy="201.2384" fill="#84BE84" rx="3" ry="3" style="stroke:#038048;stroke-width:1.0;"/><text fill="#000000" font-family="sans-serif" font-size="14" lengthAdjust="spacing" textLength="112" x="499.5" y="204.5851">requestHandle()</text></g><g id="elem_GMN9"><path d="M57.5,152.04 L57.5,207.4384 A0,0 0 0 0 57.5,207.4384 L227.5,207.4384 A0,0 0 0 0 227.5,207.4384 L227.5,162.04 L217.5,152.04 L146.5,152.04 L142.5,87.79 L138.5,152.04 L57.5,152.04 A0,0 0 0 0 57.5,152.04 " fill="#FEFFDD" style="stroke:#181818;stroke-width:0.5;"/><path d="M217.5,152.04 L217.5,162.04 L227.5,162.04 L217.5,152.04 " fill="#FEFFDD" style="stroke:#181818;stroke-width:0.5;"/><text fill="#000000" font-family="sans-serif" font-size="13" lengthAdjust="spacing" textLength="67" x="63.5" y="169.1069">request(){</text><text fill="#000000" font-family="sans-serif" font-size="13" lengthAdjust="spacing" textLength="141" x="71.5" y="184.2397">state.requestHandle()</text><text fill="#000000" font-family="sans-serif" font-size="13" lengthAdjust="spacing" textLength="8" x="63.5" y="199.3725">}</text></g><!--reverse link State to ConcreteStateA--><g id="link_State_ConcreteStateA"><path d="M400.8162,97.0047 C394.2162,117.5147 391.16,127 384.57,147.46 " fill="none" id="State-backto-ConcreteStateA" style="stroke:#181818;stroke-width:1.0;"/><polygon fill="none" points="406.33,79.87,395.1046,95.1667,406.5277,98.8426,406.33,79.87" style="stroke:#181818;stroke-width:1.0;"/></g><!--reverse link State to ConcreteStateB--><g id="link_State_ConcreteStateB"><path d="M461.8382,92.4254 C482.9082,112.9354 497.35,127 518.36,147.46 " fill="none" id="State-backto-ConcreteStateB" style="stroke:#181818;stroke-width:1.0;"/><polygon fill="none" points="448.94,79.87,457.6531,96.7248,466.0233,88.126,448.94,79.87" style="stroke:#181818;stroke-width:1.0;"/></g><!--link Context to State--><g id="link_Context_State"><path codeLine="18" d="M290.3,47.3 C314.11,47.3 319.98,47.3 341.02,47.3 " fill="none" id="Context-State" style="stroke:#181818;stroke-width:1.0;"/><polygon fill="none" points="278.3,47.3,284.3,51.3,290.3,47.3,284.3,43.3,278.3,47.3" style="stroke:#181818;stroke-width:1.0;"/><polygon fill="#181818" points="347.02,47.3,338.02,43.3,342.02,47.3,338.02,51.3,347.02,47.3" style="stroke:#181818;stroke-width:1.0;"/><text fill="#000000" font-family="sans-serif" font-size="13" lengthAdjust="spacing" textLength="33" x="296.25" y="40.3669">state</text></g><!--SRC=[dO_12i8m44Jl-nLpR97w0L82wiMxNv2cgmPgWiaAWlJVJTj4KF3YQM7tpSoE6NICs7id_10y2LYXRKrWBQnKELJMMR5wE4fQRp2FUcO3t-uSfQff9D9TbA2DB41soyH1ktxWXJCbDEK8p_0MAOPT7__GxZwrFwMbfM-2FL-aKSXzuZI8d4_1dHVnL_XJwPxStYKdQopu-Zi062azWSdb1G00]--></g></svg>