<?xml version="1.0" encoding="us-ascii" standalone="no"?><svg xmlns="http://www.w3.org/2000/svg" xmlns:xlink="http://www.w3.org/1999/xlink" contentStyleType="text/css" height="326px" preserveAspectRatio="none" style="width:347px;height:326px;background:#FFFFFF;" version="1.1" viewBox="0 0 347 326" width="347px" zoomAndPan="magnify"><defs/><g><!--class Context--><g id="elem_Context"><rect codeLine="1" fill="#F1F1F1" height="64.2969" id="Context" rx="2.5" ry="2.5" style="stroke:#181818;stroke-width:0.5;" width="91" x="128" y="7"/><ellipse cx="143" cy="23" fill="#ADD1B2" rx="11" ry="11" style="stroke:#181818;stroke-width:1.0;"/><path d="M145.3438,18.6719 C144.4063,18.2344 143.8125,18.0938 142.9375,18.0938 C140.3125,18.0938 138.3125,20.1719 138.3125,22.8906 L138.3125,24.0156 C138.3125,26.5938 140.4219,28.4844 143.3125,28.4844 C144.5313,28.4844 145.6875,28.1875 146.4375,27.6406 C147.0156,27.2344 147.3438,26.7813 147.3438,26.3906 C147.3438,25.9375 146.9531,25.5469 146.4844,25.5469 C146.2656,25.5469 146.0625,25.625 145.875,25.8125 C145.4219,26.2969 145.4219,26.2969 145.2344,26.3906 C144.8125,26.6563 144.125,26.7813 143.3594,26.7813 C141.3125,26.7813 140.0156,25.6875 140.0156,23.9844 L140.0156,22.8906 C140.0156,21.1094 141.2656,19.7969 143,19.7969 C143.5781,19.7969 144.1875,19.9531 144.6563,20.2031 C145.1406,20.4844 145.3125,20.7031 145.4063,21.1094 C145.4688,21.5156 145.5,21.6406 145.6406,21.7656 C145.7813,21.9063 146.0156,22.0156 146.2344,22.0156 C146.5,22.0156 146.7656,21.875 146.9375,21.6563 C147.0469,21.5 147.0781,21.3125 147.0781,20.8906 L147.0781,19.4688 C147.0781,19.0313 147.0625,18.9063 146.9688,18.75 C146.8125,18.4844 146.5313,18.3438 146.2344,18.3438 C145.9375,18.3438 145.7344,18.4375 145.5156,18.75 L145.3438,18.6719 Z " fill="#000000"/><text fill="#000000" font-family="sans-serif" font-size="14" lengthAdjust="spacing" textLength="59" x="157" y="27.8467">Context</text><line style="stroke:#181818;stroke-width:0.5;" x1="129" x2="218" y1="39" y2="39"/><line style="stroke:#181818;stroke-width:0.5;" x1="129" x2="218" y1="47" y2="47"/><ellipse cx="139" cy="60.6484" fill="#84BE84" rx="3" ry="3" style="stroke:#038048;stroke-width:1.0;"/><text fill="#000000" font-family="sans-serif" font-size="14" lengthAdjust="spacing" textLength="65" x="148" y="63.9951">request()</text></g><!--class AbstractState--><g id="elem_AbstractState"><rect codeLine="5" fill="#F1F1F1" height="64.2969" id="AbstractState" rx="2.5" ry="2.5" style="stroke:#181818;stroke-width:0.5;" width="140" x="103.5" y="131"/><ellipse cx="120.75" cy="147" fill="#ADD1B2" rx="11" ry="11" style="stroke:#181818;stroke-width:1.0;"/><path d="M123.0938,142.6719 C122.1563,142.2344 121.5625,142.0938 120.6875,142.0938 C118.0625,142.0938 116.0625,144.1719 116.0625,146.8906 L116.0625,148.0156 C116.0625,150.5938 118.1719,152.4844 121.0625,152.4844 C122.2813,152.4844 123.4375,152.1875 124.1875,151.6406 C124.7656,151.2344 125.0938,150.7813 125.0938,150.3906 C125.0938,149.9375 124.7031,149.5469 124.2344,149.5469 C124.0156,149.5469 123.8125,149.625 123.625,149.8125 C123.1719,150.2969 123.1719,150.2969 122.9844,150.3906 C122.5625,150.6563 121.875,150.7813 121.1094,150.7813 C119.0625,150.7813 117.7656,149.6875 117.7656,147.9844 L117.7656,146.8906 C117.7656,145.1094 119.0156,143.7969 120.75,143.7969 C121.3281,143.7969 121.9375,143.9531 122.4063,144.2031 C122.8906,144.4844 123.0625,144.7031 123.1563,145.1094 C123.2188,145.5156 123.25,145.6406 123.3906,145.7656 C123.5313,145.9063 123.7656,146.0156 123.9844,146.0156 C124.25,146.0156 124.5156,145.875 124.6875,145.6563 C124.7969,145.5 124.8281,145.3125 124.8281,144.8906 L124.8281,143.4688 C124.8281,143.0313 124.8125,142.9063 124.7188,142.75 C124.5625,142.4844 124.2813,142.3438 123.9844,142.3438 C123.6875,142.3438 123.4844,142.4375 123.2656,142.75 L123.0938,142.6719 Z " fill="#000000"/><text fill="#000000" font-family="sans-serif" font-size="14" lengthAdjust="spacing" textLength="103" x="135.25" y="151.8467">AbstractState</text><line style="stroke:#181818;stroke-width:0.5;" x1="104.5" x2="242.5" y1="163" y2="163"/><line style="stroke:#181818;stroke-width:0.5;" x1="104.5" x2="242.5" y1="171" y2="171"/><ellipse cx="114.5" cy="184.6484" fill="#84BE84" rx="3" ry="3" style="stroke:#038048;stroke-width:1.0;"/><text fill="#000000" font-family="sans-serif" font-size="14" lengthAdjust="spacing" textLength="114" x="123.5" y="187.9951">requestHandle()</text></g><!--class ConcreteStateA--><g id="elem_ConcreteStateA"><rect codeLine="9" fill="#F1F1F1" height="64.2969" id="ConcreteStateA" rx="2.5" ry="2.5" style="stroke:#181818;stroke-width:0.5;" width="149" x="7" y="255"/><ellipse cx="22" cy="271" fill="#ADD1B2" rx="11" ry="11" style="stroke:#181818;stroke-width:1.0;"/><path d="M24.3438,266.6719 C23.4063,266.2344 22.8125,266.0938 21.9375,266.0938 C19.3125,266.0938 17.3125,268.1719 17.3125,270.8906 L17.3125,272.0156 C17.3125,274.5938 19.4219,276.4844 22.3125,276.4844 C23.5313,276.4844 24.6875,276.1875 25.4375,275.6406 C26.0156,275.2344 26.3438,274.7813 26.3438,274.3906 C26.3438,273.9375 25.9531,273.5469 25.4844,273.5469 C25.2656,273.5469 25.0625,273.625 24.875,273.8125 C24.4219,274.2969 24.4219,274.2969 24.2344,274.3906 C23.8125,274.6563 23.125,274.7813 22.3594,274.7813 C20.3125,274.7813 19.0156,273.6875 19.0156,271.9844 L19.0156,270.8906 C19.0156,269.1094 20.2656,267.7969 22,267.7969 C22.5781,267.7969 23.1875,267.9531 23.6563,268.2031 C24.1406,268.4844 24.3125,268.7031 24.4063,269.1094 C24.4688,269.5156 24.5,269.6406 24.6406,269.7656 C24.7813,269.9063 25.0156,270.0156 25.2344,270.0156 C25.5,270.0156 25.7656,269.875 25.9375,269.6563 C26.0469,269.5 26.0781,269.3125 26.0781,268.8906 L26.0781,267.4688 C26.0781,267.0313 26.0625,266.9063 25.9688,266.75 C25.8125,266.4844 25.5313,266.3438 25.2344,266.3438 C24.9375,266.3438 24.7344,266.4375 24.5156,266.75 L24.3438,266.6719 Z " fill="#000000"/><text fill="#000000" font-family="sans-serif" font-size="14" lengthAdjust="spacing" textLength="117" x="36" y="275.8467">ConcreteStateA</text><line style="stroke:#181818;stroke-width:0.5;" x1="8" x2="155" y1="287" y2="287"/><line style="stroke:#181818;stroke-width:0.5;" x1="8" x2="155" y1="295" y2="295"/><ellipse cx="18" cy="308.6484" fill="#84BE84" rx="3" ry="3" style="stroke:#038048;stroke-width:1.0;"/><text fill="#000000" font-family="sans-serif" font-size="14" lengthAdjust="spacing" textLength="114" x="27" y="311.9951">requestHandle()</text></g><!--class ConcreteStateB--><g id="elem_ConcreteStateB"><rect codeLine="13" fill="#F1F1F1" height="64.2969" id="ConcreteStateB" rx="2.5" ry="2.5" style="stroke:#181818;stroke-width:0.5;" width="149" x="191" y="255"/><ellipse cx="206" cy="271" fill="#ADD1B2" rx="11" ry="11" style="stroke:#181818;stroke-width:1.0;"/><path d="M208.3438,266.6719 C207.4063,266.2344 206.8125,266.0938 205.9375,266.0938 C203.3125,266.0938 201.3125,268.1719 201.3125,270.8906 L201.3125,272.0156 C201.3125,274.5938 203.4219,276.4844 206.3125,276.4844 C207.5313,276.4844 208.6875,276.1875 209.4375,275.6406 C210.0156,275.2344 210.3438,274.7813 210.3438,274.3906 C210.3438,273.9375 209.9531,273.5469 209.4844,273.5469 C209.2656,273.5469 209.0625,273.625 208.875,273.8125 C208.4219,274.2969 208.4219,274.2969 208.2344,274.3906 C207.8125,274.6563 207.125,274.7813 206.3594,274.7813 C204.3125,274.7813 203.0156,273.6875 203.0156,271.9844 L203.0156,270.8906 C203.0156,269.1094 204.2656,267.7969 206,267.7969 C206.5781,267.7969 207.1875,267.9531 207.6563,268.2031 C208.1406,268.4844 208.3125,268.7031 208.4063,269.1094 C208.4688,269.5156 208.5,269.6406 208.6406,269.7656 C208.7813,269.9063 209.0156,270.0156 209.2344,270.0156 C209.5,270.0156 209.7656,269.875 209.9375,269.6563 C210.0469,269.5 210.0781,269.3125 210.0781,268.8906 L210.0781,267.4688 C210.0781,267.0313 210.0625,266.9063 209.9688,266.75 C209.8125,266.4844 209.5313,266.3438 209.2344,266.3438 C208.9375,266.3438 208.7344,266.4375 208.5156,266.75 L208.3438,266.6719 Z " fill="#000000"/><text fill="#000000" font-family="sans-serif" font-size="14" lengthAdjust="spacing" textLength="117" x="220" y="275.8467">ConcreteStateB</text><line style="stroke:#181818;stroke-width:0.5;" x1="192" x2="339" y1="287" y2="287"/><line style="stroke:#181818;stroke-width:0.5;" x1="192" x2="339" y1="295" y2="295"/><ellipse cx="202" cy="308.6484" fill="#84BE84" rx="3" ry="3" style="stroke:#038048;stroke-width:1.0;"/><text fill="#000000" font-family="sans-serif" font-size="14" lengthAdjust="spacing" textLength="114" x="211" y="311.9951">requestHandle()</text></g><!--link Context to AbstractState--><g id="link_Context_AbstractState"><path codeLine="17" d="M173.5,83.101 C173.5,101.457 173.5,106.61 173.5,124.955 " fill="none" id="Context-AbstractState" style="stroke:#181818;stroke-width:1.0;"/><polygon fill="none" points="173.5,71.101,169.5,77.101,173.5,83.101,177.5,77.101,173.5,71.101" style="stroke:#181818;stroke-width:1.0;"/><polygon fill="#181818" points="173.5,130.955,177.5,121.955,173.5,125.955,169.5,121.955,173.5,130.955" style="stroke:#181818;stroke-width:1.0;"/><text fill="#000000" font-family="sans-serif" font-size="13" lengthAdjust="spacing" textLength="87" x="77.5281" y="91.3187">abstractState</text></g><!--reverse link AbstractState to ConcreteStateA--><g id="link_AbstractState_ConcreteStateA"><path codeLine="18" d="M139.209,209.4731 C125.368,227.8291 118.745,236.6101 104.9107,254.9554 " fill="none" id="AbstractState-backto-ConcreteStateA" style="stroke:#181818;stroke-width:1.0;stroke-dasharray:7.0,7.0;"/><polygon fill="none" points="150.046,195.101,134.4182,205.8608,143.9997,213.0855,150.046,195.101" style="stroke:#181818;stroke-width:1.0;"/></g><!--reverse link AbstractState to ConcreteStateB--><g id="link_AbstractState_ConcreteStateB"><path codeLine="19" d="M207.791,209.4731 C221.632,227.8291 228.255,236.6101 242.089,254.9554 " fill="none" id="AbstractState-backto-ConcreteStateB" style="stroke:#181818;stroke-width:1.0;stroke-dasharray:7.0,7.0;"/><polygon fill="none" points="196.954,195.101,203.0003,213.0855,212.5818,205.8608,196.954,195.101" style="stroke:#181818;stroke-width:1.0;"/></g><!--SRC=[Iyv9B2vMSCxFAqcjA56evb9Gq2vABInDBIxHqEIgvU9A1iix9XMN52KcbmIN99QaegZoICnBoKb5LWiqAxaejIGLhDQH5CLEE1N3tAUKYEmG9OLyNLqxLCTneJhLfaPF3yr515Ku0G00]--></g></svg>