<?xml version="1.0" encoding="us-ascii" standalone="no"?><svg xmlns="http://www.w3.org/2000/svg" xmlns:xlink="http://www.w3.org/1999/xlink" contentStyleType="text/css" height="461px" preserveAspectRatio="none" style="width:771px;height:461px;background:#FFFFFF;" version="1.1" viewBox="0 0 771 461" width="771px" zoomAndPan="magnify"><defs/><g><!--class PackageState--><g id="elem_PackageState"><rect codeLine="1" fill="#F1F1F1" height="96.8906" id="PackageState" rx="2.5" ry="2.5" style="stroke:#181818;stroke-width:0.5;" width="205" x="277.5" y="200"/><ellipse cx="310.5" cy="216" fill="#B4A7E5" rx="11" ry="11" style="stroke:#181818;stroke-width:1.0;"/><path d="M311.4531,212.7813 L313.1719,212.7813 C313.5625,212.7813 313.75,212.75 313.875,212.6719 C314.1406,212.5156 314.2813,212.2344 314.2813,211.9375 C314.2813,211.6719 314.1719,211.4063 313.9375,211.2344 C313.7656,211.125 313.625,211.0938 313.1719,211.0938 L308.0313,211.0938 C307.5938,211.0938 307.4688,211.1094 307.3125,211.2031 C307.0625,211.3594 306.9063,211.6563 306.9063,211.9375 C306.9063,212.2188 307.0469,212.4688 307.2656,212.6406 C307.4219,212.75 307.6094,212.7813 308.0313,212.7813 L309.75,212.7813 L309.75,219.2969 L308.0313,219.2969 C307.5938,219.2969 307.4688,219.3125 307.3125,219.4219 C307.0625,219.5781 306.9063,219.8594 306.9063,220.1563 C306.9063,220.4063 307.0469,220.6719 307.2656,220.8281 C307.4219,220.9531 307.625,221 308.0313,221 L313.1719,221 C313.9219,221 314.2813,220.7188 314.2813,220.1563 C314.2813,219.875 314.1719,219.625 313.9375,219.4531 C313.7656,219.3281 313.625,219.2969 313.1719,219.2969 L311.4531,219.2969 L311.4531,212.7813 Z " fill="#000000"/><text fill="#000000" font-family="sans-serif" font-size="14" font-style="italic" lengthAdjust="spacing" textLength="97" x="328.5" y="220.8467">PackageState</text><rect fill="#FFFFFF" height="15.9688" style="stroke:#181818;stroke-width:1.0;stroke-dasharray:2.0,2.0;" width="34" x="451.5" y="197"/><text fill="#000000" font-family="sans-serif" font-size="12" font-style="italic" lengthAdjust="spacing" textLength="32" x="452.5" y="209.1387">State</text><line style="stroke:#181818;stroke-width:0.5;" x1="278.5" x2="481.5" y1="232" y2="232"/><line style="stroke:#181818;stroke-width:0.5;" x1="278.5" x2="481.5" y1="240" y2="240"/><ellipse cx="288.5" cy="253.6484" fill="#84BE84" rx="3" ry="3" style="stroke:#038048;stroke-width:1.0;"/><text fill="#000000" font-family="sans-serif" font-size="14" lengthAdjust="spacing" textLength="179" x="297.5" y="256.9951">next(pkg: Package): void</text><ellipse cx="288.5" cy="269.9453" fill="#84BE84" rx="3" ry="3" style="stroke:#038048;stroke-width:1.0;"/><text fill="#000000" font-family="sans-serif" font-size="14" lengthAdjust="spacing" textLength="179" x="297.5" y="273.292">prev(pkg: Package): void</text><ellipse cx="288.5" cy="286.2422" fill="#84BE84" rx="3" ry="3" style="stroke:#038048;stroke-width:1.0;"/><text fill="#000000" font-family="sans-serif" font-size="14" lengthAdjust="spacing" textLength="131" x="297.5" y="289.5889">printStatus(): void</text></g><!--class Package--><g id="elem_Package"><rect codeLine="7" fill="#F1F1F1" height="113.1875" id="Package" rx="2.5" ry="2.5" style="stroke:#181818;stroke-width:0.5;" width="176" x="292" y="10"/><ellipse cx="321.85" cy="26" fill="#ADD1B2" rx="11" ry="11" style="stroke:#181818;stroke-width:1.0;"/><path d="M324.1938,21.6719 C323.2563,21.2344 322.6625,21.0938 321.7875,21.0938 C319.1625,21.0938 317.1625,23.1719 317.1625,25.8906 L317.1625,27.0156 C317.1625,29.5938 319.2719,31.4844 322.1625,31.4844 C323.3813,31.4844 324.5375,31.1875 325.2875,30.6406 C325.8656,30.2344 326.1938,29.7813 326.1938,29.3906 C326.1938,28.9375 325.8031,28.5469 325.3344,28.5469 C325.1156,28.5469 324.9125,28.625 324.725,28.8125 C324.2719,29.2969 324.2719,29.2969 324.0844,29.3906 C323.6625,29.6563 322.975,29.7813 322.2094,29.7813 C320.1625,29.7813 318.8656,28.6875 318.8656,26.9844 L318.8656,25.8906 C318.8656,24.1094 320.1156,22.7969 321.85,22.7969 C322.4281,22.7969 323.0375,22.9531 323.5063,23.2031 C323.9906,23.4844 324.1625,23.7031 324.2563,24.1094 C324.3188,24.5156 324.35,24.6406 324.4906,24.7656 C324.6313,24.9063 324.8656,25.0156 325.0844,25.0156 C325.35,25.0156 325.6156,24.875 325.7875,24.6563 C325.8969,24.5 325.9281,24.3125 325.9281,23.8906 L325.9281,22.4688 C325.9281,22.0313 325.9125,21.9063 325.8188,21.75 C325.6625,21.4844 325.3813,21.3438 325.0844,21.3438 C324.7875,21.3438 324.5844,21.4375 324.3656,21.75 L324.1938,21.6719 Z " fill="#000000"/><text fill="#000000" font-family="sans-serif" font-size="14" lengthAdjust="spacing" textLength="60" x="339.15" y="30.8467">Package</text><rect fill="#FFFFFF" height="15.9688" style="stroke:#181818;stroke-width:1.0;stroke-dasharray:2.0,2.0;" width="49" x="422" y="7"/><text fill="#000000" font-family="sans-serif" font-size="12" font-style="italic" lengthAdjust="spacing" textLength="47" x="423" y="19.1387">Context</text><line style="stroke:#181818;stroke-width:0.5;" x1="293" x2="467" y1="42" y2="42"/><rect fill="none" height="6" style="stroke:#C82930;stroke-width:1.0;" width="6" x="300" y="52.6484"/><text fill="#000000" font-family="sans-serif" font-size="14" lengthAdjust="spacing" textLength="147" x="312" y="58.9951">state: PackageState</text><line style="stroke:#181818;stroke-width:0.5;" x1="293" x2="467" y1="66.2969" y2="66.2969"/><ellipse cx="303" cy="79.9453" fill="#84BE84" rx="3" ry="3" style="stroke:#038048;stroke-width:1.0;"/><text fill="#000000" font-family="sans-serif" font-size="14" lengthAdjust="spacing" textLength="150" x="312" y="83.292">previousState(): void</text><ellipse cx="303" cy="96.2422" fill="#84BE84" rx="3" ry="3" style="stroke:#038048;stroke-width:1.0;"/><text fill="#000000" font-family="sans-serif" font-size="14" lengthAdjust="spacing" textLength="122" x="312" y="99.5889">nextState(): void</text><ellipse cx="303" cy="112.5391" fill="#84BE84" rx="3" ry="3" style="stroke:#038048;stroke-width:1.0;"/><text fill="#000000" font-family="sans-serif" font-size="14" lengthAdjust="spacing" textLength="131" x="312" y="115.8857">printStatus(): void</text></g><!--class OrderedState--><g id="elem_OrderedState"><rect codeLine="14" fill="#F1F1F1" height="96.8906" id="OrderedState" rx="2.5" ry="2.5" style="stroke:#181818;stroke-width:0.5;" width="222" x="7" y="358"/><ellipse cx="22" cy="374" fill="#ADD1B2" rx="11" ry="11" style="stroke:#181818;stroke-width:1.0;"/><path d="M24.3438,369.6719 C23.4063,369.2344 22.8125,369.0938 21.9375,369.0938 C19.3125,369.0938 17.3125,371.1719 17.3125,373.8906 L17.3125,375.0156 C17.3125,377.5938 19.4219,379.4844 22.3125,379.4844 C23.5313,379.4844 24.6875,379.1875 25.4375,378.6406 C26.0156,378.2344 26.3438,377.7813 26.3438,377.3906 C26.3438,376.9375 25.9531,376.5469 25.4844,376.5469 C25.2656,376.5469 25.0625,376.625 24.875,376.8125 C24.4219,377.2969 24.4219,377.2969 24.2344,377.3906 C23.8125,377.6563 23.125,377.7813 22.3594,377.7813 C20.3125,377.7813 19.0156,376.6875 19.0156,374.9844 L19.0156,373.8906 C19.0156,372.1094 20.2656,370.7969 22,370.7969 C22.5781,370.7969 23.1875,370.9531 23.6563,371.2031 C24.1406,371.4844 24.3125,371.7031 24.4063,372.1094 C24.4688,372.5156 24.5,372.6406 24.6406,372.7656 C24.7813,372.9063 25.0156,373.0156 25.2344,373.0156 C25.5,373.0156 25.7656,372.875 25.9375,372.6563 C26.0469,372.5 26.0781,372.3125 26.0781,371.8906 L26.0781,370.4688 C26.0781,370.0313 26.0625,369.9063 25.9688,369.75 C25.8125,369.4844 25.5313,369.3438 25.2344,369.3438 C24.9375,369.3438 24.7344,369.4375 24.5156,369.75 L24.3438,369.6719 Z " fill="#000000"/><text fill="#000000" font-family="sans-serif" font-size="14" lengthAdjust="spacing" textLength="99" x="36" y="378.8467">OrderedState</text><rect fill="#FFFFFF" height="15.9688" style="stroke:#181818;stroke-width:1.0;stroke-dasharray:2.0,2.0;" width="89" x="143" y="355"/><text fill="#000000" font-family="sans-serif" font-size="12" font-style="italic" lengthAdjust="spacing" textLength="87" x="144" y="367.1387">ContextStateA</text><line style="stroke:#181818;stroke-width:0.5;" x1="8" x2="228" y1="390" y2="390"/><line style="stroke:#181818;stroke-width:0.5;" x1="8" x2="228" y1="398" y2="398"/><ellipse cx="18" cy="411.6484" fill="#84BE84" rx="3" ry="3" style="stroke:#038048;stroke-width:1.0;"/><text fill="#000000" font-family="sans-serif" font-size="14" lengthAdjust="spacing" textLength="179" x="27" y="414.9951">next(pkg: Package): void</text><ellipse cx="18" cy="427.9453" fill="#84BE84" rx="3" ry="3" style="stroke:#038048;stroke-width:1.0;"/><text fill="#000000" font-family="sans-serif" font-size="14" lengthAdjust="spacing" textLength="179" x="27" y="431.292">prev(pkg: Package): void</text><ellipse cx="18" cy="444.2422" fill="#84BE84" rx="3" ry="3" style="stroke:#038048;stroke-width:1.0;"/><text fill="#000000" font-family="sans-serif" font-size="14" lengthAdjust="spacing" textLength="131" x="27" y="447.5889">printStatus(): void</text></g><!--class DeliveredState--><g id="elem_DeliveredState"><rect codeLine="20" fill="#F1F1F1" height="96.8906" id="DeliveredState" rx="2.5" ry="2.5" style="stroke:#181818;stroke-width:0.5;" width="232" x="264" y="358"/><ellipse cx="279" cy="374" fill="#ADD1B2" rx="11" ry="11" style="stroke:#181818;stroke-width:1.0;"/><path d="M281.3438,369.6719 C280.4063,369.2344 279.8125,369.0938 278.9375,369.0938 C276.3125,369.0938 274.3125,371.1719 274.3125,373.8906 L274.3125,375.0156 C274.3125,377.5938 276.4219,379.4844 279.3125,379.4844 C280.5313,379.4844 281.6875,379.1875 282.4375,378.6406 C283.0156,378.2344 283.3438,377.7813 283.3438,377.3906 C283.3438,376.9375 282.9531,376.5469 282.4844,376.5469 C282.2656,376.5469 282.0625,376.625 281.875,376.8125 C281.4219,377.2969 281.4219,377.2969 281.2344,377.3906 C280.8125,377.6563 280.125,377.7813 279.3594,377.7813 C277.3125,377.7813 276.0156,376.6875 276.0156,374.9844 L276.0156,373.8906 C276.0156,372.1094 277.2656,370.7969 279,370.7969 C279.5781,370.7969 280.1875,370.9531 280.6563,371.2031 C281.1406,371.4844 281.3125,371.7031 281.4063,372.1094 C281.4688,372.5156 281.5,372.6406 281.6406,372.7656 C281.7813,372.9063 282.0156,373.0156 282.2344,373.0156 C282.5,373.0156 282.7656,372.875 282.9375,372.6563 C283.0469,372.5 283.0781,372.3125 283.0781,371.8906 L283.0781,370.4688 C283.0781,370.0313 283.0625,369.9063 282.9688,369.75 C282.8125,369.4844 282.5313,369.3438 282.2344,369.3438 C281.9375,369.3438 281.7344,369.4375 281.5156,369.75 L281.3438,369.6719 Z " fill="#000000"/><text fill="#000000" font-family="sans-serif" font-size="14" lengthAdjust="spacing" textLength="109" x="293" y="378.8467">DeliveredState</text><rect fill="#FFFFFF" height="15.9688" style="stroke:#181818;stroke-width:1.0;stroke-dasharray:2.0,2.0;" width="89" x="410" y="355"/><text fill="#000000" font-family="sans-serif" font-size="12" font-style="italic" lengthAdjust="spacing" textLength="87" x="411" y="367.1387">ContextStateB</text><line style="stroke:#181818;stroke-width:0.5;" x1="265" x2="495" y1="390" y2="390"/><line style="stroke:#181818;stroke-width:0.5;" x1="265" x2="495" y1="398" y2="398"/><ellipse cx="275" cy="411.6484" fill="#84BE84" rx="3" ry="3" style="stroke:#038048;stroke-width:1.0;"/><text fill="#000000" font-family="sans-serif" font-size="14" lengthAdjust="spacing" textLength="179" x="284" y="414.9951">next(pkg: Package): void</text><ellipse cx="275" cy="427.9453" fill="#84BE84" rx="3" ry="3" style="stroke:#038048;stroke-width:1.0;"/><text fill="#000000" font-family="sans-serif" font-size="14" lengthAdjust="spacing" textLength="179" x="284" y="431.292">prev(pkg: Package): void</text><ellipse cx="275" cy="444.2422" fill="#84BE84" rx="3" ry="3" style="stroke:#038048;stroke-width:1.0;"/><text fill="#000000" font-family="sans-serif" font-size="14" lengthAdjust="spacing" textLength="131" x="284" y="447.5889">printStatus(): void</text></g><!--class ReceivedState--><g id="elem_ReceivedState"><rect codeLine="26" fill="#F1F1F1" height="96.8906" id="ReceivedState" rx="2.5" ry="2.5" style="stroke:#181818;stroke-width:0.5;" width="229" x="531.5" y="358"/><ellipse cx="546.5" cy="374" fill="#ADD1B2" rx="11" ry="11" style="stroke:#181818;stroke-width:1.0;"/><path d="M548.8438,369.6719 C547.9063,369.2344 547.3125,369.0938 546.4375,369.0938 C543.8125,369.0938 541.8125,371.1719 541.8125,373.8906 L541.8125,375.0156 C541.8125,377.5938 543.9219,379.4844 546.8125,379.4844 C548.0313,379.4844 549.1875,379.1875 549.9375,378.6406 C550.5156,378.2344 550.8438,377.7813 550.8438,377.3906 C550.8438,376.9375 550.4531,376.5469 549.9844,376.5469 C549.7656,376.5469 549.5625,376.625 549.375,376.8125 C548.9219,377.2969 548.9219,377.2969 548.7344,377.3906 C548.3125,377.6563 547.625,377.7813 546.8594,377.7813 C544.8125,377.7813 543.5156,376.6875 543.5156,374.9844 L543.5156,373.8906 C543.5156,372.1094 544.7656,370.7969 546.5,370.7969 C547.0781,370.7969 547.6875,370.9531 548.1563,371.2031 C548.6406,371.4844 548.8125,371.7031 548.9063,372.1094 C548.9688,372.5156 549,372.6406 549.1406,372.7656 C549.2813,372.9063 549.5156,373.0156 549.7344,373.0156 C550,373.0156 550.2656,372.875 550.4375,372.6563 C550.5469,372.5 550.5781,372.3125 550.5781,371.8906 L550.5781,370.4688 C550.5781,370.0313 550.5625,369.9063 550.4688,369.75 C550.3125,369.4844 550.0313,369.3438 549.7344,369.3438 C549.4375,369.3438 549.2344,369.4375 549.0156,369.75 L548.8438,369.6719 Z " fill="#000000"/><text fill="#000000" font-family="sans-serif" font-size="14" lengthAdjust="spacing" textLength="106" x="560.5" y="378.8467">ReceivedState</text><rect fill="#FFFFFF" height="15.9688" style="stroke:#181818;stroke-width:1.0;stroke-dasharray:2.0,2.0;" width="89" x="674.5" y="355"/><text fill="#000000" font-family="sans-serif" font-size="12" font-style="italic" lengthAdjust="spacing" textLength="87" x="675.5" y="367.1387">ContextStateC</text><line style="stroke:#181818;stroke-width:0.5;" x1="532.5" x2="759.5" y1="390" y2="390"/><line style="stroke:#181818;stroke-width:0.5;" x1="532.5" x2="759.5" y1="398" y2="398"/><ellipse cx="542.5" cy="411.6484" fill="#84BE84" rx="3" ry="3" style="stroke:#038048;stroke-width:1.0;"/><text fill="#000000" font-family="sans-serif" font-size="14" lengthAdjust="spacing" textLength="179" x="551.5" y="414.9951">next(pkg: Package): void</text><ellipse cx="542.5" cy="427.9453" fill="#84BE84" rx="3" ry="3" style="stroke:#038048;stroke-width:1.0;"/><text fill="#000000" font-family="sans-serif" font-size="14" lengthAdjust="spacing" textLength="179" x="551.5" y="431.292">prev(pkg: Package): void</text><ellipse cx="542.5" cy="444.2422" fill="#84BE84" rx="3" ry="3" style="stroke:#038048;stroke-width:1.0;"/><text fill="#000000" font-family="sans-serif" font-size="14" lengthAdjust="spacing" textLength="131" x="551.5" y="447.5889">printStatus(): void</text></g><!--reverse link PackageState to OrderedState--><g id="link_PackageState_OrderedState"><path codeLine="32" d="M284.5018,306.3615 C252.1468,325.6255 230.344,338.608 197.993,357.8704 " fill="none" id="PackageState-backto-OrderedState" style="stroke:#181818;stroke-width:1.0;stroke-dasharray:7.0,7.0;"/><polygon fill="none" points="299.968,297.153,281.4323,301.2061,287.5713,311.5169,299.968,297.153" style="stroke:#181818;stroke-width:1.0;"/></g><!--reverse link PackageState to DeliveredState--><g id="link_PackageState_DeliveredState"><path codeLine="33" d="M380,315.153 C380,334.417 380,338.608 380,357.8704 " fill="none" id="PackageState-backto-DeliveredState" style="stroke:#181818;stroke-width:1.0;stroke-dasharray:7.0,7.0;"/><polygon fill="none" points="380,297.153,374,315.153,386,315.153,380,297.153" style="stroke:#181818;stroke-width:1.0;"/></g><!--reverse link PackageState to ReceivedState--><g id="link_PackageState_ReceivedState"><path codeLine="34" d="M476.781,306.2587 C509.63,325.5227 531.941,338.608 564.785,357.8704 " fill="none" id="PackageState-backto-ReceivedState" style="stroke:#181818;stroke-width:1.0;stroke-dasharray:7.0,7.0;"/><polygon fill="none" points="461.254,297.153,473.7458,311.4343,479.8162,301.083,461.254,297.153" style="stroke:#181818;stroke-width:1.0;"/></g><!--link Package to PackageState--><g id="link_Package_PackageState"><path codeLine="35" d="M380,123.466 C380,147.925 380,170.317 380,193.76 " fill="none" id="Package-to-PackageState" style="stroke:#181818;stroke-width:1.0;"/><polygon fill="#181818" points="380,199.76,384,190.76,380,194.76,376,190.76,380,199.76" style="stroke:#181818;stroke-width:1.0;"/><rect fill="none" height="6" style="stroke:#C82930;stroke-width:1.0;" width="6" x="383" y="159.0664"/><text fill="#000000" font-family="sans-serif" font-size="13" lengthAdjust="spacing" textLength="33" x="393" y="166.0669">state</text></g><!--SRC=[jP912eCm44NtdcAMAKKF44HexRwbFK68KmcAaIG6eUtTQsm23TNkN8NvVyZxCupe3AexumWNnXjMuyqmWv3FJm6F163VuMX8tzGqzEmeM2agv_KAxRedEkC-6ZG9yYj9UCkq3ksGbtAAC9eFAzMEIwCm0IFae6U1V35SjX_nB_YiAbHO-JazVQuEMyvxmbRO5V1nI_0LEKxa9Mwv3JU-f6UMHJjViEFTB3H4CmGVqhI83eNwyta3]--></g></svg>