<?xml version="1.0" standalone="no"?>
<!DOCTYPE svg PUBLIC "-//W3C//DTD SVG 20010904//EN"
 "http://www.w3.org/TR/2001/REC-SVG-20010904/DTD/svg10.dtd">
<svg version="1.0" xmlns="http://www.w3.org/2000/svg"
 width="688.000000pt" height="239.000000pt" viewBox="0 0 688.000000 239.000000"
 preserveAspectRatio="xMidYMid meet">

<g transform="translate(0.000000,239.000000) scale(0.100000,-0.100000)"
fill="#000000" stroke="none">
<path d="M127 2158 c-2 -18 -2 -169 1 -336 l5 -302 751 2 751 3 3 222 2 222
43 -18 c45 -19 50 -19 105 16 19 12 89 14 400 14 207 -1 538 -1 735 -1 313 0
357 -2 357 -15 0 -16 19 -15 82 5 l28 9 2 -227 3 -227 340 0 c187 -1 355 -2
373 -3 l32 -2 0 -82 c1 -78 -2 -88 -42 -170 l-43 -87 -200 -2 c-110 0 -479 -1
-820 -2 l-620 -2 -3 -117 -3 -118 -349 0 -349 0 0 -325 0 -325 757 2 757 3 3
322 2 323 -400 0 -400 0 0 110 0 110 853 -2 852 -3 3 -109 3 -109 -238 3
c-131 2 -300 3 -375 2 l-137 -2 2 -323 2 -322 758 -2 757 -3 0 324 0 323 -227
6 c-126 3 -294 4 -375 1 l-148 -5 0 109 0 108 855 1 855 2 0 -107 0 -107 -398
0 -397 0 1 -325 1 -325 754 0 754 0 3 322 2 323 -102 2 c-57 1 -214 1 -350 0
l-248 -3 0 121 0 120 -822 0 -823 1 -43 89 c-40 82 -44 96 -44 166 1 42 3 79
7 82 5 5 490 13 708 12 l37 0 -2 328 -3 327 -757 3 -758 2 0 -91 0 -91 -37 6
c-21 4 -46 9 -56 12 -10 3 -20 -1 -23 -10 -6 -14 -81 -16 -728 -16 -737 0
-765 2 -809 38 -12 11 -21 9 -49 -8 -18 -11 -36 -20 -40 -20 -4 0 -9 39 -10
88 l-3 87 -751 3 -752 2 -5 -32z m1493 -143 l0 -155 -734 1 -733 0 -7 91 c-3
50 -6 120 -6 155 l0 63 740 0 740 0 0 -155z m3264 9 c4 -81 5 -148 3 -150 -6
-6 -1449 -12 -1464 -6 -10 3 -13 43 -13 153 l0 149 733 0 734 0 7 -146z
m-3111 -24 c13 -11 -42 -50 -61 -43 -9 3 -25 13 -35 22 -18 15 -18 16 10 28
27 11 70 8 86 -7z m3040 -158 l79 -2 -4 -147 -4 -148 -737 -2 -737 -3 0 150 0
149 38 3 c37 3 1217 3 1365 0z m-3193 -154 l0 -153 -643 1 c-353 1 -684 2
-734 3 l-93 1 0 150 0 150 735 0 735 0 0 -152z m2574 -440 c14 -26 26 -52 26
-57 0 -7 -29 -11 -74 -11 l-73 0 36 70 c40 77 42 77 85 -2z m-994 -399 c0 -42
3 -110 6 -152 l7 -77 -740 0 -740 0 -2 149 c-2 149 -2 149 21 153 13 2 344 3
736 3 l712 0 0 -76z m1425 71 l260 0 1 -150 1 -150 -736 0 -737 0 -2 150 -3
149 128 3 c70 2 286 2 478 1 193 -1 467 -3 610 -3z m1478 1 l467 -1 0 -150 0
-150 -734 0 -733 0 -7 76 c-3 43 -6 110 -6 150 l0 73 73 3 c39 2 162 2 272 1
110 -1 410 -2 668 -2z m-1415 -320 l202 -1 0 -145 0 -145 -740 0 -740 0 0 145
0 144 138 3 c123 3 580 2 1140 -1z m1882 -142 l0 -149 -740 0 -741 0 2 113 c1
61 4 128 6 147 l5 35 734 2 734 1 0 -149z m-3360 -4 l0 -145 -740 0 -740 0 0
145 0 145 740 0 740 0 0 -145z"/>
<path d="M250 2067 c-30 -32 -23 -78 13 -90 22 -7 33 -6 44 6 14 14 18 14 40
-1 21 -13 28 -14 46 -2 15 9 22 10 25 1 7 -22 22 -10 22 19 0 38 27 41 32 3 4
-37 28 -43 28 -6 0 46 -10 51 -89 51 -62 0 -74 -2 -78 -18 -4 -17 -30 -30 -60
-30 -7 0 -13 12 -13 26 0 24 3 26 30 21 30 -7 36 -1 22 19 -15 23 -42 23 -62
1z m130 -57 c0 -11 -4 -20 -10 -20 -5 0 -10 9 -10 20 0 11 5 20 10 20 6 0 10
-9 10 -20z"/>
<path d="M507 2063 c-2 -5 -2 -25 0 -46 5 -33 8 -37 32 -35 15 1 32 -2 39 -6
18 -11 42 12 42 40 0 30 -35 51 -56 33 -8 -6 -14 -22 -14 -36 0 -14 -4 -21
-10 -18 -14 8 -13 45 1 45 8 0 8 5 -1 15 -14 16 -26 19 -33 8z"/>
<path d="M708 2059 c-2 -6 -19 -11 -38 -11 -33 0 -35 -2 -36 -33 0 -31 2 -33
33 -33 28 0 32 3 22 14 -13 16 -4 48 11 39 5 -3 10 -17 10 -31 0 -13 5 -24 10
-24 6 0 13 0 17 0 9 0 8 64 -1 78 -9 15 -23 15 -28 1z"/>
<path d="M3523 2059 c-32 -12 -30 -47 4 -60 20 -7 23 -13 15 -21 -9 -9 -15 -7
-26 8 -16 21 -32 14 -22 -11 9 -25 37 -30 67 -13 23 14 28 14 33 2 8 -22 26
-16 25 9 0 12 1 29 2 37 4 28 -1 50 -11 50 -5 0 -10 -7 -10 -15 0 -8 -4 -15
-10 -15 -5 0 -10 4 -10 10 0 17 -34 28 -57 19z m50 -35 c9 -4 17 -13 17 -22 0
-13 -2 -13 -18 1 -10 10 -24 17 -30 17 -7 0 -12 5 -12 11 0 6 6 8 13 5 6 -3
20 -9 30 -12z"/>
<path d="M3776 2038 c-11 -42 -7 -78 9 -78 10 0 15 10 15 30 0 17 4 30 9 30 5
0 7 9 4 20 -7 27 -29 25 -37 -2z"/>
<path d="M3663 2032 c-13 -2 -24 -9 -24 -15 -1 -7 -3 -25 -5 -40 -4 -35 18
-32 26 4 8 34 39 39 33 4 -5 -23 -3 -25 31 -25 35 0 36 1 36 35 0 40 -17 53
-48 36 -11 -6 -22 -7 -24 -3 -2 4 -13 6 -25 4z m67 -46 c0 -3 -4 -8 -10 -11
-5 -3 -10 -1 -10 4 0 6 5 11 10 11 6 0 10 -2 10 -4z"/>
<path d="M3826 2021 c-10 -11 -16 -28 -14 -38 4 -24 48 -30 64 -9 10 14 12 15
17 2 4 -9 2 -18 -4 -21 -15 -10 0 -25 26 -25 29 0 55 34 55 73 0 27 -2 28 -47
26 -27 -1 -55 1 -64 5 -9 4 -22 -1 -33 -13z m114 -26 c0 -8 -4 -15 -10 -15 -5
0 -10 7 -10 15 0 8 5 15 10 15 6 0 10 -7 10 -15z m-83 -11 c-3 -3 -12 -4 -19
-1 -8 3 -5 6 6 6 11 1 17 -2 13 -5z"/>
<path d="M3984 1990 c4 -25 2 -40 -4 -40 -5 0 -10 -5 -10 -11 0 -24 34 -1 57
40 25 44 23 72 -3 37 -12 -17 -14 -18 -14 -3 0 9 -7 17 -16 17 -14 0 -15 -7
-10 -40z"/>
<path d="M3907 1735 c-3 -11 -9 -37 -13 -57 -8 -45 11 -53 20 -8 3 17 11 30
17 30 7 0 10 -12 7 -30 -5 -32 6 -41 16 -14 13 33 7 64 -13 64 -11 0 -21 8
-23 18 -4 15 -5 15 -11 -3z"/>
<path d="M4390 1735 c-7 -8 -21 -15 -32 -15 -10 0 -21 -7 -25 -16 -6 -15 -7
-15 -19 0 -17 24 -45 17 -64 -16 -13 -25 -13 -29 3 -45 16 -16 18 -16 34 -1
15 16 15 17 -8 11 -13 -3 -22 -3 -19 0 3 3 17 8 32 11 19 3 28 0 31 -12 3 -12
8 -7 17 16 15 40 30 41 30 1 0 -42 16 -28 24 20 3 22 11 41 18 43 8 3 9 6 1
11 -6 4 -16 0 -23 -8z"/>
<path d="M4660 1727 c-25 -38 -31 -59 -24 -94 8 -43 30 -41 61 6 27 39 29 69
8 97 -13 17 -14 16 -8 -18 5 -35 -20 -98 -39 -98 -13 0 -9 48 7 87 18 42 15
51 -5 20z"/>
<path d="M3515 1697 c-27 -47 -33 -69 -13 -49 15 15 48 16 48 2 0 -5 5 -10 10
-10 11 0 13 42 4 78 -9 32 -20 27 -49 -21z m35 3 c0 -5 -5 -10 -11 -10 -5 0
-7 5 -4 10 3 6 8 10 11 10 2 0 4 -4 4 -10z"/>
<path d="M3595 1708 c-4 -18 -9 -41 -11 -50 -3 -10 -1 -18 5 -18 5 0 11 7 13
15 2 12 6 11 16 -6 9 -14 9 -19 2 -14 -8 5 -11 1 -8 -11 6 -32 45 -29 62 5 9
16 16 38 17 48 1 12 3 10 8 -7 13 -46 71 -33 71 17 0 28 -25 41 -51 25 -11 -7
-20 -8 -24 -2 -10 16 -44 11 -65 -10 -19 -19 -19 -19 -13 10 3 18 1 30 -5 30
-6 0 -13 -15 -17 -32z m75 -27 c0 -22 -15 -35 -30 -26 -7 4 -7 13 0 26 14 25
30 25 30 0z m80 -1 c0 -11 -7 -20 -15 -20 -8 0 -15 9 -15 20 0 11 7 20 15 20
8 0 15 -9 15 -20z"/>
<path d="M3840 1727 c0 -7 -11 -13 -27 -12 -24 0 -28 -5 -34 -37 -7 -45 5 -50
20 -8 13 40 29 38 24 -2 -4 -31 -3 -32 11 -14 14 17 16 18 16 3 0 -9 6 -17 13
-17 8 0 14 6 14 13 0 6 3 26 7 44 10 43 -11 52 -23 11 l-11 -33 3 33 c2 17 0
32 -5 32 -4 0 -8 -6 -8 -13z"/>
<path d="M4092 1693 c-6 -26 -9 -50 -6 -52 10 -10 23 16 30 57 9 59 -12 55
-24 -5z"/>
<path d="M4217 1723 c-5 -8 -10 -58 -8 -80 2 -30 21 -10 21 22 0 19 4 35 10
35 5 0 7 7 4 15 -7 16 -20 20 -27 8z"/>
<path d="M3975 1705 c-18 -58 -5 -89 14 -35 5 17 15 30 20 30 6 0 8 -12 5 -30
-4 -17 -2 -30 4 -30 5 0 12 14 16 30 3 17 10 30 17 30 7 0 8 -11 4 -30 -4 -18
-2 -30 3 -30 12 0 26 55 18 69 -8 13 -97 10 -101 -4z"/>
<path d="M4129 1692 c-12 -30 -11 -52 0 -52 5 0 12 14 16 30 4 17 13 30 22 30
11 0 13 -7 8 -30 -8 -37 12 -42 21 -5 9 37 -2 55 -32 53 -17 -2 -29 -11 -35
-26z"/>
<path d="M4420 1705 c-7 -8 -9 -15 -5 -15 4 0 2 -7 -5 -15 -17 -20 -5 -34 29
-33 25 1 30 6 34 32 2 17 3 34 0 39 -7 12 -40 8 -53 -8z m37 -11 c-3 -3 -12
-4 -19 -1 -8 3 -5 6 6 6 11 1 17 -2 13 -5z"/>
<path d="M4496 1701 c-24 -27 -17 -56 13 -56 14 0 26 5 28 12 3 7 -3 9 -17 6
-18 -5 -21 -2 -18 13 5 28 31 23 46 -8 16 -35 45 -36 67 -2 13 20 14 28 4 40
-15 18 -34 18 -52 -1 -13 -13 -16 -13 -21 0 -8 21 -30 19 -50 -4z m111 -7 c-3
-3 -12 -4 -19 -1 -8 3 -5 6 6 6 11 1 17 -2 13 -5z m-10 -30 c-3 -3 -12 -4 -19
-1 -8 3 -5 6 6 6 11 1 17 -2 13 -5z"/>
<path d="M247 1742 c-45 -50 14 -121 63 -77 15 14 18 14 30 0 18 -22 45 -18
58 8 l11 22 0 -22 c1 -35 21 -27 21 7 0 20 5 30 15 30 10 0 15 -10 15 -30 0
-16 5 -30 11 -30 6 0 9 16 7 38 -3 34 -6 37 -35 40 -26 3 -33 0 -33 -15 -1
-17 -1 -17 -14 0 -18 23 -42 21 -60 -5 -9 -12 -16 -18 -16 -13 0 6 -5 2 -11
-7 -13 -24 -46 -23 -54 1 -13 41 24 68 53 39 7 -7 12 -8 12 -2 0 15 -22 34
-40 34 -9 0 -24 -8 -33 -18z m133 -52 c0 -11 -7 -20 -15 -20 -8 0 -15 9 -15
20 0 11 7 20 15 20 8 0 15 -9 15 -20z"/>
<path d="M720 1705 c0 -30 5 -55 10 -55 6 0 10 25 10 55 0 30 -4 55 -10 55 -5
0 -10 -25 -10 -55z"/>
<path d="M1004 1745 c-4 -8 -17 -15 -30 -15 -21 0 -24 -4 -24 -40 0 -22 5 -40
10 -40 6 0 10 14 10 30 0 20 5 30 15 30 10 0 15 -10 15 -30 0 -38 20 -40 21
-2 1 15 3 39 5 55 3 29 -13 37 -22 12z"/>
<path d="M1272 1735 c-15 -34 -15 -66 2 -87 20 -27 25 -21 14 16 -8 24 -7 43
0 65 13 37 0 42 -16 6z"/>
<path d="M1315 1695 c0 -55 2 -63 13 -48 16 22 16 74 -1 97 -10 14 -12 7 -12
-49z"/>
<path d="M494 1736 c-10 -27 1 -81 17 -84 15 -3 16 5 10 91 -1 13 -21 8 -27
-7z"/>
<path d="M680 1743 c0 -5 -11 -13 -25 -20 -14 -6 -25 -7 -25 -2 0 5 -3 9 -8 9
-4 0 -8 -18 -8 -40 -1 -34 1 -38 13 -28 11 9 16 9 23 -2 5 -8 12 -11 16 -7 4
3 1 13 -6 22 -13 16 -7 45 9 45 5 0 11 -14 13 -32 5 -49 24 -45 22 4 -3 58 -3
58 -14 58 -5 0 -10 -3 -10 -7z"/>
<path d="M832 1738 c-7 -7 -7 -19 -1 -37 6 -14 10 -27 10 -28 -4 -12 1 -23 9
-23 6 0 8 11 4 25 -3 14 -2 31 4 38 14 16 -11 40 -26 25z"/>
<path d="M546 1727 c-22 -16 -18 -55 6 -71 14 -8 22 -7 35 7 17 18 17 18 -9
12 -18 -5 -28 -3 -28 4 0 6 11 11 25 11 29 0 32 12 9 34 -19 19 -16 19 -38 3z
m29 -17 c3 -5 -1 -10 -10 -10 -9 0 -13 5 -10 10 3 6 8 10 10 10 2 0 7 -4 10
-10z"/>
<path d="M1127 1722 c-21 -23 -22 -46 -1 -63 13 -10 19 -10 36 0 15 9 23 10
31 2 27 -27 57 -6 57 39 0 28 -35 44 -53 25 -13 -13 -16 -13 -27 0 -16 19 -23
19 -43 -3z m53 -35 c0 -4 -4 -5 -10 -2 -5 3 -10 1 -10 -4 0 -6 -7 -11 -15 -11
-15 0 -21 31 -9 43 7 7 44 -14 44 -26z m45 23 c3 -5 -1 -10 -10 -10 -9 0 -13
5 -10 10 3 6 8 10 10 10 2 0 7 -4 10 -10z m10 -30 c-3 -5 -13 -10 -21 -10 -8
0 -14 5 -14 10 0 6 9 10 21 10 11 0 17 -4 14 -10z"/>
<path d="M750 1696 c0 -42 17 -58 22 -19 4 39 28 42 28 4 0 -17 5 -31 11 -31
6 0 9 16 7 38 -3 34 -6 37 -35 40 -32 3 -33 2 -33 -32z"/>
<path d="M877 1724 c-13 -13 -7 -51 9 -65 23 -19 49 1 49 37 0 24 -5 30 -25
32 -14 2 -29 0 -33 -4z m40 -20 c-3 -3 -12 -4 -19 -1 -8 3 -5 6 6 6 11 1 17
-2 13 -5z m0 -30 c-3 -3 -12 -4 -19 -1 -8 3 -5 6 6 6 11 1 17 -2 13 -5z"/>
<path d="M1045 1718 c-16 -49 -8 -68 28 -68 33 0 34 0 28 38 -5 28 -11 38 -29
40 -12 2 -24 -3 -27 -10z m32 -14 c-3 -3 -12 -4 -19 -1 -8 3 -5 6 6 6 11 1 17
-2 13 -5z m3 -24 c0 -5 -8 -10 -17 -10 -15 0 -16 2 -3 10 19 12 20 12 20 0z"/>
<path d="M1832 828 c-7 -7 -12 -27 -12 -45 0 -45 37 -64 75 -39 14 9 25 12 25
7 0 -16 38 -23 59 -12 13 8 22 8 26 1 10 -16 25 -1 25 26 0 33 18 31 22 -3 2
-14 9 -28 16 -31 10 -3 12 6 10 34 -3 37 -5 39 -40 42 -23 2 -38 -1 -38 -8 0
-6 -10 -4 -25 6 -23 15 -25 15 -50 -12 -14 -15 -25 -23 -25 -19 0 4 -8 1 -18
-8 -22 -20 -32 -13 -32 21 0 22 3 24 30 19 17 -4 30 -3 30 1 0 15 -24 32 -45
32 -12 0 -26 -5 -33 -12z m136 -55 c-4 -22 -22 -20 -26 1 -2 10 3 16 13 16 10
0 15 -7 13 -17z"/>
<path d="M2431 826 c-16 -19 -4 -43 25 -50 13 -4 24 -11 24 -16 0 -13 -17 -13
-26 1 -3 6 -15 9 -25 6 -11 -3 -17 -1 -14 3 19 31 -40 55 -65 25 -28 -33 13
-80 50 -57 16 9 26 10 41 1 16 -8 28 -8 45 0 32 14 30 37 -3 56 -16 9 -20 14
-10 11 26 -8 41 3 26 20 -15 18 -53 18 -68 0z"/>
<path d="M3006 808 c-23 -56 -28 -78 -17 -78 5 0 13 5 17 11 4 6 20 8 40 4
l34 -6 -18 47 c-21 59 -38 66 -56 22z"/>
<path d="M2302 818 c-7 -7 -36 -11 -72 -10 l-60 2 0 -35 c0 -36 17 -57 25 -31
15 48 18 52 23 26 7 -43 59 -57 70 -18 l5 22 8 -22 c5 -12 14 -22 22 -22 11 0
15 40 8 93 -1 11 -15 9 -29 -5z"/>
<path d="M2517 818 c-6 -16 3 -78 12 -79 3 0 18 -2 33 -4 23 -3 27 1 30 22 4
37 26 41 30 6 3 -24 7 -28 33 -28 25 1 31 6 36 30 7 30 7 30 8 4 1 -21 17 -39
35 -39 2 0 0 73 -3 93 -2 13 -29 7 -35 -8 -4 -12 -10 -13 -25 -6 -10 6 -21 7
-25 4 -10 -10 -89 -4 -100 8 -13 12 -23 11 -29 -3z m43 -50 c0 -18 -2 -20 -9
-8 -6 8 -7 18 -5 22 9 14 14 9 14 -14z"/>
<path d="M2094 786 c-4 -16 -1 -32 7 -42 14 -18 50 -15 57 5 3 9 -2 11 -17 6
-17 -5 -21 -2 -21 15 0 17 4 20 21 15 15 -5 20 -3 17 6 -3 8 -16 15 -31 17
-21 3 -28 -2 -33 -22z"/>
<path d="M2752 798 c-18 -18 -14 -46 9 -58 26 -14 49 -6 49 17 0 15 2 15 14
-3 10 -12 11 -21 4 -25 -9 -6 20 -29 36 -29 15 0 36 36 36 63 l1 32 13 -30 c8
-19 10 -34 4 -42 -11 -13 3 -25 18 -15 9 6 44 84 44 97 0 15 -30 2 -30 -12 -1
-16 -2 -16 -13 -2 -14 18 -93 24 -113 9 -8 -8 -14 -8 -19 0 -8 14 -38 13 -53
-2z m118 -34 c0 -8 -4 -14 -10 -14 -5 0 -10 9 -10 21 0 11 5 17 10 14 6 -3 10
-13 10 -21z"/>
<path d="M3518 829 c-12 -6 -18 -22 -18 -45 0 -45 36 -66 72 -42 20 13 25 13
36 2 29 -32 76 -6 70 38 -4 32 -62 39 -78 9 -6 -12 -17 -21 -25 -21 -7 0 -15
-5 -17 -12 -7 -20 -28 2 -28 28 0 23 3 25 30 19 31 -7 39 2 18 23 -15 15 -37
15 -60 1z m138 -50 c10 -17 -13 -36 -27 -22 -12 12 -4 33 11 33 5 0 12 -5 16
-11z"/>
<path d="M4111 826 c-16 -19 -3 -45 25 -52 13 -3 24 -10 24 -15 0 -12 -17 -11
-25 1 -9 15 -25 12 -25 -5 0 -20 43 -29 70 -15 16 9 25 9 33 1 6 -6 14 -11 17
-11 8 0 5 88 -3 96 -11 12 -27 -8 -27 -34 0 -15 -4 -22 -8 -16 -4 6 -20 16
-37 22 l-30 12 33 -6 c33 -6 41 3 20 24 -16 16 -53 15 -67 -2z"/>
<path d="M4383 824 c-13 -26 -1 -78 18 -82 13 -2 16 5 14 38 -3 49 -19 71 -32
44z"/>
<path d="M4670 789 l0 -50 43 3 c41 3 42 4 44 43 3 44 -7 55 -54 55 -33 0 -33
0 -33 -51z m57 15 c-3 -3 -12 -4 -19 -1 -8 3 -5 6 6 6 11 1 17 -2 13 -5z m0
-40 c-3 -3 -12 -4 -19 -1 -8 3 -5 6 6 6 11 1 17 -2 13 -5z"/>
<path d="M3982 818 c-7 -7 -36 -11 -72 -10 l-60 2 0 -35 c0 -24 5 -35 15 -35
9 0 15 9 15 25 0 14 5 25 10 25 6 0 10 -9 10 -20 0 -23 32 -43 54 -34 9 3 16
13 16 22 0 13 4 11 16 -6 8 -12 18 -22 23 -22 6 0 7 54 2 93 -1 11 -15 9 -29
-5z"/>
<path d="M3708 813 c-13 -3 -18 -15 -18 -40 0 -40 20 -41 31 -2 7 24 7 24 8
-3 1 -38 31 -38 31 0 0 26 -16 54 -29 51 -4 -1 -14 -3 -23 -6z"/>
<path d="M3785 800 c-9 -10 -15 -27 -13 -37 4 -21 45 -30 62 -12 8 9 6 10 -11
6 -18 -4 -23 -1 -23 15 0 15 5 18 20 13 25 -8 26 11 1 24 -14 8 -22 6 -36 -9z"/>
<path d="M4326 813 c-4 -4 -22 -6 -41 -5 -35 3 -35 2 -35 -39 0 -45 20 -51 30
-9 3 13 11 25 18 28 9 3 11 -3 6 -22 -6 -24 -4 -26 30 -26 33 0 36 3 36 28 0
37 -25 63 -44 45z"/>
<path d="M4435 800 c-25 -28 -11 -60 26 -60 21 0 29 5 29 17 0 15 1 15 13 1 6
-9 21 -18 32 -21 14 -3 11 -5 -10 -6 -23 -1 -27 -3 -15 -11 23 -15 57 -12 64
6 3 9 7 30 7 47 1 22 3 25 6 12 3 -11 10 -26 15 -32 7 -9 7 -18 -2 -28 -10
-12 -9 -15 7 -15 13 0 24 13 36 47 18 48 14 70 -7 41 -10 -14 -14 -14 -22 -2
-12 18 -88 21 -108 5 -9 -8 -16 -9 -16 -3 0 19 -39 20 -55 2z m115 -25 c0 -8
-4 -15 -10 -15 -5 0 -10 7 -10 15 0 8 5 15 10 15 6 0 10 -7 10 -15z"/>
<path d="M4030 795 c-14 -17 -5 -51 16 -59 22 -8 54 11 54 32 0 38 -46 56 -70
27z"/>
<path d="M5192 828 c-7 -7 -12 -26 -12 -43 0 -38 38 -62 71 -45 29 16 23 30
-11 24 -27 -6 -30 -4 -30 19 0 25 25 44 35 27 4 -6 13 -10 21 -10 12 0 12 4 4
20 -12 23 -59 27 -78 8z"/>
<path d="M5665 823 c-5 -10 -7 -22 -6 -28 1 -5 -6 -1 -17 9 -16 14 -25 15 -40
7 -13 -7 -22 -7 -24 -1 -2 6 -14 4 -30 -4 -16 -9 -30 -11 -33 -5 -11 16 -43
10 -58 -11 l-14 -21 -6 21 c-4 15 -13 20 -36 20 -29 0 -31 -3 -31 -35 0 -24 5
-35 15 -35 10 0 15 10 15 27 0 28 10 26 14 -3 3 -20 26 -33 26 -15 0 7 9 6 24
-4 23 -15 56 -12 56 6 0 5 -9 9 -20 9 -12 0 -20 7 -20 16 0 11 5 14 16 10 9
-3 19 -6 24 -6 5 0 10 -10 12 -22 4 -30 22 -25 26 7 4 31 14 32 27 3 14 -32
45 -35 66 -7 l19 24 0 -22 c0 -13 6 -23 14 -23 9 0 13 12 11 41 -3 47 -18 69
-30 42z"/>
<path d="M5797 833 c-17 -17 -5 -45 26 -59 l32 -15 -32 6 c-38 7 -45 -8 -12
-25 16 -9 26 -8 44 4 15 10 26 12 30 6 3 -6 12 -10 19 -10 10 0 13 13 11 46
-2 25 -6 48 -9 51 -10 10 -26 -9 -26 -32 0 -22 -2 -23 -30 -12 -16 6 -30 15
-30 20 0 4 9 3 21 -3 24 -13 34 -8 26 15 -6 15 -57 21 -70 8z"/>
<path d="M6360 826 c-7 -9 -19 -16 -27 -16 -7 0 -18 -10 -23 -22 -9 -23 -9
-23 -9 -2 -1 19 -8 23 -48 26 -32 3 -54 0 -65 -9 -11 -10 -18 -11 -23 -4 -18
31 -72 -2 -60 -38 11 -34 65 -38 65 -4 0 13 3 13 15 3 11 -9 12 -16 5 -25 -8
-9 -6 -14 6 -19 46 -18 64 -2 64 57 l1 32 15 -34 c11 -27 12 -36 2 -42 -9 -6
-8 -10 5 -15 22 -8 22 -8 46 46 14 32 20 39 20 23 2 -44 76 -64 89 -23 3 9 -4
10 -27 5 -29 -6 -31 -5 -31 20 0 25 2 27 31 21 25 -5 30 -3 27 12 -4 23 -60
29 -78 8z m-130 -51 c0 -8 -4 -15 -10 -15 -5 0 -10 7 -10 15 0 8 5 15 10 15 6
0 10 -7 10 -15z"/>
<path d="M6059 818 c-4 -45 11 -88 31 -88 7 0 7 45 1 93 -2 12 -31 8 -32 -5z"/>
<path d="M5720 802 c-26 -21 -23 -45 9 -62 17 -8 25 -6 41 10 24 24 23 38 -7
57 -17 12 -23 11 -43 -5z"/>
<path d="M5292 798 c-17 -17 -15 -32 7 -52 16 -14 23 -15 41 -6 31 17 24 64
-10 68 -14 2 -31 -3 -38 -10z m46 -26 c2 -7 -3 -12 -12 -12 -9 0 -16 7 -16 16
0 17 22 14 28 -4z"/>
<path d="M5930 775 c0 -24 5 -35 15 -35 9 0 15 9 15 25 0 16 6 25 16 25 11 0
14 -6 9 -21 -9 -26 7 -38 41 -31 21 4 25 9 22 36 -3 30 -4 31 -60 33 l-58 3 0
-35z"/>
<path d="M3533 508 c-18 -24 -36 -79 -28 -86 4 -4 10 -1 12 6 6 14 39 16 48 2
3 -5 20 -10 38 -10 48 1 67 -2 67 -12 0 -5 -12 -5 -27 -2 -22 5 -25 4 -17 -6
18 -18 57 -8 70 18 7 15 14 20 18 13 10 -16 37 -13 58 6 18 16 18 16 12 0 -3
-9 -1 -17 4 -17 6 0 12 12 14 27 4 39 28 42 28 4 0 -17 5 -31 10 -31 17 0 12
70 -5 71 -8 1 -21 2 -27 3 -7 1 -18 -5 -25 -14 -7 -9 -12 -10 -13 -4 0 18 -29
25 -50 14 -12 -6 -21 -6 -25 -1 -5 9 -49 6 -66 -4 -4 -3 -9 5 -12 16 -9 34
-27 11 -28 -34 l0 -42 -15 40 c-18 49 -28 60 -41 43z m17 -33 c0 -8 -4 -15
-10 -15 -5 0 -7 7 -4 15 4 8 8 15 10 15 2 0 4 -7 4 -15z m124 -4 c8 -12 -3
-41 -15 -41 -5 0 -9 11 -9 25 0 25 14 34 24 16z m81 -16 c0 -10 -6 -20 -12
-22 -8 -3 -13 5 -13 22 0 17 5 25 13 23 6 -3 12 -13 12 -23z"/>
<path d="M3830 510 c0 -5 5 -10 10 -10 6 0 10 5 10 10 0 6 -4 10 -10 10 -5 0
-10 -4 -10 -10z"/>
<path d="M3865 507 c-9 -22 -2 -80 10 -84 6 -2 10 16 9 42 -1 48 -10 68 -19
42z"/>
<path d="M3900 470 c0 -27 5 -50 10 -50 6 0 10 14 10 30 0 38 18 40 22 3 2
-22 9 -28 31 -30 24 -2 27 2 27 28 0 16 5 29 10 29 6 0 10 -13 10 -30 0 -16 5
-30 10 -30 6 0 10 14 10 30 0 17 5 30 10 30 6 0 10 -13 10 -30 0 -16 5 -30 10
-30 15 0 12 70 -2 71 -44 4 -56 3 -80 -3 -16 -4 -30 -2 -34 3 -3 6 -12 8 -20
5 -8 -3 -14 1 -14 9 0 8 -4 15 -10 15 -5 0 -10 -22 -10 -50z"/>
<path d="M4096 513 c-3 -3 -6 -26 -6 -50 0 -32 4 -43 15 -43 11 0 15 12 15 44
0 43 -10 63 -24 49z"/>
<path d="M4380 510 c0 -5 -11 -12 -25 -16 -21 -5 -25 -12 -25 -40 0 -19 5 -34
10 -34 6 0 10 14 10 30 0 20 5 30 15 30 10 0 15 -10 15 -30 0 -38 20 -40 21
-2 0 15 2 37 3 50 2 13 -3 22 -11 22 -7 0 -13 -4 -13 -10z"/>
<path d="M4650 501 c-14 -28 -12 -74 4 -97 13 -17 14 -13 9 37 -4 39 -2 59 7
64 26 16 41 -56 20 -96 -8 -13 -7 -19 0 -19 6 0 17 15 26 33 15 31 15 36 0 65
-19 36 -50 42 -66 13z"/>
<path d="M4219 498 c-2 -26 3 -73 9 -83 8 -11 20 63 14 83 -2 6 -8 12 -13 12
-5 0 -9 -6 -10 -12z"/>
<path d="M4148 493 c-13 -3 -18 -15 -18 -39 0 -40 17 -46 22 -7 4 39 28 42 28
4 0 -17 5 -31 10 -31 14 0 12 54 -2 68 -7 7 -14 11 -17 11 -4 -1 -14 -3 -23
-6z"/>
<path d="M4265 487 c-21 -16 -17 -56 7 -71 14 -8 22 -7 35 7 17 18 17 18 -9
12 -18 -5 -28 -3 -28 4 0 6 11 11 25 11 30 0 34 25 6 39 -13 7 -23 6 -36 -2z
m35 -17 c0 -5 -7 -10 -15 -10 -8 0 -15 5 -15 10 0 6 7 10 15 10 8 0 15 -4 15
-10z"/>
<path d="M4424 488 c-5 -7 -9 -24 -9 -38 0 -21 5 -26 33 -28 29 -3 32 -1 32
25 0 45 -36 70 -56 41z m31 -48 c-3 -5 -10 -10 -16 -10 -5 0 -9 5 -9 10 0 6 7
10 16 10 8 0 12 -4 9 -10z"/>
<path d="M4500 486 c-20 -26 -8 -61 23 -64 20 -3 27 1 27 14 0 14 -3 15 -12 6
-19 -19 -28 -14 -28 13 0 25 14 33 25 15 4 -6 11 -8 16 -5 5 4 9 -3 9 -14 0
-29 32 -44 56 -25 18 13 17 14 -8 8 -18 -4 -28 -2 -28 5 0 6 11 11 25 11 28 0
33 21 9 41 -13 10 -19 10 -36 0 -15 -9 -23 -10 -31 -2 -15 15 -32 14 -47 -3z
m107 -12 c-3 -3 -12 -4 -19 -1 -8 3 -5 6 6 6 11 1 17 -2 13 -5z"/>
<path d="M5195 474 c-9 -25 -14 -48 -10 -52 4 -4 10 -1 12 6 3 6 15 12 28 12
13 0 25 -6 28 -12 2 -7 8 -10 12 -6 11 11 -24 98 -39 98 -8 0 -21 -21 -31 -46z
m35 1 c0 -8 -4 -15 -10 -15 -5 0 -7 7 -4 15 4 8 8 15 10 15 2 0 4 -7 4 -15z"/>
<path d="M5280 470 c0 -27 5 -50 10 -50 6 0 10 23 10 50 0 28 -4 50 -10 50 -5
0 -10 -22 -10 -50z"/>
<path d="M5515 510 c-3 -5 -1 -10 4 -10 6 0 11 5 11 10 0 6 -2 10 -4 10 -3 0
-8 -4 -11 -10z"/>
<path d="M5579 473 c-2 -32 -3 -38 -6 -18 -2 17 -6 37 -9 45 -9 26 -20 -7 -16
-45 3 -29 8 -35 28 -35 20 0 24 5 24 30 0 40 16 38 24 -2 4 -23 9 -29 17 -21
17 17 6 57 -18 68 -13 5 -23 13 -23 17 0 5 -4 8 -10 8 -5 0 -11 -21 -11 -47z"/>
<path d="M5780 470 c0 -27 5 -50 10 -50 6 0 10 23 10 50 0 28 -4 50 -10 50 -5
0 -10 -22 -10 -50z"/>
<path d="M5898 508 c-3 -7 -3 -30 0 -50 6 -52 27 -49 25 3 -1 43 -16 71 -25
47z"/>
<path d="M6043 501 c-27 -13 -33 -22 -33 -48 0 -40 17 -44 22 -6 4 39 28 42
28 4 0 -38 20 -41 21 -3 0 15 2 37 3 50 3 25 3 25 -41 3z"/>
<path d="M6331 493 c-12 -26 -14 -26 -25 -10 -15 19 -37 22 -53 6 -8 -8 -16
-7 -31 2 -28 17 -54 -4 -50 -40 2 -20 9 -26 27 -26 13 0 26 5 28 12 3 7 -3 9
-16 6 -16 -4 -21 -1 -21 16 0 22 14 28 25 11 4 -6 10 -8 15 -5 5 3 10 -5 12
-17 5 -34 55 -38 67 -6 7 15 10 18 10 7 1 -9 9 -27 19 -38 17 -22 17 -20 17
43 0 36 -3 66 -6 66 -3 0 -11 -12 -18 -27z m-44 -19 c-3 -3 -12 -4 -19 -1 -8
3 -5 6 6 6 11 1 17 -2 13 -5z m3 -34 c-19 -13 -30 -13 -30 0 0 6 10 10 23 10
18 0 19 -2 7 -10z"/>
<path d="M6375 454 c0 -54 2 -62 13 -47 19 27 19 79 -1 100 -9 9 -12 -3 -12
-53z"/>
<path d="M5322 488 c-18 -18 -15 -55 6 -67 16 -10 16 -10 -1 -11 -10 0 -15 -4
-12 -10 3 -5 17 -10 30 -10 18 0 26 7 31 25 6 23 7 23 29 9 20 -13 24 -13 39
1 21 22 20 38 -4 60 -19 17 -21 17 -39 1 -10 -10 -21 -13 -22 -8 -7 16 -44 23
-57 10z m33 -33 c0 -10 -6 -20 -12 -22 -8 -3 -13 5 -13 22 0 17 5 25 13 23 6
-3 12 -13 12 -23z m80 0 c0 -10 -6 -20 -12 -22 -8 -3 -13 5 -13 22 0 17 5 25
13 23 6 -3 12 -13 12 -23z"/>
<path d="M5660 458 c0 -21 5 -38 10 -38 6 0 10 14 10 30 0 17 5 30 10 30 6 0
10 -13 10 -30 0 -16 5 -30 10 -30 6 0 10 14 10 30 0 17 5 30 10 30 6 0 10 -13
10 -30 0 -20 5 -30 15 -30 19 0 21 55 3 67 -7 4 -32 8 -55 9 l-43 0 0 -38z"/>
<path d="M5820 458 c0 -24 4 -37 10 -33 6 3 10 17 10 31 0 13 5 24 10 24 6 0
10 -13 10 -30 0 -16 5 -30 11 -30 6 0 9 16 7 38 -3 33 -6 37 -30 38 -26 1 -28
-2 -28 -38z"/>
<path d="M5942 488 c-34 -34 6 -92 44 -62 18 13 17 14 -8 8 -18 -4 -28 -2 -28
5 0 6 11 11 25 11 14 0 25 6 25 13 0 16 -20 37 -35 37 -6 0 -16 -5 -23 -12z
m38 -18 c0 -5 -7 -10 -15 -10 -8 0 -15 5 -15 10 0 6 7 10 15 10 8 0 15 -4 15
-10z"/>
<path d="M6104 488 c-13 -21 -13 -57 -1 -65 7 -4 22 -8 35 -8 18 -1 22 4 22
30 0 46 -37 74 -56 43z m31 -18 c-3 -5 -11 -10 -16 -10 -6 0 -7 5 -4 10 3 6
11 10 16 10 6 0 7 -4 4 -10z m0 -30 c-3 -5 -11 -10 -16 -10 -6 0 -7 5 -4 10 3
6 11 10 16 10 6 0 7 -4 4 -10z"/>
<path d="M5471 453 l1 -38 10 33 c14 40 28 42 28 2 0 -16 5 -30 10 -30 6 0 10
16 10 35 0 32 -2 35 -30 35 -28 0 -30 -2 -29 -37z"/>
<path d="M1853 508 c-18 -24 -36 -79 -28 -86 4 -4 10 -1 12 6 6 14 39 16 48 2
3 -5 20 -10 38 -10 47 1 67 -2 62 -11 -3 -4 -15 -5 -28 -2 -17 4 -19 3 -11 -6
7 -7 22 -11 35 -9 21 3 24 9 27 49 3 41 0 47 -19 52 -13 4 -28 2 -35 -4 -8 -7
-13 -3 -17 12 -9 32 -27 13 -28 -29 l0 -37 -19 43 c-21 46 -23 48 -37 30z m17
-33 c0 -8 -4 -15 -10 -15 -5 0 -7 7 -4 15 4 8 8 15 10 15 2 0 4 -7 4 -15z
m120 -20 c0 -26 -14 -33 -25 -15 -9 14 1 40 15 40 5 0 10 -11 10 -25z"/>
<path d="M2150 510 c0 -5 5 -10 11 -10 5 0 7 5 4 10 -3 6 -8 10 -11 10 -2 0
-4 -4 -4 -10z"/>
<path d="M2220 473 c0 -29 5 -53 10 -53 6 0 10 11 10 24 0 38 18 41 22 4 2
-27 7 -33 28 -33 19 0 26 6 28 25 6 43 22 47 22 6 0 -22 4 -35 10 -31 6 3 10
19 10 36 0 16 5 29 10 29 6 0 10 -13 10 -30 0 -16 5 -30 10 -30 13 0 13 57 0
65 -9 5 -50 7 -100 3 -25 -1 -44 6 -57 22 -10 12 -12 5 -13 -37z"/>
<path d="M2417 514 c-4 -4 -7 -27 -7 -51 0 -56 24 -54 28 2 3 37 -8 62 -21 49z"/>
<path d="M2700 510 c0 -5 -11 -12 -25 -16 -21 -5 -25 -12 -25 -40 0 -40 17
-46 22 -7 4 39 28 42 28 4 0 -17 4 -31 9 -31 10 0 18 55 13 83 -4 18 -22 24
-22 7z"/>
<path d="M2970 501 c-14 -27 -13 -74 3 -94 10 -15 12 -7 12 48 0 36 -1 65 -2
65 -1 0 -7 -9 -13 -19z"/>
<path d="M2180 500 c0 -5 -17 -9 -37 -8 -21 1 -39 -4 -41 -11 -3 -9 -9 -8 -22
4 -25 22 -60 4 -60 -30 0 -42 69 -58 71 -16 0 10 4 7 12 -9 l11 -25 4 32 c4
42 32 53 32 13 0 -41 20 -38 21 3 l2 32 6 -34 c3 -19 11 -36 17 -38 9 -3 10
15 5 90 -1 11 -21 9 -21 -3z m-108 -32 c7 -19 -2 -38 -18 -38 -8 0 -14 8 -14
18 0 30 23 44 32 20z"/>
<path d="M2527 503 c-2 -5 -2 -25 0 -45 7 -50 29 -50 26 -1 -2 54 -2 53 -12
53 -6 0 -12 -3 -14 -7z"/>
<path d="M3011 486 c9 -19 9 -35 2 -61 -14 -43 0 -46 17 -4 14 34 5 79 -18 87
-10 3 -10 -2 -1 -22z"/>
<path d="M2468 493 c-13 -3 -18 -15 -18 -39 0 -19 5 -34 10 -34 6 0 10 14 10
31 0 39 23 34 31 -7 5 -24 7 -26 14 -11 4 10 3 29 -3 43 -12 24 -14 25 -44 17z"/>
<path d="M2576 484 c-38 -37 9 -91 51 -58 17 13 16 14 -9 8 -18 -4 -28 -2 -28
5 0 6 11 11 25 11 27 0 33 18 13 38 -16 16 -33 15 -52 -4z"/>
<path d="M2744 488 c-11 -17 -15 -68 -6 -69 60 -6 62 -6 62 28 0 22 -6 36 -19
43 -25 13 -28 13 -37 -2z m36 -12 c0 -2 -7 -6 -15 -10 -8 -3 -15 -1 -15 4 0 6
7 10 15 10 8 0 15 -2 15 -4z m-5 -36 c-3 -5 -10 -10 -16 -10 -5 0 -9 5 -9 10
0 6 7 10 16 10 8 0 12 -4 9 -10z"/>
<path d="M2822 488 c-17 -17 -15 -65 3 -72 21 -8 45 3 45 22 0 12 -3 13 -12 4
-19 -19 -28 -14 -28 13 0 27 9 32 28 13 9 -9 12 -8 12 4 0 9 -7 19 -16 22 -20
8 -18 8 -32 -6z"/>
<path d="M2897 489 c-40 -23 -8 -91 32 -69 28 15 26 22 -4 14 -15 -4 -25 -2
-25 5 0 6 11 11 25 11 29 0 32 11 7 33 -12 11 -22 13 -35 6z m28 -19 c3 -5 -1
-10 -9 -10 -9 0 -16 5 -16 10 0 6 4 10 9 10 6 0 13 -4 16 -10z"/>
<path d="M1840 2120 c0 -49 1 -50 30 -50 27 0 30 3 30 30 0 17 5 30 10 30 6 0
10 5 10 10 0 6 -9 10 -20 10 -16 0 -20 -7 -20 -36 0 -23 -4 -33 -11 -28 -6 3
-9 18 -6 32 6 29 -1 52 -14 52 -5 0 -9 -22 -9 -50z"/>
<path d="M2007 2164 c-13 -13 -7 -81 8 -94 17 -14 18 -11 15 45 -2 41 -11 61
-23 49z"/>
<path d="M1774 2139 c-4 -7 2 -20 17 -32 24 -19 24 -20 2 -13 -17 5 -23 3 -23
-7 0 -18 24 -29 45 -21 23 9 18 43 -7 55 l-23 10 23 -5 c15 -3 22 0 19 7 -5
17 -44 21 -53 6z"/>
<path d="M1937 2143 c-14 -13 -6 -21 16 -17 22 5 22 4 1 -5 -47 -21 -38 -58
13 -55 26 1 28 4 25 35 -2 19 -6 37 -9 42 -5 9 -37 9 -46 0z m33 -47 c0 -11
-19 -15 -25 -6 -3 5 1 10 9 10 9 0 16 -2 16 -4z"/>
<path d="M2050 2135 c-15 -18 -6 -61 15 -69 24 -9 45 4 45 28 1 20 1 20 15 -4
7 -14 9 -27 4 -28 -17 -6 2 -22 26 -22 26 0 35 17 35 69 0 31 -4 37 -22 38
-12 1 -30 -5 -39 -13 -15 -13 -17 -13 -22 1 -8 19 -41 20 -57 0z m37 -11 c-3
-3 -12 -4 -19 -1 -8 3 -5 6 6 6 11 1 17 -2 13 -5z m81 -16 c-2 -13 -7 -23 -13
-23 -5 0 -11 10 -13 23 -2 15 2 22 13 22 11 0 15 -7 13 -22z m-76 -20 c-9 -9
-15 -9 -24 0 -9 9 -7 12 12 12 19 0 21 -3 12 -12z"/>
<path d="M2200 2136 c0 -8 5 -27 11 -43 7 -19 7 -29 0 -31 -16 -5 -13 -22 3
-22 7 0 21 19 30 43 22 58 20 78 -4 47 -15 -20 -20 -21 -20 -8 0 9 -4 20 -10
23 -5 3 -10 -1 -10 -9z"/>
</g>
</svg>
