<?xml version="1.0" encoding="us-ascii" standalone="no"?><svg xmlns="http://www.w3.org/2000/svg" xmlns:xlink="http://www.w3.org/1999/xlink" contentStyleType="text/css" height="359px" preserveAspectRatio="none" style="width:1087px;height:359px;background:#FFFFFF;" version="1.1" viewBox="0 0 1087 359" width="1087px" zoomAndPan="magnify"><defs/><g><!--class PaymentStrategy--><g id="elem_PaymentStrategy"><rect codeLine="1" fill="#F1F1F1" height="64.2969" id="PaymentStrategy" rx="2.5" ry="2.5" style="stroke:#181818;stroke-width:0.5;" width="195" x="416" y="164"/><ellipse cx="449.45" cy="180" fill="#B4A7E5" rx="11" ry="11" style="stroke:#181818;stroke-width:1.0;"/><path d="M450.4031,176.7813 L452.1219,176.7813 C452.5125,176.7813 452.7,176.75 452.825,176.6719 C453.0906,176.5156 453.2313,176.2344 453.2313,175.9375 C453.2313,175.6719 453.1219,175.4063 452.8875,175.2344 C452.7156,175.125 452.575,175.0938 452.1219,175.0938 L446.9813,175.0938 C446.5438,175.0938 446.4188,175.1094 446.2625,175.2031 C446.0125,175.3594 445.8563,175.6563 445.8563,175.9375 C445.8563,176.2188 445.9969,176.4688 446.2156,176.6406 C446.3719,176.75 446.5594,176.7813 446.9813,176.7813 L448.7,176.7813 L448.7,183.2969 L446.9813,183.2969 C446.5438,183.2969 446.4188,183.3125 446.2625,183.4219 C446.0125,183.5781 445.8563,183.8594 445.8563,184.1563 C445.8563,184.4063 445.9969,184.6719 446.2156,184.8281 C446.3719,184.9531 446.575,185 446.9813,185 L452.1219,185 C452.8719,185 453.2313,184.7188 453.2313,184.1563 C453.2313,183.875 453.1219,183.625 452.8875,183.4531 C452.7156,183.3281 452.575,183.2969 452.1219,183.2969 L450.4031,183.2969 L450.4031,176.7813 Z " fill="#000000"/><text fill="#000000" font-family="sans-serif" font-size="14" font-style="italic" lengthAdjust="spacing" textLength="122" x="467.55" y="184.8467">PaymentStrategy</text><line style="stroke:#181818;stroke-width:0.5;" x1="417" x2="610" y1="196" y2="196"/><line style="stroke:#181818;stroke-width:0.5;" x1="417" x2="610" y1="204" y2="204"/><ellipse cx="427" cy="217.6484" fill="#84BE84" rx="3" ry="3" style="stroke:#038048;stroke-width:1.0;"/><text fill="#000000" font-family="sans-serif" font-size="14" lengthAdjust="spacing" textLength="169" x="436" y="220.9951">processPayment(): void</text></g><!--class CreditCardPaymentStrategy--><g id="elem_CreditCardPaymentStrategy"><rect codeLine="5" fill="#F1F1F1" height="64.2969" id="CreditCardPaymentStrategy" rx="2.5" ry="2.5" style="stroke:#181818;stroke-width:0.5;" width="237" x="7" y="288"/><ellipse cx="22" cy="304" fill="#ADD1B2" rx="11" ry="11" style="stroke:#181818;stroke-width:1.0;"/><path d="M24.3438,299.6719 C23.4063,299.2344 22.8125,299.0938 21.9375,299.0938 C19.3125,299.0938 17.3125,301.1719 17.3125,303.8906 L17.3125,305.0156 C17.3125,307.5938 19.4219,309.4844 22.3125,309.4844 C23.5313,309.4844 24.6875,309.1875 25.4375,308.6406 C26.0156,308.2344 26.3438,307.7813 26.3438,307.3906 C26.3438,306.9375 25.9531,306.5469 25.4844,306.5469 C25.2656,306.5469 25.0625,306.625 24.875,306.8125 C24.4219,307.2969 24.4219,307.2969 24.2344,307.3906 C23.8125,307.6563 23.125,307.7813 22.3594,307.7813 C20.3125,307.7813 19.0156,306.6875 19.0156,304.9844 L19.0156,303.8906 C19.0156,302.1094 20.2656,300.7969 22,300.7969 C22.5781,300.7969 23.1875,300.9531 23.6563,301.2031 C24.1406,301.4844 24.3125,301.7031 24.4063,302.1094 C24.4688,302.5156 24.5,302.6406 24.6406,302.7656 C24.7813,302.9063 25.0156,303.0156 25.2344,303.0156 C25.5,303.0156 25.7656,302.875 25.9375,302.6563 C26.0469,302.5 26.0781,302.3125 26.0781,301.8906 L26.0781,300.4688 C26.0781,300.0313 26.0625,299.9063 25.9688,299.75 C25.8125,299.4844 25.5313,299.3438 25.2344,299.3438 C24.9375,299.3438 24.7344,299.4375 24.5156,299.75 L24.3438,299.6719 Z " fill="#000000"/><text fill="#000000" font-family="sans-serif" font-size="14" lengthAdjust="spacing" textLength="205" x="36" y="308.8467">CreditCardPaymentStrategy</text><line style="stroke:#181818;stroke-width:0.5;" x1="8" x2="243" y1="320" y2="320"/><line style="stroke:#181818;stroke-width:0.5;" x1="8" x2="243" y1="328" y2="328"/><ellipse cx="18" cy="341.6484" fill="#84BE84" rx="3" ry="3" style="stroke:#038048;stroke-width:1.0;"/><text fill="#000000" font-family="sans-serif" font-size="14" lengthAdjust="spacing" textLength="169" x="27" y="344.9951">processPayment(): void</text></g><!--class PayPalPaymentStrategy--><g id="elem_PayPalPaymentStrategy"><rect codeLine="9" fill="#F1F1F1" height="64.2969" id="PayPalPaymentStrategy" rx="2.5" ry="2.5" style="stroke:#181818;stroke-width:0.5;" width="205" x="279" y="288"/><ellipse cx="294" cy="304" fill="#ADD1B2" rx="11" ry="11" style="stroke:#181818;stroke-width:1.0;"/><path d="M296.3438,299.6719 C295.4063,299.2344 294.8125,299.0938 293.9375,299.0938 C291.3125,299.0938 289.3125,301.1719 289.3125,303.8906 L289.3125,305.0156 C289.3125,307.5938 291.4219,309.4844 294.3125,309.4844 C295.5313,309.4844 296.6875,309.1875 297.4375,308.6406 C298.0156,308.2344 298.3438,307.7813 298.3438,307.3906 C298.3438,306.9375 297.9531,306.5469 297.4844,306.5469 C297.2656,306.5469 297.0625,306.625 296.875,306.8125 C296.4219,307.2969 296.4219,307.2969 296.2344,307.3906 C295.8125,307.6563 295.125,307.7813 294.3594,307.7813 C292.3125,307.7813 291.0156,306.6875 291.0156,304.9844 L291.0156,303.8906 C291.0156,302.1094 292.2656,300.7969 294,300.7969 C294.5781,300.7969 295.1875,300.9531 295.6563,301.2031 C296.1406,301.4844 296.3125,301.7031 296.4063,302.1094 C296.4688,302.5156 296.5,302.6406 296.6406,302.7656 C296.7813,302.9063 297.0156,303.0156 297.2344,303.0156 C297.5,303.0156 297.7656,302.875 297.9375,302.6563 C298.0469,302.5 298.0781,302.3125 298.0781,301.8906 L298.0781,300.4688 C298.0781,300.0313 298.0625,299.9063 297.9688,299.75 C297.8125,299.4844 297.5313,299.3438 297.2344,299.3438 C296.9375,299.3438 296.7344,299.4375 296.5156,299.75 L296.3438,299.6719 Z " fill="#000000"/><text fill="#000000" font-family="sans-serif" font-size="14" lengthAdjust="spacing" textLength="173" x="308" y="308.8467">PayPalPaymentStrategy</text><line style="stroke:#181818;stroke-width:0.5;" x1="280" x2="483" y1="320" y2="320"/><line style="stroke:#181818;stroke-width:0.5;" x1="280" x2="483" y1="328" y2="328"/><ellipse cx="290" cy="341.6484" fill="#84BE84" rx="3" ry="3" style="stroke:#038048;stroke-width:1.0;"/><text fill="#000000" font-family="sans-serif" font-size="14" lengthAdjust="spacing" textLength="169" x="299" y="344.9951">processPayment(): void</text></g><!--class BankTransferPaymentStrategy--><g id="elem_BankTransferPaymentStrategy"><rect codeLine="13" fill="#F1F1F1" height="64.2969" id="BankTransferPaymentStrategy" rx="2.5" ry="2.5" style="stroke:#181818;stroke-width:0.5;" width="255" x="519" y="288"/><ellipse cx="534" cy="304" fill="#ADD1B2" rx="11" ry="11" style="stroke:#181818;stroke-width:1.0;"/><path d="M536.3438,299.6719 C535.4063,299.2344 534.8125,299.0938 533.9375,299.0938 C531.3125,299.0938 529.3125,301.1719 529.3125,303.8906 L529.3125,305.0156 C529.3125,307.5938 531.4219,309.4844 534.3125,309.4844 C535.5313,309.4844 536.6875,309.1875 537.4375,308.6406 C538.0156,308.2344 538.3438,307.7813 538.3438,307.3906 C538.3438,306.9375 537.9531,306.5469 537.4844,306.5469 C537.2656,306.5469 537.0625,306.625 536.875,306.8125 C536.4219,307.2969 536.4219,307.2969 536.2344,307.3906 C535.8125,307.6563 535.125,307.7813 534.3594,307.7813 C532.3125,307.7813 531.0156,306.6875 531.0156,304.9844 L531.0156,303.8906 C531.0156,302.1094 532.2656,300.7969 534,300.7969 C534.5781,300.7969 535.1875,300.9531 535.6563,301.2031 C536.1406,301.4844 536.3125,301.7031 536.4063,302.1094 C536.4688,302.5156 536.5,302.6406 536.6406,302.7656 C536.7813,302.9063 537.0156,303.0156 537.2344,303.0156 C537.5,303.0156 537.7656,302.875 537.9375,302.6563 C538.0469,302.5 538.0781,302.3125 538.0781,301.8906 L538.0781,300.4688 C538.0781,300.0313 538.0625,299.9063 537.9688,299.75 C537.8125,299.4844 537.5313,299.3438 537.2344,299.3438 C536.9375,299.3438 536.7344,299.4375 536.5156,299.75 L536.3438,299.6719 Z " fill="#000000"/><text fill="#000000" font-family="sans-serif" font-size="14" lengthAdjust="spacing" textLength="223" x="548" y="308.8467">BankTransferPaymentStrategy</text><line style="stroke:#181818;stroke-width:0.5;" x1="520" x2="773" y1="320" y2="320"/><line style="stroke:#181818;stroke-width:0.5;" x1="520" x2="773" y1="328" y2="328"/><ellipse cx="530" cy="341.6484" fill="#84BE84" rx="3" ry="3" style="stroke:#038048;stroke-width:1.0;"/><text fill="#000000" font-family="sans-serif" font-size="14" lengthAdjust="spacing" textLength="169" x="539" y="344.9951">processPayment(): void</text></g><!--class CryptocurrencyPaymentStrategy--><g id="elem_CryptocurrencyPaymentStrategy"><rect codeLine="17" fill="#F1F1F1" height="64.2969" id="CryptocurrencyPaymentStrategy" rx="2.5" ry="2.5" style="stroke:#181818;stroke-width:0.5;" width="271" x="809" y="288"/><ellipse cx="824" cy="304" fill="#ADD1B2" rx="11" ry="11" style="stroke:#181818;stroke-width:1.0;"/><path d="M826.3438,299.6719 C825.4063,299.2344 824.8125,299.0938 823.9375,299.0938 C821.3125,299.0938 819.3125,301.1719 819.3125,303.8906 L819.3125,305.0156 C819.3125,307.5938 821.4219,309.4844 824.3125,309.4844 C825.5313,309.4844 826.6875,309.1875 827.4375,308.6406 C828.0156,308.2344 828.3438,307.7813 828.3438,307.3906 C828.3438,306.9375 827.9531,306.5469 827.4844,306.5469 C827.2656,306.5469 827.0625,306.625 826.875,306.8125 C826.4219,307.2969 826.4219,307.2969 826.2344,307.3906 C825.8125,307.6563 825.125,307.7813 824.3594,307.7813 C822.3125,307.7813 821.0156,306.6875 821.0156,304.9844 L821.0156,303.8906 C821.0156,302.1094 822.2656,300.7969 824,300.7969 C824.5781,300.7969 825.1875,300.9531 825.6563,301.2031 C826.1406,301.4844 826.3125,301.7031 826.4063,302.1094 C826.4688,302.5156 826.5,302.6406 826.6406,302.7656 C826.7813,302.9063 827.0156,303.0156 827.2344,303.0156 C827.5,303.0156 827.7656,302.875 827.9375,302.6563 C828.0469,302.5 828.0781,302.3125 828.0781,301.8906 L828.0781,300.4688 C828.0781,300.0313 828.0625,299.9063 827.9688,299.75 C827.8125,299.4844 827.5313,299.3438 827.2344,299.3438 C826.9375,299.3438 826.7344,299.4375 826.5156,299.75 L826.3438,299.6719 Z " fill="#000000"/><text fill="#000000" font-family="sans-serif" font-size="14" lengthAdjust="spacing" textLength="239" x="838" y="308.8467">CryptocurrencyPaymentStrategy</text><line style="stroke:#181818;stroke-width:0.5;" x1="810" x2="1079" y1="320" y2="320"/><line style="stroke:#181818;stroke-width:0.5;" x1="810" x2="1079" y1="328" y2="328"/><ellipse cx="820" cy="341.6484" fill="#84BE84" rx="3" ry="3" style="stroke:#038048;stroke-width:1.0;"/><text fill="#000000" font-family="sans-serif" font-size="14" lengthAdjust="spacing" textLength="169" x="829" y="344.9951">processPayment(): void</text></g><!--class PaymentProcessor--><g id="elem_PaymentProcessor"><rect codeLine="21" fill="#F1F1F1" height="96.8906" id="PaymentProcessor" rx="2.5" ry="2.5" style="stroke:#181818;stroke-width:0.5;" width="422" x="302.5" y="7"/><ellipse cx="442.25" cy="23" fill="#ADD1B2" rx="11" ry="11" style="stroke:#181818;stroke-width:1.0;"/><path d="M444.5938,18.6719 C443.6563,18.2344 443.0625,18.0938 442.1875,18.0938 C439.5625,18.0938 437.5625,20.1719 437.5625,22.8906 L437.5625,24.0156 C437.5625,26.5938 439.6719,28.4844 442.5625,28.4844 C443.7813,28.4844 444.9375,28.1875 445.6875,27.6406 C446.2656,27.2344 446.5938,26.7813 446.5938,26.3906 C446.5938,25.9375 446.2031,25.5469 445.7344,25.5469 C445.5156,25.5469 445.3125,25.625 445.125,25.8125 C444.6719,26.2969 444.6719,26.2969 444.4844,26.3906 C444.0625,26.6563 443.375,26.7813 442.6094,26.7813 C440.5625,26.7813 439.2656,25.6875 439.2656,23.9844 L439.2656,22.8906 C439.2656,21.1094 440.5156,19.7969 442.25,19.7969 C442.8281,19.7969 443.4375,19.9531 443.9063,20.2031 C444.3906,20.4844 444.5625,20.7031 444.6563,21.1094 C444.7188,21.5156 444.75,21.6406 444.8906,21.7656 C445.0313,21.9063 445.2656,22.0156 445.4844,22.0156 C445.75,22.0156 446.0156,21.875 446.1875,21.6563 C446.2969,21.5 446.3281,21.3125 446.3281,20.8906 L446.3281,19.4688 C446.3281,19.0313 446.3125,18.9063 446.2188,18.75 C446.0625,18.4844 445.7813,18.3438 445.4844,18.3438 C445.1875,18.3438 444.9844,18.4375 444.7656,18.75 L444.5938,18.6719 Z " fill="#000000"/><text fill="#000000" font-family="sans-serif" font-size="14" lengthAdjust="spacing" textLength="134" x="462.75" y="27.8467">PaymentProcessor</text><line style="stroke:#181818;stroke-width:0.5;" x1="303.5" x2="723.5" y1="39" y2="39"/><rect fill="none" height="6" style="stroke:#C82930;stroke-width:1.0;" width="6" x="310.5" y="49.6484"/><text fill="#000000" font-family="sans-serif" font-size="14" lengthAdjust="spacing" textLength="197" x="322.5" y="55.9951">strategy: PaymentStrategy</text><line style="stroke:#181818;stroke-width:0.5;" x1="303.5" x2="723.5" y1="63.2969" y2="63.2969"/><ellipse cx="313.5" cy="76.9453" fill="#84BE84" rx="3" ry="3" style="stroke:#038048;stroke-width:1.0;"/><text fill="#000000" font-family="sans-serif" font-size="14" lengthAdjust="spacing" textLength="396" x="322.5" y="80.292">setPaymentStrategy(strategy: PaymentStrategy): void</text><ellipse cx="313.5" cy="93.2422" fill="#84BE84" rx="3" ry="3" style="stroke:#038048;stroke-width:1.0;"/><text fill="#000000" font-family="sans-serif" font-size="14" lengthAdjust="spacing" textLength="169" x="322.5" y="96.5889">processPayment(): void</text></g><!--reverse link PaymentStrategy to CreditCardPaymentStrategy--><g id="link_PaymentStrategy_CreditCardPaymentStrategy"><path codeLine="27" d="M398.6708,233.1061 C340.0788,251.5291 282.946,269.4937 224.175,287.9734 " fill="none" id="PaymentStrategy-backto-CreditCardPaymentStrategy" style="stroke:#181818;stroke-width:1.0;stroke-dasharray:7.0,7.0;"/><polygon fill="none" points="415.842,227.707,396.8711,227.3824,400.4705,238.8298,415.842,227.707" style="stroke:#181818;stroke-width:1.0;"/></g><!--reverse link PaymentStrategy to PayPalPaymentStrategy--><g id="link_PaymentStrategy_PayPalPaymentStrategy"><path codeLine="28" d="M466.6307,240.3189 C446.7717,258.6749 434.938,269.6101 415.089,287.9554 " fill="none" id="PaymentStrategy-backto-PayPalPaymentStrategy" style="stroke:#181818;stroke-width:1.0;stroke-dasharray:7.0,7.0;"/><polygon fill="none" points="479.849,228.101,462.5581,235.9128,470.7033,244.725,479.849,228.101" style="stroke:#181818;stroke-width:1.0;"/></g><!--reverse link PaymentStrategy to BankTransferPaymentStrategy--><g id="link_PaymentStrategy_BankTransferPaymentStrategy"><path codeLine="29" d="M560.6703,240.2689 C580.6803,258.6249 592.657,269.6101 612.656,287.9554 " fill="none" id="PaymentStrategy-backto-BankTransferPaymentStrategy" style="stroke:#181818;stroke-width:1.0;stroke-dasharray:7.0,7.0;"/><polygon fill="none" points="547.406,228.101,556.6143,244.6903,564.7263,235.8475,547.406,228.101" style="stroke:#181818;stroke-width:1.0;"/></g><!--reverse link PaymentStrategy to CryptocurrencyPaymentStrategy--><g id="link_PaymentStrategy_CryptocurrencyPaymentStrategy"><path codeLine="30" d="M628.3505,229.5095 C694.9015,248.3475 765.828,268.4247 834.824,287.9548 " fill="none" id="PaymentStrategy-backto-CryptocurrencyPaymentStrategy" style="stroke:#181818;stroke-width:1.0;stroke-dasharray:7.0,7.0;"/><polygon fill="none" points="611.031,224.607,626.7164,235.2827,629.9847,223.7363,611.031,224.607" style="stroke:#181818;stroke-width:1.0;"/></g><!--link PaymentProcessor to PaymentStrategy--><g id="link_PaymentProcessor_PaymentStrategy"><path codeLine="32" d="M513.5,104.164 C513.5,123.882 513.5,140.195 513.5,157.772 " fill="none" id="PaymentProcessor-to-PaymentStrategy" style="stroke:#181818;stroke-width:1.0;"/><polygon fill="#181818" points="513.5,163.772,517.5,154.772,513.5,158.772,509.5,154.772,513.5,163.772" style="stroke:#181818;stroke-width:1.0;"/><text fill="#000000" font-family="sans-serif" font-size="13" lengthAdjust="spacing" textLength="8" x="504.9625" y="123.7942">1</text><text fill="#000000" font-family="sans-serif" font-size="13" lengthAdjust="spacing" textLength="8" x="504.7125" y="153.0013">1</text></g><!--SRC=[fL512i8m4Bpd5KjF5Md1Qn4FzWE5-e4btKgn9cKJXQ3-tQfH8RGLQYvxcDd9x4oZB76Dag10ToHbIyjeQU_W8g1_I-XOIpB6m_4YWxDkAd4JGhPe3EHCLMDpv6gkGWyKsCxTtg8wx1YLgOddt-0wg-M9cPHqVzpn08eNJRDVJC1ufImCsGiRiW4GZwwyV_rbAJnYVKtJyQw6wOF535CdMXYpCX7vn_utosWLGP9idZDWtm40]--></g></svg>