<svg xmlns="http://www.w3.org/2000/svg" xmlns:xlink="http://www.w3.org/1999/xlink" contentStyleType="text/css" height="284px" preserveAspectRatio="none" style="width:389px;height:284px;background:#FFFFFF;" version="1.1" viewBox="0 0 389 284" width="389px" zoomAndPan="magnify"><defs/><g><!--class AbstractClass--><g id="elem_AbstractClass"><rect codeLine="1" fill="#F1F1F1" height="113.1875" id="AbstractClass" rx="2.5" ry="2.5" style="stroke:#181818;stroke-width:0.5;" width="248" x="70" y="7"/><ellipse cx="142.75" cy="23" fill="#A9DCDF" rx="11" ry="11" style="stroke:#181818;stroke-width:1.0;"/><path d="M142.8594,18.3438 L141.7031,23.4219 L144.0313,23.4219 L142.8594,18.3438 Z M141.375,16.1094 L144.3594,16.1094 L147.7188,28.5 L145.2656,28.5 L144.5,25.4375 L141.2188,25.4375 L140.4688,28.5 L138.0313,28.5 L141.375,16.1094 Z " fill="#000000"/><text fill="#000000" font-family="sans-serif" font-size="14" font-style="italic" lengthAdjust="spacing" textLength="94" x="163.25" y="27.8467">AbstractClass</text><line style="stroke:#181818;stroke-width:0.5;" x1="71" x2="317" y1="39" y2="39"/><line style="stroke:#181818;stroke-width:0.5;" x1="71" x2="317" y1="47" y2="47"/><ellipse cx="81" cy="60.6484" fill="#84BE84" rx="3" ry="3" style="stroke:#038048;stroke-width:1.0;"/><text fill="#000000" font-family="sans-serif" font-size="14" lengthAdjust="spacing" textLength="124" x="90" y="63.9951">templateMethod()</text><ellipse cx="81" cy="76.9453" fill="#84BE84" rx="3" ry="3" style="stroke:#038048;stroke-width:1.0;"/><text fill="#000000" font-family="sans-serif" font-size="14" lengthAdjust="spacing" textLength="144" x="90" y="80.292">primitiveOperation1()</text><ellipse cx="81" cy="93.2422" fill="#84BE84" rx="3" ry="3" style="stroke:#038048;stroke-width:1.0;"/><text fill="#000000" font-family="sans-serif" font-size="14" font-style="italic" lengthAdjust="spacing" textLength="222" x="90" y="96.5889">&#171;abstract&#187; primitiveOperation2()</text><ellipse cx="81" cy="109.5391" fill="#84BE84" rx="3" ry="3" style="stroke:#038048;stroke-width:1.0;"/><text fill="#000000" font-family="sans-serif" font-size="14" font-style="italic" lengthAdjust="spacing" textLength="218" x="90" y="112.8857">&#171;abstract&#187;primitiveOperation3()</text></g><!--class ConcreteClass1--><g id="elem_ConcreteClass1"><rect codeLine="8" fill="#F1F1F1" height="80.5938" id="ConcreteClass1" rx="2.5" ry="2.5" style="stroke:#181818;stroke-width:0.5;" width="170" x="7" y="188.34"/><ellipse cx="34.6" cy="204.34" fill="#ADD1B2" rx="11" ry="11" style="stroke:#181818;stroke-width:1.0;"/><path d="M37.5688,209.9806 Q36.9906,210.2775 36.35,210.4181 Q35.7094,210.5744 35.0063,210.5744 Q32.5063,210.5744 31.1781,208.9337 Q29.8656,207.2775 29.8656,204.1525 Q29.8656,201.0275 31.1781,199.3712 Q32.5063,197.715 35.0063,197.715 Q35.7094,197.715 36.35,197.8712 Q37.0063,198.0275 37.5688,198.3244 L37.5688,201.0431 Q36.9438,200.465 36.35,200.1994 Q35.7563,199.9181 35.1313,199.9181 Q33.7875,199.9181 33.1,200.9962 Q32.4125,202.0587 32.4125,204.1525 Q32.4125,206.2462 33.1,207.3244 Q33.7875,208.3869 35.1313,208.3869 Q35.7563,208.3869 36.35,208.1212 Q36.9438,207.84 37.5688,207.2619 L37.5688,209.9806 Z " fill="#000000"/><text fill="#000000" font-family="sans-serif" font-size="14" lengthAdjust="spacing" textLength="110" x="51.4" y="209.1867">ConcreteClass1</text><line style="stroke:#181818;stroke-width:0.5;" x1="8" x2="176" y1="220.34" y2="220.34"/><line style="stroke:#181818;stroke-width:0.5;" x1="8" x2="176" y1="228.34" y2="228.34"/><ellipse cx="18" cy="241.9884" fill="#84BE84" rx="3" ry="3" style="stroke:#038048;stroke-width:1.0;"/><text fill="#000000" font-family="sans-serif" font-size="14" lengthAdjust="spacing" textLength="144" x="27" y="245.3351">primitiveOperation2()</text><ellipse cx="18" cy="258.2853" fill="#84BE84" rx="3" ry="3" style="stroke:#038048;stroke-width:1.0;"/><text fill="#000000" font-family="sans-serif" font-size="14" lengthAdjust="spacing" textLength="144" x="27" y="261.632">primitiveOperation3()</text></g><!--class ConcreteClass2--><g id="elem_ConcreteClass2"><rect codeLine="13" fill="#F1F1F1" height="96.8906" id="ConcreteClass2" rx="2.5" ry="2.5" style="stroke:#181818;stroke-width:0.5;" width="170" x="212" y="180.19"/><ellipse cx="239.6" cy="196.19" fill="#ADD1B2" rx="11" ry="11" style="stroke:#181818;stroke-width:1.0;"/><path d="M242.5688,201.8306 Q241.9906,202.1275 241.35,202.2681 Q240.7094,202.4244 240.0063,202.4244 Q237.5063,202.4244 236.1781,200.7838 Q234.8656,199.1275 234.8656,196.0025 Q234.8656,192.8775 236.1781,191.2213 Q237.5063,189.565 240.0063,189.565 Q240.7094,189.565 241.35,189.7213 Q242.0063,189.8775 242.5688,190.1744 L242.5688,192.8931 Q241.9438,192.315 241.35,192.0494 Q240.7563,191.7681 240.1313,191.7681 Q238.7875,191.7681 238.1,192.8463 Q237.4125,193.9088 237.4125,196.0025 Q237.4125,198.0963 238.1,199.1744 Q238.7875,200.2369 240.1313,200.2369 Q240.7563,200.2369 241.35,199.9713 Q241.9438,199.69 242.5688,199.1119 L242.5688,201.8306 Z " fill="#000000"/><text fill="#000000" font-family="sans-serif" font-size="14" lengthAdjust="spacing" textLength="110" x="256.4" y="201.0367">ConcreteClass2</text><line style="stroke:#181818;stroke-width:0.5;" x1="213" x2="381" y1="212.19" y2="212.19"/><line style="stroke:#181818;stroke-width:0.5;" x1="213" x2="381" y1="220.19" y2="220.19"/><ellipse cx="223" cy="233.8384" fill="#84BE84" rx="3" ry="3" style="stroke:#038048;stroke-width:1.0;"/><text fill="#000000" font-family="sans-serif" font-size="14" lengthAdjust="spacing" textLength="144" x="232" y="237.1851">primitiveOperation1()</text><ellipse cx="223" cy="250.1353" fill="#84BE84" rx="3" ry="3" style="stroke:#038048;stroke-width:1.0;"/><text fill="#000000" font-family="sans-serif" font-size="14" lengthAdjust="spacing" textLength="144" x="232" y="253.482">primitiveOperation2()</text><ellipse cx="223" cy="266.4322" fill="#84BE84" rx="3" ry="3" style="stroke:#038048;stroke-width:1.0;"/><text fill="#000000" font-family="sans-serif" font-size="14" lengthAdjust="spacing" textLength="144" x="232" y="269.7789">primitiveOperation3()</text></g><!--reverse link AbstractClass to ConcreteClass1--><g id="link_AbstractClass_ConcreteClass1"><path d="M149.632,135.509 C135.722,157.739 129.57,167.58 116.85,187.91 " fill="none" id="AbstractClass-backto-ConcreteClass1" style="stroke:#181818;stroke-width:1.0;"/><polygon fill="none" points="159.18,120.25,144.5457,132.3263,154.7183,138.6916,159.18,120.25" style="stroke:#181818;stroke-width:1.0;"/></g><!--reverse link AbstractClass to ConcreteClass2--><g id="link_AbstractClass_ConcreteClass2"><path d="M238.7754,135.4666 C251.0154,154.8366 255.01,161.17 266.81,179.84 " fill="none" id="AbstractClass-backto-ConcreteClass2" style="stroke:#181818;stroke-width:1.0;"/><polygon fill="none" points="229.16,120.25,233.7032,138.6717,243.8476,132.2614,229.16,120.25" style="stroke:#181818;stroke-width:1.0;"/></g><!--SRC=[IqmgBYbAJ2vHS8God7CIYuiLghaK5BGLIb9p2t8IIr9zKqioybCqDC621KMPkPabcMMf_WMfHOabcVbvXb2PwaIe6RKADZOmjfqT5Xr6-7LWQZ06QgZbuae6EyuvFo-vABKa5UnKGuNKYfBKl9HYh3x0RJKfTXYHQ8SXJZi8s0u0]--></g></svg>